<svg xmlns="http://www.w3.org/2000/svg" viewBox="0 0 309.24 446.5"><g id="aa5be55f-4425-4cb9-881f-5b865e73034c" data-name="Warstwa 2"><g id="f66aefca-4196-4031-af8d-1b5a323f29d1" data-name="Warstwa 1"><path d="M202.46,28.08c-.54,1.18-1.07,2.36-1.59,3.55A38.83,38.83,0,0,1,202.46,28.08Z" fill="none" stroke="#1d160f" stroke-linejoin="round" stroke-width="2.86"/><path d="M17,167.32A137.35,137.35,0,0,0,56.42,54.46a67.83,67.83,0,0,1,12.42-1.13A68.79,68.79,0,1,1,17,167.33Z" fill="none" stroke="#1d160f" stroke-linejoin="round" stroke-width="2.86"/><path d="M112.16,103.77A68.8,68.8,0,0,1,17,167.32,137.35,137.35,0,0,0,56.42,54.46a67.83,67.83,0,0,1,12.42-1.13A68.59,68.59,0,0,1,95.2,58.55,68.47,68.47,0,0,1,112.16,103.77Z" fill="none" stroke="#1d160f" stroke-linejoin="round" stroke-width="2.86"/><path d="M76.14,130.4a11.23,11.23,0,1,1-.88-4.39A11.25,11.25,0,0,1,76.14,130.4Z" fill="none" stroke="#1d160f" stroke-linejoin="round" stroke-width="2.86"/><path d="M.06,122.11C-1.13,94.55,16.48,67.73,42,57.31c35.14-15.08,77.32,2.46,91,38.21a67.61,67.61,0,0,1,4.59,26.59C137.21,85.67,105.21,54,68.84,54.76,32.47,54,.46,85.67.06,122.11Z" fill="#1d160f"/><path d="M38.1,0c20.81,32.08,26,73.38,14.69,109.83A130.28,130.28,0,0,1,17,167.33C59.38,122.4,68,54,38.1,0Z" fill="#1d160f"/><path d="M145.28,250.84a82.39,82.39,0,0,0,42.45,13.38,83.06,83.06,0,0,1,76.73,57c55.73-30.65,56.63-106.29,9-140.57-49.39-36.56-130.32-5.65-131.23,68.15Z" fill="none" stroke="#1d160f" stroke-linejoin="round" stroke-width="2.86"/><path d="M213.86,166.16a329,329,0,0,0,64.29-67.25,41.15,41.15,0,0,0,7.35-27.35,330.69,330.69,0,0,0-5.8-33.33,41.43,41.43,0,0,0-6.81-15.55C255.4-2.42,215.94.41,202.46,28.08a333.61,333.61,0,0,0-29.14,155.33A85.48,85.48,0,0,1,213.86,166.16Z" fill="none" stroke="#1d160f" stroke-linejoin="round" stroke-width="2.86"/><path d="M173.32,183.41c-.54-9.2-.65-18.53-.37-27.92a83.32,83.32,0,0,1-35.48-37.94,83.67,83.67,0,0,0,32.88,68.32S172.1,184.36,173.32,183.41Z" fill="none" stroke="#1d160f" stroke-linejoin="round" stroke-width="2.86"/><path d="M303.05,276.36c-7.62,21.08-21.55,35.47-38.6,44.89a83,83,0,0,0-76.72-57,82.59,82.59,0,0,1-42.45-13.39C182.52,174.36,292.88,194.48,303.05,276.36Z" fill="none" stroke="#1d160f" stroke-linejoin="round" stroke-width="2.86"/><path d="M137.58,123.82a68.7,68.7,0,0,1-30,55.13A83,83,0,0,0,142,248.67c.08.05.15.11.23.15.33-27.24,11.57-48.63,28.11-62.95A83.69,83.69,0,0,1,137.58,123.82Z" fill="none" stroke="#1d160f" stroke-linejoin="round" stroke-width="2.86"/><path d="M105.75,376.1v45.16H94l-.73-5.33a17.93,17.93,0,0,1-31.51-12.1V376.1H75v26.1a8.34,8.34,0,0,0,8.49,8.4c5.06,0,9.21-3.7,9.21-8.4V376.1Z" fill="#1d160f"/><path d="M111.62,416.56l5.78-9.3c3,2.53,9.12,4.51,13.45,4.78s7.41-1,7.41-3.52c0-3.07-4.34-4.33-9.39-5.78-7-2-15.27-4.51-15.27-13,0-8.67,7.5-14.54,18.88-14.54,5.69,0,13.09,1.35,18.51,4.88l-6.14,8.49a24.22,24.22,0,0,0-10.39-3.8c-3.79-.45-7.67.54-7.67,3.16,0,3.07,4.78,4.16,10.11,5.87,6.78,2.08,14.36,5.06,14.36,13.91s-7,14.45-18.06,14.45C125,422.16,116.58,420.35,111.62,416.56Z" fill="#1d160f"/><path d="M253.76,392.72v28.54H240.57V394.34c0-4.6-3.43-7.67-8.39-7.67-5.15,0-9.22,3.7-9.22,8.4v26.19H209.78V376.1h11.83l.72,5.24a18.3,18.3,0,0,1,13.73-6.14C246.63,375.2,253.76,382.06,253.76,392.72Z" fill="#1d160f"/><path d="M260.29,398.68c0-13.18,9.85-23.48,23.57-23.48s23.57,10.3,23.57,23.48a23.06,23.06,0,0,1-23.57,23.48C270.14,422.16,260.29,411.77,260.29,398.68Zm34.14,0c0-6.68-4.34-12-10.57-12-6.41,0-10.56,5.33-10.56,12s4.15,11.92,10.56,11.92C290.09,410.6,294.43,405.36,294.43,398.68Z" fill="#1d160f"/><path d="M154.86,398.64a24,24,0,0,0,3.16,12,22.87,22.87,0,0,0,13,10.76,18,18,0,0,0,9.06.19c3.93-1.26,6.71-2.7,9.46-5.75l.72,5.33H202V376.06H190.17l-.26,1.85-.46,3.39c-3.18-3.52-8-6.1-12.52-6.1a21.65,21.65,0,0,0-16.58,8A23.58,23.58,0,0,0,154.86,398.64Zm13,0c0-6.69,4.34-12,10.57-12l.59,0c5.31.28,9,4.29,9.8,9.61a15.63,15.63,0,0,1,.18,2.39,15.18,15.18,0,0,1-.18,2.37c-.87,5.51-4.76,9.55-10.39,9.55a9.85,9.85,0,0,1-7.23-3A12.64,12.64,0,0,1,167.86,398.64Zm3.16,22.8a18,18,0,0,0,9.06.19,18.53,18.53,0,0,0,9.46-5.75" fill="#1d160f"/><path d="M31,427.44a28.7,28.7,0,0,0-11.2,1.81l3.9-7.74a25,25,0,0,0,5.76.65,23.07,23.07,0,0,0,20.43-11.48,24,24,0,0,0,3.14-12,24.62,24.62,0,0,0-1.78-9.28h0c-.24-.6-.51-1.18-.8-1.74l5.66-11.32-14.36-4-2.37,4.86a23.52,23.52,0,0,0-4.75-1.51,26.17,26.17,0,0,0-5.16-.51c-9.1,0-16.5,4.53-20.45,11.43a24.75,24.75,0,0,0-.4,23.31,22.28,22.28,0,0,0,2.59,3.91L.43,435,10,444.6c5.59-2.71,9.93-4.06,16.52-4.06,6.18,0,10.08,2.14,12.57,6H56.42C52.36,434,42.88,427.44,31,427.44Zm9-28.76c0,6.68-4.34,11.92-10.57,11.92h-.27c-5.28-.12-9-3.83-10-8.95a15,15,0,0,1-.28-3c0-6.18,3.55-11.2,9.15-11.92a10.89,10.89,0,0,1,1.41-.09,10.29,10.29,0,0,1,9.73,7.14A14.22,14.22,0,0,1,40,398.68Z" fill="#1d160f"/></g></g></svg>