<svg xmlns="http://www.w3.org/2000/svg" viewBox="0 0 875.94 656.88"><g id="e3f7cc6b-4426-491a-931d-060c6a9b2845" data-name="Warstwa 2"><g id="f90123ac-f330-4955-bf89-16198a3257f0" data-name="Warstwa 1"><rect width="875.94" height="656.88" fill="#fff"/><path d="M613.73,389.65l-9.93-72.74a8.57,8.57,0,0,1,1-1.2,10.27,10.27,0,0,1,6.48-2.83,10.25,10.25,0,0,1-6.48-2.81,10.09,10.09,0,0,1-2.62-5l-.2-1.5-5.06-37c-1-7.08,5.87-10.94,5.87-10.94l-3.55-3.55H534.08l-3.55,3.55s6.83,3.86,5.87,10.94l-5.06,37-.2,1.49a10,10,0,0,1-2.62,5,10.23,10.23,0,0,1-6.48,2.81,10.25,10.25,0,0,1,6.48,2.83,8.57,8.57,0,0,1,1,1.2l-9.93,72.74c-1,7.31-7.24,7.24-7.24,7.24v7.25H555.8v-7.25s-6.66-.06-5.93-5.42l2.48-18.21,30.2,11.54.91,6.67c.74,5.36-5.93,5.42-5.93,5.42v7.25H621v-7.25S614.73,397,613.73,389.65Zm-57.14-47.46,10.08-73.82,11.17,81.89Z" fill="none" stroke="#1d160f" stroke-miterlimit="10" stroke-width="1.54"/><path d="M239,389.65l-9.93-72.74a9.22,9.22,0,0,1,1-1.2,10.29,10.29,0,0,1,6.49-2.83,10.27,10.27,0,0,1-6.49-2.81,10.09,10.09,0,0,1-2.62-5l-.2-1.5-5-37c-1-7.08,5.86-10.94,5.86-10.94l-3.55-3.55H159.38l-3.54,3.55s6.83,3.86,5.86,10.94l-5,37-.21,1.49a10,10,0,0,1-2.61,5,10.27,10.27,0,0,1-6.49,2.81,10.29,10.29,0,0,1,6.49,2.83,9.22,9.22,0,0,1,1,1.2l-9.93,72.74c-1,7.31-7.24,7.24-7.24,7.24v7.25h43.45v-7.25s-6.67-.06-5.94-5.42l2.49-18.21,30.2,11.54.91,6.67c.73,5.36-5.94,5.42-5.94,5.42v7.25h43.45v-7.25S240,397,239,389.65ZM181.9,342.19,192,268.37l11.18,81.89Z" fill="none" stroke="#1d160f" stroke-miterlimit="10" stroke-width="1.54"/><path d="M494.69,389.65v-67.5a9.67,9.67,0,0,1,9.3-9.27,10.25,10.25,0,0,1-6.48-2.81,10.37,10.37,0,0,1-2.82-6.45V268.37c0-5.43,9-12.75,9-12.75l-3.55-3.55H456.67l-3.55,3.55s9,7.32,9,12.75L436.76,315l-25.35-46.64c0-5.43,9-12.75,9-12.75l-3.55-3.55H373.4l-3.55,3.55s9,7.32,9,12.75v35.41a9.63,9.63,0,0,1-9.3,9.1,9.67,9.67,0,0,1,9.3,9.11v67.66c0,8.12-7.24,7.24-7.24,7.24v7.25h48.87v-7.25s-7.24.88-7.24-7.24V334.5l23.54,43.32L460.3,334.5v55.15c0,8.12-7.24,7.24-7.24,7.24v7.25h48.87v-7.25S494.69,397.77,494.69,389.65Z" fill="none" stroke="#1d160f" stroke-miterlimit="10" stroke-width="1.54"/><path d="M730,362.57s-7.31,9-12.74,9h-46V321.69a9.63,9.63,0,0,1,9.27-8.8,9.63,9.63,0,0,1-9.27-8.81V268.37c0-5.44,9-12.75,9-12.75l-3.55-3.55H633.21l-3.55,3.55s9,7.31,9,12.75v35.25a9.65,9.65,0,0,1-9.31,9.27,10.25,10.25,0,0,1,6.49,2.82,10.42,10.42,0,0,1,2.82,6.44v67.5c0,8.12-7.25,7.24-7.25,7.24v7.25H733.53v-38Z" fill="none" stroke="#1d160f" stroke-miterlimit="10" stroke-width="1.54"/><path d="M354.68,310.07a10.36,10.36,0,0,1-2.82-6.49V268.37c0-5.44,9-12.75,9-12.75l-3.55-3.55H313.84l-3.55,3.55s9,7.31,9,12.75v35.45a9.63,9.63,0,0,1-9.29,9.07,9.61,9.61,0,0,1,9.29,9.08V339c0,3.69.88,30-18.83,30-19.07-.07-17.24-22.61-17.24-22.61.64-7.5,9-12.74,9-12.74l-3.55-3.55H245.19l-3.55,3.55s9,7.31,9,12.74l0,7.74a50.62,50.62,0,0,0,101.23,0l0-15.22V322.19a10.36,10.36,0,0,1,2.82-6.49,10.23,10.23,0,0,1,6.48-2.81A10.27,10.27,0,0,1,354.68,310.07Z" fill="none" stroke="#1d160f" stroke-miterlimit="10" stroke-width="1.54"/><path d="M583.43,399.76a9.13,9.13,0,0,0,2.47-2,8.45,8.45,0,0,0,1.9-6.9l-.91-6.68a4.39,4.39,0,0,0-2.77-3.5l-30.2-11.54a4.48,4.48,0,0,0-1.57-.28,4.33,4.33,0,0,0-2.23.61,4.38,4.38,0,0,0-2.11,3.17l-2.48,18.21a8.46,8.46,0,0,0,1.9,6.91,9.13,9.13,0,0,0,2.47,2h-32c2.77-1.54,5.39-4.45,6.08-9.51l9.93-72.75a4.42,4.42,0,0,0-.75-3.1,13,13,0,0,0-1.23-1.51,14.5,14.5,0,0,0,3.54-6.91c0-.11,0-.21.05-.31l5.26-38.52a14.38,14.38,0,0,0-2.87-10.7h57.59a14.34,14.34,0,0,0-2.86,10.7l5.25,38.51a1.91,1.91,0,0,0,.06.33,14.44,14.44,0,0,0,3.53,6.9,14,14,0,0,0-1.22,1.5,4.41,4.41,0,0,0-.75,3.11l9.92,72.75c.7,5.06,3.32,8,6.07,9.51ZM566.67,260.9a4.37,4.37,0,0,0-4.34,3.78L552.25,341.6a4.39,4.39,0,0,0,2.79,4.69l21.25,8.06a4.38,4.38,0,0,0,5.89-4.69l-11.17-85A4.38,4.38,0,0,0,566.67,260.9Z" fill="none" stroke="#1d160f" stroke-miterlimit="10" stroke-width="0.39"/><path d="M208.74,399.76a8.94,8.94,0,0,0,2.46-2,8.48,8.48,0,0,0,1.91-6.9l-.91-6.68a4.4,4.4,0,0,0-2.78-3.5l-30.2-11.54a4.47,4.47,0,0,0-1.56-.28,4.36,4.36,0,0,0-4.34,3.78l-2.49,18.21a8.46,8.46,0,0,0,1.91,6.91,8.94,8.94,0,0,0,2.46,2h-32c2.77-1.54,5.39-4.45,6.08-9.51l9.93-72.75a4.37,4.37,0,0,0-.75-3.1,13,13,0,0,0-1.23-1.51,14.5,14.5,0,0,0,3.54-6.91c0-.11,0-.21.05-.31L166,267.15a14.34,14.34,0,0,0-2.87-10.7h57.6a14.34,14.34,0,0,0-2.87,10.7l5.25,38.51.06.33a14.47,14.47,0,0,0,3.54,6.9,12.93,12.93,0,0,0-1.23,1.5,4.41,4.41,0,0,0-.75,3.11l9.93,72.75c.69,5.06,3.31,8,6.07,9.51ZM192,260.9a4.38,4.38,0,0,0-4.34,3.78L177.56,341.6a4.39,4.39,0,0,0,2.78,4.69l21.25,8.06a4.42,4.42,0,0,0,1.55.28,4.37,4.37,0,0,0,4.34-5l-11.17-85A4.38,4.38,0,0,0,192,260.9Z" fill="none" stroke="#1d160f" stroke-miterlimit="10" stroke-width="0.39"/><path d="M459.52,399.76c3-1.76,5.16-5.06,5.16-10.11V334.5a4.39,4.39,0,0,0-3.3-4.25,4.43,4.43,0,0,0-1.08-.13,4.38,4.38,0,0,0-3.85,2.29l-19.69,36.24-19.7-36.24a4.37,4.37,0,0,0-3.84-2.29,4.43,4.43,0,0,0-1.08.13,4.39,4.39,0,0,0-3.3,4.25v55.15c0,5.49,2.49,8.34,4.58,9.76.18.12.36.24.55.35H378.05c3-1.76,5.16-5.06,5.16-10.11V322c0-.11,0-.22,0-.32a14.79,14.79,0,0,0-3.81-8.78,14.86,14.86,0,0,0,3.81-8.79c0-.1,0-.21,0-.32V268.37c0-4.3-3.19-8.74-6.12-11.92h36.06c-2.93,3.18-6.12,7.62-6.12,11.92a4.5,4.5,0,0,0,.53,2.09l25.35,46.64a4.37,4.37,0,0,0,7.69,0L466,270.46a4.38,4.38,0,0,0,.53-2.09c0-4.3-3.19-8.74-6.11-11.92h36.06c-2.93,3.18-6.12,7.62-6.12,11.92V303.8a14.88,14.88,0,0,0,3.83,9.09,14.86,14.86,0,0,0-3.83,9.08v67.68c0,5.05,2.18,8.35,5.16,10.11Z" fill="none" stroke="#1d160f" stroke-miterlimit="10" stroke-width="0.39"/><path d="M637.87,399.76c3-1.76,5.16-5.06,5.16-10.11,0,0,0-67.62,0-67.68a14.84,14.84,0,0,0-3.83-9.08A14.88,14.88,0,0,0,643,303.8c0-.06,0-35.43,0-35.43,0-4.3-3.19-8.74-6.12-11.92H673c-2.93,3.18-6.12,7.62-6.12,11.92v35.71a3.91,3.91,0,0,0,0,.49,14.55,14.55,0,0,0,3.77,8.32,14.51,14.51,0,0,0-3.77,8.31,4,4,0,0,0,0,.49v49.86a4.38,4.38,0,0,0,4.38,4.38h46c4.3,0,8.74-3.19,11.91-6.12v29.95Z" fill="none" stroke="#1d160f" stroke-miterlimit="10" stroke-width="0.39"/><path d="M301.21,400.43A46.29,46.29,0,0,1,255,354.19l0-7.73c0-4.3-3.19-8.75-6.12-11.93h35.59c-2.59,2.78-5.21,6.72-5.63,11.54,0,.56-1,13.17,6.34,21.13,3.78,4.12,8.91,6.22,15.26,6.24a20,20,0,0,0,14.76-5.84c5.7-5.73,8.54-15.19,8.46-28.12V322c0-.11,0-.22,0-.33a14.66,14.66,0,0,0-3.81-8.76,14.56,14.56,0,0,0,3.81-8.72c0-.11,0-.23,0-.34V268.37c0-4.3-3.19-8.74-6.12-11.92h36.06c-2.92,3.18-6.11,7.62-6.11,11.92v35.21a14.69,14.69,0,0,0,3.83,9.3,14.72,14.72,0,0,0-3.83,9.23V339l0,15.21A46.3,46.3,0,0,1,301.21,400.43Z" fill="none" stroke="#1d160f" stroke-miterlimit="10" stroke-width="0.39"/><polygon points="191.97 360.11 192.98 361.96 194.82 362.96 192.98 363.97 191.97 365.82 190.96 363.97 189.12 362.96 190.96 361.96 191.97 360.11" fill="#1d160f"/><polygon points="566.67 360.11 567.67 361.96 569.52 362.96 567.67 363.97 566.67 365.82 565.66 363.97 563.81 362.96 565.66 361.96 566.67 360.11" fill="#1d160f"/><line x1="334.97" y1="352.84" x2="334.97" y2="320.21" fill="#1d160f"/><path d="M334.91,352.84l-.24-8.16-.18-8.16c-.07-2.71-.2-5.43-.12-8.15s.21-5.44.54-8.16H335c.34,2.72.47,5.44.55,8.16s-.06,5.44-.12,8.15l-.18,8.16-.25,8.16Z" fill="#1d160f"/><line x1="334.97" y1="278.45" x2="334.97" y2="311.08" fill="#1d160f"/><path d="M335,278.45l.25,8.16.18,8.15c.06,2.72.2,5.44.12,8.16s-.21,5.44-.55,8.16h-.12c-.33-2.72-.46-5.44-.54-8.16s.05-5.44.12-8.16l.18-8.15.24-8.16Z" fill="#1d160f"/><polygon points="332.12 315.64 333.97 314.63 334.97 312.79 335.98 314.63 337.83 315.64 335.98 316.65 334.97 318.5 333.97 316.65 332.12 315.64" fill="#1d160f"/><line x1="480.32" y1="352.84" x2="480.32" y2="320.21" fill="#1d160f"/><path d="M480.26,352.84l-.24-8.16-.18-8.16c-.07-2.71-.2-5.43-.12-8.15s.21-5.44.54-8.16h.12c.33,2.72.46,5.44.55,8.16s-.06,5.44-.13,8.15l-.18,8.16-.24,8.16Z" fill="#1d160f"/><line x1="480.32" y1="278.45" x2="480.32" y2="311.08" fill="#1d160f"/><path d="M480.38,278.45l.24,8.16.18,8.15c.07,2.72.21,5.44.13,8.16s-.22,5.44-.55,8.16h-.12c-.33-2.72-.46-5.44-.54-8.16s0-5.44.12-8.16l.18-8.15.24-8.16Z" fill="#1d160f"/><polygon points="477.47 315.64 479.31 314.63 480.32 312.79 481.33 314.63 483.18 315.64 481.33 316.65 480.32 318.5 479.31 316.65 477.47 315.64" fill="#1d160f"/><line x1="655.88" y1="352.84" x2="655.88" y2="320.21" fill="#1d160f"/><path d="M655.82,352.84l-.24-8.16-.18-8.16c-.07-2.71-.2-5.43-.12-8.15s.21-5.44.54-8.16h.12c.33,2.72.46,5.44.54,8.16s-.05,5.44-.12,8.15l-.18,8.16-.24,8.16Z" fill="#1d160f"/><line x1="655.88" y1="278.45" x2="655.88" y2="311.08" fill="#1d160f"/><path d="M655.94,278.45l.24,8.16.18,8.15c.07,2.72.2,5.44.12,8.16s-.21,5.44-.54,8.16h-.12c-.33-2.72-.46-5.44-.54-8.16s.05-5.44.12-8.16l.18-8.15.24-8.16Z" fill="#1d160f"/><polygon points="653.03 315.64 654.87 314.63 655.88 312.79 656.89 314.63 658.73 315.64 656.89 316.65 655.88 318.5 654.87 316.65 653.03 315.64" fill="#1d160f"/><line x1="218.78" y1="352.5" x2="214.4" y2="320.17" fill="#1d160f"/><path d="M218.84,352.49l-.86-8.11-.91-8.11c-.3-2.7-.54-5.42-1-8.1s-.94-5.36-1.63-8l-.12,0c0,2.74.27,5.45.55,8.15s.79,5.39,1.22,8.07l1.27,8.06,1.34,8.05Z" fill="#1d160f"/><line x1="208.79" y1="278.79" x2="213.17" y2="311.12" fill="#1d160f"/><path d="M208.72,278.79l.86,8.12.92,8.11c.3,2.7.53,5.41,1,8.1s.95,5.36,1.64,8l.12,0c0-2.74-.28-5.45-.56-8.16s-.78-5.38-1.21-8.06l-1.28-8.06-1.33-8.05Z" fill="#1d160f"/><polygon points="216.61 315.26 214.65 314.51 213.4 312.82 212.65 314.78 210.96 316.03 212.92 316.78 214.17 318.47 214.92 316.51 216.61 315.26" fill="#1d160f"/><line x1="595.4" y1="352.5" x2="591.01" y2="320.17" fill="#1d160f"/><path d="M595.45,352.49l-.85-8.11-.92-8.11c-.3-2.7-.53-5.42-1-8.1s-1-5.36-1.64-8l-.12,0c0,2.74.28,5.45.56,8.15s.78,5.39,1.21,8.07l1.28,8.06,1.33,8.05Z" fill="#1d160f"/><line x1="585.4" y1="278.79" x2="589.78" y2="311.12" fill="#1d160f"/><path d="M585.34,278.79l.86,8.12.91,8.11c.3,2.7.54,5.41,1,8.1s.94,5.36,1.63,8l.12,0c0-2.74-.27-5.45-.55-8.16s-.79-5.38-1.22-8.06l-1.28-8.06-1.33-8.05Z" fill="#1d160f"/><polygon points="593.22 315.26 591.26 314.51 590.01 312.82 589.26 314.78 587.57 316.03 589.53 316.78 590.78 318.47 591.53 316.51 593.22 315.26" fill="#1d160f"/></g></g></svg>