<svg xmlns="http://www.w3.org/2000/svg" viewBox="0 0 623.12 495.29"><g id="a0bf485a-e9f9-45c7-8bd8-418cac127baa" data-name="Warstwa 2"><g id="b65960e3-5e10-447c-832c-ac3287dce445" data-name="Warstwa 1"><path d="M186.29,128.63c-.32-.5-.65-1-1-1.48a31.51,31.51,0,1,0-49,39.53s0,0,0,0a32.07,32.07,0,0,0,6.85,5.68l.15.08a81.79,81.79,0,0,0,48.92,16.11c22.93,0,41.78-3,56.75-18.11C222.25,169.45,200.61,149.3,186.29,128.63Z" fill="#deda07" stroke="#1b181c" stroke-miterlimit="10" stroke-width="16.75"/><path d="M196.32,248.51c-.61.08-1.24.13-1.86.15-10.21.51-21-3.87-28.87-12.69-13-14.56-12.91-35.76.09-47.33a29.67,29.67,0,0,1,21.87-7.23s0,0,.06,0a35.56,35.56,0,0,1,9.34,2l.17.07a99.16,99.16,0,0,1,48.45,30.24c17.07,19.19,28.88,37,28.73,59.54C253.59,251.48,222.42,246.77,196.32,248.51Z" fill="#deda07" stroke="#1b181c" stroke-miterlimit="10" stroke-width="17.73"/><path d="M414.42,124.83c.27-.53.55-1.06.86-1.57A31.51,31.51,0,1,1,467.73,158s0,0,0,.05a32,32,0,0,1-6.29,6.29l-.14.1a81.86,81.86,0,0,1-47.19,20.62c-22.83,2.15-41.88.94-58.2-12.71C382.45,168.85,402.1,146.76,414.42,124.83Z" fill="#deda07" stroke="#1b181c" stroke-miterlimit="10" stroke-width="16.75"/><path d="M402.5,251.61c.63,0,1.28,0,1.93-.09,10.6-.82,21.52-6.85,29.08-17.14,12.48-17,11.08-39.26-3.13-49.69-6.65-4.88-14.93-6.3-23.11-4.71,0,0,0,0-.07,0a38.31,38.31,0,0,0-9.54,3.29l-.18.1c-18.08,7.29-35.09,20.25-48.23,38.16-16.45,22.41-27.53,42.63-25.93,66.32C343.37,262.3,375.35,253.23,402.5,251.61Z" fill="#deda07" stroke="#1b181c" stroke-miterlimit="10" stroke-width="16.75"/><path d="M395.22,175.54c0,6-.25,12-.73,17.93-.4,4.79-.94,9.55-1.65,14.26a208.84,208.84,0,0,1-4.11,20.56q-2,8.07-4.65,15.9a206.41,206.41,0,0,1-8.62,21.71c-2.77,6.06-5.85,11.94-9.16,17.66-2.15,3.72-4.44,7.39-6.8,11s-5,7.33-7.69,10.85a206.57,206.57,0,0,1-15.56,18.43A212.44,212.44,0,0,1,315,343.53q-5.57,4.5-11.46,8.65c-2.49-.58-4.94-1.21-7.37-1.92a131.27,131.27,0,0,1-18.57-7A133,133,0,0,1,243,320.12c-3-2.74-5.86-5.65-8.6-8.69A131.62,131.62,0,0,1,225.16,300c-1-1.37-1.91-2.73-2.83-4.11A134.88,134.88,0,0,1,205.56,260a133.07,133.07,0,0,1-4.38-20.82,135.42,135.42,0,0,1-1.05-13.92c0-1.07,0-2.14,0-3.21a131,131,0,0,1,.88-15.16q.69-6.31,2-12.46a129.07,129.07,0,0,1,4.57-16.37,126.13,126.13,0,0,1,4.75-11.73c.69-1.53,1.42-3.06,2.18-4.57,1.76-3.47,3.41-7,4.9-10.63a152,152,0,0,0,7.41-22.35A133.12,133.12,0,0,1,266.92,62a55.87,55.87,0,0,1,68.5-5A133.9,133.9,0,0,1,373,94.54a132,132,0,0,1,19.71,47.89.41.41,0,0,1,0,.21c0,.25.09.48.11.74.88,5.84,1.53,11.79,1.9,17.77q.35,5.28.44,10.62v0c0,.84,0,1.68,0,2.52C395.22,174.7,395.22,175.12,395.22,175.54Z" fill="#deda07" stroke="#1b181c" stroke-miterlimit="10" stroke-width="4.19"/><circle cx="237.89" cy="10.54" r="7.44" fill="#1b181c"/><path d="M285.11,51s20.71-16.37-5-40.4c-21.53-20.14-42.24-.09-42.24-.09" fill="none" stroke="#1b181c" stroke-miterlimit="10" stroke-width="3.31"/><circle cx="377.89" cy="24.93" r="7.44" fill="#1b181c"/><path d="M321.41,51S306,29.61,337.22,13.49C363.42,0,377.89,24.93,377.89,24.93" fill="none" stroke="#1b181c" stroke-miterlimit="10" stroke-width="3.31"/><path d="M392.84,143.38a206.32,206.32,0,0,1-95.18,23.14,206.11,206.11,0,0,1-78.3-15.35c-1.49,3.6-3.14,7.16-4.9,10.63-.76,1.51-1.49,3-2.18,4.57a222.82,222.82,0,0,0,85.38,16.9,222.76,222.76,0,0,0,97.08-22.12C394.37,155.17,393.72,149.22,392.84,143.38Z" fill="#1b181c"/><path d="M395.2,174.31a206,206,0,0,1-97.54,24.39,206.52,206.52,0,0,1-90.13-20.6A129.07,129.07,0,0,0,203,194.47a222.84,222.84,0,0,0,94.7,21,223,223,0,0,0,96.83-22c.48-5.91.73-11.9.73-17.93C395.22,175.12,395.22,174.7,395.2,174.31Z" fill="#1b181c"/><path d="M297.66,230.87A206.14,206.14,0,0,1,201,206.93a131,131,0,0,0-.88,15.16c0,1.07,0,2.14,0,3.21a224.22,224.22,0,0,0,188.6,3,208.84,208.84,0,0,0,4.11-20.56A206.32,206.32,0,0,1,297.66,230.87Z" fill="#1b181c"/><path d="M297.66,263.06a206,206,0,0,1-96.48-23.84A133.07,133.07,0,0,0,205.56,260a224.46,224.46,0,0,0,169.9,5.86,206.41,206.41,0,0,0,8.62-21.71A206.41,206.41,0,0,1,297.66,263.06Z" fill="#1b181c"/><path d="M297.66,295.24a206.39,206.39,0,0,1-85.94-18.64,130.51,130.51,0,0,0,10.61,19.27c.92,1.38,1.87,2.74,2.83,4.11a224.71,224.71,0,0,0,126.65,5.4q4-5.28,7.69-10.85c2.36-3.58,4.65-7.25,6.8-11A205.94,205.94,0,0,1,297.66,295.24Z" fill="#1b181c"/><path d="M297.66,327.43A206.09,206.09,0,0,1,243,320.12a133,133,0,0,0,34.56,23.16q9.92.92,20.08.9c5.82,0,11.6-.23,17.32-.65a212.44,212.44,0,0,0,21.27-19.72A206.17,206.17,0,0,1,297.66,327.43Z" fill="#1b181c"/><path d="M293.71,63.28A11.76,11.76,0,0,0,292,62.7c-7.6-1.9-15.74,4.5-18.19,14.29s1.72,19.28,9.32,21.18a11.83,11.83,0,0,0,7.26-.58c5-2,9.26-7.06,10.93-13.72C303.62,74.83,300.23,66.06,293.71,63.28Z" fill="#1b181c"/><path d="M324.15,68.12a11.11,11.11,0,0,0-1.64-.16c-7.34-.1-13.62,7-14.05,15.85S313.64,99.92,321,100a11.84,11.84,0,0,0,6.57-2c4.19-2.69,7.19-7.89,7.48-13.9C335.41,76,330.65,69.19,324.15,68.12Z" fill="#1b181c"/><path d="M319,121a33.72,33.72,0,0,1-4.37.22,27.49,27.49,0,0,1-9-1.52c17.74,19.92,24.48,25.3,28.37,20.43,2.75-3.45,4.08-12,6.86-24.25.59-2.59,1.24-5.32,2-8.22C334.51,116.94,325.85,120.17,319,121Z" fill="#1b181c"/><path d="M105.85,437.66a44.58,44.58,0,0,1-11.14,31.9Q83,483.06,64.13,490.32q-13.48,5.22-23.72,5a49,49,0,0,1-19.94-4.86q-8.89-4.29-13.39-15.23a90.41,90.41,0,0,1-5.93-25.67A251.7,251.7,0,0,1,.07,419.2q.36-15.58,1.18-29.29,1.32-20.25.3-29.14A14.44,14.44,0,0,1,3.6,350.64a14.84,14.84,0,0,1,8.28-6.24H12a14.71,14.71,0,0,1,11.81,1.69,14.19,14.19,0,0,1,6.6,10,1.13,1.13,0,0,1,.1.51.91.91,0,0,1,.1.41q5.22-17.79,15.65-25.77l.1-.1c.41-.27.85-.58,1.33-.92h.1l.11-.1V330H48a.09.09,0,0,0,.1-.1h.2q8.49-5.11,16.67-4a27.26,27.26,0,0,1,14.32,6.23,27.64,27.64,0,0,1,8.59,12.43q4.19,12.67-2.2,26.94T60.55,395.94a62.07,62.07,0,0,1,31.09,15.34Q104.53,423.15,105.85,437.66ZM61.68,479.38A44,44,0,0,0,73.75,463q4.48-10.12,4.39-23.72A56.85,56.85,0,0,0,76.76,427a38.06,38.06,0,0,0-6.13-14Q66,406.27,56.57,402.28q-3.18-1.12-6-1.84h-.2a.29.29,0,0,0-.21-.1A9.21,9.21,0,0,1,49,400l-1.53-.31a3,3,0,0,1-2.2-1.73,3.41,3.41,0,0,1-.05-2.66,3.07,3.07,0,0,1,2-1.84L48.8,393A26.67,26.67,0,0,0,62,382.14a39.78,39.78,0,0,0,5.77-16,34.92,34.92,0,0,0-.92-15.08A24.17,24.17,0,0,0,61,340.93a9.71,9.71,0,0,0-8.64-3q-4.76.76-9.46,8.23-8.28,14.63-9.3,40.9.11,4.92-.61,17.18t-1.13,27.1a244.44,244.44,0,0,0,.72,27.81q1.13,12.89,4.91,19.12,4,6.45,9.61,7.37T61.68,479.38Z" fill="#1b181c"/><path d="M218.69,434.49a2.91,2.91,0,0,1,1.74,1.23,3,3,0,0,1,.51,2c0,.27-.73,2.7-2.2,7.26a111.59,111.59,0,0,1-6.7,15.8,57.39,57.39,0,0,1-11.5,15.7,24.76,24.76,0,0,1-16.62,7.15q-12-1.32-16.46-12t-4.4-24.95Q151.51,474.57,138.93,482a12.56,12.56,0,0,1-5.93,1.63,7.53,7.53,0,0,1-2.14-.3q-11.57-2.06-15.65-9.41a31.2,31.2,0,0,1-3.89-16.16,69.56,69.56,0,0,1,1-11.09q.91-5.16,1.74-8.44c.13-.68.27-1.26.4-1.74a81.85,81.85,0,0,1,10.13-25.87q4.8-6.84,15.54-9.25T158.87,403h.1a6.17,6.17,0,0,1,1.13.71,28.5,28.5,0,0,1,7.26,7,37.17,37.17,0,0,1,6.13-13.9q4.2-5.62,10.54-5.11a13.72,13.72,0,0,1,9.15,5.26A14,14,0,0,1,196,407q-1,9.21-2.15,21.48T192.31,451q-.41,10.23.61,13.4,2.25,4.9,5.52,3t6.6-7.61a99.45,99.45,0,0,0,5.93-12,63,63,0,0,0,3.43-10.07,4.31,4.31,0,0,1,1.48-2.71A2.82,2.82,0,0,1,218.69,434.49ZM164.6,422c.13-1.15.27-2.28.41-3.37q-.51-.72-1.38-2c-.58-.89-1.16-1.74-1.74-2.56a15.63,15.63,0,0,0-1.28-1.64q-4.5-4.5-8.64-.87t-7.52,12a101.29,101.29,0,0,0-5.31,18.3,65.48,65.48,0,0,0-1.23,12.48q0,8.07,1.74,12.47t4.8,1.33a92.24,92.24,0,0,0,11.1-18.56,129,129,0,0,0,8.95-27.66Z" fill="#1b181c"/><path d="M351.11,435.41a4.24,4.24,0,0,1,2.3,1.58,3.27,3.27,0,0,1,.56,2.71q-9,47.87-30.67,47.86a1,1,0,0,1-.41-.1h-.52a11.86,11.86,0,0,1-6.54-2.15q-5.73-4-8.38-12.68A60.67,60.67,0,0,1,305,453.51a77.43,77.43,0,0,1,2.86-19.74q.31-.91.72-2.25,1.13-3.78,2.56-8.84c.95-3.37,1.75-6.6,2.4-9.66a23.88,23.88,0,0,0,.72-6.91c-.18-1.53-1-1.75-2.51-.66-.61.61-1.23,1.3-1.84,2Q300,420.69,292.26,442T282.6,478c-.48,3.06-1.21,5.23-2.2,6.49a4.47,4.47,0,0,1-3.22,2,5.15,5.15,0,0,1-3-.61h-.1v-.1l-.61-.41q-5.83-4-8.49-12.68a61,61,0,0,1-2.45-19.12,74.06,74.06,0,0,1,3-19.74c.14-.61.34-1.36.62-2.25l2.6-8.84c1-3.37,1.79-6.6,2.41-9.66a24.82,24.82,0,0,0,.66-6.91c-.17-1.53-1-1.75-2.5-.66q-.82,1-1.74,2-7.36,8.81-13.4,25.36-4.39,12.48-7.46,22.5-3.59,11.65-9.21,27.2a23,23,0,0,1-2.7,6c-1,1.43-2.14,1.91-3.43,1.43q-7.26-3.17-11.25-13.34t-5.32-25.21a97.29,97.29,0,0,1-.05-17.58,135.77,135.77,0,0,1,3-19.84,59.24,59.24,0,0,1,5.88-16.21q3.68-6.49,8.79-6.7a10.26,10.26,0,0,1,5.17,2.05,17,17,0,0,1,5.36,6,16.2,16.2,0,0,1,1.74,9.61l.21-.1q-1.23,18-1.54,33.34,1.74-5.43,4-11.66,6.35-17.49,14.32-27.25t15.95-9.77h.1c.75.07,1.5.17,2.25.31a16.62,16.62,0,0,1,2.56.82,20.58,20.58,0,0,1,9.81,7.92,29.63,29.63,0,0,1,4.3,12.22q11.44-21.27,23.41-21.27h.11a20,20,0,0,1,2.14.31h.1a18.19,18.19,0,0,1,2.46.82,20.72,20.72,0,0,1,11.66,11,38.32,38.32,0,0,1,2.81,17.18,79,79,0,0,1-3.43,19.33q-1,3.57-2.5,9.86t-2.51,12.53a44,44,0,0,0-.77,9.66c.17,2.29,1,2.71,2.61,1.28q8.9-9.7,14.11-37a3.57,3.57,0,0,1,1.54-2.36A3.9,3.9,0,0,1,351.11,435.41Z" fill="#1b181c"/><path d="M473.26,437.66a44.63,44.63,0,0,1-11.15,31.9q-11.76,13.5-30.57,20.76-13.5,5.22-23.73,5a49,49,0,0,1-19.94-4.86q-8.89-4.29-13.39-15.23a90.41,90.41,0,0,1-5.93-25.67,253.78,253.78,0,0,1-1.08-30.32q.36-15.58,1.18-29.29,1.34-20.25.31-29.14a14.38,14.38,0,0,1,2-10.13,14.83,14.83,0,0,1,8.29-6.24h.1a14.72,14.72,0,0,1,11.81,1.69,14.18,14.18,0,0,1,6.59,10,1.13,1.13,0,0,1,.11.51,1.07,1.07,0,0,1,.1.41q5.21-17.79,15.64-25.77l.1-.1c.41-.27.86-.58,1.33-.92h.11l.1-.1V330h.1a.09.09,0,0,0,.1-.1h.21q8.47-5.11,16.66-4a27.22,27.22,0,0,1,14.32,6.23,27.64,27.64,0,0,1,8.59,12.43q4.19,12.67-2.2,26.94T428,395.94A62.08,62.08,0,0,1,459,411.28Q471.92,423.15,473.26,437.66Zm-44.18,41.72A43.78,43.78,0,0,0,441.15,463q4.5-10.12,4.4-23.72A57.57,57.57,0,0,0,444.16,427,38.06,38.06,0,0,0,438,413q-4.65-6.75-14.06-10.74c-2.11-.75-4.13-1.36-6-1.84h-.21a.28.28,0,0,0-.2-.1,9.32,9.32,0,0,1-1.13-.31l-1.53-.31a3,3,0,0,1-2.2-1.73,3.41,3.41,0,0,1-.05-2.66,3.07,3.07,0,0,1,2-1.84l1.54-.51a26.63,26.63,0,0,0,13.24-10.84,39.8,39.8,0,0,0,5.78-16,35.08,35.08,0,0,0-.92-15.08,24.27,24.27,0,0,0-5.93-10.12,9.71,9.71,0,0,0-8.64-3q-4.75.76-9.46,8.23Q402,360.77,401,387q.1,4.92-.61,17.18t-1.13,27.1a244.44,244.44,0,0,0,.72,27.81q1.13,12.89,4.91,19.12,4,6.45,9.61,7.37T429.08,479.38Z" fill="#1b181c"/><path d="M552.61,435.41a3.53,3.53,0,0,1,1.94,1.69,3.14,3.14,0,0,1,.2,2.5,114.58,114.58,0,0,1-9.86,21.27,64.7,64.7,0,0,1-14.78,17.79H530a34.18,34.18,0,0,1-4.5,3q-12.27,6.84-21.88,4.55a26.62,26.62,0,0,1-15.75-10.84,48.55,48.55,0,0,1-8.18-20.45,62.85,62.85,0,0,1,.72-24.39q3.78-15,12.47-25.05A54.2,54.2,0,0,1,512,390.88q10.38-4.54,19.17-3.32a1.07,1.07,0,0,0,.41.1h.11a.29.29,0,0,1,.2.1h.31a14,14,0,0,1,8.38,5.32q4.71,6.44-.3,17.07a46.54,46.54,0,0,1-11.92,14.68,54.36,54.36,0,0,1-19,10.27,15.71,15.71,0,0,0-.3,1.64A77,77,0,0,0,507.77,460q1.17,10.53,6.08,14.47t13.71-3.22a64.46,64.46,0,0,0,11.55-15A104.68,104.68,0,0,0,547.49,438a4.12,4.12,0,0,1,2-2.25A4.32,4.32,0,0,1,552.61,435.41ZM533.69,407q2.25-6.33-1.38-5.26t-9.56,7.67a63.9,63.9,0,0,0-10.53,16.92,46.46,46.46,0,0,0,13.65-9.05A37.93,37.93,0,0,0,533.69,407Z" fill="#1b181c"/><path d="M620.81,435.41a3.49,3.49,0,0,1,1.94,1.69,3.19,3.19,0,0,1,.21,2.5,115.3,115.3,0,0,1-9.87,21.27,64.7,64.7,0,0,1-14.78,17.79h-.1a34.18,34.18,0,0,1-4.5,3q-12.27,6.84-21.88,4.55a26.62,26.62,0,0,1-15.75-10.84,48.68,48.68,0,0,1-8.18-20.45,62.85,62.85,0,0,1,.72-24.39q3.78-15,12.47-25.05a54.2,54.2,0,0,1,19.07-14.57q10.38-4.54,19.18-3.32a1,1,0,0,0,.41.1h.1a.28.28,0,0,1,.2.1h.31a14,14,0,0,1,8.38,5.32q4.71,6.44-.3,17.07a46.37,46.37,0,0,1-11.91,14.68,54.54,54.54,0,0,1-19,10.27,13.51,13.51,0,0,0-.31,1.64A77.3,77.3,0,0,0,576,460q1.18,10.53,6.09,14.47t13.7-3.22a64.19,64.19,0,0,0,11.55-15A105.48,105.48,0,0,0,615.7,438a4.11,4.11,0,0,1,2-2.25A4.32,4.32,0,0,1,620.81,435.41ZM601.89,407q2.25-6.33-1.38-5.26T591,409.39a64.16,64.16,0,0,0-10.53,16.92,46.46,46.46,0,0,0,13.65-9.05A37.73,37.73,0,0,0,601.89,407Z" fill="#1b181c"/></g></g></svg>