<svg xmlns="http://www.w3.org/2000/svg" viewBox="0 0 606.79 551.29"><g id="bd85f849-d033-4eef-8175-838ad172aead" data-name="Warstwa 2"><g id="b726467c-d01b-4284-a1e3-be6e4257e35c" data-name="Warstwa 1"><path d="M260.89,444c-.15-.24-.31-.48-.48-.71A15,15,0,1,0,237,462.2s0,0,0,0a15.27,15.27,0,0,0,3.27,2.71l.07,0a39.08,39.08,0,0,0,23.36,7.69c10.95,0,19.95-1.43,27.1-8.65C278.06,463.52,267.73,453.9,260.89,444Z" fill="none" stroke="#1d160f" stroke-miterlimit="10" stroke-width="0.96"/><path d="M265.67,501.28c-.29,0-.59.06-.88.07A17.53,17.53,0,0,1,251,495.29c-6.18-7-6.17-17.08,0-22.6a14.19,14.19,0,0,1,10.45-3.46h0a17.25,17.25,0,0,1,4.46.94l.08,0a47.34,47.34,0,0,1,23.13,14.44c8.16,9.17,13.79,17.65,13.72,28.43C293,502.69,278.14,500.44,265.67,501.28Z" fill="none" stroke="#1d160f" stroke-miterlimit="10" stroke-width="0.96"/><path d="M369.82,442.22q.19-.39.42-.75a15,15,0,1,1,25,16.6l0,0a14.75,14.75,0,0,1-3,3l-.06,0A39.11,39.11,0,0,1,369.66,471c-10.9,1-20,.45-27.79-6.07C354.56,463.23,363.94,452.68,369.82,442.22Z" fill="none" stroke="#1d160f" stroke-miterlimit="10" stroke-width="0.96"/><path d="M364.13,502.76c.3,0,.61,0,.92-.05a19.51,19.51,0,0,0,13.89-8.18c6-8.13,5.29-18.75-1.49-23.73a13.93,13.93,0,0,0-11-2.25h0a18.15,18.15,0,0,0-4.56,1.57l-.08,0a53.78,53.78,0,0,0-23,18.23c-7.85,10.7-13.14,20.35-12.38,31.67C335.9,507.86,351.17,503.53,364.13,502.76Z" fill="none" stroke="#1d160f" stroke-miterlimit="10" stroke-width="0.96"/><path d="M360.66,466.43c0,2.88-.12,5.74-.35,8.56q-.29,3.43-.79,6.81a99.74,99.74,0,0,1-2,9.82q-1,3.86-2.22,7.59a98.13,98.13,0,0,1-4.12,10.37c-1.32,2.89-2.79,5.7-4.37,8.43-1,1.78-2.12,3.53-3.25,5.24s-2.39,3.5-3.67,5.18a98.76,98.76,0,0,1-7.43,8.8,101.82,101.82,0,0,1-10.16,9.42c-1.77,1.43-3.6,2.81-5.47,4.13-1.19-.28-2.36-.58-3.52-.92A63.6,63.6,0,0,1,288,535.47c-1.43-1.31-2.8-2.7-4.11-4.15a62.52,62.52,0,0,1-4.42-5.47c-.46-.65-.91-1.3-1.35-2a64.14,64.14,0,0,1-8-17.11,63.69,63.69,0,0,1-2.59-16.59c0-.51,0-1,0-1.53a61.87,61.87,0,0,1,.42-7.24c.22-2,.54-4,1-5.95a62.34,62.34,0,0,1,2.18-7.82c.67-1.91,1.42-3.78,2.27-5.6.33-.73.68-1.46,1-2.18.84-1.66,1.63-3.36,2.34-5.08a72.9,72.9,0,0,0,3.54-10.67,63.62,63.62,0,0,1,19.17-31.92,26.68,26.68,0,0,1,32.71-2.38A64,64,0,0,1,350,427.75a63.11,63.11,0,0,1,9.41,22.87.18.18,0,0,1,0,.1c0,.12,0,.23,0,.35.42,2.79.73,5.63.91,8.49q.17,2.52.21,5.07h0c0,.4,0,.8,0,1.2C360.66,466,360.66,466.23,360.66,466.43Z" fill="none" stroke="#1d160f" stroke-miterlimit="10" stroke-width="0.96"/><circle cx="285.52" cy="387.64" r="3.55" fill="none" stroke="#1d160f" stroke-miterlimit="10" stroke-width="0.96"/><path d="M308.08,407s9.89-7.81-2.38-19.29c-10.28-9.62-20.18,0-20.18,0" fill="none" stroke="#1d160f" stroke-miterlimit="10" stroke-width="0.96"/><circle cx="352.38" cy="394.51" r="3.55" fill="none" stroke="#1d160f" stroke-miterlimit="10" stroke-width="0.96"/><path d="M325.41,407S318,396.75,333,389.05c12.51-6.45,19.42,5.46,19.42,5.46" fill="none" stroke="#1d160f" stroke-miterlimit="10" stroke-width="0.96"/><path d="M359.52,451.07a99,99,0,0,1-82.84,3.72c-.71,1.72-1.5,3.42-2.34,5.08-.36.72-.71,1.45-1,2.18a107,107,0,0,0,87.13-2.49C360.25,456.7,359.94,453.86,359.52,451.07Z" fill="none" stroke="#1d160f" stroke-miterlimit="10" stroke-width="0.96"/><path d="M360.65,465.84A99,99,0,0,1,271,467.65a62.34,62.34,0,0,0-2.18,7.82,107.06,107.06,0,0,0,91.46-.48c.23-2.82.35-5.68.35-8.56C360.66,466.23,360.66,466,360.65,465.84Z" fill="none" stroke="#1d160f" stroke-miterlimit="10" stroke-width="0.96"/><path d="M314.07,492.85a98.44,98.44,0,0,1-46.17-11.43,61.87,61.87,0,0,0-.42,7.24c0,.51,0,1,0,1.53a107.06,107.06,0,0,0,90.06,1.43,99.74,99.74,0,0,0,2-9.82A98.49,98.49,0,0,1,314.07,492.85Z" fill="none" stroke="#1d160f" stroke-miterlimit="10" stroke-width="0.96"/><path d="M314.07,508.22A98.39,98.39,0,0,1,268,496.84a63.76,63.76,0,0,0,2.09,9.94,107.2,107.2,0,0,0,81.13,2.8,98.13,98.13,0,0,0,4.12-10.37A98.54,98.54,0,0,1,314.07,508.22Z" fill="none" stroke="#1d160f" stroke-miterlimit="10" stroke-width="0.96"/><path d="M314.07,523.59a98.6,98.6,0,0,1-41-8.9,62.71,62.71,0,0,0,5.07,9.2c.44.66.89,1.31,1.35,2a107.32,107.32,0,0,0,60.48,2.58q1.92-2.52,3.67-5.18c1.13-1.71,2.22-3.46,3.25-5.24A98.36,98.36,0,0,1,314.07,523.59Z" fill="none" stroke="#1d160f" stroke-miterlimit="10" stroke-width="0.96"/><path d="M314.07,539A98.48,98.48,0,0,1,288,535.47a63.53,63.53,0,0,0,16.5,11.06q4.74.44,9.59.43c2.78,0,5.54-.11,8.27-.31a101.82,101.82,0,0,0,10.16-9.42A98.18,98.18,0,0,1,314.07,539Z" fill="none" stroke="#1d160f" stroke-miterlimit="10" stroke-width="0.96"/><path d="M312.18,412.82a5.37,5.37,0,0,0-.8-.27c-3.62-.91-7.51,2.15-8.68,6.82s.82,9.21,4.45,10.11a5.66,5.66,0,0,0,3.47-.27,9.37,9.37,0,0,0,5.21-6.55C316.91,418.34,315.29,414.15,312.18,412.82Z" fill="none" stroke="#1d160f" stroke-miterlimit="10" stroke-width="0.96"/><path d="M326.72,415.13a5.16,5.16,0,0,0-.79-.07c-3.5-.05-6.5,3.34-6.7,7.57s2.47,7.69,6,7.74a5.76,5.76,0,0,0,3.14-.93,8.37,8.37,0,0,0,3.57-6.64C332.09,418.89,329.82,415.64,326.72,415.13Z" fill="none" stroke="#1d160f" stroke-miterlimit="10" stroke-width="0.96"/><path d="M324.25,440.38a15.43,15.43,0,0,1-2.09.11,13.22,13.22,0,0,1-4.29-.73c8.46,9.51,11.68,12.08,13.54,9.76,1.31-1.65,1.95-5.75,3.28-11.58.28-1.24.59-2.54.94-3.93C331.67,438.45,327.53,440,324.25,440.38Z" fill="none" stroke="#1d160f" stroke-miterlimit="10" stroke-width="0.96"/><path d="M450.35,188.5c-.15-.24-.31-.48-.48-.71a15,15,0,1,0-23.38,18.88l0,0a15.27,15.27,0,0,0,3.27,2.71l.07,0a39.08,39.08,0,0,0,23.36,7.69c11,0,20-1.43,27.1-8.65C467.52,208,457.19,198.37,450.35,188.5Z" fill="none" stroke="#1d160f" stroke-miterlimit="10" stroke-width="0.96"/><path d="M455.14,245.75c-.29,0-.59.06-.89.07a17.51,17.51,0,0,1-13.78-6.06c-6.19-7-6.17-17.08,0-22.6A14.15,14.15,0,0,1,451,213.7s0,0,0,0a17.25,17.25,0,0,1,4.46.94l.08,0a47.42,47.42,0,0,1,23.14,14.44c8.15,9.17,13.79,17.65,13.72,28.43C482.49,247.16,467.6,244.91,455.14,245.75Z" fill="none" stroke="#1d160f" stroke-miterlimit="10" stroke-width="0.96"/><path d="M559.29,186.69a8,8,0,0,1,.41-.76,15.05,15.05,0,1,1,25,16.61l0,0a15.55,15.55,0,0,1-3,3l-.07,0a39.08,39.08,0,0,1-22.54,9.85c-10.9,1-20,.45-27.79-6.07C544,207.7,553.4,197.15,559.29,186.69Z" fill="none" stroke="#1d160f" stroke-miterlimit="10" stroke-width="0.96"/><path d="M553.59,247.23c.31,0,.62,0,.93,0A19.51,19.51,0,0,0,568.4,239c6-8.13,5.29-18.75-1.49-23.73a13.93,13.93,0,0,0-11-2.25h0a18.15,18.15,0,0,0-4.56,1.57l-.08,0a53.69,53.69,0,0,0-23,18.23c-7.86,10.7-13.15,20.35-12.38,31.67C525.36,252.33,540.63,248,553.59,247.23Z" fill="none" stroke="#1d160f" stroke-miterlimit="10" stroke-width="0.96"/><path d="M550.12,210.9c0,2.88-.12,5.74-.35,8.56q-.28,3.43-.79,6.81a99.74,99.74,0,0,1-2,9.82q-1,3.85-2.22,7.59a98.13,98.13,0,0,1-4.12,10.37c-1.32,2.89-2.79,5.7-4.37,8.43-1,1.78-2.12,3.53-3.25,5.24s-2.39,3.5-3.67,5.18a98.76,98.76,0,0,1-7.43,8.8,101.82,101.82,0,0,1-10.16,9.42c-1.77,1.43-3.6,2.81-5.47,4.13-1.19-.28-2.36-.58-3.52-.92a63.6,63.6,0,0,1-25.37-14.39c-1.43-1.31-2.8-2.7-4.11-4.15a62.52,62.52,0,0,1-4.42-5.47c-.46-.65-.91-1.3-1.35-2a64.14,64.14,0,0,1-8-17.11A63.69,63.69,0,0,1,457,234.66c0-.51,0-1,0-1.53a61.87,61.87,0,0,1,.42-7.24c.22-2,.54-4,.95-5.95a62.34,62.34,0,0,1,2.18-7.82c.67-1.91,1.42-3.78,2.27-5.6.33-.73.68-1.46,1-2.18.84-1.66,1.63-3.36,2.34-5.08a72.9,72.9,0,0,0,3.54-10.67,63.62,63.62,0,0,1,19.17-31.92,26.68,26.68,0,0,1,32.71-2.38,64,64,0,0,1,17.94,17.93,63.11,63.11,0,0,1,9.41,22.87.18.18,0,0,1,0,.1c0,.12,0,.23.05.35.42,2.79.73,5.63.91,8.49q.17,2.52.21,5.07h0c0,.4,0,.8,0,1.2C550.12,210.5,550.12,210.7,550.12,210.9Z" fill="none" stroke="#1d160f" stroke-miterlimit="10" stroke-width="0.96"/><path d="M549,195.54a99,99,0,0,1-82.84,3.72c-.71,1.72-1.5,3.42-2.34,5.08-.36.72-.71,1.45-1,2.18A107,107,0,0,0,549.89,204C549.71,201.17,549.4,198.33,549,195.54Z" fill="none" stroke="#1d160f" stroke-miterlimit="10" stroke-width="0.96"/><path d="M550.11,210.31a99,99,0,0,1-89.62,1.81,62.34,62.34,0,0,0-2.18,7.82,107.06,107.06,0,0,0,91.46-.48c.23-2.82.35-5.68.35-8.56C550.12,210.7,550.12,210.5,550.11,210.31Z" fill="none" stroke="#1d160f" stroke-miterlimit="10" stroke-width="0.96"/><path d="M503.53,237.32a98.44,98.44,0,0,1-46.17-11.43,61.87,61.87,0,0,0-.42,7.24c0,.51,0,1,0,1.53A107.06,107.06,0,0,0,547,236.09a99.74,99.74,0,0,0,2-9.82A98.49,98.49,0,0,1,503.53,237.32Z" fill="none" stroke="#1d160f" stroke-miterlimit="10" stroke-width="0.96"/><path d="M503.53,252.69a98.39,98.39,0,0,1-46.07-11.38,63.76,63.76,0,0,0,2.09,9.94,107.2,107.2,0,0,0,81.13,2.8,98.13,98.13,0,0,0,4.12-10.37A98.54,98.54,0,0,1,503.53,252.69Z" fill="none" stroke="#1d160f" stroke-miterlimit="10" stroke-width="0.96"/><path d="M503.53,268.06a98.6,98.6,0,0,1-41-8.9,62.71,62.71,0,0,0,5.07,9.2c.44.66.89,1.31,1.35,2a107.32,107.32,0,0,0,60.48,2.58q1.92-2.52,3.67-5.18c1.13-1.71,2.22-3.46,3.25-5.24A98.36,98.36,0,0,1,503.53,268.06Z" fill="none" stroke="#1d160f" stroke-miterlimit="10" stroke-width="0.96"/><path d="M503.53,283.43a98.48,98.48,0,0,1-26.09-3.49A63.53,63.53,0,0,0,493.94,291q4.74.44,9.59.43c2.78,0,5.54-.11,8.27-.31A101.82,101.82,0,0,0,522,281.7,98.18,98.18,0,0,1,503.53,283.43Z" fill="none" stroke="#1d160f" stroke-miterlimit="10" stroke-width="0.96"/><circle cx="484.94" cy="166.09" r="39.39" fill="none" stroke="#1d160f" stroke-miterlimit="10" stroke-width="0.25"/><circle cx="455.4" cy="177.74" r="39.39" fill="none" stroke="#1d160f" stroke-miterlimit="10" stroke-width="0.25"/><circle cx="446.98" cy="210.9" r="103.14" fill="none" stroke="#1d160f" stroke-miterlimit="10" stroke-width="0.25"/><circle cx="502.96" cy="103.26" r="103.14" fill="none" stroke="#1d160f" stroke-miterlimit="10" stroke-width="0.25"/><circle cx="503.53" cy="111.45" r="103.14" fill="none" stroke="#1d160f" stroke-miterlimit="10" stroke-width="0.25"/><circle cx="502.96" cy="118.23" r="103.14" fill="none" stroke="#1d160f" stroke-miterlimit="10" stroke-width="0.25"/><circle cx="502.96" cy="126.82" r="103.14" fill="none" stroke="#1d160f" stroke-miterlimit="10" stroke-width="0.25"/><circle cx="502.96" cy="134.21" r="103.14" fill="none" stroke="#1d160f" stroke-miterlimit="10" stroke-width="0.25"/><circle cx="502.96" cy="142.18" r="103.14" fill="none" stroke="#1d160f" stroke-miterlimit="10" stroke-width="0.25"/><circle cx="502.96" cy="149.45" r="103.14" fill="none" stroke="#1d160f" stroke-miterlimit="10" stroke-width="0.25"/><circle cx="502.96" cy="157.55" r="103.14" fill="none" stroke="#1d160f" stroke-miterlimit="10" stroke-width="0.25"/><circle cx="502.96" cy="164.6" r="103.14" fill="none" stroke="#1d160f" stroke-miterlimit="10" stroke-width="0.25"/><circle cx="502.96" cy="172.92" r="103.14" fill="none" stroke="#1d160f" stroke-miterlimit="10" stroke-width="0.25"/><circle cx="502.96" cy="180.24" r="103.14" fill="none" stroke="#1d160f" stroke-miterlimit="10" stroke-width="0.25"/><circle cx="502.96" cy="188.29" r="103.14" fill="none" stroke="#1d160f" stroke-miterlimit="10" stroke-width="0.25"/><circle cx="531.54" cy="204" r="63.74" fill="none" stroke="#1d160f" stroke-miterlimit="10" stroke-width="0.25"/><circle cx="486.38" cy="207.45" r="63.74" fill="none" stroke="#1d160f" stroke-miterlimit="10" stroke-width="0.25"/><circle cx="520.68" cy="233.13" r="63.74" fill="none" stroke="#1d160f" stroke-miterlimit="10" stroke-width="0.25"/><circle cx="548.05" cy="314.98" r="39.39" fill="none" stroke="#1d160f" stroke-miterlimit="10" stroke-width="0.25"/><circle cx="469.26" cy="314.98" r="39.39" fill="none" stroke="#1d160f" stroke-miterlimit="10" stroke-width="0.25"/><circle cx="439.84" cy="196.57" r="15.04" fill="none" stroke="#1d160f" stroke-miterlimit="10" stroke-width="0.25"/><path d="M550.12,207.45c0,.55,0,1.1,0,1.65a102.74,102.74,0,0,0-1.17-13.91A63.55,63.55,0,0,1,550.12,207.45Z" fill="none" stroke="#1d160f" stroke-miterlimit="10" stroke-width="0.25"/><path d="M550.12,210.9c0,2.88-.12,5.74-.35,8.56q-.28,3.43-.79,6.81a99.74,99.74,0,0,1-2,9.82q-1,3.85-2.22,7.59a98.13,98.13,0,0,1-4.12,10.37c-1.32,2.89-2.79,5.7-4.37,8.43-1,1.78-2.12,3.53-3.25,5.24s-2.39,3.5-3.67,5.18a98.76,98.76,0,0,1-7.43,8.8,101.82,101.82,0,0,1-10.16,9.42c-1.77,1.43-3.6,2.81-5.47,4.13-1.19-.28-2.36-.58-3.52-.92a63.6,63.6,0,0,1-25.37-14.39c-1.43-1.31-2.8-2.7-4.11-4.15a62.52,62.52,0,0,1-4.42-5.47c-.46-.65-.91-1.3-1.35-2a64.14,64.14,0,0,1-8-17.11A63.69,63.69,0,0,1,457,234.66c0-.51,0-1,0-1.53a61.87,61.87,0,0,1,.42-7.24c.22-2,.54-4,.95-5.95a62.34,62.34,0,0,1,2.18-7.82c.67-1.91,1.42-3.78,2.27-5.6.33-.73.68-1.46,1-2.18.84-1.66,1.63-3.36,2.34-5.08a72.9,72.9,0,0,0,3.54-10.67,63.62,63.62,0,0,1,19.17-31.92,26.68,26.68,0,0,1,32.71-2.38,64,64,0,0,1,17.94,17.93,63.11,63.11,0,0,1,9.41,22.87.18.18,0,0,1,0,.1c0,.12,0,.23.05.35.42,2.79.73,5.63.91,8.49q.17,2.52.21,5.07h0c0,.4,0,.8,0,1.2C550.12,210.5,550.12,210.7,550.12,210.9Z" fill="none" stroke="#1d160f" stroke-miterlimit="10" stroke-width="0.25"/><path d="M550.12,207.45c0,.55,0,1.1,0,1.65a102.74,102.74,0,0,0-1.17-13.91A63.55,63.55,0,0,1,550.12,207.45Z" fill="none" stroke="#1d160f" stroke-miterlimit="10" stroke-width="0.25"/><path d="M550.12,207.45c0,.55,0,1.1,0,1.65a102.74,102.74,0,0,0-1.17-13.91A63.55,63.55,0,0,1,550.12,207.45Z" fill="none" stroke="#1d160f" stroke-miterlimit="10" stroke-width="0.25"/><circle cx="96.12" cy="188.98" r="15.04" fill="none" stroke="#1d160f" stroke-miterlimit="10" stroke-width="0.25"/><circle cx="141.22" cy="166.13" r="39.39" fill="none" stroke="#1d160f" stroke-miterlimit="10" stroke-width="0.25"/><circle cx="111.68" cy="177.78" r="39.39" fill="none" stroke="#1d160f" stroke-miterlimit="10" stroke-width="0.25"/><circle cx="103.26" cy="210.93" r="103.14" fill="none" stroke="#1d160f" stroke-miterlimit="10" stroke-width="0.25"/><circle cx="187.83" cy="204.04" r="63.74" fill="none" stroke="#1d160f" stroke-miterlimit="10" stroke-width="0.25"/><circle cx="142.66" cy="207.48" r="63.74" fill="none" stroke="#1d160f" stroke-miterlimit="10" stroke-width="0.25"/><circle cx="176.96" cy="233.17" r="63.74" fill="none" stroke="#1d160f" stroke-miterlimit="10" stroke-width="0.25"/><circle cx="204.33" cy="315.02" r="39.39" fill="none" stroke="#1d160f" stroke-miterlimit="10" stroke-width="0.25"/><circle cx="125.55" cy="315.02" r="39.39" fill="none" stroke="#1d160f" stroke-miterlimit="10" stroke-width="0.25"/><path d="M206.4,207.49c0,.55,0,1.1,0,1.65a102.74,102.74,0,0,0-1.17-13.91A63.55,63.55,0,0,1,206.4,207.49Z" fill="none" stroke="#1d160f" stroke-miterlimit="10" stroke-width="0.25"/><path d="M206.4,210.94c0,2.88-.12,5.74-.35,8.56q-.28,3.44-.79,6.81a99.74,99.74,0,0,1-2,9.82q-1,3.85-2.22,7.59A98.13,98.13,0,0,1,197,254.09c-1.32,2.89-2.79,5.7-4.37,8.43-1,1.78-2.12,3.53-3.25,5.24s-2.39,3.5-3.67,5.18a98.76,98.76,0,0,1-7.43,8.8,101.82,101.82,0,0,1-10.16,9.42c-1.77,1.43-3.6,2.81-5.47,4.13-1.19-.28-2.36-.58-3.52-.92A63.6,63.6,0,0,1,133.72,280c-1.43-1.31-2.8-2.7-4.11-4.15a62.52,62.52,0,0,1-4.42-5.47c-.46-.65-.91-1.3-1.35-2a64.14,64.14,0,0,1-8-17.11,63.69,63.69,0,0,1-2.59-16.59c0-.51,0-1,0-1.53a61.87,61.87,0,0,1,.42-7.24c.22-2,.54-4,1-6a62.34,62.34,0,0,1,2.18-7.82c.67-1.91,1.42-3.78,2.27-5.6.33-.73.68-1.46,1-2.18.84-1.66,1.63-3.36,2.34-5.08A72.9,72.9,0,0,0,126,188.63a63.62,63.62,0,0,1,19.17-31.92,26.68,26.68,0,0,1,32.71-2.38,64,64,0,0,1,17.94,17.93,63.11,63.11,0,0,1,9.41,22.87.18.18,0,0,1,0,.1c0,.12,0,.23,0,.35.42,2.79.73,5.63.91,8.49q.17,2.52.21,5.07h0c0,.4,0,.8,0,1.2C206.4,210.54,206.4,210.74,206.4,210.94Z" fill="none" stroke="#1d160f" stroke-miterlimit="10" stroke-width="0.25"/><path d="M206.4,207.49c0,.55,0,1.1,0,1.65a102.74,102.74,0,0,0-1.17-13.91A63.55,63.55,0,0,1,206.4,207.49Z" fill="none" stroke="#1d160f" stroke-miterlimit="10" stroke-width="0.25"/><path d="M206.4,207.49c0,.55,0,1.1,0,1.65a102.74,102.74,0,0,0-1.17-13.91A63.55,63.55,0,0,1,206.4,207.49Z" fill="none" stroke="#1d160f" stroke-miterlimit="10" stroke-width="0.25"/></g></g></svg>