<svg xmlns="http://www.w3.org/2000/svg" xmlns:xlink="http://www.w3.org/1999/xlink" viewBox="0 0 338.22 437.35"><defs><linearGradient id="e30a3b7c-db17-4ce4-aa25-a09264f49a46" x1="-2760.64" y1="128.65" x2="-2818.24" y2="188.67" gradientTransform="matrix(-1, 0, 0, 1, -2503.4, 0)" gradientUnits="userSpaceOnUse"><stop offset="0" stop-color="#fff"/><stop offset="0.08" stop-color="#fcfce6"/><stop offset="0.49" stop-color="#eceb6c"/><stop offset="0.77" stop-color="#e2e01e"/><stop offset="0.9" stop-color="#dedc00"/></linearGradient><linearGradient id="bfeaa590-3fac-431f-9455-6eefbbdf6e25" x1="230.1" y1="194.92" x2="322.12" y2="80.77" gradientUnits="userSpaceOnUse"><stop offset="0"/><stop offset="0.33" stop-color="#020100"/><stop offset="0.45" stop-color="#090500"/><stop offset="0.54" stop-color="#140c00"/><stop offset="0.6" stop-color="#251600"/><stop offset="0.66" stop-color="#3b2400"/><stop offset="0.71" stop-color="#573400"/><stop offset="0.76" stop-color="#774800"/><stop offset="0.81" stop-color="#9d5e00"/><stop offset="0.84" stop-color="#c67700"/><stop offset="0.88" stop-color="#f39200"/></linearGradient><radialGradient id="b55266b2-8dbf-4a80-a59a-a16d6d5464dc" cx="-2754.01" cy="161.29" r="46.68" gradientTransform="matrix(-0.44, -0.9, -0.85, 0.42, -819.37, -2380.98)" gradientUnits="userSpaceOnUse"><stop offset="0" stop-color="#1d1d1b"/><stop offset="0.39" stop-color="#515014" stop-opacity="0.73"/><stop offset="0.98" stop-color="#dedc00" stop-opacity="0"/></radialGradient><linearGradient id="aa6f9bfb-1709-4cfe-85ef-254cac526eb9" x1="-4773.36" y1="-857.17" x2="-4709.18" y2="-867.39" gradientTransform="matrix(-0.91, -0.41, -0.41, 0.91, -4392.41, -953.57)" gradientUnits="userSpaceOnUse"><stop offset="0" stop-color="#fff"/><stop offset="0.34" stop-color="#f2f29d" stop-opacity="0.62"/><stop offset="0.67" stop-color="#e7e649" stop-opacity="0.29"/><stop offset="0.89" stop-color="#e1df14" stop-opacity="0.08"/><stop offset="1" stop-color="#dedc00" stop-opacity="0"/></linearGradient><linearGradient id="e0c5425f-0143-49e1-bba4-4357bfc23906" x1="-2723.07" y1="215.78" x2="-2803.04" y2="254.96" gradientTransform="matrix(-1, 0, 0, 1, -2503.4, 0)" gradientUnits="userSpaceOnUse"><stop offset="0"/><stop offset="0.38" stop-color="#020100"/><stop offset="0.51" stop-color="#090500"/><stop offset="0.61" stop-color="#140c00"/><stop offset="0.69" stop-color="#251600"/><stop offset="0.75" stop-color="#3b2400"/><stop offset="0.81" stop-color="#573400"/><stop offset="0.87" stop-color="#774800"/><stop offset="0.92" stop-color="#9d5e00"/><stop offset="0.96" stop-color="#c67700"/><stop offset="1" stop-color="#f39200"/></linearGradient><radialGradient id="a265f51a-8dc7-46b8-954c-ce6f69171f16" cx="-2749.28" cy="201" r="39.73" gradientTransform="matrix(-1, 0, 0, 1.61, -2503.4, -122.23)" gradientUnits="userSpaceOnUse"><stop offset="0" stop-color="#1d1d1b"/><stop offset="0.4" stop-color="#545413" stop-opacity="0.71"/><stop offset="0.98" stop-color="#dedc00" stop-opacity="0"/></radialGradient><linearGradient id="aab8274a-c3d2-4aa9-9d85-309ac2e11f29" x1="-103.41" y1="128.65" x2="-161.01" y2="188.67" gradientTransform="translate(184.38)" xlink:href="#e30a3b7c-db17-4ce4-aa25-a09264f49a46"/><linearGradient id="a315ec20-926b-477a-b0bb-5ee334868680" x1="-2427.13" y1="194.92" x2="-2335.11" y2="80.77" gradientTransform="matrix(-1, 0, 0, 1, -2319.01, 0)" xlink:href="#bfeaa590-3fac-431f-9455-6eefbbdf6e25"/><radialGradient id="e4fbb4ea-9a34-40c8-882f-6e271808fe0e" cx="-96.78" cy="161.29" r="46.68" gradientTransform="matrix(0.44, -0.9, 0.85, 0.42, -7.5, 7.2)" xlink:href="#b55266b2-8dbf-4a80-a59a-a16d6d5464dc"/><linearGradient id="b9f8fac6-2386-4149-b9f2-fed0eac258a8" x1="-2352.73" y1="238.93" x2="-2288.56" y2="228.72" gradientTransform="translate(2073.4 -953.57) rotate(-24.36)" xlink:href="#aa6f9bfb-1709-4cfe-85ef-254cac526eb9"/><linearGradient id="a7f78bbe-97bf-4245-8842-46ae1ba21850" x1="-65.84" y1="215.78" x2="-145.81" y2="254.96" gradientTransform="translate(184.38)" xlink:href="#e0c5425f-0143-49e1-bba4-4357bfc23906"/><radialGradient id="be4f839e-b057-43fa-875c-e2c2f62cb85e" cx="-92.05" cy="201" r="39.73" gradientTransform="translate(184.38 -122.23) scale(1 1.61)" xlink:href="#a265f51a-8dc7-46b8-954c-ce6f69171f16"/><radialGradient id="b8ecd8e7-017c-48ef-9813-6a710798098b" cx="81.57" cy="117.76" fx="-81.3992604039274" fy="173.9345988938808" r="172.38" gradientTransform="matrix(1.01, -0.03, 0.05, 1.59, 8.04, -20.7)" gradientUnits="userSpaceOnUse"><stop offset="0.62" stop-color="#fff" stop-opacity="0"/><stop offset="0.69" stop-color="#fff" stop-opacity="0.01"/><stop offset="0.72" stop-color="#fff" stop-opacity="0.04"/><stop offset="0.75" stop-color="#fff" stop-opacity="0.09"/><stop offset="0.77" stop-color="#fff" stop-opacity="0.16"/><stop offset="0.79" stop-color="#fff" stop-opacity="0.25"/><stop offset="0.8" stop-color="#fff" stop-opacity="0.37"/><stop offset="0.82" stop-color="#fff" stop-opacity="0.5"/><stop offset="0.83" stop-color="#fff" stop-opacity="0.66"/><stop offset="0.84" stop-color="#fff" stop-opacity="0.84"/><stop offset="0.86" stop-color="#fff"/></radialGradient><linearGradient id="ee115fbc-d2e3-496f-8c4b-04020f085b99" x1="148.62" y1="93.39" x2="154.98" y2="62.88" gradientUnits="userSpaceOnUse"><stop offset="0" stop-color="#fff" stop-opacity="0"/><stop offset="0.13" stop-color="#d1d1d1" stop-opacity="0.2"/><stop offset="0.63" stop-color="#4c4c4b" stop-opacity="0.79"/><stop offset="1" stop-color="#1d1d1b"/></linearGradient><linearGradient id="a81ff430-cfcb-4ad0-9d32-04c1cffc2f5c" x1="-897.46" y1="1044.73" x2="-892.85" y2="1002.58" gradientTransform="matrix(0.92, -0.2, 0.19, 0.85, 815.65, -971.34)" xlink:href="#ee115fbc-d2e3-496f-8c4b-04020f085b99"/><linearGradient id="b5f36d23-5b4f-4e87-b160-d856b74782ee" x1="193.77" y1="137.36" x2="181.67" y2="113.51" xlink:href="#ee115fbc-d2e3-496f-8c4b-04020f085b99"/><linearGradient id="b18def13-6251-4b58-bc0c-91af537e2092" x1="71.55" y1="188.83" x2="259.47" y2="188.83" gradientTransform="matrix(1, 0, 0, 1, 0, 0)" xlink:href="#e0c5425f-0143-49e1-bba4-4357bfc23906"/><linearGradient id="edc88a7a-f007-42a9-89a3-7b1ce0506771" x1="239.81" y1="97.74" x2="-62.27" y2="117.18" gradientUnits="userSpaceOnUse"><stop offset="0.27" stop-color="#fff" stop-opacity="0"/><stop offset="0.43" stop-color="#5f5f5d" stop-opacity="0.71"/><stop offset="0.54" stop-color="#1d1d1b"/></linearGradient><radialGradient id="a80b07b2-6aa6-4717-a2c0-eee1afb9ecee" cx="158.67" cy="237.46" fx="131.77510824219252" r="160.07" gradientTransform="translate(366.98 629.91) rotate(172.96) scale(1 1.75)" gradientUnits="userSpaceOnUse"><stop offset="0.35" stop-color="#fff" stop-opacity="0"/><stop offset="0.49" stop-color="#636362" stop-opacity="0.69"/><stop offset="0.6" stop-color="#1d1d1b"/></radialGradient></defs><g style="isolation:isolate"><g id="a71ae792-568d-4053-9c11-09ce1d0f2ac4" data-name="Warstwa 2"><g id="b91c9a6b-a0d3-4f2c-8827-570674ab9835" data-name="Warstwa 1"><path d="M214.1,153.14c24.91-.95,43.78-22.85,52.87-35.92.37-.58.76-1.16,1.12-1.65a37.61,37.61,0,1,1,60.43,44.77l-.14.15-1.77,2.16-.1.11-.69.75,0,0a37.61,37.61,0,0,1-7.37,6,84.69,84.69,0,0,1-50.5,16.5c-20.72,0-42.22-2.35-59.12-19.41l-12.64-12.77Z" fill="#dedc00" stroke="#dedc00" stroke-miterlimit="10" stroke-width="3.95"/><path d="M214.1,153c24.91-.95,43.78-22.84,52.87-35.92.37-.58.76-1.16,1.12-1.65a37.65,37.65,0,1,1,60.43,44.9l-.14.15-1.77,2-.1.11-.69.75,0,0a37.61,37.61,0,0,1-7.37,6,84.69,84.69,0,0,1-50.5,16.5c-20.72,0-42.22-2.35-59.12-19.41L196.15,153.7Z" opacity="0.3" fill="url(#e30a3b7c-db17-4ce4-aa25-a09264f49a46)"/><path d="M214.1,153.14c24.91-.95,43.78-22.85,52.87-35.92.37-.58.76-1.16,1.12-1.65a37.61,37.61,0,1,1,60.43,44.77l-.14.15-1.77,2.16-.1.11-.69.75,0,0a37.61,37.61,0,0,1-7.37,6,84.69,84.69,0,0,1-50.5,16.5c-20.72,0-42.22-2.35-59.12-19.41l-12.64-12.77Z" fill="none" stroke="#f39200" stroke-miterlimit="10" stroke-width="3.95" style="mix-blend-mode:darken"/><path d="M267.91,188c-21.15,0-43.12-2.42-60.52-20L191.59,152l22.44-.85c24.08-.93,42.49-22.37,51.32-35.08.35-.55.77-1.17,1.16-1.7a39.58,39.58,0,1,1,63.58,47.14l-3,3.55a39.91,39.91,0,0,1-7.59,6.1A86.51,86.51,0,0,1,267.91,188Zm-67.19-32.34,9.48,9.57C226.58,181.74,247.62,184,267.91,184a82.81,82.81,0,0,0,49.33-16.12,36.7,36.7,0,0,0,7.12-5.74l.69-.74,2-2.43a35.31,35.31,0,0,0,7.2-21.49,35.63,35.63,0,0,0-64.57-20.79c-.36.48-.72,1-1.06,1.56-9.3,13.37-28.67,35.85-54.46,36.83Z" fill="url(#bfeaa590-3fac-431f-9455-6eefbbdf6e25)" style="mix-blend-mode:darken"/><path d="M244.62,143.28s7.57-3.8,11.51-9.74c4.34-6.52,11.62-11.25,18.17-11.18,9.82.1,18,11,12.06,43C278.11,209.72,223.76,159.84,244.62,143.28Z" fill="url(#b55266b2-8dbf-4a80-a59a-a16d6d5464dc)" style="mix-blend-mode:darken"/><path d="M211.77,196.51a101.05,101.05,0,0,1,49.16-30.79,40.7,40.7,0,0,1,10.57-2.24l.37,0,.35,0,2.67-.06h.32a35.53,35.53,0,0,1,23,8.87c15.49,13.79,15.82,38.8.73,55.77-8.67,9.75-21.17,15.23-33.4,14.61-.73,0-1.46-.08-2.17-.16-16.68-1.1-47.41.2-67.1,20.87l-13.48,14.15-.13-19.55C182.52,232.87,196.57,213.6,211.77,196.51Z" fill="#dedc00"/><path d="M211.77,196.51a101.05,101.05,0,0,1,49.16-30.79,40.7,40.7,0,0,1,10.57-2.24l.37,0,.35,0,2.67-.06h.32a35.53,35.53,0,0,1,23,8.87c15.49,13.79,15.82,38.8.73,55.77-8.67,9.75-21.17,15.23-33.4,14.61-.73,0-1.46-.08-2.17-.16-16.68-1.1-47.41.2-67.1,20.87l-13.48,14.15-.13-19.55C182.52,232.87,196.57,213.6,211.77,196.51Z" fill="#dedc00" stroke="#dedc00" stroke-miterlimit="10" stroke-width="3.95"/><path d="M308,196.21c2.12,1.15-1.49,47.4-46.31,44.18C279.14,228.67,262,171.12,308,196.21Z" opacity="0.5" fill="url(#aa6f9bfb-1709-4cfe-85ef-254cac526eb9)"/><path d="M211.77,196.51a101.05,101.05,0,0,1,49.16-30.79,40.7,40.7,0,0,1,10.57-2.24l.37,0,.35,0,2.67-.06h.32a35.53,35.53,0,0,1,23,8.87c15.49,13.79,15.82,38.8.73,55.77-8.67,9.75-21.17,15.23-33.4,14.61-.73,0-1.46-.08-2.17-.16-16.68-1.1-47.41.2-67.1,20.87l-13.48,14.15-.13-19.55C182.52,232.87,196.57,213.6,211.77,196.51Z" fill="none" stroke="#f39200" stroke-miterlimit="10" stroke-width="3.95" style="mix-blend-mode:darken"/><path d="M180.71,258c-.17-25.74,14.12-45.37,29.58-62.75a103,103,0,0,1,50-31.34,43.22,43.22,0,0,1,11.07-2.35l4.22-.11.42,0a37.19,37.19,0,0,1,36.07,37.5,44.91,44.91,0,0,1-11.61,30.41c-9.07,10.21-22.18,15.95-34.94,15.27-.77,0-1.56-.08-2.23-.16-16.25-1.07-46.37.14-65.54,20.26l-16.85,17.69Zm82.9-17.44c.67.07,1.35.12,2.06.15,11.68.59,23.53-4.63,31.82-13.95A41,41,0,0,0,308.1,199a33.86,33.86,0,0,0-11.17-25.24,33.39,33.39,0,0,0-21.76-8.38h-.89l-2.63.11a39.11,39.11,0,0,0-10.2,2.18,99.17,99.17,0,0,0-48.21,30.19h0c-14.94,16.8-28.74,35.7-28.58,60.11l.1,14.66L194.87,262c17.24-18.09,42.55-21.75,60.21-21.75C258.19,240.22,261.06,240.34,263.61,240.51Z" fill="url(#e0c5425f-0143-49e1-bba4-4357bfc23906)" style="mix-blend-mode:darken"/><path d="M254.37,239.73s32.95,7.18,35-37.45c1.48-32.22-12.14-54.42-49.29-31.2C218.21,184.75,213.52,248.31,254.37,239.73Z" fill="url(#a265f51a-8dc7-46b8-954c-ce6f69171f16)" style="mix-blend-mode:darken"/><path d="M124.12,153.14c-24.91-.95-43.78-22.85-52.87-35.92-.37-.58-.76-1.16-1.12-1.65A37.61,37.61,0,1,0,9.69,160.34l.14.15,1.78,2.16.1.11.68.75,0,0a37.61,37.61,0,0,0,7.37,6A84.67,84.67,0,0,0,70.31,186c20.72,0,42.22-2.35,59.12-19.41l12.63-12.77Z" fill="#dedc00" stroke="#dedc00" stroke-miterlimit="10" stroke-width="3.95"/><path d="M124.12,153c-24.91-.95-43.78-22.84-52.87-35.92-.37-.58-.76-1.16-1.12-1.65A37.61,37.61,0,0,0,2,137.38a38,38,0,0,0,7.72,23l.14.15,1.78,2,.1.11.68.75,0,0a37.61,37.61,0,0,0,7.37,6,84.67,84.67,0,0,0,50.5,16.5c20.72,0,42.22-2.35,59.12-19.41l12.63-12.76Z" opacity="0.3" fill="url(#aab8274a-c3d2-4aa9-9d85-309ac2e11f29)"/><path d="M124.12,153.14c-24.91-.95-43.78-22.85-52.87-35.92-.37-.58-.76-1.16-1.12-1.65A37.61,37.61,0,1,0,9.69,160.34l.14.15,1.78,2.16.1.11.68.75,0,0a37.61,37.61,0,0,0,7.37,6A84.67,84.67,0,0,0,70.31,186c20.72,0,42.22-2.35,59.12-19.41l12.63-12.77Z" fill="none" stroke="#f39200" stroke-miterlimit="10" stroke-width="3.95" style="mix-blend-mode:darken"/><path d="M18.77,171.18a39.91,39.91,0,0,1-7.59-6.1l-3.06-3.55a39.58,39.58,0,1,1,63.59-47.14c.39.53.81,1.15,1.16,1.7,8.83,12.71,27.24,34.15,51.32,35.08l22.44.85L130.83,168c-17.41,17.58-39.38,20-60.52,20A86.51,86.51,0,0,1,18.77,171.18ZM124,155.11c-25.79-1-45.16-23.46-54.46-36.83-.34-.54-.7-1.08-1.06-1.56A35.64,35.64,0,1,0,11.14,159l2,2.43.7.74A36.7,36.7,0,0,0,21,167.91,82.79,82.79,0,0,0,70.31,184c20.29,0,41.33-2.29,57.71-18.83l9.48-9.57Z" fill="url(#a315ec20-926b-477a-b0bb-5ee334868680)" style="mix-blend-mode:darken"/><path d="M93.59,143.28s-7.56-3.8-11.5-9.74c-4.34-6.52-11.62-11.25-18.17-11.18-9.83.1-18,11-12.06,43C60.11,209.72,114.46,159.84,93.59,143.28Z" fill="url(#e4fbb4ea-9a34-40c8-882f-6e271808fe0e)" style="mix-blend-mode:darken"/><path d="M126.45,196.51a101.05,101.05,0,0,0-49.16-30.79,40.78,40.78,0,0,0-10.57-2.24l-.37,0-.35,0-2.67-.06H63a35.53,35.53,0,0,0-23,8.87C24.48,186,24.16,211.05,39.25,228c8.67,9.75,21.17,15.23,33.4,14.61.73,0,1.46-.08,2.17-.16,16.68-1.1,47.4.2,67.1,20.87l13.48,14.15.13-19.55C155.7,232.87,141.65,213.6,126.45,196.51Z" fill="#dedc00"/><path d="M126.45,196.51a101.05,101.05,0,0,0-49.16-30.79,40.78,40.78,0,0,0-10.57-2.24l-.37,0-.35,0-2.67-.06H63a35.53,35.53,0,0,0-23,8.87C24.48,186,24.16,211.05,39.25,228c8.67,9.75,21.17,15.23,33.4,14.61.73,0,1.46-.08,2.17-.16,16.68-1.1,47.4.2,67.1,20.87l13.48,14.15.13-19.55C155.7,232.87,141.65,213.6,126.45,196.51Z" fill="#dedc00" stroke="#dedc00" stroke-miterlimit="10" stroke-width="3.95"/><path d="M30.26,196.21c-2.12,1.15,1.49,47.4,46.31,44.18C59.08,228.67,76.27,171.12,30.26,196.21Z" opacity="0.5" fill="url(#b9f8fac6-2386-4149-b9f2-fed0eac258a8)"/><path d="M126.45,196.51a101.05,101.05,0,0,0-49.16-30.79,40.78,40.78,0,0,0-10.57-2.24l-.37,0-.35,0-2.67-.06H63a35.53,35.53,0,0,0-23,8.87C24.48,186,24.16,211.05,39.25,228c8.67,9.75,21.17,15.23,33.4,14.61.73,0,1.46-.08,2.17-.16,16.68-1.1,47.4.2,67.1,20.87l13.48,14.15.13-19.55C155.7,232.87,141.65,213.6,126.45,196.51Z" fill="none" stroke="#f39200" stroke-miterlimit="10" stroke-width="3.95" style="mix-blend-mode:darken"/><path d="M157.34,282.39,140.49,264.7C121.32,244.58,91.2,243.37,75,244.44c-.68.08-1.46.14-2.24.16-12.76.68-25.86-5.06-34.94-15.27a45,45,0,0,1-11.6-30.41,37.19,37.19,0,0,1,36.07-37.5l.42,0,4.22.11A43.22,43.22,0,0,1,78,163.86a103,103,0,0,1,50,31.34c15.46,17.38,29.75,37,29.58,62.75Zm-74.2-42.17c17.66,0,43,3.66,60.2,21.75l10.12,10.62.1-14.66c.16-24.41-13.64-43.31-28.58-60.11h0a99.17,99.17,0,0,0-48.21-30.19,39.2,39.2,0,0,0-10.2-2.18l-2.63-.11h-.89a33.37,33.37,0,0,0-21.76,8.38A33.86,33.86,0,0,0,30.12,199a41,41,0,0,0,10.6,27.74C49,236,60.87,241.25,72.55,240.66c.71,0,1.39-.08,2.06-.15C77.16,240.34,80,240.22,83.14,240.22Z" fill="url(#a7f78bbe-97bf-4245-8842-46ae1ba21850)" style="mix-blend-mode:darken"/><path d="M83.85,239.73s-32.95,7.18-35-37.45c-1.48-32.22,12.14-54.42,49.29-31.2C120,184.75,124.7,248.31,83.85,239.73Z" fill="url(#be4f839e-b057-43fa-875c-e2c2f62cb85e)" style="mix-blend-mode:darken"/><path d="M259.45,164.64c0-.81,0-1.62,0-2.43-.05-3.36-.19-6.76-.41-10.1-.35-5.55-1-11.24-1.8-16.79,0-.25-.06-.47-.1-.74A2.24,2.24,0,0,0,257,134a126,126,0,0,0-18.83-45.7,127.39,127.39,0,0,0-36-35.95,54.74,54.74,0,0,0-67,4.88,127.12,127.12,0,0,0-38.44,64,142.26,142.26,0,0,1-6.9,20.79c-1.32,3.19-2.85,6.52-4.56,9.9-.72,1.44-1.42,2.91-2.07,4.35a120.73,120.73,0,0,0-4.56,11.24,123.81,123.81,0,0,0-4.37,15.68c-.83,3.94-1.47,8-1.91,11.93a124.56,124.56,0,0,0-.84,14.52c0,.94,0,1.87,0,2.81v.26A127.24,127.24,0,0,0,76.79,246a128.29,128.29,0,0,0,16.06,34.31c.88,1.32,1.78,2.62,2.7,3.93a127.32,127.32,0,0,0,8.87,11c2.68,3,5.46,5.77,8.23,8.32a127.31,127.31,0,0,0,33.09,22.17,125.15,125.15,0,0,0,17.79,6.68c2.17.64,4.48,1.24,7.05,1.85l.87.2.72-.51c3.76-2.65,7.42-5.42,10.91-8.24a202.52,202.52,0,0,0,20.24-18.77,195.18,195.18,0,0,0,14.81-17.53c2.45-3.22,4.92-6.7,7.32-10.34s4.51-7,6.48-10.44c3.27-5.65,6.2-11.31,8.71-16.81a196.61,196.61,0,0,0,8.22-20.67c1.67-5,3.16-10,4.42-15.13a197.65,197.65,0,0,0,3.91-19.58c.66-4.36,1.19-8.93,1.58-13.58.46-5.67.7-11.41.7-17.06C259.47,165.37,259.47,164.94,259.45,164.64Zm-6.38,32.59a195.26,195.26,0,0,1-176.82-.87c0-.24,0-.5.07-.75.4-3.71,1-7.45,1.76-11.12a210.09,210.09,0,0,0,87.43,18.94,210.19,210.19,0,0,0,89.21-19.76c-.37,4.16-.84,8.26-1.43,12.19C253.22,196.32,253.14,196.78,253.07,197.23Zm-152.48-75a123.21,123.21,0,0,1,37.26-62A50.82,50.82,0,0,1,200,55.68a123.52,123.52,0,0,1,34.87,34.85A122.1,122.1,0,0,1,253.16,135l0,.2a5.74,5.74,0,0,1,.09.6c0,.21.05.43.08.64a194.4,194.4,0,0,1-87.86,20.88,194.27,194.27,0,0,1-72-13.74A145.09,145.09,0,0,0,100.59,122.23ZM86.81,158l0-.08a210.19,210.19,0,0,0,78.66,15.2,210.08,210.08,0,0,0,89.6-20c.18,3,.31,6.1.37,9.18,0,.77,0,1.54,0,2.42,0,.29,0,.6,0,.91a194.18,194.18,0,0,1-90,22,194.74,194.74,0,0,1-83.18-18.59c0-.06,0-.12.07-.19C83.74,165,85.22,161.38,86.81,158Zm83.81,172.24c-2.15-.52-4.12-1-6-1.59a120.73,120.73,0,0,1-12.18-4.28c4.32.27,8.66.45,13,.45s8.61-.17,12.88-.42C175.86,326.35,173.28,328.32,170.62,330.21Zm29.84-26c-.61.64-1.24,1.26-1.86,1.9a194.1,194.1,0,0,1-80.43-2.95c-1-.83-1.91-1.67-2.84-2.53-2.69-2.47-5.38-5.18-8-8.06-2.39-2.64-4.72-5.48-7-8.44a211.11,211.11,0,0,0,113.14,4.77A195.22,195.22,0,0,1,200.46,304.23Zm28.06-37.58c-.37.63-.78,1.29-1.16,1.93A195.28,195.28,0,0,1,87.24,262.3c-.32-.68-.65-1.35-1-2a121.12,121.12,0,0,1-5.2-13.76,211.29,211.29,0,0,0,155.16,5.39C234,256.74,231.38,261.69,228.52,266.65Zm16.59-36.75c-.19.57-.4,1.14-.6,1.72a195.24,195.24,0,0,1-167.8-4.68c-.06-.45-.14-.9-.2-1.35-.51-4-.8-8-.92-11.93a211.16,211.16,0,0,0,173.46,2.87C247.9,221,246.59,225.52,245.11,229.9Z" fill="#dedc00"/><path d="M257.49,165.8c0,5.69-.24,11.33-.69,16.9-.38,4.52-.89,9-1.56,13.45a197.11,197.11,0,0,1-3.87,19.38q-1.89,7.62-4.38,15A193.34,193.34,0,0,1,238.85,251c-2.6,5.71-5.51,11.26-8.62,16.65-2,3.51-4.19,7-6.42,10.34s-4.72,6.91-7.25,10.23a193.84,193.84,0,0,1-14.67,17.37,199.56,199.56,0,0,1-20.06,18.6c-3.49,2.82-7.1,5.55-10.79,8.15-2.35-.55-4.66-1.14-6.95-1.81a123.93,123.93,0,0,1-17.52-6.58A125.27,125.27,0,0,1,114,302.11q-4.25-3.89-8.12-8.2a121.65,121.65,0,0,1-8.72-10.79c-.91-1.29-1.8-2.57-2.67-3.87a126.49,126.49,0,0,1-15.81-33.79,125.72,125.72,0,0,1-5.12-32.75c0-1,0-2,0-3a122.68,122.68,0,0,1,.83-14.29c.44-4,1.07-7.9,1.88-11.75a123.65,123.65,0,0,1,4.3-15.44c1.33-3.77,2.81-7.46,4.48-11.06.66-1.44,1.35-2.88,2.06-4.3,1.66-3.28,3.22-6.63,4.62-10a144.51,144.51,0,0,0,7-21.07,125.66,125.66,0,0,1,37.84-63A52.69,52.69,0,0,1,201.1,54a126.09,126.09,0,0,1,35.42,35.4,124.44,124.44,0,0,1,18.58,45.15.36.36,0,0,1,0,.2c0,.23.08.45.1.69.83,5.5,1.44,11.11,1.8,16.76q.31,5,.41,10v0c0,.79,0,1.58,0,2.37C257.49,165,257.49,165.41,257.49,165.8Z" fill="#dedc00"/><image width="439" height="468" transform="translate(103.35 19.99) scale(0.24)" xlink:href="bambee%20logo%20alternative1.png"/><image width="430" height="452" transform="translate(136.71 25.27) scale(0.24)" xlink:href="bambee%20logo%20alternative2.png"/><image width="461" height="449" transform="translate(135.51 64.39) scale(0.24)" xlink:href="bambee%20logo%20alternative3.png"/><path d="M175.22,44.2c38.57-3.37,165.17,113.83,6,272.76-42.23-51.77-5.27-51.44-27.7-93.64C113.19,147.5,101.61,50.62,175.22,44.2Z" opacity="0.3" fill="url(#b8ecd8e7-017c-48ef-9813-6a710798098b)"/><path d="M151.49,72.89c1.57-6.27,5.61-11.06,10.29-12.93a11.16,11.16,0,0,0-1.57-.54c-7.16-1.79-14.84,4.24-17.15,13.47s1.63,18.17,8.79,20a11,11,0,0,0,6.85-.54C152.55,89.68,149.35,81.42,151.49,72.89Z" fill="url(#ee115fbc-d2e3-496f-8c4b-04020f085b99)" style="mix-blend-mode:darken"/><path d="M169,79.38c2.14-8.53-1.06-16.79-7.21-19.42-4.68,1.87-8.72,6.66-10.29,12.93-2.14,8.53,1.06,16.79,7.21,19.42C163.38,90.44,167.43,85.65,169,79.38Z" fill="#1d1d1b"/><path d="M183.43,77.63a16.51,16.51,0,0,1,7-13.11,11.15,11.15,0,0,0-1.55-.15c-6.91-.09-12.84,6.6-13.24,14.95s4.89,15.19,11.8,15.28a11.11,11.11,0,0,0,6.19-1.84C187.55,91.75,183.07,85.34,183.43,77.63Z" fill="url(#a81ff430-cfcb-4ad0-9d32-04c1cffc2f5c)" style="mix-blend-mode:darken"/><path d="M200.73,79.66c.37-7.71-4.11-14.13-10.25-15.14a16.51,16.51,0,0,0-7,13.11c-.36,7.71,4.12,14.12,10.25,15.13A16.45,16.45,0,0,0,200.73,79.66Z" fill="#1d1d1b"/><path d="M181.49,114.58a26,26,0,0,1-8.49-1.44c16.73,18.78,23.08,23.86,26.75,19.27C195.74,129.85,190,124.1,181.49,114.58Z" fill="url(#b5f36d23-5b4f-4e87-b160-d856b74782ee)" style="mix-blend-mode:darken"/><path d="M185.61,114.37a31.58,31.58,0,0,1-4.12.21c8.53,9.52,14.25,15.27,18.26,17.83,2.59-3.25,3.85-11.34,6.47-22.86.55-2.44,1.16-5,1.87-7.76C200.25,110.55,192.09,113.6,185.61,114.37Z" fill="#1d1d1b"/><path d="M259.45,164.64c0-.81,0-1.62,0-2.43-.05-3.36-.19-6.76-.41-10.1-.35-5.55-1-11.24-1.8-16.79,0-.25-.06-.47-.1-.74A2.24,2.24,0,0,0,257,134a126,126,0,0,0-18.83-45.7,127.39,127.39,0,0,0-36-35.95,54.74,54.74,0,0,0-67,4.88,127.12,127.12,0,0,0-38.44,64,142.26,142.26,0,0,1-6.9,20.79c-1.32,3.19-2.85,6.52-4.56,9.9-.72,1.44-1.42,2.91-2.07,4.35a120.73,120.73,0,0,0-4.56,11.24,123.81,123.81,0,0,0-4.37,15.68c-.83,3.94-1.47,8-1.91,11.93a124.56,124.56,0,0,0-.84,14.52c0,.94,0,1.87,0,2.81v.26A127.24,127.24,0,0,0,76.79,246a128.29,128.29,0,0,0,16.06,34.31c.88,1.32,1.78,2.62,2.7,3.93a127.32,127.32,0,0,0,8.87,11c2.68,3,5.46,5.77,8.23,8.32a127.31,127.31,0,0,0,33.09,22.17,125.15,125.15,0,0,0,17.79,6.68c2.17.64,4.48,1.24,7.05,1.85l.87.2.72-.51c3.76-2.65,7.42-5.42,10.91-8.24a202.52,202.52,0,0,0,20.24-18.77,195.18,195.18,0,0,0,14.81-17.53c2.45-3.22,4.92-6.7,7.32-10.34s4.51-7,6.48-10.44c3.27-5.65,6.2-11.31,8.71-16.81a196.61,196.61,0,0,0,8.22-20.67c1.67-5,3.16-10,4.42-15.13a197.65,197.65,0,0,0,3.91-19.58c.66-4.36,1.19-8.93,1.58-13.58.46-5.67.7-11.41.7-17.06C259.47,165.37,259.47,164.94,259.45,164.64Zm-6.38,32.59a195.26,195.26,0,0,1-176.82-.87c0-.24,0-.5.07-.75.4-3.71,1-7.45,1.76-11.12a210.09,210.09,0,0,0,87.43,18.94,210.19,210.19,0,0,0,89.21-19.76c-.37,4.16-.84,8.26-1.43,12.19C253.22,196.32,253.14,196.78,253.07,197.23Zm-152.48-75a123.21,123.21,0,0,1,37.26-62A50.82,50.82,0,0,1,200,55.68a123.52,123.52,0,0,1,34.87,34.85A122.1,122.1,0,0,1,253.16,135l0,.2a5.74,5.74,0,0,1,.09.6c0,.21.05.43.08.64a194.4,194.4,0,0,1-87.86,20.88,194.27,194.27,0,0,1-72-13.74A145.09,145.09,0,0,0,100.59,122.23ZM86.81,158l0-.08a210.19,210.19,0,0,0,78.66,15.2,210.08,210.08,0,0,0,89.6-20c.18,3,.31,6.1.37,9.18,0,.77,0,1.54,0,2.42,0,.29,0,.6,0,.91a194.18,194.18,0,0,1-90,22,194.74,194.74,0,0,1-83.18-18.59c0-.06,0-.12.07-.19C83.74,165,85.22,161.38,86.81,158Zm83.81,172.24c-2.15-.52-4.12-1-6-1.59a120.73,120.73,0,0,1-12.18-4.28c4.32.27,8.66.45,13,.45s8.61-.17,12.88-.42C175.86,326.35,173.28,328.32,170.62,330.21Zm29.84-26c-.61.64-1.24,1.26-1.86,1.9a194.1,194.1,0,0,1-80.43-2.95c-1-.83-1.91-1.67-2.84-2.53-2.69-2.47-5.38-5.18-8-8.06-2.39-2.64-4.72-5.48-7-8.44a211.11,211.11,0,0,0,113.14,4.77A195.22,195.22,0,0,1,200.46,304.23Zm28.06-37.58c-.37.63-.78,1.29-1.16,1.93A195.28,195.28,0,0,1,87.24,262.3c-.32-.68-.65-1.35-1-2a121.12,121.12,0,0,1-5.2-13.76,211.29,211.29,0,0,0,155.16,5.39C234,256.74,231.38,261.69,228.52,266.65Zm16.59-36.75c-.19.57-.4,1.14-.6,1.72a195.24,195.24,0,0,1-167.8-4.68c-.06-.45-.14-.9-.2-1.35-.51-4-.8-8-.92-11.93a211.16,211.16,0,0,0,173.46,2.87C247.9,221,246.59,225.52,245.11,229.9Z" fill="#f39200" style="mix-blend-mode:darken"/><path d="M259.45,164.64c0-.81,0-1.62,0-2.43-.05-3.36-.19-6.76-.41-10.1-.35-5.55-1-11.24-1.8-16.79,0-.25-.06-.47-.1-.74A2.24,2.24,0,0,0,257,134a126,126,0,0,0-18.83-45.7,127.39,127.39,0,0,0-36-35.95,54.74,54.74,0,0,0-67,4.88,127.12,127.12,0,0,0-38.44,64,142.26,142.26,0,0,1-6.9,20.79c-1.32,3.19-2.85,6.52-4.56,9.9-.72,1.44-1.42,2.91-2.07,4.35a120.73,120.73,0,0,0-4.56,11.24,123.81,123.81,0,0,0-4.37,15.68c-.83,3.94-1.47,8-1.91,11.93a124.56,124.56,0,0,0-.84,14.52c0,.94,0,1.87,0,2.81v.26A127.24,127.24,0,0,0,76.79,246a128.29,128.29,0,0,0,16.06,34.31c.88,1.32,1.78,2.62,2.7,3.93a127.32,127.32,0,0,0,8.87,11c2.68,3,5.46,5.77,8.23,8.32a127.31,127.31,0,0,0,33.09,22.17,125.15,125.15,0,0,0,17.79,6.68c2.17.64,4.48,1.24,7.05,1.85l.87.2.72-.51c3.76-2.65,7.42-5.42,10.91-8.24a202.52,202.52,0,0,0,20.24-18.77,195.18,195.18,0,0,0,14.81-17.53c2.45-3.22,4.92-6.7,7.32-10.34s4.51-7,6.48-10.44c3.27-5.65,6.2-11.31,8.71-16.81a196.61,196.61,0,0,0,8.22-20.67c1.67-5,3.16-10,4.42-15.13a197.65,197.65,0,0,0,3.91-19.58c.66-4.36,1.19-8.93,1.58-13.58.46-5.67.7-11.41.7-17.06C259.47,165.37,259.47,164.94,259.45,164.64Zm-6.38,32.59a195.26,195.26,0,0,1-176.82-.87c0-.24,0-.5.07-.75.4-3.71,1-7.45,1.76-11.12a210.09,210.09,0,0,0,87.43,18.94,210.19,210.19,0,0,0,89.21-19.76c-.37,4.16-.84,8.26-1.43,12.19C253.22,196.32,253.14,196.78,253.07,197.23Zm-152.48-75a123.21,123.21,0,0,1,37.26-62A50.82,50.82,0,0,1,200,55.68a123.52,123.52,0,0,1,34.87,34.85A122.1,122.1,0,0,1,253.16,135l0,.2a5.74,5.74,0,0,1,.09.6c0,.21.05.43.08.64a194.4,194.4,0,0,1-87.86,20.88,194.27,194.27,0,0,1-72-13.74A145.09,145.09,0,0,0,100.59,122.23ZM86.81,158l0-.08a210.19,210.19,0,0,0,78.66,15.2,210.08,210.08,0,0,0,89.6-20c.18,3,.31,6.1.37,9.18,0,.77,0,1.54,0,2.42,0,.29,0,.6,0,.91a194.18,194.18,0,0,1-90,22,194.74,194.74,0,0,1-83.18-18.59c0-.06,0-.12.07-.19C83.74,165,85.22,161.38,86.81,158Zm83.81,172.24c-2.15-.52-4.12-1-6-1.59a120.73,120.73,0,0,1-12.18-4.28c4.32.27,8.66.45,13,.45s8.61-.17,12.88-.42C175.86,326.35,173.28,328.32,170.62,330.21Zm29.84-26c-.61.64-1.24,1.26-1.86,1.9a194.1,194.1,0,0,1-80.43-2.95c-1-.83-1.91-1.67-2.84-2.53-2.69-2.47-5.38-5.18-8-8.06-2.39-2.64-4.72-5.48-7-8.44a211.11,211.11,0,0,0,113.14,4.77A195.22,195.22,0,0,1,200.46,304.23Zm28.06-37.58c-.37.63-.78,1.29-1.16,1.93A195.28,195.28,0,0,1,87.24,262.3c-.32-.68-.65-1.35-1-2a121.12,121.12,0,0,1-5.2-13.76,211.29,211.29,0,0,0,155.16,5.39C234,256.74,231.38,261.69,228.52,266.65Zm16.59-36.75c-.19.57-.4,1.14-.6,1.72a195.24,195.24,0,0,1-167.8-4.68c-.06-.45-.14-.9-.2-1.35-.51-4-.8-8-.92-11.93a211.16,211.16,0,0,0,173.46,2.87C247.9,221,246.59,225.52,245.11,229.9Z" fill="url(#b18def13-6251-4b58-bc0c-91af537e2092)" style="mix-blend-mode:darken"/><path d="M131.15,66.71s-17.44,13.29-27.1,44c-2.37,7.44-8.43,27.53-10.53,32.83,2.51,1.23,17.77,8.93,44.69,12.76C152.09,157.47,214.44,1.3,131.15,66.71Z" fill="url(#edc88a7a-f007-42a9-89a3-7b1ce0506771)" style="mix-blend-mode:darken"/><path d="M91.69,142.82S27,258.46,150.63,325.73c-31.94-43.06-43.37-96.28-12.42-169.42C102.46,152.25,91.69,142.82,91.69,142.82Z" fill="url(#a80b07b2-6aa6-4717-a2c0-eee1afb9ecee)" style="mix-blend-mode:darken"/><path d="M97.74,121.41c-2.83,12.08-7.65,23.6-13.2,34.66-15.78,33.64-15.67,74.22.16,107.83a128.85,128.85,0,0,0,28.93,39.79,128.44,128.44,0,0,1-16.58-18.37C72.23,252,65.48,206.47,79.57,167.41c2.63-7.85,6.64-15.13,10-22.64a144.83,144.83,0,0,0,8.13-23.36Z" fill="#f39200"/><circle cx="110.83" cy="9.94" r="7.01" fill="#1d1d1b"/><path d="M155.36,48.11s19.52-15.43-4.7-38.09c-20.3-19-39.83-.08-39.83-.08" fill="none" stroke="#1d1d1b" stroke-miterlimit="10" stroke-width="3.12"/><circle cx="242.82" cy="23.5" r="7.01" fill="#1d1d1b"/><circle cx="110.83" cy="9.94" r="7.01" fill="#1d1d1b"/><path d="M189.58,48.09S175,27.92,204.48,12.72C229.19,0,242.82,23.5,242.82,23.5" fill="none" stroke="#1d1d1b" stroke-miterlimit="10" stroke-width="3.12"/><image width="1094" height="377" transform="translate(31.11 346.87) scale(0.24)" xlink:href="bambee%20logo%20alternative4.png"/></g></g></g></svg>