<svg xmlns="http://www.w3.org/2000/svg" viewBox="0 0 723 331.83"><g id="f4c656ae-dde8-49e4-9015-fd9e1887272b" data-name="Warstwa 2"><g id="a887ff2c-9712-4190-8a50-439a2d6f2e00" data-name="Warstwa 1"><path d="M19.31,203.54c.43-.61,1.08-.9,1-.6.7-1.36,1-1.11.63-1.73.4-1,1.45-1.38.92-.37l1.59-2.32-1.23,1.12c-.13-.75,2-1.79,1.86-2.64L22,199.21l0-.25a7.52,7.52,0,0,1-1.67,1.86c0-.11-.17-.19.18-.6-2.47,2.73.1,1.42-1.7,3.85A2.79,2.79,0,0,1,19.31,203.54Z" fill="#231f20"/><path d="M16.23,205,16,206.52l-1.41,1.62c.19.18-.53,1.57.26.84a3.35,3.35,0,0,1,.46-.83c.31.51-1.38,2.49-.56,2.29a8.22,8.22,0,0,0,1.31-2.7,12.4,12.4,0,0,1,2.35-2.45c.22-.41,0-.67.31-1.17l-.24.32-.68-.47a5.17,5.17,0,0,1-.85,1.24l.83-2.58c-1.15.11-2.34,2.38-3.19,3C15.94,205.05,14.31,206.61,16.23,205Z" fill="#231f20"/><path d="M18.76,204.12l0-.05Z" fill="#231f20"/><path d="M102.4,321.29c.51,0,.67-.17.74-.26q-2.82-.16-5.64-.43c.15.25,1.76.65.66.69a2.89,2.89,0,0,0,2.2-.08l-.44.31c1.34-.32,2.18.56,1.3.76h.12l3.71-1.44C103.73,320.68,104,321.37,102.4,321.29Z" fill="#231f20"/><path d="M205.39,278.72c-.33.66-.31.78-.2.75A3.81,3.81,0,0,0,205.39,278.72Z" fill="#231f20"/><path d="M105.9,320.5l1.15-.49A4,4,0,0,0,105.9,320.5Z" fill="#231f20"/><path d="M97.39,327.8a.08.08,0,0,0,0,.09l.55-.21h0Z" fill="#231f20"/><path d="M131.12,317.22l.36-.08Z" fill="#231f20"/><path d="M80.84,328.3l2.74,0c-.39.17.9.33.29.5.21,0,1.18.09.94-.08l-.54-.09c1.51-.43.72-.81,3.11-1a3.68,3.68,0,0,0-2.86-.21l-.71,0-2.38.51Z" fill="#231f20"/><path d="M182.59,306.33v.05A0,0,0,0,0,182.59,306.33Z" fill="#231f20"/><path d="M182.62,306.63l0-.25C182.54,306.55,182.14,306.93,182.62,306.63Z" fill="#231f20"/><path d="M105.47,320.92a.9.9,0,0,1,.43-.42l-.85.34Z" fill="#231f20"/><path d="M103.48,322.32l-2.14,0-.82.31C101.35,322.51,102.31,322.48,103.48,322.32Z" fill="#231f20"/><path d="M127.82,317.25c4.25-.67-.95.94,1,.87a15,15,0,0,0,2.26-.9c-3.34.77.28-1.31-3.08-.66.39-.75,2.33-1.06,3.5-1.05,1.4.46-1,.67-1.26,1.34,1.35-.29,1.09-.39,1.61-.85,2.16-.17,4.24-1.53,5.67-.89,1.5-.44,1.33-.74,2.12-1.28,0-.71-2.32.12-3-.34.12,0,.37.11.33.22l-1.34.11c1.29,0,0,.73-.7.92-.48.09-1.45.29-1.34.06l.71-.26c-1-.07-2,.85-3.08.63-.07-.14.29-.28.34-.39-1.05.67-2.15.76-3.78,1.33l.88-.83c-1.23,1-4.32,1.07-6.46.82.24.11.67.16.43.32-1.23.26-2.2-.16-1.66-.58-1.17.71-4.63-.23-6.25.58-2.51,1.25-5.08,2.48-7.72,3.59a4.64,4.64,0,0,1,.93-.17c.69.64,1.09.58-.18,1.13,1.24-.29.78-.81,2.61-.82-.72.31-.91,1,.86,1.11,4.44-.67,7.28-2.53,11.23-3.76.19.5,3.34,0,4.89,0a5.51,5.51,0,0,1-2.84,1.06l3-.23Z" fill="#231f20"/><path d="M117.86,319.69a2,2,0,0,0,.35.08A.78.78,0,0,0,117.86,319.69Z" fill="#231f20"/><path d="M124.19,318.57a.11.11,0,0,0,0,.05l.37-.08Z" fill="#231f20"/><path d="M106.48,322l-.74.29.57-.11C106.5,322.16,106.59,322.09,106.48,322Z" fill="#231f20"/><path d="M105.62,321.16l.15-.18-.3-.06C105.44,321,105.47,321.11,105.62,321.16Z" fill="#231f20"/><path d="M145,318.48l.38-.21C145.12,318.34,145,318.41,145,318.48Z" fill="#231f20"/><path d="M132.68,317.39c-1.48.27-.06.77-2.18,1.05l.63,0a33.44,33.44,0,0,1-6,.92c.18-.31-1.13-.23-1-.7a7.67,7.67,0,0,0-3.05.9c-.78-.08-1.93.4-2.92.25.43.24-1.36,1,1,.53-.19,0-.07.09-.26.14,1.57.3,2.15-.4,3.48-.5.81.2-1.27.52-.51.57,1.64-.33,5.24-.19,5-1.15a2.51,2.51,0,0,1,1.77.12c1.75-1.25,7.1-.6,6.85-1.94a14,14,0,0,0-2.76.77Z" fill="#231f20"/><path d="M109.06,322l.29,0Z" fill="#231f20"/><path d="M90.35,316.54l.75-.78c3.52.3,4.76.66,7.84.93.22.15-.16.19-.35.21,2.17.11,5.41.49,7,.15.69,0,2.5.36,1.8.6a3.43,3.43,0,0,1,1.12-.09c.09.32-.87.06-.9.32.31,0,.42.1.5,0-.53.26.52,1.09-1.92,1-.91-.76,1.69,0,1.16-.87-.81,0-.72.29-.79.39-1,0-1-.27-.93-.45-.4.24-1.67-.17-2.24.19-2-.07.15-.61-1.15-.69l-.8.78-2.15-.32c-3.16,0,.33,1.48-3.33,1.58.52-.37-.84-1.25-2.48-1.63,1,.09,2.9-.23,4.15.14-1.74-.82,2.5.16,1.63-.68a7.21,7.21,0,0,1-3.55-.14l.39,0c-1.22-.23-2.26.53-3.91,0-.85-.1-.66-.3-.48-.47C91,316.66,90.33,316.72,90.35,316.54Zm1.86.09,1.11.25A2.2,2.2,0,0,0,92.21,316.63Z" fill="#231f20"/><path d="M7.32,220l.22-.32A1.47,1.47,0,0,0,7.32,220Z" fill="#231f20"/><path d="M46.59,312.37,46,312A4.77,4.77,0,0,0,46.59,312.37Z" fill="#231f20"/><path d="M31.49,305.92l-1-.49A3.32,3.32,0,0,0,31.49,305.92Z" fill="#231f20"/><polygon points="4.25 228.15 4.24 228.18 4.23 228.36 4.25 228.15" fill="#231f20"/><path d="M10.57,280.48a4,4,0,0,0-.15-.6C10.36,280,10.43,280.17,10.57,280.48Z" fill="#231f20"/><polygon points="31.66 306.01 31.62 305.96 31.48 305.92 31.66 306.01" fill="#231f20"/><path d="M51.84,317.73l.46.13A2.42,2.42,0,0,0,51.84,317.73Z" fill="#231f20"/><path d="M51.93,315.18c.16,0,.31.09.44.11Z" fill="#231f20"/><path d="M74.54,325.1l1,.12A3.41,3.41,0,0,0,74.54,325.1Z" fill="#231f20"/><path d="M54,316.74l.18,0C54.05,316.66,54,316.68,54,316.74Z" fill="#231f20"/><polygon points="12.26 215.7 12.23 215.75 12.31 215.81 12.26 215.7" fill="#231f20"/><path d="M12.37,213.09l.38-.75A4.07,4.07,0,0,0,12.37,213.09Z" fill="#231f20"/><path d="M5.6,267.05c0-.27,0-.9.19-.67C5.47,266,5.07,266.14,5.6,267.05Z" fill="#231f20"/><path d="M14.86,222a2,2,0,0,1,0-.56C14.78,221.78,14.75,222.08,14.86,222Z" fill="#231f20"/><path d="M14.81,221.43l0-.5A3,3,0,0,0,14.81,221.43Z" fill="#231f20"/><path d="M14.34,270.19a.48.48,0,0,0,0,.29C14.44,270.4,14.42,270.3,14.34,270.19Z" fill="#231f20"/><path d="M13.23,211.84c-.11-.24,1.56-3.54-.23-1-.45-.44.86-1.83,1.22-2.59-.47.42-.16-.46-.44-.44a6.23,6.23,0,0,1-.73,1.43c-.41.11,0-.87.57-1.48-.85.65.33-1.33-.69-.3-1.57,2.64-2.51,4.63-2.77,6.93A16.74,16.74,0,0,1,12.72,210l.12.79c-1.25,1.09-1.47,2.12-2.28,3.45.66-1,1.34-1.93,2-2.86,1.25-1.15.75-.16.15,1C12.92,212.07,13.1,211.85,13.23,211.84Z" fill="#231f20"/><path d="M16,216.19l0,0a1,1,0,0,0,0-.15Z" fill="#231f20"/><path d="M77.09,314.63l.32-.13C77.17,314.53,77.08,314.57,77.09,314.63Z" fill="#231f20"/><path d="M12.83,216.63Z" fill="#231f20"/><path d="M70.51,312.66l0,0S70.53,312.66,70.51,312.66Z" fill="#231f20"/><path d="M65.09,323a.13.13,0,0,0,0,.09C65.27,323.08,65.21,323,65.09,323Z" fill="#231f20"/><path d="M70.49,312.71s0,0,0,0S70.48,312.69,70.49,312.71Z" fill="#231f20"/><path d="M39.66,299.68a3.08,3.08,0,0,0,.12.31C39.86,300,39.84,299.9,39.66,299.68Z" fill="#231f20"/><path d="M44.81,304l.07.11Z" fill="#231f20"/><path d="M4,269.53c.13.34.25.6.35.81A4,4,0,0,0,4,269.53Z" fill="#231f20"/><path d="M70.56,312.63a1.5,1.5,0,0,1,.37-.08A1.3,1.3,0,0,0,70.56,312.63Z" fill="#231f20"/><polygon points="29.95 295.39 30.15 295.48 30.07 295.38 29.95 295.39" fill="#231f20"/><path d="M27.61,292.68a1.24,1.24,0,0,0,.3,0c-1.08-.7-2.53-2.55-3.12-2.36.29.32,1.64,2.13,1.14,2.1.72.54,1.41,1.72,1.82,2-.84-1.25.21-.45,1.07.07.55.72-.43.22.07.82l1.6,1.33-1.31-1.25.77,0-.17-.08C27.36,293.42,30.1,294.56,27.61,292.68Z" fill="#231f20"/><path d="M27.91,292.72a2.18,2.18,0,0,0,.44.24A.73.73,0,0,0,27.91,292.72Z" fill="#231f20"/><path d="M20.39,283l-.39-.38Z" fill="#231f20"/><path d="M99,322.37c0-.16-1.77-.64-1.78-.23l1.57.27Z" fill="#231f20"/><path d="M5.3,253.08l.06.61.08.11A1.93,1.93,0,0,0,5.3,253.08Z" fill="#231f20"/><path d="M25.4,292.21a1.13,1.13,0,0,0,.53.25A1.12,1.12,0,0,0,25.4,292.21Z" fill="#231f20"/><path d="M6.27,252.86c.09-.26.23-.65.38-.72a9.2,9.2,0,0,0-.42-1.36A7.42,7.42,0,0,1,6.27,252.86Z" fill="#231f20"/><path d="M6.22,250.74v0Z" fill="#231f20"/><path d="M100.05,322.64l.47-.05-.25.09,1.21.21a3.73,3.73,0,0,1,.5,0,.26.26,0,0,0-.18.09l.39.08c1-.36,3.42-.58,4.12-.82a14.37,14.37,0,0,1,2.75-.18c-.66,0-1.52,0-1.27.29,1.32.28,2,1,4.27.38l-1.35,0,3-1c1.06.37-1.5.49-1.92.83,2.34-.49,4.33.71,5.4-.17.17.47.46,1.26,2,1.14-1.15-.5.91-.39,0-.93.51-.29,1.73.05,1.79-.31l-.13.21c2.7.57,3.47-.69,4.54-1.2,3.1-.5,4.56-.41,7.09-.85a2,2,0,0,0,2,.86c.41-.49,2.67-1.1,2.79-1.71-1.84.13-1.39.74-2.46,1.05-1-.43-.18-.55-1.46-.7,1,.09,4.42-1.07,5.6-.76l-.36.15c1.79,0,2.42,1.22,5.12-.22l1.29-.67c-.06.06,0,.13-.07.19,2.24-.54,1.82.29,4.13-.91-.18.09,0,.11-.22.2,1.48-.1,2.72-1.1,3.72-1.57.77.23,0,.48-.31.92a16.19,16.19,0,0,0,6.14-3.33l1.62-.35c-.83.55-1.78,1.42-1.4,1.57.82-.4.57-.55,1.8-.93a5.67,5.67,0,0,1-.93,1.38c2.67-.52.17-1.2,2.25-1,.78-.3,1.07-.88,1-1.25l1.58-.16c0-.49,1.68-1.23,2.75-1.84,0-.24-1.09,0-1.43.33-.07-.36,1-1.06,1.79-1.41.71.78,4.81-2.54,4.45-1.09,3.21-2,7.65-4.82,9.47-6.52.82-.24,2.19-1.17,1.63-.24,2.5-1.72,3.15-3.43,5.62-5.09.27-.06-1,.85-.76,1,1.28-1.5,3-1.91,5.12-4.14a.84.84,0,0,0-.33.72c-.14-.06.69-1.08,1.16-1.73.38-.24-.35.49-.09.4,4.6-3.71,6.65-7.93,10-12.55-.94,1.34-.85,2.19-.65,2.37.33-.43.67-.85,1-1.3a21.26,21.26,0,0,1,1.18-2.67c.17,0,.54-.39.39.12,2.3-2.38,1.68-4.84,3.7-8.12-.34,1.57-.65,3.2-1.11,4.78l1-.81-.56,2.14c.94-.94.79-2.3,1.28-2.2,0,.3-.37.84-.16,1,.79-1,.5-1.25.84-2.1-.22,2.63-2.75,6.8-4.13,9-.18.38,0-.43,0-.54-.58.89-1.19,1.23-1.88,2.38-.18.91.63-.32,1.07-.82.23.29,0,.54-.4,1.16-.44-.14-2.64,3.07-3.72,3.38-2.49,3,1.36.36-1.38,3.07l-1.18.46a25.1,25.1,0,0,1-5.06,5.74l.39-.36c.11-.4-.42-.13-.7-.05-1.57,1.09-2.48,2.66-3.72,2.95a43.75,43.75,0,0,1-5.93,5.94c-1-.22,2.34-2.34,2.9-3.33-.59.47-1.22.87-1.84,1.31a4.7,4.7,0,0,0,1.85-2.17c-1.64,1.07-1.84,1.9-3.27,3.13,0-.25-.26-.2-1,.26l.05.54s-.13,0-.37.11c-.89.68-1.76,1.38-2.67,2,.71-.19,1,.17,1.7-.29-.41-.08.18-.52.91-1-.47.67.85-.23,1,0-1.46.95-3.25,2.13-4.18,2.81l-.54-.19c-1.47.75-2.91,1.77-3.95,2.21l.2-.38c-1.81.8-3.42,2-5.2,2.3-1.37,1.23-3.24,2.5-4.38,3.55-.5.87-5.09,1.3-6.71,2.69a13.62,13.62,0,0,1,1.72-1.29c-1.28.35-2,1.38-2.63,1,2.87-.82-.31-.4.89-1a19.14,19.14,0,0,0-3.23,1.46c2.14-.7-.51,1,1.59.08a16.79,16.79,0,0,1-5.89,2.37c-.05-.26-.33-.3-1.12-.18l-.51.53c-1,.22,1.72-1-.23-.53-1.81,1.16-6.05,1.15-6.67,2.47-1.62-.11,2.8-1.12.38-1.15,1.23-.71,3.17-.67,3.46-1.37-1.25.5-.59-.37-1.42-.16l-1.36.68.32,0c-2.3,1.1-6.23,1.67-9.36,2.23-2.57,1-4.32,2.12-7.58,2.41.92-.45-2.72-.06-.75-.91-1.52-.14-3,.33-3,.59,1.32,0,.47.06,1.59.08a6.48,6.48,0,0,1-3.19.34c.34,0,.21-.06.27-.16-1.59-.1-.73.38-1.87.58-.39-.42-2.53,0-3.59-.19l-1.49.67c.82-.43-1.46-.13-1.71-.51a8.38,8.38,0,0,1-3.65.7c.68-.21-1.52-.32-1.53-.75-2.81-.46-4.75,1-7.41.19.09-.09.65-.33-.12-.49a21.12,21.12,0,0,1-2.37-.07l0,0h0c-.32,0-.53,0-.55.13a13.71,13.71,0,0,1-4.07.74c.11.5,2,.54,2.86.46l.75-.4c.61.79,2,0,2.52.34-1.41.75-5.28.16-7.67.36,1.34.84,4.44,1.33,7.17,1.44l-1.17-.38,1.42.11-1.33-.62c1.33.2,2.5.17,3.71.27-1.42-.09-1.92-.78-1.13-.62,1.55.56,1.66-.19,2.86-.1-.67-.07-1.53-.15-1-.38,2.34.7,3,.36,5.15,1-.25-.8,2.7,0,3-.69l-1-.08,2.12-.47c2,.62-1.74.69,1.25,1.1,2.77,0,2.67-.78,4.83-1a8,8,0,0,1-4.15,1l1.06.21a16.44,16.44,0,0,1-4.2.23c2-.53-.93-.17-1.84-.61-.17.46,1.12.4-.41.75a29.45,29.45,0,0,1,3.45.14c-3.92-.22-3.56,1.57-7,1.07,1.59-.13-.53-.68-.7-.92-.75,0-2.26.05-2.89.11l.52.7c-2,.16-2.62-1.3-5-.83-.34.37,2,.32,1.6.36-3.21.13-4.24-1.07-6.94-1.92a1.56,1.56,0,0,1-1.23.81c.36-.35-.33-.65.8-.79a9.4,9.4,0,0,0-2.88-.15c1.89.55-.88.44-1.28.62-1-.23.37-.34,1-.35-.78-.24-1.64-1-2.19-.47,0-.41,2.42-.7,3.91-.58l-1-.23a4.23,4.23,0,0,1,1.82.18c-.92-.45-.77-.8-.51-1,.12.07-.08.09,0,.16.78.22,1.4.19,1.25-.06.78-.45-1-.49-1.54-.85l-1.22-.08-4.41,1.07a9.21,9.21,0,0,1-3.76-1.28l-.46.4c-1.52-.38-2.9-.89-1.79-1.25,0,.18.22.19.54.29a.47.47,0,0,1,.25-.1l.1-.07-2.79-.38c2.91,0,.35-.81,1-1.53l-2.8-.43c1.59.69-.08.42-.69.37,0-.52-2.21-.6-3.14-1l.1-.07a17.57,17.57,0,0,0-3.52-1.09,11.7,11.7,0,0,1-2.48.66c1.83.81.65.62.71.94a1.41,1.41,0,0,0-.6-.17c-.32,0,.31.3.31.47,2.09.48,4.2,1.06,5.22.66-.53-.48-1.14-.05-1.78-.45,1.14-.13,2.39.37,4.08.84l.45.54,1.77.25c-.77,0-.45.55-2.27.13.13.43,1.81.4,2.88.8l.69-.37c-.29.24,2.07.86.29.85l-2.85-.28.67.55-2.35-.53.62-.11c-3.82-.7-.8-1.32-4.69-1.84-1.35.26-2.63-.08-4.83-1,1.68.44.32-.37,1.06-.5a5.67,5.67,0,0,0-3.24-.63c-.3-.49-.5-.85.95-.26.43-.59-2-.61-1.84-1.36-4.77-1.91-4.8.68-10-2.77l.34-.17c-3.66-1.38-5.47-2.77-8.7-4.39l-2-2.12c.6.25,2.34.64,1.85-.08.78,1.36,2.17,1.87,3.26,2.94.23-.1-.22-.52-.39-.76.77.45,1,1,2.09,1.4,0-.16-1-.93-.11-.55l1.18,1.16c2,.77,1.44-.5,3.58.79a4.47,4.47,0,0,1-2.63-.06c1,.61-1.49-.47-.67.23,1.76.21,2.26,1,4.42,1.59a2,2,0,0,1-.89-.14l2.79,1.57c-.57-.64,2.58.7,2.52.08-3-1.56-2.25-.84-5.6-2.77a7,7,0,0,0,3.34.27.57.57,0,0,0,.17.13c.75-.25.27-.62.66-1.47-1.84-.11-2.66-1.09-4.65-1.66-.57.29.78,1.12,1.75,1.44l-1.77-.49.42-.06c-1.34-.73-2.67-1.47-4-2.26a3.05,3.05,0,0,0,1.68.29,8.68,8.68,0,0,1-1.43-1.12c-.12.49-.36.75-.86.47a12,12,0,0,1-4.31-3.81l-.31-.15c.15.69-2.24-.35-3.29-.44.32-.4-1.09-1.11-1.64-1.82-.71.23-.69,1.25-.09,2.24,2,.69,1.25.18,2.47.06l3,1.28-.86,0c1.26,1,2.91,1.25,2.49,1.73-.93-.08-2-1-3-1.11l.79.76c-1.92-.49-.52-1-2.66-1.87.42.9-.2-.08-1.21-.32.45.75,3.48,2.05,2.43,2.43-1.25-.3-2.82-3-4.61-3.22l.12,0A8.78,8.78,0,0,0,31.62,306c-.63-.82-2-1.36-2.84-2l.18-.18-1.26-.9c.86.11,1.38,1.16,2.47,1.92l.17-.48c.85,1.39,2.18,1.31,3.37,1.65-1.64-.65-3.74-3-4.64-2.51l-.51-1.05-.5-.19c-.37-.78.61-.7,1.84.18.13.25.2.38.07.41a6.78,6.78,0,0,1,2.7,1.49l-.88-.34c1.66,1.31,3.33,2.27,4.19,2.29l-6.89-5.55c-1.34.31-2.5.09-3.5.56A19.25,19.25,0,0,1,21,296.86l.25,0a8.09,8.09,0,0,0-1.62-1.56c-.41-.83.8.07.49-.48L18,293c.44-.16,2,1.58,2.84,2.35-.17-.12-.52-.38-.47-.24.77,1.09,3,2.23,3,3.08.54.36-1.27-.54.27,1,.9,1.16,1.64,1,1.88,1s-1.42-1.78-.62-1.48a8.74,8.74,0,0,1-2.24-2c.82.74,2.25,1.39,2.41,2.07,1.93,1.11,2.5,0,1.8-.74-.08.46-3.18-2.31-1.46,0-1.27-.49-2.94-2.13-4.33-3.12h.12l-1.52-1.44c.31.12.82.51,1,.35l-2.46-1.67c1.44.9-.43-1-.74-1.68-.5,0-1.46-.66-.92.32s.62.41,1.37,1.23l-1.5-.8-.05-.14-1-.41c-1.34-1.73,1.51,0-.61-1.86l-.33.71c-2-2.59-3.64-6.48-5.08-8.26.67.33,1.36.22,1.23-.71a22.72,22.72,0,0,0,2.32,3.63c.06.29-1.68-1-2.35-2.35-.58,1.26,2.67,2.82,1.83,3.6,2,3.4,2.59,1.67,4.09,4.65.43-.29.8.55,1.25.39,0-1.25-2.76-3.34-3.75-5.24.15.14.45.43.58.44a10.37,10.37,0,0,0-1.95-2.51l0,.15c-1.45-1.26-.31-1.17-.7-2.19-.3-.31-.95-1.67-1.14-1.27l-.56-1.93-.46.36c-.56-.95-.36-1.33-1.13-2.06l-.48.2,1.17,2.52c-.83-1.15-.62-.1-1.46-1.41,1.32,1.26-.34-1.21,0-1.6L7.11,275l.25.2c-.15-.92-.63-.88-1-1.85a6.06,6.06,0,0,0,1.34,3.37,22.1,22.1,0,0,1-2.32-3.31,11,11,0,0,1-1.05-3.05c1,1.93,1.12-1.26,2.51,2.82-.12,0-.25-.36-.24-.51-.37.8,1.13,2.33,1.79,3,.23-.38.75.43.19-1.1,0,.58-1.38-.87-1.73-2.43l.85-.08-.8-2.11.11.19c.16-1-1-2.19-1.2-3.75-.67-.95-1.65-5.15-1.94-3.14.1-1.49-.83-2.51-1.26-4l.11,1.95A11.55,11.55,0,0,0,.85,258c.19-.22.29-.66.59-.34-.58-3.05-.75-7.45-1.44-9.25,0-2.2.9-2.53.65-5.58-.08-.65-.81.46-.44-1.55.08-.13.47,2,.56-.27-.49-1.67.71-3.7.53-5.83.4-1.06.72-2.93,1.12-2.44a12.83,12.83,0,0,0-.57,4.51c-.27-.28-.44,1.18-.51-.11-.7,2.56.08,1.72-.38,4,.18.17.64-1.16.52-1.67.64.06,0,4.6.92,2.59.23-2.42-1.07-3.33-.07-5.37.28.9-.24,2.2.37,3.35l.46-1.7-.32-1.33.09.1c1.09-3-.23-2.93,0-5.76-.83,1.49-1-.64-1.61.51.34-1.9.82-3.24,1.46-3.06-.36,3.56.62.38.51,3.68.36-.46.79.95,1.3-.87,0-2.19-.72.49-.4-1.64.09-.11.19-.22.26-.12-.08-1,.44-1.06.4-2.32l0,.31c.83-1.27,0-1.68.88-2.73-.64.32-.12-1-.12-1.79-.63,1.14-1.56,1.56-2.3,4.05.29.41.55.3.44,1.36l.43-1.61c0,.36,0,.65,0,1l-.64,1.49c.27-2-.37-1.26-.53-2.22.73-1.74.36-1.51.87-2.59.49.28,2.14-3.07,3.38-4.83l-.42.89c-.26,1.56.86-.78,1-.75l.2-1.14c-.05.22-.05.53.22.14.55-1.41,0-1.58.59-3,.33.05.19,1.4.76.64A4.12,4.12,0,0,0,12,214.28a3.26,3.26,0,0,1,.42-1.19.92.92,0,0,0-.06.22l1-.93c-.12,1.22-1.38,1.79-1.45,3l.4.34a6.47,6.47,0,0,0-.76,2.48,21.25,21.25,0,0,0,1.3-2.74c.39,0,.09,1,.06,1.14l-.16-.34c-1.19,1.33-.79,2.51-1.77,4.4-.16.28-.11.09-.17,0-.26,1.78-1.55,3.09-1.51,4.9L9.15,225a51.62,51.62,0,0,0-.56,5.67l.19.07c.18-.2,0,.59-.23,1h0l0,3.06a2.94,2.94,0,0,0,.46-.94c-.16-.38.49-2.26-.08-2.13.54-.81.5-2.36.9-3-.7,1.07-.22-1-.43-1.28.46-.29.6-1.76,1-1.44.19-.19-.49.47-.41,1.06,0,1.36,1.14-2.11,1-.46.38-2,1.55-4.46,2.12-6.54l-.68,1c.44-.84,1.38-2.87,1.66-2.91-.29.64-.66,1.37-1,2.21.44.27,1-1.92,1.3-1.86l.51-2.69-.59,1c.07-.8,1.62-2.69,2.66-4.12,0,1.23-1.44,2.26-2.11,4-.43,1.3,1-.39.53.8a2.48,2.48,0,0,0,.74-1.37l.37-.36c0,1.29-1.38,3.4-1.6,5.14a1,1,0,0,0,0-.38A9.75,9.75,0,0,0,13.14,224a2.06,2.06,0,0,0,.51-1.19c.16,0-.26,1.12-.25,1.6.61-1,.43-.06.81-.67a8.07,8.07,0,0,1-.82,2.08c-.39.36-.17-.48-.5-.51-.15.94-1,1.08-1.14,2.51.74-1.68.48.68.51,1.33l.11-.27a1.12,1.12,0,0,1-.39,1.39c.06-.75.4-1.39,0-1.31a6.72,6.72,0,0,0-.31,1.51l-.12-.57c-.21.79-.41,1.57-.59,2.37a6.78,6.78,0,0,0,1,1.62c-.44.49-.34,1.33-.34,1.88l-.09-.28c-.49,1-.63,3.34-.33,3.57-.41.74-1-5.61-1.6-.21-.26,2,.8,1.38,1,2.55a.12.12,0,0,0-.17,0c-.13.88.22,1,.33,1.72a2.92,2.92,0,0,0,.12-1.53c.37.29-.17,1.82.13,2.51-.59-.89-.28,1.69-.57,1a6.69,6.69,0,0,0,.66,4.52c-.67,1.23.25,2.05.17,4A6.63,6.63,0,0,1,11,252.4c-.61-1,0,2-.65.39.11.35.25,0,.13-.37-.13-.64-.41-1.23-.61-1L9.65,253l-.18-.54c-.11.83-.18,1.67-.25,2.52.11,0,.19-.2.24-.33.17,2.88,1.29,6,2,8.39,1.36.05,2.62,5.58,4.33,7-.58-.31-1.34-.29-1.45.14a6.41,6.41,0,0,1-1.44-2c.13-.23-.11-1.5.43-.84-1.21-2.57-.42.58-1.2,0,1.33,2.9,2.92,4.21,4.12,5.79l-.12.12,1,1.16c-.5-1.11.19-1.42.73,0l-.13-.13c.16.93,1.45,2.32,2.19,3.5l.89.53c.75,1.17.12,1.69,0,2.36,1.27,1.83,2.61,2.41,3.92,3.34.15.78,2.31,3.31.81,2.3,1.6,1.28,2.7-.35,4.31,2.8l-.87-.37c2.33,2.31,6.32,4.8,7.26,6-1.76.24,2.43,3.56,2.23,4.88,0-.32,1.11.33,1.34.32a1.3,1.3,0,0,0,1,.72c-.93-.95,1.47-.54-.84-1.55A9.83,9.83,0,0,1,45.38,301l-.31.41-1.73-1.3c0,.44-.94-.19-1.41-.31,3.2,2.47-1.13.74,2.39,2.93.52-.07.23-.09,1.21.37-.44-.26-.7,0,0,.44l.89,0c.8,1.49-2.35-.76-1.6.4-1.6-.49-4.07-1.88-4-1,2.12,1.66,2.67.27,4.88,2l.11.4c.94.34,1.3,0,1.9,0,0,.16.12.38.64.73a40.68,40.68,0,0,0,4.44.65c-3.78-1.38-2.78-2-6.55-3.65.66.15,3.23,1.45,3.73.9l-.28.43a15.77,15.77,0,0,1,4,1.71l-1-.21c2.11.69,2.95,2.35,4.9,2.3a5.63,5.63,0,0,0-1.38-.58,16.84,16.84,0,0,1,3.51,1.48l2.68.2c-.12.23,1.38.84.5.93,1.58,1,2.67.63,3.71.87,1.58,1.16-1.62-.33-2,.27a17.28,17.28,0,0,0,6.61,1.81c-.48-.26-.69-.42-.63-.53,0,.17,1,.46,1.59.63l.49-.2c.86.49.67.65-.19.65.87.34,2.12,0,2.91.75-1.65,0-3.49-1-4.36-1,3.28.65,2.92,2,7.15,2.64,0,.17-.76.29,0,.51,1.88.32.64-.56,1.31-.78a4.13,4.13,0,0,1-2.78-1.14l.44-.16c0,.14.9.38,1.13.58l.36-.48c-.26.57,1,1.37,2.22,1.41-1-.7-.72-.61-.87-1.36,1.7-.27,1.62,1,3.53.74-.18.17-1.74,0-.45.41,1.1.26,1-.25,1.82-.25-.94.34-.8.76-1.83,1.17a17.66,17.66,0,0,0-2.76-.4l1.53.79c-1.69-.28-1.34.3-1.52.46,2.76,1.15,2.32-.27,4.14.23,1-.17-1.71-.42-.25-.5,1.71.41.46-.23,2.43-.1l-.37.17c.54.41,1.19.14,1.88.22s-.54-1.89,2.52-1.44c-.17.12-.24.2-.25.26-1.21,1.25-2.46,2.52-3.74,3.73l10.62,1.87c.81.92-2.76.41-2.57.8l-1.7-.38c.14-.34,3.61.32,2.13-.49-3.06-.11-4.36-.7-7.34-.44.76,1,3.8.46,5.59,1.32a8.73,8.73,0,0,0-2.12-.12q2.61.54,5.63,1l.47-.15c-1.35-.24-2.28-.4-2.4-.45,1.8.26,3.36-.05,3.53-.66l-.31-.05.66-.14Zm104-40.45a.77.77,0,0,0,0,.34C204,282.42,203.9,282.44,204,282.19ZM65.06,317.41c2.26.89,4.55,1.8,6.78,2.53-3.7-2.39-6.15-4.16.45-2.07l.47.05A23.75,23.75,0,0,0,69,316.68c-1.25.08-5.43.27-5.45.4.28.46,1,.34,1.7.69Zm-.92-2.51c-1.22-.59-1-.24-1.31-.09l1.37.41C64.05,315.11,64,315,64.14,314.9Zm-1.32.17a.79.79,0,0,1,.31.18Zm25.52,7.12H88.2l1,.2A4.44,4.44,0,0,0,88.34,322.19Zm-2.63-1.05-.4.37.9.22A.81.81,0,0,0,85.71,321.14Zm-8.3-3.31c-.67.38-2.48-.06-2.75.49-.16.12.2.29.62.45l1.51.45c0-.09.17-.14.37-.17-.51-.22-.83-.45-.52-.76,1.16,1.16,1.37-.27,2.79.3C80,318.28,77.89,317.79,77.41,317.83Zm-71-79.59a3.33,3.33,0,0,0,.41-.34L7,239c-.35,1.85-1.36,3.34-.65,5.1a4.16,4.16,0,0,1-1,1.64,9.6,9.6,0,0,1,.12-1.08C4.58,239.7,6.72,242.19,6.37,238.24Zm.2,22.19a.48.48,0,0,0-.21-.23c2.15,4,3.73,7.09,4.61,9.23.22-.59-.24-2.62-.38-3.59l.77.62-.18.65,1,1.2c.17-.52-.36-1.59-.38-2.43-.13,0-1.54-2.21-2-2.81l.31,2.06A40.34,40.34,0,0,0,8.67,261c-.28,0-.11,2,.49,2-.3.33-.93-1.76-.93-.33A13.16,13.16,0,0,1,7,257.36l.59-.33c0-1.33-.94-.73-.81-2.35.42,1.89.64-.42.92,1.07.16-.51.66-.12.39-1.6-1-1.13.31-1.64-.56-2.72.2-.81.58.79.57-.76-.6-1.74-.87-1.63-1.5-1.71-.09,1.72.93,1.84.91,3.22-.45-.87-.88-1.76-1.29-2.66a2.83,2.83,0,0,0,0,1.22,4.66,4.66,0,0,0-.53-1.42l-.35-.63c.06,1.6.21,3,0,3.29L5,251.79a2.55,2.55,0,0,0,.38,1.9c.23,1.43.88,2.77.57,3.14l-.37-.49Zm34.27,45.39c-.29-1.53-.79-2.87-4.85-5.66l.35.17c-1.56-2-4.41-2.25-6.19-4.85a7.56,7.56,0,0,0,3.12.95l-1.39-.76c.72-.18-.66-.95-1.48-1.74l1.21.14c.38.6,1.67,1.81,1.74,1.64-.36-.18,1.23,2.19,2.54,2.93.17-.47-2.39-2.25-.81-2-1.17-.51-1-1-2.06-1.67,1.16.53.66-.31,1.58,0l-1.69-1.21c.06-.14,2.53,1.67,1.61.14-.79-.34-2.23-2-2.6-1.67l.07-.15c-1-1.12-1,.09-2.17-1.44-.2.17-.06.55.47,1s.81.1,1.73.85c.12.65-1-1-.88.06.07.54,2.55,1.86,1.39,1.87l-1.1-1.11c-.37.36-1.19-.43-1.45-.11-.85-.5-1.08-1.56-2.11-1.92-.52,0-.45.9-1.42-.46-.37-1.43-3-4.07-3.95-5.1l-1-.74c-.19.29,1.55,1.78.72,1.43L20.85,285h.25a8.45,8.45,0,0,0-1.38-1.3c.65.26,1.41,1.43,1.66.88-.49-.76-.41-1-1-1.59.14.11.27.21.32.15-.91-1.58-1.53-1.05-1.95-1.32-1.65-1.09.57,1.9,0,2q-1.77-2.08-3.37-4.32c.39.31.8.6.89.33-.52-1.25.33-.25-.69-1.81-.57.51-1.63-1.77-2.62-2.74,0-.69-.05-.83.62.36.33-.37-.69-1.87-.94-2.46-.28-.28-.62-.82-.89-1.14,0,.59-.35.52-1-.47l-.12,0c.67,1.83,1.68,4.76,2.73,5.57L13,277c.77,2.19,3.32,3.71,3.16,5.07-.36.12.19.41-.25.68l1.3,1.12-.39-.13,1.81,2.2h-.12c1.21.77,2.17,1.34,2.95,1.77.18-.15.17-.26.58,0a3.59,3.59,0,0,1,.79.74h0c.41.55.46,1.12.95,1.82l-1.79-1.89c-.43.09-.58.51.08,1.66-.36-.39-.74-.36-.33.17.12,0,1.35,1.11,1.15.44,1.77,1.74,4,5.34,7.37,7.28-2.35-1.47,1.33,1.84-1.07-.05,1.21,1.87,1.78.74,3.39,2.18,0,.29-.9-.75-1.56-.75,2.65,2.5,5.38,3,8.12,5.08l-.15.48Zm6.17,3,1.85.82-.17-.1,1.94.59c-1-.72-1.45-1.57.16-1-.22.11.11.55-.47.38.88.79,3,2.14,2.74,1.2-2.27-.35-.05-1-1.8-1.36,1,0,1.74.6,2.61.78-1,0-.2.91,1,1.65.58.14,2,.92,3,1.13-.14-.55.74-.44-.68-1.18a6.21,6.21,0,0,1,2.29,1c-.4-.08-1.07-.31-1.08-.14.44.64,1.16.91,1.49,1.23l1,.32a.6.6,0,0,1-.17-.23l1.19.05c-1.47-.35-.57-.45-.46-.67-.23.46.88.41,1.35.57l-.83-.9c.6-.06,1.62,1.05,1.55.44a32.8,32.8,0,0,0-5-2l.62.74c-2.31-.68-1.07-1.24-3.5-2.33-1.17-.12-3.62-1.74-4-1.08.4,0-1.17-1.38-2.13-1.51-1.24.16-4-1.31-3.32-.56.72.42,1.89.63,2.26,1.36l-1.49-.67.74.87C47.2,307.87,47.07,308.22,47,308.84Zm33.45,17,.06,0-.07,0Z" fill="#231f20"/><path d="M12.8,214.88c.08-.5.73-1.51.28-1.5C13.44,213.56,12.05,215.24,12.8,214.88Z" fill="#231f20"/><path d="M13.87,213.87c0-.12-.21-.15.05-.61l-.66,1.3Z" fill="#231f20"/><path d="M17.06,214.15a4.27,4.27,0,0,1,.87-2.19c1.09.22-.79,1.7-.25,2.65,1.17-1.67.81-2.68,1.73-4.13C18.55,210.9,16.4,213.66,17.06,214.15Z" fill="#231f20"/><polygon points="17.66 215.6 18.07 214.52 17.96 214.58 17.55 215.66 17.66 215.6" fill="#231f20"/><path d="M.59,237c-.34.06-.13.91-.11,1.35A3.35,3.35,0,0,0,.59,237Z" fill="#231f20"/><path d="M189.23,306c2.52-1.95,4.93-4.06,7.26-6.25C194.46,301.62,192.57,303.33,189.23,306Z" fill="#231f20"/><path d="M6.23,268.44c-1.18-2.28-2.06-3.22-2.92-5.72.34,3.55,2.3,4.07,2.73,7Z" fill="#231f20"/><path d="M3.53,268.47c.41-.61,1.37,1.66,1.66,1.14-.78-1.59-.83-.57-1.34-2.09Z" fill="#231f20"/><polygon points="10.17 255.15 10.6 255.77 10.39 255.25 10.17 255.15" fill="#231f20"/><polygon points="9.1 279.12 8.84 278.94 9.35 280.17 9.1 279.12" fill="#231f20"/><path d="M8.58,278.75l.26.19Z" fill="#231f20"/><path d="M11.6,255.78l-.06-1-.34-.44C11.32,254.82,11.45,255.31,11.6,255.78Z" fill="#231f20"/><path d="M10.88,265.36l-.49-.83C10.47,264.7,10.7,266,10.88,265.36Z" fill="#231f20"/><polygon points="13.25 285.97 14.19 286.87 14.16 286.73 13.22 285.84 13.25 285.97" fill="#231f20"/><path d="M15.28,271.43c.13-.77,1,1.57.72.23C15.41,270.66,15.41,271.18,15.28,271.43Z" fill="#231f20"/><path d="M20.16,284.81a1.63,1.63,0,0,0,.36.33Z" fill="#231f20"/><path d="M20.16,284.81c-.33-.4-.49-.93-.81-1.12A2.17,2.17,0,0,0,20.16,284.81Z" fill="#231f20"/><path d="M24.06,289.22l-.29-.37c.49.2.31.06-.11-.14-.34-.36-.43-.23-.54-.21l-.34-.12.4.2C23.69,289.16,24,289.49,24.06,289.22Z" fill="#231f20"/><path d="M36.42,309.8c-1.44-1.18-1.78-1.53-1.5-1.76-1.37-1.1-1.5-.46-2.45-1C34.13,308.2,34.37,308.57,36.42,309.8Z" fill="#231f20"/><path d="M32.47,307.09l-.58-.4A4.09,4.09,0,0,0,32.47,307.09Z" fill="#231f20"/><polygon points="22.74 281.58 23.79 282.04 23.5 281.79 22.74 281.58" fill="#231f20"/><path d="M38.63,311.44a3.74,3.74,0,0,1-.91-.73C37.44,311,38.91,311.65,38.63,311.44Z" fill="#231f20"/><path d="M36.82,301.75c0-.27-1-.82-1.3-1.17C36,301,36,301.86,36.82,301.75Z" fill="#231f20"/><path d="M43.92,312.89c-.28-.18-.61-.65-.27-.79C43.14,312,42.24,312.22,43.92,312.89Z" fill="#231f20"/><polygon points="39.38 303.64 39.25 303.4 38.13 302.91 39.38 303.64" fill="#231f20"/><path d="M39.07,296.94c-1.28-.43,1,2.05-1,1,2,2.05.18-.61,1.84.68C39,297.8,38.87,297,39.07,296.94Z" fill="#231f20"/><path d="M39.94,298.63a3.42,3.42,0,0,0,.45.37Z" fill="#231f20"/><path d="M54.33,310.22a3.46,3.46,0,0,0-.46-.07A3.65,3.65,0,0,0,54.33,310.22Z" fill="#231f20"/><path d="M45.71,302.05l-2-.49c1.3.35,4.06,2,4.21,1.37a6.13,6.13,0,0,0-2.56-1.18Z" fill="#231f20"/><path d="M61.56,322.49l-1-.08,1,.46C61.39,322.67,62.11,322.44,61.56,322.49Z" fill="#231f20"/><path d="M61.87,323l-.21-.09A.52.52,0,0,0,61.87,323Z" fill="#231f20"/><path d="M50.85,308.82a7.05,7.05,0,0,0-1.58-.74C49.43,308.3,50.79,309.16,50.85,308.82Z" fill="#231f20"/><polygon points="67.93 323.69 66.47 323.32 68.04 323.78 67.93 323.69" fill="#231f20"/><polygon points="74.36 326.64 74.58 326.83 75.85 326.91 75.62 326.73 74.36 326.64" fill="#231f20"/><path d="M69.49,312.14c-.85-.36-1.72-.06-1.53.14l1.72.55c-.28-.61-.49-.14-1.43-.6Z" fill="#231f20"/><path d="M125.84,329.61c-.41.39-2.56.38-2.7.06.28-.16,1.42-.37.68-.52l-1.63.94c-2.28-.35,1.63-1.19,2.7-1.59-2.28.09-2.91.68-5.34.83a5.1,5.1,0,0,1,1.58.35c.12.59-2.17.47-3.8.57,1,.2.46.44-.29.7a.56.56,0,0,0-.28.11l-.26.09.2,0c0,.07,0,.15.18.25a17.2,17.2,0,0,1,3.33.17c-.93-.87,3-.43,4.08-.8l1.27-.22.48,0c.11.1,0,.24-.73.5.59-.25,2.63-.4,2.41-.67,1.55-.15,3.08-.4,4.62-.6a1.54,1.54,0,0,1,.41.1c.16-.08.18-.13.15-.17a143.54,143.54,0,0,0,19.82-4.42c-1,.22-1.88.24-2.9.43,1.33-1-1.66.34-1.37-.37a5.61,5.61,0,0,1,2.22-.61c.14-.35-.76-.37-.76-.73-2.53.29-2.55,1.77-5,2.15,0-.37.68-.84-.89-.44l.39-.17c-2.45,1-2.14-.33-3.53,1l-.06-.51a20.72,20.72,0,0,1-4.58,1.33l.06-.11c-3.47,1.15-2,.49-6,1.27l1.77-.85c-1.41-.06-1.64.63-2.65.69.06-.1-.21-.45.71-.66-1.58.54-3.18,1-4.78,1.46C124.22,329.57,125.63,329.41,125.84,329.61Z" fill="#231f20"/><path d="M119.55,329.33a5.48,5.48,0,0,0-.9,0Z" fill="#231f20"/><path d="M154.09,324.82l-1.37.4A7.65,7.65,0,0,0,154.09,324.82Z" fill="#231f20"/><path d="M112.51,330.67c.86.26-.64.39-.79.59l3.09-.06c0-.2.28-.42.21-.61Z" fill="#231f20"/><path d="M115.71,331.56a2,2,0,0,1,.79-.41l-1.69.05C114.82,331.35,115,331.48,115.71,331.56Z" fill="#231f20"/><polygon points="115.1 320.95 115.61 320.92 116.37 320.74 115.1 320.95" fill="#231f20"/><path d="M123.14,321.38a4.29,4.29,0,0,0-2.16.16A13.5,13.5,0,0,0,123.14,321.38Z" fill="#231f20"/><polygon points="121.26 318.29 122.5 318.02 122.38 317.97 121.26 318.29" fill="#231f20"/><path d="M163.32,319.4l.61-.28A5.46,5.46,0,0,0,163.32,319.4Z" fill="#231f20"/><path d="M152.4,323.71c3.31-.36-1.92,1.06-.73,1.49l1.65-.74-.09.23,2.07-.72c-.53-.18-.86-.1-.87-.47,2.8-.76,1,.12,3.17-.11l3.06-1.15-.21.18c.26-.1.36-.17.42-.27,3.42-1.36,6.8-2.8,10.08-4.46,1.69-1.11-1.27-.12-.16-1.22-2.08,1-5.38,2-5.28,2.72,0-.12.1-.36-.36-.25l-1,1,1.26-.3c-1,1.07-5.15,2.52-6,2.41,2.26-1,.85-1.24,4.18-2.14-.21-.11-.91-.18-.23-.55C159.68,321.09,156.19,321.92,152.4,323.71Z" fill="#231f20"/><path d="M188.39,305.92l0,.08C188.45,305.92,188.45,305.89,188.39,305.92Z" fill="#231f20"/><path d="M187.24,306.64,186,308.33l2.5-1.8-.1-.53a3,3,0,0,1-1.34,1.16Z" fill="#231f20"/><path d="M184.32,310c1.23-1,.83-1.47,0-1.22,1.07-1,1,.1,1.47-1-.25-.31-1.6.88-1.92,1.15Z" fill="#231f20"/><polygon points="173.99 315.54 174.28 315.12 173.27 315.57 173.99 315.54" fill="#231f20"/><path d="M174.28,315.12l1-.43a1,1,0,0,0-.51-.27Z" fill="#231f20"/><path d="M177.87,313.47c.42-.2.9-.4,1.44-.71Z" fill="#231f20"/><polygon points="176.71 313.94 176.78 313.99 177.87 313.47 176.71 313.94" fill="#231f20"/><path d="M175.28,314.69c.34.28.73.56,2.07-.31l-.58-.4Z" fill="#231f20"/><polygon points="130.47 317.92 131.57 317.54 131.44 317.5 130.34 317.88 130.47 317.92" fill="#231f20"/><path d="M137.05,317.2a4.09,4.09,0,0,0,.64-.35A1.71,1.71,0,0,0,137.05,317.2Z" fill="#231f20"/><path d="M141.24,313.5c1.38.1-1.66.92.77.56.3.32-.72,1.05-1.89,1.12,0-.36,1-.47.28-.67-.67.58-1,.37-.64.84a13.33,13.33,0,0,0-2.07,1.5c1.51-.51,4.88-.69,6.66-1.88.91-.89,0-1.58-.19-2.49C144,312.33,141.21,312.9,141.24,313.5Z" fill="#231f20"/><path d="M139,313a3.94,3.94,0,0,0-1.13.31C138.06,313.64,138.55,313.17,139,313Z" fill="#231f20"/><path d="M154.67,316.05c.07-.16,1.11-.7.8-.83l-1.61.71A.91.91,0,0,1,154.67,316.05Z" fill="#231f20"/><path d="M153.16,316.23l.7-.3A3,3,0,0,0,153.16,316.23Z" fill="#231f20"/><path d="M154.77,316.1l-.1-.05S154.67,316.11,154.77,316.1Z" fill="#231f20"/><path d="M181.91,311.39c.11.23.75-.33,1.06-.63A5.67,5.67,0,0,0,181.91,311.39Z" fill="#231f20"/><path d="M205.21,290.34l.64-.44A1.54,1.54,0,0,0,205.21,290.34Z" fill="#231f20"/><path d="M206,277.37a.27.27,0,0,1,0-.18A.22.22,0,0,0,206,277.37Z" fill="#231f20"/><path d="M206,277.19c.08-.49,1.05-1.58,1-2.18l.05.1.31-.91A12.69,12.69,0,0,0,206,277.19Z" fill="#231f20"/><path d="M491,298.14c-.69-.48-1.06-1.17-.73-1.07-1.55-.79-1.28-1.18-1.92-.77-1.05-.47-1.6-1.6-.48-1-.89-.57-1.75-1.2-2.6-1.84l1.28,1.4c-.78.08-2.05-2.24-3-2.18l2.52,2.38-.26,0a10.22,10.22,0,0,1,2.15,1.88c-.13,0-.19.17-.66-.22,3.14,2.77,1.53-.05,4.3,2A3.3,3.3,0,0,1,491,298.14Z" fill="#231f20"/><path d="M492.87,301.43l1.61.26,1.9,1.5c.17-.2,1.75.6.88-.25a4.87,4.87,0,0,1-.94-.5c.53-.31,2.82,1.51,2.53.65-1.67-.89-1.83-1.18-3.05-1.44a16.12,16.12,0,0,1-2.88-2.53c-.47-.23-.73,0-1.29-.36l.37.26-.46.71a6.49,6.49,0,0,1,1.43.91c-1-.28-1.92-.6-2.87-1,.22,1.23,2.82,2.53,3.54,3.46C492.91,301.74,494.74,303.51,492.87,301.43Z" fill="#231f20"/><path d="M491.63,298.76l-.05-.05Z" fill="#231f20"/><path d="M681.09,274.1c.42-.39.41-.65.41-.78-1.6,1.42-3.22,2.8-4.89,4.14.3.06,1.9-.92,1,0a3.76,3.76,0,0,0,1.74-1.78l-.15.55c.87-1.28,2.17-1.32,1.6-.48l.1-.09,2-3.95C681.73,272.61,682.43,272.89,681.09,274.1Z" fill="#231f20"/><path d="M685.61,164.6c.75.38.88.37.84.25A3.83,3.83,0,0,0,685.61,164.6Z" fill="#231f20"/><path d="M683.34,270.75l.58-1.23A4.94,4.94,0,0,0,683.34,270.75Z" fill="#231f20"/><path d="M681.63,282.63s0,.06.07.06l.3-.59h0Z" fill="#231f20"/><path d="M700.15,247.79l.18-.36Z" fill="#231f20"/><path d="M668.44,295.74l2.27-2.06c-.2.42,1-.45.6.13.17-.15,1-.84.7-.77l-.5.36c.94-1.47,0-1.15,1.87-3.06a4.59,4.59,0,0,0-2.5,2l-.6.51-1.58,2.18Z" fill="#231f20"/><path d="M714.7,192.48h.06A0,0,0,0,0,714.7,192.48Z" fill="#231f20"/><path d="M715,192.53l-.25,0C714.92,192.6,715.25,193.14,715,192.53Z" fill="#231f20"/><path d="M683.3,271.4a1.07,1.07,0,0,1,0-.65l-.43.94Z" fill="#231f20"/><path d="M682.69,274l-1.76,1.66-.45.85C681.09,275.78,681.87,275,682.69,274Z" fill="#231f20"/><path d="M697.81,250.62c2.58-4,0,1.43,1.41-.3a17,17,0,0,0,.93-2.53c-1.79,3.36-.77-1.09-2.69,2.18-.26-.83.88-2.67,1.69-3.66,1.32-.89-.23,1.33.12,2,.74-1.35.47-1.19.5-1.93,1.38-2,1.72-4.64,3.17-5.47.64-1.59.28-1.64.39-2.66-.56-.47-1.42,2.1-2.22,2.38.11-.08.33-.25.39-.14l-.81,1.21c.88-1.09.54.51.23,1.2-.23.48-.76,1.43-.85,1.2l.27-.79c-.71.81-.71,2.29-1.64,3-.16,0,0-.44-.06-.54a19.36,19.36,0,0,1-1.67,4.07l0-1.29c-.17,1.68-2.32,4.35-4.1,5.94.26-.13.61-.46.55-.14-.73,1.19-1.76,1.71-1.65,1-.39,1.44-3.65,3.64-4.35,5.49-1,2.91-2.22,5.81-3.52,8.71a6.3,6.3,0,0,1,.62-.87c1-.11,1.27-.47.66.94.76-1.21,0-1.18,1.49-2.67-.34.8,0,1.46,1.47.08,3.05-4,3.86-7.68,5.94-11.76.49.16,2.52-2.75,3.57-4.11a6.29,6.29,0,0,1-1.28,3.1c.52-.65,1.39-1.81,2-2.68Z" fill="#231f20"/><path d="M692.18,260.57a3.65,3.65,0,0,0,.31-.24A1.11,1.11,0,0,0,692.18,260.57Z" fill="#231f20"/><path d="M696.13,254.56l0,0,.23-.37Z" fill="#231f20"/><path d="M684.89,271.39l-.38.79.38-.53C685,271.46,685,271.34,684.89,271.39Z" fill="#231f20"/><path d="M683.59,271.46l0-.25-.27.19C683.35,271.5,683.43,271.54,683.59,271.46Z" fill="#231f20"/><path d="M710.38,236.31l.07-.49A.82.82,0,0,0,710.38,236.31Z" fill="#231f20"/><path d="M701.37,246.57c-.83,1.45.53.55-.74,2.56l.42-.56a35.82,35.82,0,0,1-3.66,5.7c-.09-.35-1,.78-1.23.33a10,10,0,0,0-1.62,3.16c-.65.58-1.18,1.85-2,2.57.51-.18-.33,1.8,1.17-.48-.11.2,0,.13-.09.32,1.4-1.1,1.36-2.05,2.27-3.23.76-.53-.58,1.42,0,.82,1-1.6,3.79-4.52,2.89-5,.72-1.15,1-1.19,1.38-1.42.35-2.31,4.57-6.51,3.34-7.19a20.47,20.47,0,0,0-1.31,2.9Z" fill="#231f20"/><path d="M687,269.32l.25-.22Z" fill="#231f20"/><path d="M667.85,280.15l.06-1.12c3.12-2.53,4.4-3.23,7.11-5.45.27-.08,0,.25-.14.42,1.85-1.62,4.73-3.92,5.77-5.43.57-.52,2.26-1.72,1.88-1a4.49,4.49,0,0,1,.81-1c.3.15-.64.75-.48.95.26-.22.41-.27.39-.4-.24.6,1.21.37-.82,2.23-1.28.18,1.34-1.37.31-1.53-.66.62-.37.78-.36.9-.85.78-1,.6-1,.43-.15.49-1.48,1.19-1.67,1.89-1.65,1.53-.31-.54-1.42.43l-.1,1.18-2,1.46c-2.58,2.47,1.32.79-1.59,3.73.16-.68-1.59-.24-3.2.77.89-.71,2.22-2.41,3.51-3.14-2,.79,2.15-1.84.84-1.75a9.17,9.17,0,0,1-3,2.68l.29-.32c-1.17.78-1.47,2.13-3.24,3-.77.6-.76.3-.74,0C668.46,279.76,668,280.3,667.85,280.15Zm1.59-1.37,1.09-.69A2.88,2.88,0,0,0,669.44,278.78Z" fill="#231f20"/><path d="M509.88,311l-.36-.23A1.73,1.73,0,0,0,509.88,311Z" fill="#231f20"/><path d="M629.1,311l-.75.24A5.57,5.57,0,0,0,629.1,311Z" fill="#231f20"/><path d="M612.76,318.85l-1.09.48A4.63,4.63,0,0,0,612.76,318.85Z" fill="#231f20"/><polygon points="518.78 314.58 518.82 314.6 519 314.61 518.78 314.58" fill="#231f20"/><path d="M576.92,322.61a3.25,3.25,0,0,0-.67-.14C576.29,322.55,576.54,322.59,576.92,322.61Z" fill="#231f20"/><polygon points="612.96 318.76 612.89 318.76 612.76 318.85 612.96 318.76" fill="#231f20"/><path d="M637.34,310.54l.45-.27A2,2,0,0,0,637.34,310.54Z" fill="#231f20"/><path d="M635.43,308.76a2.44,2.44,0,0,0,.43-.26Z" fill="#231f20"/><path d="M661,298.31l.87-.66A5.19,5.19,0,0,0,661,298.31Z" fill="#231f20"/><path d="M638.26,308.22l.12-.17C638.25,308.13,638.2,308.2,638.26,308.22Z" fill="#231f20"/><polygon points="504.82 305.83 504.88 305.86 504.95 305.79 504.82 305.83" fill="#231f20"/><path d="M502,305.65l-.85-.41A4.33,4.33,0,0,0,502,305.65Z" fill="#231f20"/><path d="M561.33,321.57c-.27-.13-.93-.3-.62-.42C560.17,321.31,560.19,321.73,561.33,321.57Z" fill="#231f20"/><path d="M511.63,303.4a2.59,2.59,0,0,1-.63,0C511.39,303.47,511.73,303.51,511.63,303.4Z" fill="#231f20"/><path d="M511,303.43l-.57-.07A3.7,3.7,0,0,0,511,303.43Z" fill="#231f20"/><path d="M568.41,314.71a.63.63,0,0,0,.32.12C568.69,314.71,568.57,314.69,568.41,314.71Z" fill="#231f20"/><path d="M500.52,304.73c-.24.09-4-1.67-1.08.21-.43.45-2.07-.91-2.92-1.32.49.5-.5.15-.45.44a8.5,8.5,0,0,1,1.62.8c.15.43-.95,0-1.65-.63.77.9-1.47-.39-.27.71a21,21,0,0,0,7.76,3,20.79,20.79,0,0,1-5-2.73l.84-.12c1.28,1.34,2.43,1.56,3.94,2.44-1.1-.73-2.22-1.4-3.28-2.17-1.35-1.34-.24-.79,1-.13C500.81,305.05,500.55,304.86,500.52,304.73Z" fill="#231f20"/><path d="M505.06,301.94l-.05-.05a.47.47,0,0,0-.16,0Z" fill="#231f20"/><path d="M655.45,289.06l.17-.33C655.44,288.94,655.4,289,655.45,289.06Z" fill="#231f20"/><path d="M505.8,305.28Z" fill="#231f20"/><path d="M648.53,292.78v-.07A.17.17,0,0,0,648.53,292.78Z" fill="#231f20"/><path d="M651.78,304l.08,0C652,303.94,651.92,304,651.78,304Z" fill="#231f20"/><path d="M648.54,292.82s0,0,0,0A.06.06,0,0,0,648.54,292.82Z" fill="#231f20"/><path d="M613.4,308.47a1.86,1.86,0,0,0,.35.1C613.81,308.5,613.72,308.46,613.4,308.47Z" fill="#231f20"/><path d="M621,307.07l.15,0Z" fill="#231f20"/><path d="M563.18,324a8.75,8.75,0,0,0,1,0A6.18,6.18,0,0,0,563.18,324Z" fill="#231f20"/><path d="M648.54,292.71a2,2,0,0,1,.25-.33A1.61,1.61,0,0,0,648.54,292.71Z" fill="#231f20"/><polygon points="602.61 313.82 602.83 313.72 602.69 313.72 602.61 313.82" fill="#231f20"/><path d="M598.57,314.22a.88.88,0,0,0,.24-.22c-1.38.47-4,.71-4.24,1.31.48-.08,3-.22,2.67.19,1-.32,2.52-.19,3-.39-1.69,0-.26-.42.79-.84,1,0-.1.48.78.4l2.3-.53-2,.34.5-.66-.19.1C599.08,314.85,602,313.22,598.57,314.22Z" fill="#231f20"/><path d="M598.81,314a2.58,2.58,0,0,0,.52-.23A.86.86,0,0,0,598.81,314Z" fill="#231f20"/><path d="M584.78,315.18l-.59.16Z" fill="#231f20"/><path d="M679.1,277.53c-.15-.08-1.9.93-1.62,1.22l1.48-1Z" fill="#231f20"/><path d="M546.43,317.53l.67.09.14-.05A2.1,2.1,0,0,0,546.43,317.53Z" fill="#231f20"/><path d="M596.66,315.81a1.56,1.56,0,0,0,.58-.31A1.47,1.47,0,0,0,596.66,315.81Z" fill="#231f20"/><path d="M546.42,316.53c-.27-.17-.66-.4-.7-.56a12.61,12.61,0,0,0-1.61.09A8.3,8.3,0,0,1,546.42,316.53Z" fill="#231f20"/><path d="M544.06,316.06h0Z" fill="#231f20"/><path d="M680.13,276.9l.35-.41-.14.27,1.13-.81.39-.41a.29.29,0,0,0-.08.2l.36-.25c.55-1,2.36-3.11,2.75-3.84a19.16,19.16,0,0,1,2.06-2.33c-.53.51-1.17,1.26-.79,1.22,1.24-.86,2.29-.86,3.66-3.15l-1.06,1.09,1.69-3.09c1.1-.61-.82,1.55-.92,2.12,1.51-2.22,3.9-3,4.1-4.51.47.18,1.28.49,2.38-.89-1.22.63.4-1-.71-.6.18-.64,1.38-1.39,1.17-1.7l0,.25c2.46-1.86,2.09-3.39,2.53-4.63,1.92-3,3.05-4.16,4.5-6.65a2.27,2.27,0,0,0,2.07-1.18c-.09-.68,1-3.07.62-3.57-1.19,1.7-.39,1.71-.89,2.85-1,.61-.55-.2-1.56.84.8-.86,2.26-4.58,3.26-5.46l-.13.43c1.17-1.61,2.61-1.39,3.18-4.79l.28-1.59a.36.36,0,0,0,.11.17c1-2.39,1.34-1.52,1.78-4.41,0,.23.07.11,0,.34.81-1.47.65-3.24.83-4.46.64-.61.4.28.6.83a16.89,16.89,0,0,0,.36-7.82l.49-1.78c.07,1.09.37,2.49.69,2.2a8.58,8.58,0,0,1,.05-2.29,5.58,5.58,0,0,1,.76,1.65c.85-3-1-.78.15-2.8a1.54,1.54,0,0,0-.68-1.65c.19-.55.37-1.12.53-1.68-.44-.21-.45-2.31-.59-3.68-.19-.16-.44,1.12-.26,1.63-.36-.1-.55-1.53-.61-2.45,1-.43-.78-6,.45-5.09-.88-4.15-2.76-9.79-4.25-12.15-.11-.94-.88-2.64,0-1.81-1.46-3.1-3.15-4.14-4.73-7.07,0-.31.83,1.26,1,1-1.49-1.63-1.84-3.59-4.18-6.1.37.43.63.44.75.44-.08.15-1.13-.89-1.82-1.46-.26-.43.51.44.43.15-4-5.37-8.73-7.75-14-11.51,1.52,1.07,2.46,1,2.63.8l-1.49-1.09c-.76-.16-1.9-.94-3-1.36-.06-.18-.46-.59.1-.41-2.75-2.51-5.43-2-9.2-4.25,1.79.42,3.58.87,5.37,1.4l-1-1,2.39.68c-1.08-1-2.58-.92-2.5-1.43.34,0,1,.43,1.11.21-1.13-.84-1.41-.57-2.37-1,2.92.37,7.61,3.2,10.14,4.72.42.2-.46,0-.59,0,1,.65,1.42,1.31,2.72,2.07,1,.24-.38-.67-1-1.14.29-.23.58,0,1.28.47-.12.46,3.52,2.94,3.91,4.12,3.39,2.87.32-1.43,3.38,1.71l.54,1.31a26.59,26.59,0,0,1,6.24,6.13l-.38-.48c-.44-.18-.14.44-.06.75,1.12,1.86,2.76,3.12,3,4.54a36.6,36.6,0,0,1,5.55,7.89c-.34,1-2-3.22-3.06-4,.4.77.79,1.55,1.15,2.34a6,6,0,0,0-2-2.54c.91,2.05,1.81,2.44,2.83,4.35-.25-.08-.23.23.12,1.15l.55.09s0,.14.06.44c.55,1.16,1.06,2.34,1.55,3.54-.06-.84.32-1,0-2-.14.43-.48-.36-.82-1.3.6.71-.1-1,.14-1.09l2.05,5.5-.31.53c.38,1.89,1.07,3.82,1.15,5.14l-.31-.36c.31,2.27.82,4.5.54,6.57.67,2,1.07,4.6,1.54,6.33.58,1-1.13,6-.82,8.41-.09.14-.15-1.65-.27-2.47-.3,1.51.19,2.86-.5,3.22.79-3.38-.49.1-.4-1.46a32.58,32.58,0,0,0-.47,4.08c.57-2.55.62,1.09.92-1.56a18.9,18.9,0,0,1-1.34,7.24c-.24-.1-.45.16-.84,1l.12.82c-.43,1.06.28-2.24-.57-.1-.13,2.48-2.91,6.48-2.3,7.89-1.17,1.44,1-3.32-.65-1.08.25-1.6,1.52-3.42,1.16-4.12-.42,1.48-.68.33-1.05,1.24l-.34,1.71.18-.34c-.61,2.86-2.89,6.81-4.68,10-1.08,2.94-1.53,5.23-3.76,8.24.37-1.08-2.09,2.31-1.22,0-1.27,1.2-2,2.76-1.83,2.93,1-1.13.39-.37,1.26-1.3a8.24,8.24,0,0,1-2.17,2.95c.25-.29.12-.21.09-.34-1.3,1.27-.3.86-1,2-.59,0-1.95,2.12-2.92,2.86l-.7,1.69c.35-1-1.23,1.12-1.7,1.05a10.74,10.74,0,0,1-2.42,3.46c.41-.69-1.45,1-1.76.71-2.6,1.91-3.13,4.49-5.85,6,0-.14.29-.75-.45-.25a26.69,26.69,0,0,1-2,1.8v0l0,0c-.27.26-.42.44-.36.52a16.65,16.65,0,0,1-2.8,3.7c.44.27,2-1.2,2.66-1.91l.33-.86c1.06.08,1.69-1.56,2.3-1.74-.62,1.64-4.19,4.25-6,6.24,1.69-.44,4.57-2.51,6.88-4.57l-1.23.65,1.24-1-1.53.6c1.24-.89,2.16-1.84,3.22-2.73-1.22,1.07-2.12,1-1.37.46,1.67-.82,1.23-1.44,2.26-2.34-.6.48-1.35,1.13-1.05.5,2.4-1.36,2.68-2.14,4.89-3.38-.78-.36,2.15-2.2,1.94-2.94l-.85.77,1.35-2.05c2-1.16-.9,1.89,1.79-.26,2.22-2.23,1.54-2.75,3.12-4.64a10.27,10.27,0,0,1-2.56,4.12l1-.73a19.78,19.78,0,0,1-3.18,3.59c1.21-2-.86.66-1.9,1.06.17.46,1.17-.61.19.86,1.16-1.14,1.3-1.33,2.87-2.69-3.28,3-1.74,4-4.86,6.39,1.18-1.38-.91-.06-1.22-.09-.59.62-1.8,1.83-2.27,2.37l.92.08c-1.54,1.72-3,1.15-4.64,3.33,0,.53,1.87-1.36,1.55-1-2.52,2.6-4.2,2.56-7,4.05a1.64,1.64,0,0,1-.43,1.52c0-.53-.73-.2.1-1.18a11.93,11.93,0,0,0-2.47,2.12c1.93-1.08-.4,1-.6,1.42-1,.59.07-.52.57-1-.81.45-2,.58-2.13,1.37-.26-.33,1.48-2.35,2.78-3.42l-1,.6a5.12,5.12,0,0,1,1.62-1.27c-1.08.39-1.2,0-1.16-.36.15,0,0,.12.14.09.78-.44,1.27-.94,1-1,.32-.93-1.2.47-1.87.58l-1,.89-2.85,4.13a11.7,11.7,0,0,1-4,2l-.1.63c-1.51.88-3,1.59-2.36.49.14.1.31-.05.65-.23a.55.55,0,0,1,.13-.25l0-.12-2.55,1.85c2.37-2.21-.31-.83-.28-1.83l-2.61,1.83c1.81-.72.24.35-.3.78-.4-.32-2.23,1.26-3.25,1.72l0-.13a20.94,20.94,0,0,0-3.65,1.93c.13.12-1,1.55-1.51,2.33,2.07-.82,1-.07,1.27.12a1.8,1.8,0,0,0-.61.33c-.23.27.47,0,.59.09,2-1.26,4.17-2.46,4.7-3.51-.78.08-1,.85-1.77,1a14.83,14.83,0,0,1,3.93-2.51l.75,0,1.62-1.16c-.61.6,0,.71-1.75,1.8.42.2,1.77-1.08,2.93-1.62l.29-.79c-.06.39,2.32-.95.86.38l-2.53,2,1-.12-2.29,1.41.42-.55c-3.6,2.4-1.61-.3-5.14,2.28-.9,1.2-2.17,1.93-4.63,2.95,1.66-1,0-.49.46-1.15a6.94,6.94,0,0,0-3,2c-.6-.11-1-.2.57-.9-.11-.73-2,1.09-2.49.47-5.23,2.35-3.27,4.1-9.91,5.75l.12-.37c-3.87,1.88-6.34,2.37-10,3.84l-3.21.23c.64-.31,2.25-1.43,1.3-1.51,1.68.28,3.12-.49,4.8-.63.09-.24-.59-.16-.9-.19a12.94,12.94,0,0,0,2.7-.71c-.12-.13-1.51.17-.54-.27l1.82-.15c2.15-1,.7-1.46,3.37-2.24a5.2,5.2,0,0,1-2.08,2c1.23-.37-1.49.83-.32.66,1.5-1.23,2.51-1.06,4.63-2.33a2.66,2.66,0,0,1-.8.58l3.39-1.08c-.95,0,2.55-1.49,2-1.88-3.55,1.26-2.4,1.15-6.5,2.44a8.55,8.55,0,0,0,2.81-2.38.78.78,0,0,0,.23-.05c.4-.74-.27-.62-.61-1.49C636.34,308,635,308,633,309.16c-.22.63,1.48.15,2.48-.4l-1.76,1,.29-.36L629.1,311a3.53,3.53,0,0,0,1.52-1.12,11.31,11.31,0,0,1-2,.39c.3.41.33.77-.28,1a15.47,15.47,0,0,1-6.33.92l-.36.15c.67.32-2,1.53-2.79,2.32-.1-.52-1.72.16-2.7.16-.33.71.54,1.32,1.79,1.47,2-1.14,1-.87,1.85-1.91l3.25-1.54-.62.7c1.77-.34,3.2-1.46,3.26-.84-.76.69-2.32.91-3.09,1.6l1.2-.15c-1.82,1.21-1.2-.23-3.49.9,1,.24-.21.11-1.15.75.94.11,4.23-1.43,3.76-.36-1.16.77-4.54.29-6,1.6l0-.12a9.62,9.62,0,0,0-4.11,1.83c-1.13,0-2.51.75-3.67,1.05l0-.26-1.61.49c.67-.64,1.92-.43,3.31-.83l-.29-.43c1.75.17,2.61-1,3.75-1.69-1.7.89-5.14,1.19-5.36,2.19l-1.23-.22-.51.3c-.92-.16-.18-.92,1.41-1.4.31.06.47.08.4.2a8.29,8.29,0,0,1,3.15-1.26l-.91.5c2.27-.56,4.27-1.27,4.91-1.94-3.29.68-6.49,1.46-9.55,2.17-.66,1.27-1.63,2.08-1.89,3.17a24.41,24.41,0,0,1-6.78,1.27l.13-.23a9.78,9.78,0,0,0-2.39.49c-1-.12.56-.63-.11-.67l-3,.8c.11-.49,2.65-.86,3.85-1.1-.22.08-.67.23-.51.27,1.44-.07,3.89-1.31,4.62-.76.66-.24-1.29.74,1,.34,1.59-.08,2-.76,2.09-1s-2.47.15-1.69-.33a11,11,0,0,1-3.17.72c1.18-.24,2.69-1.06,3.39-.8,2.24-1,1.64-2.08.54-1.92.34.32-4.14,1.33-1,1.2-1.27.77-3.8,1.19-5.55,1.83l.07-.11-2.23.47c.29-.18,1-.4.94-.66l-3,1.17c1.69-.74-1.13-.13-2-.26-.29.43-1.48.88-.27,1,1.37.11.75-.29,1.94-.51l-1.62.85-.15,0-1,.64c-2.33.26.87-1.31-2.05-.44l.47.64c-3.48.34-8-.08-10.43.39.65-.44.9-1.09,0-1.4a36.64,36.64,0,0,0,4.66-.33c.31.11-1.81,1-3.47.94.89,1.09,4.08-1,4.37.12,4.23,0,3-1.4,6.6-1.18,0-.52,1-.37,1.1-.85-1.15-.7-4.7.64-7,.55a2.23,2.23,0,0,0,.74-.3,11.72,11.72,0,0,0-3.44.5l.15,0c-2,.65-1.27-.29-2.46-.43-.45.11-2.09.08-1.81.44l-2.16-.39.14.57c-1.21.09-1.48-.28-2.56.12l0,.52,3,0c-1.51.24-.4.52-2.07.7,1.85-.65-1.34-.22-1.53-.71l-1.23.32.31-.15c-1-.24-1.14.22-2.28.17a7.47,7.47,0,0,0,3.92.2,30.93,30.93,0,0,1-4.29.72c-1.3.25-2.22-.18-3.43-.24,2.33-.2-.81-1.53,3.85-1.19-.09.1-.46.08-.61,0,.63.65,2.79-.09,3.79-.37-.27-.36.77-.48-1-.65.59.23-1.49.87-3.19.59l.29-.82-2.46-.1.23,0c-.92-.55-2.62.1-4.31-.28-1.23.27-5.91-.2-3.94.75-1.49-.61-2.87,0-4.55-.06l2.06.48c-2.51.42-1.77.08-3.83.83-.18-.25-.6-.47-.17-.66-3.32-.31-8-1.22-10-.88-2.33-.4-2.51-1.44-5.82-1.68-.71,0,.37.86-1.72.17-.13-.1,2.18-.14-.21-.6-1.84.27-3.89-1.27-6.21-1.3-1.09-.54-3.11-1-2.55-1.39a15.3,15.3,0,0,0,4.84,1.08c-.33.23,1.23.61-.18.49,2.69,1.06,1.87.17,4.3,1,.22-.15-1.16-.81-1.73-.75.15-.67,5,.74,2.93-.53-2.62-.61-3.74.56-5.85-.71,1-.18,2.36.55,3.69.11l-1.81-.71-1.47.13.11-.08c-3.14-1.43-3.21-.15-6.27-.67,1.57,1-.74,1,.47,1.66-2-.52-3.44-1.11-3.24-1.74,3.85.65.43-.59,4-.19-.48-.4,1.08-.7-.9-1.38-2.39-.26.51.76-1.8.25-.12-.11-.24-.21-.13-.28-1.14,0-1.17-.48-2.53-.57l.34,0c-1.39-.95-1.83-.17-3-1.07.34.67-1,.06-1.95,0,1.25.72,1.73,1.64,4.41,2.58.45-.27.32-.52,1.48-.35l-1.74-.56c.39.07.71.08,1.08.13l1.6.74c-2.21-.43-1.38.31-2.41.37-1.88-.85-1.64-.47-2.81-1,.32-.48-3.34-2.34-5.32-3.66l1,.46c1.7.36-.88-.91-.87-1.09l-1.25-.24c.23.06.58.07.13-.23-1.58-.57-1.72-.05-3.28-.69,0-.35,1.51-.15.65-.76a5.12,5.12,0,0,0-2.94-2.37,3.93,3.93,0,0,1-1.35-.45,1.22,1.22,0,0,0,.25.07l-1.1-1c1.34.17,2.08,1.45,3.43,1.58l.34-.41a8,8,0,0,0,2.79.85,32.8,32.8,0,0,0-3.11-1.42c-.05-.39,1.08-.06,1.24,0l-.35.15c1.56,1.24,2.81.9,5,2,.32.17.11.12,0,.17,2,.37,3.49,1.72,5.5,1.81l-.67,0c1.28.29,3.83.68,6.36,1l.08-.18c-.23-.2.67.09,1.12.33h0l3.47.37a3.66,3.66,0,0,0-1-.57c-.45.14-2.56-.76-2.42-.14-.91-.64-2.67-.71-3.33-1.19,1.21.81-1.1.14-1.44.33-.33-.47-2-.7-1.65-1.07-.21-.21.54.55,1.21.48,1.53.13-2.4-1.3-.53-1-2.3-.55-5.08-1.88-7.45-2.53l1.16.73a19,19,0,0,1-3.36-1.83c.74.31,1.58.73,2.53,1.1.27-.44-2.2-1.08-2.15-1.42-1-.17-2-.4-3-.63l1.14.65c-.88-.11-3.11-1.74-4.77-2.87,1.35,0,2.61,1.55,4.63,2.3,1.47.5-.51-1.05.84-.51a3.25,3.25,0,0,0-1.58-.83l-.44-.38c1.42.08,3.9,1.54,5.86,1.85a1,1,0,0,0-.42,0,14,14,0,0,0,4,1.89,2.5,2.5,0,0,0-1.36-.6c0-.17,1.27.33,1.82.36-1.15-.7-.09-.45-.81-.88a12.38,12.38,0,0,1,2.42,1c.42.44-.54.15-.56.48,1.08.22,1.25,1.16,2.89,1.35-2-.85.77-.45,1.52-.42l-.32-.13a1.47,1.47,0,0,1,1.6.53c-.85-.15-1.6-.53-1.5-.1a10.1,10.1,0,0,0,1.73.48l-.65.06,2.73.82a8.67,8.67,0,0,0,1.9-.76,4.14,4.14,0,0,0,2.19.56l-.33.05c1.11.65,3.87,1.09,4.17.86.82.48-6.62.27-.39,1.56,2.35.59,1.68-.56,3.09-.58,0,0-.1.08,0,.17,1,.29,1.19,0,2.07,0a4,4,0,0,0-1.79-.41c.39-.32,2.12.51,3,.35-1.14.41,2,.6,1.09.76a9.8,9.8,0,0,0,5.43.36c1.29,1,2.48.22,4.72.87-.35-.07-1,0-1.48-.17-1.37.32,2.34.54.27.73.45,0,.07-.25-.38-.23-.78,0-1.54.08-1.38.32l1.83.66-.67,0c.93.3,1.86.65,2.8.92.09-.09-.17-.23-.3-.31a82.91,82.91,0,0,0,10.09.73c.6-1.33,7.23-.37,9.58-1.33-.63.39-1,1.1-.57,1.37a8,8,0,0,1-2.81.52c-.19-.22-1.67-.48-.72-.72-3.32.12.45.6-.54,1.1,3.7-.1,5.85-1,8.15-1.39l.06.16,1.74-.38c-1.43,0-1.39-.8.45-.62l-.22.05c1.07.3,3.22-.27,4.85-.33l1.07-.53c1.63-.11,1.78.71,2.36,1.16,2.59-.18,4-1.09,5.74-1.71.87.29,4.7-.24,2.74.51,2.26-.69,1.48-2.48,5.57-2.12l-1,.52c3.75-.69,8.89-2.54,10.67-2.6-1.07,1.58,4.93.13,5.91,1.12-.26-.23,1.11-.68,1.28-.88a1.65,1.65,0,0,0,1.36-.35c-1.51.16.66-1.52-2-.28a12.37,12.37,0,0,1,5.78-3.19l.11.5-2.43.57c.35.3-.89.62-1.35.93,4.54-1-.24,1.35,4.3-.08.34-.46.1-.23,1.24-.73-.55.19-.54.56.36.28l.73-.66c1.85.3-2.46,1.36-.92,1.51-1.64.95-4.67,2.07-3.91,2.52,3-.64,2.27-1.94,5.37-2.62l.4.16c1-.52,1-1,1.52-1.47.1.13.41.16,1.1,0,1.55-1.24,2.68-1.77,4-3.05-4.12,2.07-3.84.87-8.16,2.79.65-.41,3.74-1.63,3.69-2.36l.13.5a20.22,20.22,0,0,1,4.55-2l-1,.69c2.25-1.23,4.24-.78,5.78-2.33a8.51,8.51,0,0,0-1.58.68,22.65,22.65,0,0,1,4-1.73l2.35-1.94c.08.24,1.78-.52,1.14.23,2.09-.51,2.66-1.64,3.7-2.28,2.19-.43-1.58,1-1.47,1.76a23,23,0,0,0,6.82-3.85c-.58.18-.89.23-.92.11.16.1,1.21-.48,1.8-.79l.24-.51c1.09-.33,1-.08.33.59,1-.45,1.79-1.61,3-1.73-1.39,1.25-3.61,2-4.34,2.68,3.21-2.07,3.89-.87,7.88-3.67.13.11-.42.79.39.33,1.81-1.21.14-.88.53-1.55a5.41,5.41,0,0,1-3.14,1.35l.25-.46c.13.09,1-.42,1.36-.46l0-.61c.2.59,1.88.15,2.87-.74-1.36.31-1,.14-1.71-.27,1.22-1.51,2.11-.51,3.47-2.21,0,.26-1.46,1.34-.07.64,1.1-.67.7-1,1.33-1.57-.53,1-.12,1.13-.68,2.21a27.63,27.63,0,0,0-2.57,1.85l1.84-.62c-1.61,1.1-.9,1.24-.94,1.49,3.13-1.31,1.73-2,3.6-3,.68-.86-1.71,1-.56-.16,1.71-1,.2-.52,1.94-1.94l-.18.4c.73-.12,1.08-.82,1.71-1.31s-1.8-.89,1.06-3c-.06.21-.06.33,0,.37-.11,1.85-.25,3.68-.42,5.54l10.05-6.94c1.32,0-2,2.45-1.53,2.58l-1.67,1.06c-.12-.35,3.19-2.59,1.41-2-2.58,2.31-4.09,2.89-6.35,5.37,1.33.12,3.44-2.61,5.53-3.38a10.31,10.31,0,0,0-1.83,1.56c1.69-1.11,3.49-2.31,5.35-3.66l.28-.47c-1.27.88-2.15,1.49-2.28,1.55,1.66-1.21,2.71-2.66,2.41-3.22l-.28.21.44-.62Zm9.38-110.67a.86.86,0,0,0,.36,0C689.76,166.25,689.79,166.35,689.51,166.23Zm-41.9,134c2.5-1.13,5-2.23,7.41-3.43-4.79,1.17-8.12,1.84-1.15-1.79l.41-.32a31.62,31.62,0,0,0-4,2c-1,1-4.23,4.36-4.14,4.46.58.09,1.06-.54,1.89-.83Zm-2.63-1c-1.45.54-1,.63-1.13.95l1.42-.77C645.06,299.41,644.93,299.38,645,299.2Zm-1,1.13a1.21,1.21,0,0,1,.38-.12Zm26.19-14.63-.12.11.94-.6A4.23,4.23,0,0,0,670.22,285.7ZM667.3,287l-.06.57.9-.53A1,1,0,0,0,667.3,287Zm-9.25,4.07c-.27.78-2.09,1.85-1.91,2.44,0,.21.38,0,.84-.16l1.58-.85c0-.09,0-.23.18-.4-.58.25-1,.33-1-.12,1.8-.11,1-1.22,2.52-1.94C660.52,289.37,658.42,290.64,658.05,291.05Zm-128,22.46a3.35,3.35,0,0,0-.35-.46H531c2.06.64,3.6,1.87,5.67,1.52a4.44,4.44,0,0,1,1.68,1.25c-.44-.11-.85-.21-1.18-.33C531.49,315.46,534.56,313.81,530.06,313.51Zm24.7,4.9a.57.57,0,0,0-.32.12,70,70,0,0,1,11.6-1c-.51-.46-2.85-.83-4-1l1-.5.6.41,1.72-.45c-.48-.35-1.86-.29-2.77-.57-.08.13-3,.6-3.88.89l2.35.44a40.74,40.74,0,0,0-5-.12c0,.26,2.09.78,2.38.22.24.4-2.24.3-.69.77a19,19,0,0,1-6.18-.55l-.18-.66c-1.47-.39-1.09.68-2.83.13,2.2.09-.3-.72,1.45-.61-.53-.3.05-.66-1.68-.8-1.54.66-1.76-.75-3.21-.18-.87-.37,1-.37-.72-.72-2.09.12-2,.46-2.25,1.05,1.9.47,2.27-.45,3.81-.12-1.08.23-2.17.43-3.26.61a3.54,3.54,0,0,0,1.34.33,5.22,5.22,0,0,0-1.69.18l-.77.19a13.1,13.1,0,0,1,3.61.81l-.28.27a3.21,3.21,0,0,0,2.17.11c1.61.19,3.27-.12,3.58.31l-.64.22Zm64.69-7.06c-1.48-.71-3-1.2-8.36.38l.41-.19c-2.89,0-5.13,2.22-8.67,2.18a9.44,9.44,0,0,0,3-2l-1.67.69c.36-.68-1.31,0-2.59.22l1-.93a6.67,6.67,0,0,0,2.7-.47c-.42.18,2.8.27,4.41-.33-.29-.41-3.72.58-2.35-.54-1.29.64-1.57.22-3,.71,1.29-.64.19-.72,1.13-1.3l-2.3.68c-.08-.11,3.32-1.11,1.28-1.24-.87.47-3.43.66-3.37,1.17l-.09-.14c-1.77.24-.62.91-2.84,1,0,.26.47.37,1.23.17s.66-.62,2-1c.68.28-1.63.3-.56.77.53.24,3.49-1,2.67-.07l-1.78.26c.06.52-1.23.75-1.11,1.15-1,.42-2.17,0-3.2.67-.4.41.52.87-1.37.94-1.57-.49-5.78.31-7.36.61l-1.36.5c.16.3,2.67-.38,1.82.15l-2.17.4.15-.23a10.12,10.12,0,0,0-2.1.55c.65-.45,2.24-.5,1.86-1a9.5,9.5,0,0,0-2.15.05c.21-.05.38-.12.34-.19-2.09,0-1.94.8-2.44,1-2,.91,2.18.44,2,1-2,.3-4.08.63-6.14.85.52-.22,1-.43.82-.63-1.53-.14-.07-.42-2.18-.24.2.75-2.64.64-4.12,1.11-.72-.26-.86-.32.67-.4-.2-.48-2.24-.18-3-.22-.42.13-1.14.22-1.6.33.62.22.37.53-1,.76l-.08.1c2.19.12,5.63.5,7-.07l-.38.25c2.57.29,5.45-1.21,6.69-.42-.07.37.52,0,.52.55l1.83-.59-.37.27,3.16-.45-.07.11,3.47-1.62c0-.22-.14-.27.34-.5a4.07,4.07,0,0,1,1.19-.29h0c.77-.05,1.33.2,2.3.18l-2.91.5c-.18.41.12.77,1.6.82-.59.1-.79.43-.05.36.06-.1,1.88-.53,1.13-.72,2.75-.54,7.43-.41,11.47-2-2.92,1.05,2.52,0-.79.85,2.47.11,1.88-1.05,4.26-1.49.25.17-1.29.28-1.74.83,4-.68,6.39-2.57,10.18-3.44l.29.41Zm7.15-2.93,2.1-.9-.22.06,2-1.13c-1.36.31-2.38.11-.66-.77-.08.24.53.27-.06.61,1.31-.17,4.06-.92,3.11-1.33-2.08,1.51-.87-.66-2.51.5.81-.81,1.86-1,2.69-1.52-.8.75.55.75,2.05.35.59-.35,2.31-1,3.27-1.55-.54-.25.25-.86-1.46-.27a8.51,8.51,0,0,1,2.63-1.09c-.39.25-1.1.62-1,.75a10,10,0,0,0,2.15-.32l1-.53a.82.82,0,0,1-.32,0l1-.89c-1.46.89-.79.14-.88-.1.17.49,1-.39,1.54-.65l-1.37,0c.44-.49,2.12-.52,1.6-.88a37.43,37.43,0,0,0-5.55,2.5h1.06c-2.39,1.34-1.82,0-4.63,1.15-1,.84-4.26,1.68-4,2.42.28-.34-2,0-2.89.68-.84,1.06-4.15,2.26-3,2.23.9-.29,2-1.07,2.86-.88l-1.7.74,1.27,0C626,307.64,626.14,308,626.6,308.42Zm39.78-14.09.06,0-.07,0Z" fill="#231f20"/><path d="M503.89,305.24c-.56-.1-1.72-.77-1.67-.31C502.39,304.55,504.34,306,503.89,305.24Z" fill="#231f20"/><path d="M502.69,304.13c-.13,0-.15.21-.68-.07l1.49.7Z" fill="#231f20"/><path d="M502.71,300.83a5.51,5.51,0,0,1-2.49-1c.13-1.1,2,.85,2.93.33-1.95-1.26-3-.91-4.68-1.92C499,299.19,502.24,301.49,502.71,300.83Z" fill="#231f20"/><polygon points="504.24 300.26 503.02 299.79 503.1 299.9 504.32 300.37 504.24 300.26" fill="#231f20"/><path d="M528.14,319.12c0,.33,1,.24,1.43.28A3.78,3.78,0,0,0,528.14,319.12Z" fill="#231f20"/><path d="M715.13,185a63.08,63.08,0,0,0-6.38-9.23A67.5,67.5,0,0,1,715.13,185Z" fill="#231f20"/><path d="M563,321.5c-2.81.24-4.08.75-7,.73,3.76.82,5-.76,8.16-.08Z" fill="#231f20"/><path d="M562,324c-.46-.6,2.2-.68,1.79-1.12-1.91.12-.9.58-2.63.47Z" fill="#231f20"/><polygon points="550.08 313.38 550.91 313.14 550.25 313.2 550.08 313.38" fill="#231f20"/><polygon points="574.87 323.29 574.56 323.43 575.99 323.55 574.87 323.29" fill="#231f20"/><path d="M574.26,323.58l.3-.15Z" fill="#231f20"/><polygon points="551.23 312.19 550.05 311.96 549.44 312.17 551.23 312.19" fill="#231f20"/><path d="M561.68,316l-1.1.15C560.8,316.17,562.29,316.46,561.68,316Z" fill="#231f20"/><polygon points="583.52 322.88 584.88 322.51 584.74 322.47 583.38 322.83 583.52 322.88" fill="#231f20"/><path d="M570.2,314.37c-.76-.44,2.15-.17.6-.55C569.44,313.92,570,314.15,570.2,314.37Z" fill="#231f20"/><path d="M586.42,316.31a1.72,1.72,0,0,0,.54-.14Z" fill="#231f20"/><path d="M586.42,316.31a6.93,6.93,0,0,0-1.56.14A2.72,2.72,0,0,0,586.42,316.31Z" fill="#231f20"/><path d="M593,315.29l-.53,0c.5-.3.25-.23-.2,0-.55.1-.5.24-.55.36l-.31.22.43-.23C592.74,315.57,593.26,315.47,593,315.29Z" fill="#231f20"/><path d="M619.46,317.34c-2,.39-2.53.45-2.52.08-1.89.4-1.44.9-2.53,1.34C616.51,318.15,617,318.18,619.46,317.34Z" fill="#231f20"/><path d="M614.41,318.76l-.73.22A4.65,4.65,0,0,0,614.41,318.76Z" fill="#231f20"/><polygon points="584.85 312.45 585.97 311.77 585.54 311.9 584.85 312.45" fill="#231f20"/><path d="M622.41,316.65a5.14,5.14,0,0,1-1.27.24C621.14,317.27,622.77,316.56,622.41,316.65Z" fill="#231f20"/><path d="M613.06,312c-.26-.16-1.44.28-1.95.33C611.83,312.22,612.58,312.7,613.06,312Z" fill="#231f20"/><path d="M627.49,313.45c-.36.1-1,.06-.84-.31C626.19,313.49,625.69,314.32,627.49,313.45Z" fill="#231f20"/><polygon points="616.54 311.14 616.24 311.1 615 311.69 616.54 311.14" fill="#231f20"/><path d="M610.58,307.28c-1.32.79,2.53.4.16,1.4,3.3-.4-.4-.52,2-1.07C611.29,307.83,610.49,307.48,610.58,307.28Z" fill="#231f20"/><path d="M612.7,307.61a5.9,5.9,0,0,0,.66-.13Z" fill="#231f20"/><path d="M633.45,303.62a3.48,3.48,0,0,0-.42.32A3.32,3.32,0,0,0,633.45,303.62Z" fill="#231f20"/><path d="M620,305.11l-1.93,1.27c1.31-.82,4.85-2,4.43-2.48a7.63,7.63,0,0,0-3,1.29Z" fill="#231f20"/><path d="M648.6,306.34l-.81.67,1.18-.48C648.6,306.6,649,305.89,648.6,306.34Z" fill="#231f20"/><path d="M649.2,306.44l-.23.09A.62.62,0,0,0,649.2,306.44Z" fill="#231f20"/><path d="M629.58,305.42a8.56,8.56,0,0,0-1.83.75C628.05,306.19,629.8,305.68,629.58,305.42Z" fill="#231f20"/><polygon points="654.59 302.34 653.16 303.2 654.76 302.32 654.59 302.34" fill="#231f20"/><polygon points="661.98 299.52 662.29 299.48 663.38 298.57 663.07 298.62 661.98 299.52" fill="#231f20"/><path d="M647.29,293.2c-1,.41-1.47,1.3-1.17,1.28l1.84-1c-.69-.21-.5.27-1.63.69Z" fill="#231f20"/><path d="M705.48,260.67c0,.6-1.67,2.46-2,2.35.1-.34.8-1.48.14-.93l-.56,2c-2,1.7.4-2.19.89-3.39-1.65,2-1.71,2.95-3.49,5.09a5.71,5.71,0,0,1,1.48-1.07c.51.29-1.34,2.15-2.54,3.57,1-.73.68-.07.28.73a1.31,1.31,0,0,0-.16.31l-.13.28.15-.17c0,.06.13.07.31,0,.91-1.3,2.07-1.89,2.72-2.68-1.35.18,2-2.81,2.57-4l.82-1.23.33-.45c.15,0,.16.17-.2,1,.29-.66,1.71-2.55,1.33-2.54,1-1.46,2-3,3-4.47a2.07,2.07,0,0,1,.38-.31c.05-.19,0-.24,0-.24a87.71,87.71,0,0,0,9.83-21.6c-.41,1.12-.93,2-1.42,3.15,0-1.93-.75,1.84-1.15,1.13a7.6,7.6,0,0,1,.88-2.56c-.2-.35-.76.52-1.07.3-1.31,2.66-.14,3.57-1.45,6.19-.29-.25-.22-1.18-.93.56l.12-.47c-.84,2.94-1.7,1.79-1.61,3.93l-.44-.27a23.21,23.21,0,0,1-2.16,5.06l-.05-.12c-1.6,3.89-1,2.11-3.35,6.17l.66-2.13c-1.08,1.21-.72,1.89-1.44,2.8,0-.12-.49-.12,0-1.07-.79,1.73-1.62,3.45-2.51,5.14C704.21,262,705.18,260.71,705.48,260.67Z" fill="#231f20"/><path d="M700.45,265.81c-.21.22-.44.47-.69.78A9.43,9.43,0,0,0,700.45,265.81Z" fill="#231f20"/><path d="M721.05,231.26l-.46,1.63A10.27,10.27,0,0,0,721.05,231.26Z" fill="#231f20"/><path d="M695.88,272.59c.87-.54-.23.8-.22,1.05l2.42-2.57c-.16-.13-.09-.54-.27-.61Z" fill="#231f20"/><path d="M699,270.55a2.32,2.32,0,0,1,.34-.92l-1.3,1.44C698.2,271.16,698.44,271.09,699,270.55Z" fill="#231f20"/><polygon points="690.94 263.69 691.32 263.25 691.79 262.51 690.94 263.69" fill="#231f20"/><path d="M697.42,257.36a5.17,5.17,0,0,0-1.51,1.91A21.54,21.54,0,0,0,697.42,257.36Z" fill="#231f20"/><polygon points="693.73 256.8 694.48 255.59 694.35 255.66 693.73 256.8" fill="#231f20"/><path d="M721.23,218.67l0-.79A6.4,6.4,0,0,0,721.23,218.67Z" fill="#231f20"/><path d="M719.15,232.31c1.62-3.53-.24,2.56.79,1.62l.37-2.1.14.23.6-2.52c-.46.43-.58.81-.9.61,1-3.3.69-.93,1.67-3.32.25-1.28.45-2.56.62-3.85l.06.33a1.33,1.33,0,0,0,0-.6,65,65,0,0,0,.32-13.16c-.42-2.37-.56,1.35-1.19-.37.24,2.75-.26,6.78.41,7-.09-.09-.27-.28-.39.27l.49,1.61.28-1.51c.58,1.65-.17,6.83-.75,7.67.25-2.93-.62-1.56.18-5.56-.2.17-.58.88-.6,0C721,223.41,719.91,227.48,719.15,232.31Z" fill="#231f20"/><path d="M715,185.94h.07C715,185.88,715,185.87,715,185.94Z" fill="#231f20"/><path d="M715.61,187.41l1.61,1.82c-.5-1.1-1-2.2-1.61-3.28h-.56a4.08,4.08,0,0,1,1.08,1.8Z" fill="#231f20"/><path d="M718.65,191.61c-.9-1.7-1.39-1.37-1.26-.33-.88-1.49.23-1.08-.8-1.92-.35.19.69,2,.92,2.47Z" fill="#231f20"/><polygon points="721.79 205.24 721.48 204.74 721.59 206.04 721.79 205.24" fill="#231f20"/><path d="M721.48,204.74l-.13-1.29a1,1,0,0,0-.4.46Z" fill="#231f20"/><path d="M720.86,200.07a16,16,0,0,0-.36-1.88C720.63,198.82,720.77,199.44,720.86,200.07Z" fill="#231f20"/><polygon points="721.03 201.55 721.09 201.5 720.86 200.06 721.03 201.55" fill="#231f20"/><path d="M721.35,203.45c.35-.27.76-.6.27-2.44l-.53.49Z" fill="#231f20"/><polygon points="700.22 248.82 700.7 247.62 700.58 247.7 700.09 248.89 700.22 248.82" fill="#231f20"/><path d="M704.23,242.65a6.27,6.27,0,0,0,.15-.79A2.24,2.24,0,0,0,704.23,242.65Z" fill="#231f20"/><path d="M704.05,236.63c1-1.15-.31,2.05.93-.33.44-.08.4,1.29-.31,2.37-.27-.24.31-1.22-.34-.66,0,.93-.38,1.11.23,1.07a17.8,17.8,0,0,0-.18,2.78c.61-1.64,2.66-4.78,2.8-7.1-.18-1.36-1.26-1-2.13-1.32C704.8,233.53,703.55,236.29,704.05,236.63Z" fill="#231f20"/><path d="M702.27,238.29a4.74,4.74,0,0,0-.49,1.17C702.13,239.51,702.06,238.78,702.27,238.29Z" fill="#231f20"/><path d="M714,225.7c-.1-.17,0-1.47-.3-1.23l-.23,1.94A1.09,1.09,0,0,1,714,225.7Z" fill="#231f20"/><path d="M713.34,227.27l.13-.86A4.37,4.37,0,0,0,713.34,227.27Z" fill="#231f20"/><path d="M714.1,225.63l-.1.07S714.05,225.73,714.1,225.63Z" fill="#231f20"/><path d="M719.67,194.79c.25,0-.19-.95-.43-1.4A7.91,7.91,0,0,0,719.67,194.79Z" fill="#231f20"/><path d="M698.25,165.42l-.52-.7A2.06,2.06,0,0,0,698.25,165.42Z" fill="#231f20"/><path d="M684.09,163.89a.3.3,0,0,1-.2,0A.26.26,0,0,0,684.09,163.89Z" fill="#231f20"/><path d="M683.89,163.92c-.57-.08-1.8-1.2-2.47-1.19l.11,0-1-.36A17.14,17.14,0,0,0,683.89,163.92Z" fill="#231f20"/><path d="M639,47c-2.75-1.78-3.58-3.58-7.65-6.92,2.62-5.51,1.12-7,1.12-7-2-3.06-5.57-1.86-9.55,1.12-1.57-1-3.33-2-5.34-3.19-17.63-10.08-16.74-7.22-35.15-14.73S541.54,0,541.54,0s-7.17,5.41-4.43,15.67c7.47,2.8,47.61,18.94,47.61,18.94s8.68,3.9,13.43-4.11c0,0-.26-2.05,5.16.55,2.43,1.18,8.35,4.29,14.58,7.56A152.69,152.69,0,0,0,605.7,52.84c-22,24.65-48.61,41.93-60.37,49.27-8.56,7-.36,15.34,4.82,13.4,16-6.82,38-26.18,62.74-51.81,8.27-8.57,13.14-14.8,16-19.34,3.38,1.74,6.15,3.12,7.49,3.69,4.81,2.05,6.69,2.44,12.26,3a3.6,3.6,0,0,0,.77-2.34S643.53,50,639,47Z" fill="#231f20"/><path d="M516.31,119.64c1.25-1.22,2.48-2.5,3.66-3.83a15.68,15.68,0,0,0,1.39-1.77l.41-.49.49-.56a16.65,16.65,0,0,0,1.08-1.46c.25-.33.5-.69.75-1.06a26.54,26.54,0,0,0,4.39-12.87,25,25,0,0,0-4.05-15.17c-3.07-4.81-7.76-8.43-14-10.76a45.27,45.27,0,0,0-7.65-2,34.31,34.31,0,0,0-6.09-.54,37.3,37.3,0,0,0-4.49.28,38,38,0,0,0-6.72,1.5,27.41,27.41,0,0,0-2.27-3.66c-3.37-4.61-8.28-7.92-14.6-9.84a43.52,43.52,0,0,0-7.77-1.57,33.56,33.56,0,0,0-3.89-.22,36.49,36.49,0,0,0-6.69.63,39.2,39.2,0,0,0-9.95,3.4c-.43.21-.85.44-1.28.67-3.39-4.82-8.71-8.39-15.87-10.63a38.37,38.37,0,0,0-12.07-2,39.32,39.32,0,0,0-11,1.58,53.78,53.78,0,0,0-5.23,1.8c2.12-3.36,4-6.16,5.6-8.32l.22-.3a16.64,16.64,0,0,0-1.08-28.52,56.55,56.55,0,0,0-13.26-5.48,22,22,0,0,0-5.34-.67c-4.69,0-13.55,1.62-20.36,12.5-2.06,3.32-4.71,7.83-7.89,13.39l0,.08a28.77,28.77,0,0,0-11.19-7.59,33.08,33.08,0,0,0-12.24-1.82h-2.16a18.63,18.63,0,0,1-3.5-.19A25.79,25.79,0,0,1,317.51,21,16.54,16.54,0,0,0,308,18a16.81,16.81,0,0,0-4.56.66c-.54-.34-1.08-.68-1.65-1A28.19,28.19,0,0,0,287.84,14h-.47a22.78,22.78,0,0,0-20.82,13.55,21.88,21.88,0,0,0-1.81,9.07,25.35,25.35,0,0,0-3.2,3.87,20.13,20.13,0,0,0-6.14-4.12,31.39,31.39,0,0,0-11.52-2.3H243a39,39,0,0,0-10.19,1.36,24.89,24.89,0,0,0-6.89,2.79,26.62,26.62,0,0,0-4.06-.31,37.11,37.11,0,0,0-8.26,1,44.68,44.68,0,0,0-9.7,3.46,46.06,46.06,0,0,0-9.15,6.18l-.3.26.11-.1a37.74,37.74,0,0,0-3.64,3.37,81.8,81.8,0,0,0,2.41-16.94c.34-12.16-5.1-19.34-6.78-21.26l-.19-.21a31.63,31.63,0,0,0-23.69-10.5A37.92,37.92,0,0,0,145.26,7.6c-.25.13-.49.27-.73.42a33.19,33.19,0,0,0-9.61,8.33,29.13,29.13,0,0,0-6.23,17.32c-.15,2.18,0,5.13.88,12.49q.62,5.1,1.34,11.38c-10-20.65-25.18-28.73-38.7-28.73-.6,0-1.2,0-1.8,0-13.77.7-26,10-33.62,25.42C50.63,66.79,47.7,82.8,48.54,99.36A16.64,16.64,0,0,0,64.6,115.15h.56a16.63,16.63,0,0,0,16.51-14.68c.62-5.19,2.78-17.85,5.57-23.9a19,19,0,0,1,.86-1.7c1.35,3.9,3.16,10.89,4.77,23,.08.57.18,1.13.31,1.68.08.32.15.6.21.86.12,1,.27,1.87.41,2.66,1,5.44,1.64,10.54,2,15.17.22,2.65.47,7,.65,10.89-3.12,4.11-7.08,9.32-11.62,15.26-6.41,8.39-15.11,21.3-19.35,29.77-4.39,8.78-5.26,15.4-3,22.84a26.12,26.12,0,0,0,8.57,12.21,35.58,35.58,0,0,0,17.61,6.49c1.22.11,2.45.16,3.65.16a47.08,47.08,0,0,0,18.92-4.28c8.52-3.69,15.73-10.65,20.86-20.17,4.52-8.42,7.42-15.8,8.88-22.56a121.26,121.26,0,0,0,3.16-21.7c0-.63.05-1.36.07-2.16.35,1.63.71,3.13,1.12,4.55a34.46,34.46,0,0,0,3.07,7.31,29.77,29.77,0,0,0,7.71,8.95,33.86,33.86,0,0,0,10.37,5.41,29.49,29.49,0,0,0,9.07,1.37,39.1,39.1,0,0,0,6.07-.5l.57-.11c4.9-1,13.95-4.39,19.47-16.5a74,74,0,0,0,5.43-19.07c.07-.43.14-.86.2-1.29.77.05,1.53.08,2.3.08a31.85,31.85,0,0,0,5.74-.53,26.53,26.53,0,0,0,11.89-5.2l.33-.27a25.6,25.6,0,0,0,6.93,1.58c1.09.1,2.18.16,3.25.16h0a33.14,33.14,0,0,0,23.21-9.73c.94-.89,1.83-1.83,2.71-2.8a25,25,0,0,0,7.7,2.3,28.22,28.22,0,0,0,3.33.2,34.67,34.67,0,0,0,20.54-7.21c.76-.58,1.5-1.18,2.22-1.79a21.85,21.85,0,0,0,7,6.88,33.7,33.7,0,0,0,10.75,4.39,25.42,25.42,0,0,0,5.89.69,27.26,27.26,0,0,0,11.25-2.47,26.46,26.46,0,0,0,7.25,4.94,27.58,27.58,0,0,0,11.8,2.62,31.22,31.22,0,0,0,10.84-2,43.21,43.21,0,0,0,6.67-3.14,36.45,36.45,0,0,0,11.08,7.87,49.43,49.43,0,0,0,21,4.63,60.66,60.66,0,0,0,8.1-.58c3.13,6.79,8.17,11.87,15.41,15.65,5.41,2.82,13.23,3.83,18.27,3.83,1.37,0,2.72-.07,4-.2a36.1,36.1,0,0,0,4-.63,35.72,35.72,0,0,0,9.69,8.33c4.92,3,13.39,5.06,20.6,5.06q.7,0,1.41,0c10.81-.41,19.86-5.47,24.64-13.51,1.3.07,2.51.12,3.5.12a17.72,17.72,0,0,0,12.84-4.87c6-5.88,7.83-16.49-.37-25.4A16.65,16.65,0,0,0,516.31,119.64Z" fill="#231f20"/><path d="M267.43,60.87a146,146,0,0,1-7.66,24.5q-4.4,10.29-8.62,15.75c-2.81,3.63-5.29,5.51-7.41,5.63s-3.47-1.8-4-5.8A46.25,46.25,0,0,1,240,88a137.4,137.4,0,0,1,2.77-14,116.89,116.89,0,0,1,3.67-12,37.15,37.15,0,0,1,3.24-7.14c1-1.43.75-2.45-.71-3.08a14.81,14.81,0,0,0-5.42-1,22.19,22.19,0,0,0-6.31.76c-2,.56-2.81.81-3.42,1.91a9.87,9.87,0,0,0-1,2.72,50.62,50.62,0,0,0-.62,7.65c-4.11-10.49-9.77-9.72-14.95-8.56a28.27,28.27,0,0,0-5.95,2.14,30,30,0,0,0-5.83,4,21.38,21.38,0,0,0-4.57,4.88c-.66.89-1.3,1.83-1.92,2.86A49.62,49.62,0,0,0,194.17,80a65.28,65.28,0,0,0-1.81,7.42c-.66,2.68-1.3,5.63-1.89,8.89-1.35,7.46-.59,14.71-1.4,21.36A147.74,147.74,0,0,1,186,135.38q-1.91,7.73-4.19,10.66c-1.54,1.94-3.1,2-4.7.06s-3.72-7.23-5.45-14c-.13-.5-.34-2-.76-4.45s-1-4.91-1.45-8-1-6.23-1.44-9.5-.84-4.71-1.34-7.78l-.34-2.41c-.46-2.53-1-7.33-1.82-13.74-.36-2.82-.71-5.74-1-8.71a146.62,146.62,0,0,0,9.43-22.41,75.1,75.1,0,0,0,3.86-20.31c.18-6.59-2.66-9.85-2.66-9.85-8.56-9.43-20.82-2.72-20.82-2.72a17.14,17.14,0,0,0-5.39,4.62,12.68,12.68,0,0,0-2.55,7.8,68.53,68.53,0,0,0,.79,9.58Q147,52,148.25,62.64c.75,6.53,1.57,13.36,2.46,20.45-4.46,7-9.69,14.84-15.85,23.63-3,4.28-5.39,7.73-8.83,12.09,0-1.08-.34-7.23-.39-8.24l-1.41-15c-3.93-31.91-17.13-50.87-33-50.07S63.71,70,65.15,98.52c0,0,2.19-18.49,7-28.89C77.61,57.69,85.51,55,93,56.09c6.42.92,12.42,9.79,16.4,39.57.27,1.13.43,1.79.53,2.14-.1-.3-.17-.3.29,2.36q1.6,9,2.21,16.74c.36,4.5.81,13.36.89,17.54-3.34,4.42-8.69,11.49-15.23,20-6.11,8-14.15,20-17.69,27.12-2.89,5.75-2.78,7.88-2,10.55a9.89,9.89,0,0,0,2.68,3.78,19.25,19.25,0,0,0,9.06,3.19c4,.35,8.42-.19,14.48-2.81,5.7-2.47,9.91-7.39,12.81-12.77s5.94-12,7.28-18.21a107.05,107.05,0,0,0,2.8-18.85c.14-3.68.25-11.44.27-17.79,3.63-4.09,5.39-6.12,9.54-11.09a192.32,192.32,0,0,0,15.34-21.43c.52,3.12,1,6.11,1.31,9.08l.89,4.84q1.62,11.09,3.5,20.63c1.26,6.37,2,11,2.95,14.23A17.43,17.43,0,0,0,163,148.8a13,13,0,0,0,3.37,3.87,17,17,0,0,0,5.23,2.7,16,16,0,0,0,7.39.27q4.77-.93,7.56-7.06a57.83,57.83,0,0,0,4.14-14.79,140.87,140.87,0,0,0,1.61-18.69q.13-6.19,0-11.87c.07.28.11.57.19.84q2,7.91,7.93,11.62a16.39,16.39,0,0,0,11.91,2.6,10.18,10.18,0,0,0,4.61-1.92,21.63,21.63,0,0,0,3.5-3.57,35.62,35.62,0,0,0,5.9-10.17,13.88,13.88,0,0,0,2.92,7.74,9.05,9.05,0,0,0,6.75,3.82q7.39.78,13.44-5a48.52,48.52,0,0,0,10.1-14.27,86.26,86.26,0,0,0,6.22-17.84A56.14,56.14,0,0,0,267.43,60.87ZM113,152.07a94.87,94.87,0,0,1-3,17.65c-1.54,5.68-3.38,11.05-6.65,15.33-3.42,4.49-5.13,6.19-8.11,7.47s-5.68,1.7-7.65,1a4.83,4.83,0,0,1-3.2-2.86c-.9-2.59.32-5.52,1.26-7.8,1.54-3.7,7-11.27,10.43-15.69,7.28-9.5,13.29-16.94,17.59-22.15ZM160.44,45.25a82.53,82.53,0,0,1-.18-13.82c.28-2.19.67-3.15,1.7-4.27A5.43,5.43,0,0,1,165,25.55s5.95-1.72,8.05,3.12c1.25,2.88,1.14,8.08-2.4,17.34A148.79,148.79,0,0,1,162,64.1C161.69,60.24,160.8,50.35,160.44,45.25Zm68.65,25.37a101.34,101.34,0,0,1-1.35,10.79q-1.05,5.94-2.61,12a72.85,72.85,0,0,1-3.44,10.38q-2.25,5.22-5.31,7.52c-2,1.54-4,2.07-5.88,1.62s-3.45-1.9-4.71-4.34-1.8-6.07-1.63-10.91a81.56,81.56,0,0,1,1.21-9.43,54.91,54.91,0,0,1,2.72-9.85,49.88,49.88,0,0,1,4.51-9A31.29,31.29,0,0,1,219,62.06c3.28-2.57,5.32-3,6.81-2a8,8,0,0,1,2.9,3.72C229.28,65.05,229.29,67.37,229.09,70.62Z" fill="#fff"/><path d="M510.4,91.38a11.2,11.2,0,0,0-5.75-4.12A27.82,27.82,0,0,0,499.9,86a18.76,18.76,0,0,0-5.56-.13,22.66,22.66,0,0,0-5.81,1.6A16.56,16.56,0,0,0,483,91.39a23.52,23.52,0,0,0-5.63,9.76c-.09.31-.13.59-.22.9l-.3,1.25a20,20,0,0,0,.05,8c.71,3,1.63,5.39,2.45,8.11l.14.52a37.37,37.37,0,0,1-6,1,75.77,75.77,0,0,1-17.28-.7c-1.24-5.27-3.83-10.12-5.34-13.54-.34-.76-1.13-3.12-1.13-3.12l-.11-.32A81,81,0,0,0,465,92.93a19.66,19.66,0,0,0,4.32-4.55c.09-.13.2-.25.3-.38h-.05c.22-.35.47-.66.68-1A9.84,9.84,0,0,0,471.62,82a8.33,8.33,0,0,0-1.79-5,11.23,11.23,0,0,0-6-3.75,28.36,28.36,0,0,0-4.82-1,18.66,18.66,0,0,0-5.56.22,22.43,22.43,0,0,0-5.7,2,16.77,16.77,0,0,0-5.25,4.27,23.54,23.54,0,0,0-5,10.1c-.07.31-.1.6-.16.91L437.1,91a20,20,0,0,0,.56,7.95c.9,3,2,5.27,2.95,7.94-9.81,3.75-19.87,5.82-25.78,7.22a46.8,46.8,0,0,1-14.37.92,16.14,16.14,0,0,1-9.93-3.72,6.66,6.66,0,0,1-2.52-3.82,13.38,13.38,0,0,1-.26-4.94A23.47,23.47,0,0,1,389,97.38a26.55,26.55,0,0,1,2.17-4.65c.09-.14.19-.27.28-.42a28.68,28.68,0,0,0,7.72,1A35.48,35.48,0,0,0,410,91.45a32,32,0,0,0,9.83-5.31,20.1,20.1,0,0,0,6.42-9.08,7.75,7.75,0,0,0-.41-6.59c-1.11-2.09-3.71-3.75-7.76-5a21.88,21.88,0,0,0-13.33-.23,36.4,36.4,0,0,0-12.61,6.55A43.25,43.25,0,0,0,380,87.19c-1.4,1.5-3.09,3.4-5.14,5.57A73.52,73.52,0,0,1,360.73,104q-5.24,3.25-7.81,2.3T352,99.91a96.7,96.7,0,0,1,4.51-11.85q3.15-7.09,7.13-15T372,57.33q4.37-7.92,8.26-14.18t6.89-10.31c2-2.7,3.5-4.14,4.51-4.34a41,41,0,0,0-9.34-3.93q-4.05-1-7.47,4.44-2.82,4.56-7.6,12.92t-9.71,17.69c-2.53,4.8-4.92,9.56-7.24,14.29a103.48,103.48,0,0,0,4.45-12c0-.32-.15-.32-.48,0A228.11,228.11,0,0,1,340.5,86.63c-3.88,5.79-7.18,9.78-9.86,12s-4.72,3-6.08,2.45-2.17-1.79-2.42-3.75c-.27-1.64.38-4.59,1.92-8.84s3.35-8.71,5.4-13.37,4.09-9.08,6.13-13.32,5.24-7.32,6.29-9.08a4.36,4.36,0,0,0,.27-3.89A9.94,9.94,0,0,0,339,44.94a12.8,12.8,0,0,0-5-2.18c-27.52-5.83-33.27,24.22-38.4,36.4a46.75,46.75,0,0,1-8,13.11q-4.14,4.76-7,5.76t-3.32-2.62a47.49,47.49,0,0,1,1-10.58c.82-4.44,1.88-9,3.17-13.74a118.63,118.63,0,0,1,4.42-13.2q2.48-6.12,4.8-8.45-6.78-3.06-10.78-2.72c-2.69.23-4.8,2.5-6.36,6.82-1.14,3-2.23,6.33-3.25,10s-1.93,7.28-2.71,10.91a104.47,104.47,0,0,0-1.74,10.73,56.8,56.8,0,0,0-.35,9.19c0,3.11.86,5.46,2.57,7.07a9.61,9.61,0,0,0,5.29,2.78c3.78.45,8.33-1.07,11.77-3.7A39.78,39.78,0,0,0,293.91,91c2-2.88,3.49-5.56,6.12-12.78,2.06-5.66,3.34-12.08,5.44-19.68,3.1-11.27,14.33-15.87,22.21-10.65q-1.57,2.87-4.51,9.48t-5.92,14.31q-3,7.71-5.1,15.08t-2,11.53c.21,3.1,1.23,5.22,3.07,6.34a17.11,17.11,0,0,0,5.65,2.3q4.59,1.16,9.75-2.57A48.92,48.92,0,0,0,338.76,94,94.3,94.3,0,0,0,347,80.81a117.8,117.8,0,0,0-5.2,12.83q-2.44,7.32-.67,11.6a10.84,10.84,0,0,0,5.5,6,12.37,12.37,0,0,0,9.84.06,34.54,34.54,0,0,0,11-7A77.15,77.15,0,0,0,378,92.21,42.65,42.65,0,0,0,376.73,97q-1.41,7.43,1.76,12.27a19.71,19.71,0,0,0,8.38,7.26c10,4.58,18.52,3.48,28.9.83a229.15,229.15,0,0,0,25.08-9.75l.86,1.84a89.93,89.93,0,0,1,3.85,8.68c-4.38-1.08-7.57-2.12-8.78-2.46-1.49-.43-5.24-1.62-8.56-1.09a8.12,8.12,0,0,0-4,1.81,6.35,6.35,0,0,0-1.9,6.24c1.32,7.53,4.27,11.09,9.8,14,2,1,7.94,2.33,12.92,1.83s9.88-3.1,11.2-7.6a19.21,19.21,0,0,0,.49-7.93c1.59.11,3.43.13,4.68.17a66.55,66.55,0,0,0,18.72-1.56l.18.44a89.37,89.37,0,0,1,3.3,8.93c-4.3-1.36-7.42-2.61-8.62-3-1.45-.52-5.12-1.95-8.47-1.63a8.09,8.09,0,0,0-4.12,1.56,6.29,6.29,0,0,0-2.29,6.1c.84,7.61,3.55,11.34,8.89,14.57,1.91,1.16,7.77,2.83,12.77,2.65s10.06-2.46,11.67-6.87a19.21,19.21,0,0,0,1-7.89c1.59.21,3.42.35,4.67.47,0,0,12.1,1.3,12.67.75s-1-2.24-1-2.24a74,74,0,0,1-16.67-1.68c-.9-5.34-3.18-10.35-4.48-13.86-.1-.29-.27-.82-.42-1.37a54.56,54.56,0,0,0,18.39-13.69l-.16-.1a20.42,20.42,0,0,0,1.75-1.94c.11-.12.23-.24.33-.36h-.05c.25-.32.51-.62.74-1a10,10,0,0,0,1.7-4.85A8.34,8.34,0,0,0,510.4,91.38ZM402.79,79.06a33.19,33.19,0,0,1,14.73-7.71c3-.66,4.72-.27,5.24,1.18a4.65,4.65,0,0,1-.43,4.15,23.14,23.14,0,0,1-10.57,9.77,51.46,51.46,0,0,1-12.26,3.89,59.67,59.67,0,0,1-7.26.85A58.86,58.86,0,0,1,402.79,79.06ZM448.24,93.8c.25-3.32.82-7.09,4.15-9.92a16.73,16.73,0,0,1,5.26-3,13.37,13.37,0,0,1,5.73-.36c2.24.51,3.35,1.74,3.35,3.7a9.26,9.26,0,0,1-.74,3.3h0c-3.19,6.64-9.34,11.6-16.46,15.38A22.11,22.11,0,0,1,448.24,93.8ZM446.67,130c-4,3.37-15.66,3.14-17.17-8.89-.63-5,3-4.1,7.48-3.08a91.14,91.14,0,0,1,9,2.95l.61.2C447.78,125,448.29,128.65,446.67,130Zm37.26,12.78c-4.21,3.11-15.82,2.14-16.57-10-.31-5,3.28-3.9,7.66-2.6a88.22,88.22,0,0,1,8.82,3.52l.59.23C485.36,137.88,485.64,141.54,483.93,142.79Zm3.87-36c.46-3.3,1.27-7,4.77-9.63A16.66,16.66,0,0,1,498,94.49a13.43,13.43,0,0,1,5.75,0c2.2.65,3.23,2,3.11,3.9a9.27,9.27,0,0,1-.95,3.25h0c-3.6,6.42-10.06,11-17.4,14.3A21.86,21.86,0,0,1,487.8,106.75Zm.79,9.52c.87-.4,1.73-.81,2.59-1.23-.83.47-1.68.93-2.56,1.37Z" fill="#fff"/><path d="M283.54,41.33c1.93,1.21,5.2,2.07,6,1.54,1.12-.55-2.12-1-3.58-2.92-1.21-1.61-1.15-3.12.3-5s3.72-1.84,6.27-1.14a31.13,31.13,0,0,1,7,3.18c.51.3.11-.16-1.18-1.41a23.41,23.41,0,0,0-4.71-3.41,11.58,11.58,0,0,0-5.94-1.51,6.33,6.33,0,0,0-5.9,3.63C280.58,36.94,282,40.37,283.54,41.33Z" fill="#fff"/><path d="M308,34.64s6,4.19,11.66,5.63,12.2-.06,16,1.41c7.65,2.93,7.5,9.38,6.45,10.64-.74.88-20.18-7.32-29.92-8.86-3.94-.62-6.21-3.25-6.36-3.84C305.29,37.64,308,34.64,308,34.64Z" fill="#fff"/><path d="M679.16,144.16a133.28,133.28,0,0,0-3.6-20.76,122.13,122.13,0,0,0-6-18.07,17.15,17.15,0,0,0-2.37-3.91,16.88,16.88,0,0,0-13.12-6.28,16.64,16.64,0,0,0-11.28,4.41c-.44-.21-.88-.41-1.34-.6a25.91,25.91,0,0,0-9.62-1.83,28.89,28.89,0,0,0-5.62.57,37.11,37.11,0,0,0-11.7,4.66,36.43,36.43,0,0,0-10,8.8,21,21,0,0,0-1.88,2.82c-7.8,1.84-13,7.88-14.91,10.1a24.39,24.39,0,0,0-3.44,5.21,35.87,35.87,0,0,0-5.62,1.6,39.54,39.54,0,0,0-9.88,5.4,24.46,24.46,0,0,0-6.17,6.57A30.56,30.56,0,0,0,552,147a38.89,38.89,0,0,0-8.2,6.87,40.6,40.6,0,0,0-3.91,5.17c-.67,0-1.33-.08-2-.08a32.41,32.41,0,0,0-8.08,1.14,35.73,35.73,0,0,0-12.13,5.38,20.89,20.89,0,0,0-4.66,4.41c-.38,0-.77,0-1.16,0h-.37A32.85,32.85,0,0,0,503,171l-1,.24A34.17,34.17,0,0,0,490.16,176a19.8,19.8,0,0,0-2.89,2.35h-.2A24.9,24.9,0,0,0,470,185.05c-.38.38-.74.76-1.1,1.15a31.17,31.17,0,0,0-6.68-.7,43.18,43.18,0,0,0-6.76.58A40.44,40.44,0,0,0,435.14,195l-.73-.59c-4.62-3.64-10.4-5.55-17.18-5.69h-.7a46,46,0,0,0-7.56.67,35.68,35.68,0,0,0-10.42,3.53c-.49.26-1,.54-1.45.82a32.65,32.65,0,0,0-6.49-2.63,29.34,29.34,0,0,0-8.19-1.06c-2.09,0-4.05.16-5.95.31-1.55.12-3,.23-4.23.23a9.56,9.56,0,0,1-1.44-.08,31.44,31.44,0,0,1-7.92-3.11,16.26,16.26,0,0,0-5.18-1.88c-1.82-15.48-14.23-25.78-25.91-29l-.8-.2a34,34,0,0,0-12.93-.73A29.25,29.25,0,0,0,301.24,164c-1.64,1.51-3.61,3.79-8.1,9.88q-4.14,5.58-9.57,12.86c9.5-25.43,2.92-44-8.88-54.06-6.52-5.58-14.91-8.52-24.28-8.52-18.72,0-39.76,11.53-56.28,30.84a16.64,16.64,0,0,0,23.23,23.65c4.9-4,14.93-11.32,21-13.7a17.62,17.62,0,0,1,3.62-1c-1.44,3.61-4.88,10.38-13.1,21.83a17.26,17.26,0,0,0-.94,1.46l-.48.86c-.61.81-1.11,1.57-1.52,2.19-3.09,4.72-6.16,9-9.13,12.66-1.7,2.11-4.59,5.54-7.15,8.51-5.27.81-12,1.82-19.63,3-10.75,1.59-26.42,4.89-35.56,8.1-9.51,3.33-14.82,7.61-18.32,14.76a26.29,26.29,0,0,0-2.06,15,36.66,36.66,0,0,0,8.61,17c5,5.65,11.26,9.74,19.58,12.84a40.54,40.54,0,0,0,14.27,2.51,50.75,50.75,0,0,0,15.32-2.48c9.19-2.92,16.79-6.39,22.58-10.3A122.06,122.06,0,0,0,232.13,258c1.6-1.56,4-4,6.51-6.56-.07.12-.14.24-.22.35-2.45,3.87-4.4,6.92-5.88,9.81a34.3,34.3,0,0,0-2.8,7.64,29.83,29.83,0,0,0-.42,12,34.41,34.41,0,0,0,4,11.17,33.56,33.56,0,0,0,10.52,11.11l.5.33a26,26,0,0,0,13.95,4,32.18,32.18,0,0,0,11.78-2.37,74.08,74.08,0,0,0,17.52-10.2q4.21-3.21,8.47-7a35.48,35.48,0,0,0,11.64,5.13,38.08,38.08,0,0,0,9.36,1.1,46.44,46.44,0,0,0,21.34-5.09,58.94,58.94,0,0,0,10.9-7.67,23.14,23.14,0,0,0,10.77,11.61A35.72,35.72,0,0,0,371.79,297a26.45,26.45,0,0,0,3.88.28A28.33,28.33,0,0,0,390.49,293a38,38,0,0,0,10.8,4,27.9,27.9,0,0,0,5.83.55,48.85,48.85,0,0,0,17.49-3.36,32.36,32.36,0,0,0,14-10.79,38.33,38.33,0,0,0,12.9,2.19h1.16c11.23-.36,21.13-3.7,29.29-9.81a29,29,0,0,0,8.46,1.37H491a29.48,29.48,0,0,0,23.49-11.79,16.67,16.67,0,0,0,1.8-2.83,24.68,24.68,0,0,0,4.82-.9,52.17,52.17,0,0,0,9.26-3.79,16.84,16.84,0,0,0,4.89-4,22.47,22.47,0,0,0,4.66,1.24,35.31,35.31,0,0,0,5.41.42,34.66,34.66,0,0,0,7.35-.79,28.87,28.87,0,0,0,17.92-12.35q.69,0,1.38,0a32,32,0,0,0,17.33-4.92,27,27,0,0,0,9.26-9.39c.1-.18.2-.37.31-.55a25.79,25.79,0,0,0,7.36-1.1A32.79,32.79,0,0,0,626.3,210a30.43,30.43,0,0,0,6.76-1.25c6.74-2.05,16.17-8,20.6-18.08.14-.32.27-.64.39-1a30.36,30.36,0,0,0,9.7-3.43c5.36-2.84,12.11-8.8,14.53-21.12A74.39,74.39,0,0,0,679.16,144.16Z" fill="#231f20"/><path d="M481.75,196.82a13.36,13.36,0,0,0-4.09,9.55,16.61,16.61,0,0,1-.25,3,11.06,11.06,0,0,0-.15,2.55c0,1.46,0,4.23.1,8.3s.21,10.76.42,20a40,40,0,0,0,.9,7.8c-.78,1.2-1.59,2.34-2.43,3.4a29.69,29.69,0,0,1-11.31,9.21,18,18,0,0,1-11.75,1.2,7.34,7.34,0,0,1-4.4-2.55,15,15,0,0,1-2.72-4.79,26.51,26.51,0,0,1-1.29-5.84,30.13,30.13,0,0,1-.14-5.71l.06-.46a32.41,32.41,0,0,0,8.19-3,38.93,38.93,0,0,0,9.86-7.18,35.16,35.16,0,0,0,7.17-10.16A22.3,22.3,0,0,0,471.81,210a8.55,8.55,0,0,0-3.66-6.38q-3.22-2.29-10.22-1.13a24.21,24.21,0,0,0-13.41,6.36,40.69,40.69,0,0,0-9.32,12.79,48.47,48.47,0,0,0-4.32,16,45.78,45.78,0,0,0,.63,13.2l.32,1.36a8.08,8.08,0,0,1-3.42,3.12,27.37,27.37,0,0,1-4.35,1.44c-2.89-5.27-7.13-9.67-9.77-12.86-.57-.69-2.11-2.91-2.11-2.91s-.13-.2-.21-.3a84.74,84.74,0,0,0,12.23-15.28,19.67,19.67,0,0,0,1.52-2.51,18.9,18.9,0,0,0,1.4-3.51c.06-.16.13-.32.19-.47h-.05c.11-.42.27-.82.36-1.26a11,11,0,0,0-.15-5.56,9.26,9.26,0,0,0-3.35-4.68,11.79,11.79,0,0,0-7.2-2.12,28.47,28.47,0,0,0-5.14.42,18.9,18.9,0,0,0-5.52,1.88,22.51,22.51,0,0,0-5.11,3.73,17.42,17.42,0,0,0-3.95,6,25.69,25.69,0,0,0-1.88,12c0,.35.08.66.11,1l.17,1.38a22.7,22.7,0,0,0,3,8.11c1.82,2.83,3.61,4.91,5.43,7.39l.45.64.59.68c-2.33,2.84-3.8,4.77-6.41,8.39l-.55.75a13.9,13.9,0,0,0-4.15,1.16,8.35,8.35,0,0,0-3.47,3.08,6.62,6.62,0,0,0-.45,5.91c-.77.85-1.49,1.6-2.16,2.26-2.75,2.68-6.57,3.79-8.12,3.31s-2.57-1.78-3-3.94c-.47-1.79,0-5.14,1.24-10s2.83-10,4.63-15.38,3.61-10.5,5.44-15.41,5.06-8.64,6-10.69a4.92,4.92,0,0,0-.08-4.36,11.14,11.14,0,0,0-3.85-4,14.18,14.18,0,0,0-5.74-1.95c-30.89-3.83-25,14.56-29.43,28.6-2.18,6.68-3.05,9.9-7.71,16.24a46.26,46.26,0,0,1-8,9.17,69.1,69.1,0,0,1-9,6.76,20.74,20.74,0,0,1-8.79,3.07,14,14,0,0,1-7.18-1.25,11.07,11.07,0,0,1-3.56-3,15.53,15.53,0,0,1-1.61-3.6,20.37,20.37,0,0,1-.55-3.12c0-.36-.05-1.48-.05-1.48a27.38,27.38,0,0,1,.77-7c.22-1,.49-2,.75-3,1.59-2,3-3.81,4.29-5.5q3.77-5.06,4-6-3.54,4.49-7.54,9a50.28,50.28,0,0,1,3.85-9.12,43,43,0,0,1,8-10.56,31.68,31.68,0,0,1,9.22-6.26,17.73,17.73,0,0,1,8.81-1.52c3.11.31,6.29,2.51,8.08,7a21.3,21.3,0,0,1,1,7.19c-.11,3.77-2.08,7.86-3.5,11.05-2.34,5.28-3.56,6.61-4.4,8.55a1.15,1.15,0,0,0,.06,1.23c.26.28.51,0,1-.63,7.27-10,12.12-19.31,10-27.83a17.21,17.21,0,0,0-14-13.23,28.78,28.78,0,0,0-15.62,1.66A38.82,38.82,0,0,0,310.21,223a50,50,0,0,0-9.54,13.87,60.23,60.23,0,0,0-4.52,13.69l-.32,1.67c-.07.41-.17.81-.23,1.22a22.62,22.62,0,0,0,.34,8.26q-4.19,3.88-8.33,7.28a147.79,147.79,0,0,1-14.8,10.87c-4.59,2.9-8.14,4.51-10.67,4.87s-3.75-.77-3.62-3.33,2.24-8,5.7-14.3c.26-.46,1.14-1.72,2.55-3.83s2.71-4.33,4.5-7,3.66-5.3,5.58-8.07,2.67-4.08,4.45-6.71l1.43-2c1.43-2.2,4.39-6.14,8.27-11.47,1.71-2.34,3.49-4.75,5.32-7.19A147.72,147.72,0,0,0,319.23,211a75.15,75.15,0,0,0,17.2-12.26c4.77-4.74,4.89-9.19,4.89-9.19.11-13.13-13.93-17-13.93-17a17.72,17.72,0,0,0-7.34-.46,12.68,12.68,0,0,0-7.42,3.94,67.46,67.46,0,0,0-6.13,7.65q-4.78,6.47-11.31,15.19-6,8.07-12.49,16.9c-8.31,2-17.79,4-28.65,6.1-5.29,1-9.53,1.84-15.21,2.59.73-.83,4.83-5.59,5.49-6.37L253.82,206c19.41-26.43,22.68-49.93,10.06-60.73s-38.19-1.62-57.11,20.5c0,0,14.65-12.11,25.59-16.37,12.56-4.89,20.45-1.18,25.36,5,4.24,5.29,2.58,16.16-15.3,41-.59,1-.93,1.63-1.11,2,.14-.29.09-.35-1.43,2q-5.12,7.81-10.08,14c-2.88,3.58-8.75,10.46-11.62,13.61-5.65.87-14.69,2.25-25.68,3.88-10.26,1.53-24.82,4.65-32.49,7.34-6.24,2.19-7.65,3.84-8.91,6.41a10,10,0,0,0-.61,4.72,20.41,20.41,0,0,0,4.66,8.86c2.78,3.13,6.54,5.92,13,8.33,6.07,2.26,12.73,1.66,18.72-.24s13-4.61,18.32-8.24A107,107,0,0,0,220.54,246c2.7-2.62,8.22-8.28,12.7-13,5.63-.42,8.4-.66,15-1.35A197.05,197.05,0,0,0,275,226.9c-1.8,2.68-3.54,5.24-5.38,7.66l-2.73,4.22q-6.54,9.36-11.82,17.77c-3.52,5.61-6.19,9.6-7.75,12.65a17.79,17.79,0,0,0-1.45,4,13.2,13.2,0,0,0-.15,5.27,17.78,17.78,0,0,0,2.09,5.77,17.1,17.1,0,0,0,5.43,5.51q4.29,2.73,10.7.2a57.21,57.21,0,0,0,13.54-8,138.88,138.88,0,0,0,14.35-12.67c1.7-1.7,3.31-3.38,4.89-5a16,16,0,0,0,2.45,4.34l1.6,1.84a24.35,24.35,0,0,0,4.46,3.92,18.8,18.8,0,0,0,6.38,2.83c5.36,1.41,13.57.37,18.91-2.49A50.65,50.65,0,0,0,344,263.52c6.55-7.76,8.78-14.68,10.93-21.9.89-3,2.74-10.5,2.74-10.5C360,218.3,368.8,209,378,214c-1,2.23-2.32,5.9-4,11s-3.43,10.58-5.11,16.48-3.07,11.67-4.14,17.26-1.43,9.95-1.1,13c.54,3.43,1.87,5.69,4,6.76a19.28,19.28,0,0,0,6.45,2q5.19.84,10.49-3.8a45.92,45.92,0,0,0,6.4-7c3.56,6.87,7.56,9.56,13.78,10.88,2.31.48,8.7.08,13.54-1.92s9-6.14,8.9-11.22a21.64,21.64,0,0,0-2-8.44,19.38,19.38,0,0,0,4.78-1.86,16.11,16.11,0,0,0,2.58-2.15c1.54,5.06,4.08,8.65,7.63,10.72a22,22,0,0,0,11.95,3.09q18.33-.58,28.12-15.44a.41.41,0,0,0,.07-.11,14.57,14.57,0,0,0,2.93,4.23,10.45,10.45,0,0,0,7.45,2.87c3.05.06,7.06-.8,10.67-5.41-3.09,1-5.69,1.84-7.52.71s-2.18-2.37-3-5.16a36.52,36.52,0,0,1-1.22-10.35q0-6.15.68-14c.91-4.06,1.72-7.52,2.44-10.34a60.64,60.64,0,0,1,2.32-7.37c.83-2.09,1.61-3.91,2.35-5.48s1.54-3.2,2.42-4.92a11.29,11.29,0,0,1,1.41-2.33,5,5,0,0,1,2.1-1.71,1.57,1.57,0,0,1,2,.53c.56.65.85,2.25.89,4.77.13,9.12.28,16.53.41,22.23a133.82,133.82,0,0,0,.84,13.43,25.81,25.81,0,0,0,1.67,7.09,6.73,6.73,0,0,0,2.9,3.23,5.81,5.81,0,0,0,4.5.25,36.55,36.55,0,0,0,5.86-2.41,17.93,17.93,0,0,1-2.27-3.08,24.09,24.09,0,0,1-1.23-6.15c-.17-2.37-.23-5.22-.2-8.56s.08-6.86.15-10.6q2.31-7.35,4.23-15a61.46,61.46,0,0,1,4.53-12.8,13.83,13.83,0,0,1,1.29-2.27,5.45,5.45,0,0,1,1.8-1.74,1.33,1.33,0,0,1,1.79.45c.55.66.93,2.22,1.13,4.67.16,2.86.27,6.28.31,10.27s.09,8.16.18,12.52.35,8.55.79,12.56a38.17,38.17,0,0,0,2.17,9.83c1.29,3.19,3.06,5,5.36,5.32a18.13,18.13,0,0,0,6.66-.18q6.47-1.42,9.51-8.79a55.64,55.64,0,0,0,2.44-7.39,17.21,17.21,0,0,0,7,3.1,16.75,16.75,0,0,0,12.39-2,10.67,10.67,0,0,0,3.68-3.6,22.61,22.61,0,0,0,2-4.77,36.43,36.43,0,0,0,1.78-12,14.39,14.39,0,0,0,5.73,6.35,9.4,9.4,0,0,0,7.93,1.13q7.38-2.07,11-9.92a47.26,47.26,0,0,0,3.38-11.13,14.7,14.7,0,0,0,4.21,3.08,11,11,0,0,0,8.17.37c3-.91,8.1-4.05,10.21-8.85-2.66,1.92-5.31,4.18-7.42,3.44a11.07,11.07,0,0,1-5.58-4.93,41.28,41.28,0,0,1-4.21-9.71q-1.82-5.88-3.42-12.63a93.58,93.58,0,0,1-.58-16.68,55.28,55.28,0,0,1,2.6-15.77c.19-.62.45-1.37.81-2.23a3.25,3.25,0,0,1,1.24-1.71c.48-.27,1-.08,1.68.56a13.39,13.39,0,0,1,2.14,4.57c.48,1.47,1.13,4,1.91,7.54s1.87,7.48,3.23,11.74a88.27,88.27,0,0,0,5,12.4,32.07,32.07,0,0,0,7,9.72c2.73,2.21,5.11,3.27,7.11,3.16a13.4,13.4,0,0,0,5.89-1.81q4.7-2.4,6.13-9.71a57.72,57.72,0,0,0,.63-16.26,114.27,114.27,0,0,0-3.15-18.1,105.77,105.77,0,0,0-5.14-15.61c-.22-.29-.37-.16-.42.34a251.36,251.36,0,0,1,4.69,26.48,97.29,97.29,0,0,1,.72,16.4c-.29,4-1.07,6.46-2.33,7.49s-2.73.82-4.38-.64c-1.43-1.18-2.8-3.67-4.15-7.49s-2.68-8-4-12.49-2.52-8.93-3.55-13.23-1.76-7.55-2.18-9.79-1.65-3.9-3.38-4.6a10,10,0,0,0-5.76-.41,20.54,20.54,0,0,0-6.45,2.62,20.08,20.08,0,0,0-5.53,4.84q-1.54,2-2.63,9.49a149.31,149.31,0,0,0-1.35,15.8,111.05,111.05,0,0,1-2.71-12c-.48-3.28-2.86-8.78-10.55.16-2.12,2.46-2.5,6.06-1.31,10.69q1.4,5.17,4,13.56t6.17,18.8a42.45,42.45,0,0,0,3.29,6.73,52.48,52.48,0,0,1-1.44,7.36q-2,6.85-4.94,8.24T600,196.25a48.29,48.29,0,0,1-4.7-12.62,142.46,142.46,0,0,1-2.69-14.51,122.52,122.52,0,0,1-1.07-13,38,38,0,0,1,.37-8.09c.4-1.75-.21-2.64-1.85-2.69a15.25,15.25,0,0,0-5.58,1.08,23,23,0,0,0-5.74,3.13q-2.61,2-2.67,3.93a6.53,6.53,0,0,0-.27,2.89,31.59,31.59,0,0,0,2,6.38c-5.84-4.4-11.69-5-16.91-1.7a22.33,22.33,0,0,0-4.75,3.95,30.85,30.85,0,0,0-4.05,6.07,29.11,29.11,0,0,0-3.25,9.9,51.74,51.74,0,0,0-.46,12.32,67.77,67.77,0,0,0,2.29,12.84,31.73,31.73,0,0,0,5.28,11,26.29,26.29,0,0,0,1.77,2.09,49.66,49.66,0,0,1-1.76,5.84c-1.35,3.47-2.68,5.37-4,5.71s-2.57-.44-3.72-2.33c-1-1.54-1.62-4.32-1.86-8.32s-.37-8.35-.39-13-.28-9.21-.09-13.58,0-6.34.06-10.05c.2-2.43-.35-4.26-1.63-5.51a8.37,8.37,0,0,0-5-2.24,14,14,0,0,0-5.67.59,19.12,19.12,0,0,0-6.59,2.93c-1.38.95-2.6,3.48-3.69,7.62s-2.51,8.82-4.33,14l-.32-6.78c-.08-2.36-.38-4.24-1.74-5.45a7.7,7.7,0,0,0-5.25-2.15,20.26,20.26,0,0,0-5.84.91,19.07,19.07,0,0,0-6.59,2.39c-1,.68-1.59,2.19-2.42,4s-1.75,3.92-2.72,6.35-1.93,5.07-2.85,7.88c-.67,2-1.21,4-1.68,5.92l-.38,1.6c0,.18-.1.36-.13.53A75.29,75.29,0,0,1,490.84,202s1.19-6-2-6.8A8.46,8.46,0,0,0,481.75,196.82ZM449.4,223.65a37,37,0,0,1,10.87-15c2.65-2.13,4.59-2.61,5.82-1.42a5.23,5.23,0,0,1,1.63,4.36,25.72,25.72,0,0,1-5.7,15,57.43,57.43,0,0,1-10.3,10A65.25,65.25,0,0,1,444.9,241,65.43,65.43,0,0,1,449.4,223.65ZM316.68,194.82q6.26-7.62,9.57-10.35c1.75-1.42,2.71-1.84,4.29-1.93a5.75,5.75,0,0,1,3.46,1s5.74,3,3.93,8.1c-1.07,3-4.81,6.79-14,11.1a149.17,149.17,0,0,1-19.28,7.16C307.1,206.81,313.37,198.86,316.68,194.82ZM205.55,239.73a95.12,95.12,0,0,1-14.68,10.89c-5.16,3.09-10.33,5.74-15.82,6.56-5.76.87-8.25.9-11.41-.3s-5.52-2.82-6.52-4.76a5,5,0,0,1-.43-4.43c1.13-2.56,4.11-3.85,6.44-4.85,3.77-1.63,13.27-3.28,19-4.11,12.21-1.79,22-3,28.94-3.75Zm203.18-19.94a17.16,17.16,0,0,1,4.36-4.65,13.37,13.37,0,0,1,5.65-2.07c2.4-.14,3.9.82,4.51,2.86a10.15,10.15,0,0,1,.29,3.65h0c-1.15,7.85-5.79,14.84-11.76,20.87a24.74,24.74,0,0,1-4.13-9.11C406.87,227.8,406.27,223.71,408.73,219.79Zm-3.14,29.35.35.42a99,99,0,0,1,7,8.49c-4.9,0-8.84-.56-10-.56a35.67,35.67,0,0,0-3.61.1C401.52,254.55,403.85,251.5,405.59,249.14Zm11.72,20.36c-3,4.68-14.74,7.88-20-4.18-2.18-5,1.77-5.17,6.56-5.42a90.82,90.82,0,0,1,10,.4c.23,0,.45,0,.67,0C416.88,264,418.52,267.6,417.31,269.5Zm166.53-63.75c-.11,3.93-.84,7-2.21,9.26s-3,3.52-5,3.79-4-.53-6.16-2.4-4-5.16-5.72-9.89a87,87,0,0,1-2.46-9.53,58.87,58.87,0,0,1-1.14-10.51,52,52,0,0,1,.89-10.36c.65-3.39,1.47-6.74,3.36-9.48,2.16-3.14,4-3.72,5.83-3.59a6.8,6.8,0,0,1,4.56,2.54c.93,1.13,1.45,2.28,2.49,5.48a102.22,102.22,0,0,1,2.84,10.9c.84,4.08,1.52,8.24,2.06,12.51A74.55,74.55,0,0,1,583.84,205.75Z" fill="#fff"/><path d="M354.61,201.84s7,4,13.45,5.09,13.57-1.09,17.95.17c8.77,2.52,9.15,9.47,8.09,10.91-.74,1-23.08-6.19-34.05-7-4.43-.33-7.18-3-7.4-3.6C351.9,205.29,354.61,201.84,354.61,201.84Z" fill="#fff"/></g></g></svg>