<svg xmlns="http://www.w3.org/2000/svg" viewBox="0 0 723 375.51"><g id="fed968cb-74dd-4b89-a2d2-bfba54cbdd8b" data-name="Warstwa 2"><g id="b4f2e8dc-1909-4b30-bf63-b5963f025b4b" data-name="Warstwa 1"><path d="M722.77,230.89c-1.15-9.61-6.93-18.09-17.19-25.22-.36-.26-.77-.5-1.15-.75A18.14,18.14,0,0,0,708.7,192l0-.67a18.22,18.22,0,0,0-7.48-13.6c0-1.75,0-6.32,0-6.37,0-.39,0-.72,0-1a18.23,18.23,0,0,0,0-34.45v-8c0-10.76-4.73-17.5-8.69-21.26C685,99.49,675.69,98.72,672,98.72c-.82,0-1.32,0-1.45,0-.4,0-.8.06-1.19.11l-19.57,2.49a41.65,41.65,0,0,0-12.93,4.5,30.79,30.79,0,0,0-9.45-1.45,20.92,20.92,0,0,0-2.21.09l-.73.08-7.38,1a18.21,18.21,0,0,0-15.91,18.07v0l-.2-.2-.14-.13c-3.28-3.29-11.58-9-22.45-10.85,6.83-14.34,6.76-28.74-.41-39.23a34.88,34.88,0,0,0-3.66-4.43c10.14-7.15,15.71-17.73,15.46-29.9-.24-11.15-4.4-20.73-12-27.69C567.11,1.46,553.08,0,545.68,0c-.72,0-1.31,0-1.77,0H147.3a30.6,30.6,0,0,0-10.64,1.92A30.5,30.5,0,0,0,126,0H18.23A18.23,18.23,0,0,0,0,18.26v8.35A18.23,18.23,0,0,0,18.23,44.84h3.33a19.6,19.6,0,0,1,19.8,19.33v14.5a31.36,31.36,0,0,1-1.5,10.15,18.23,18.23,0,0,0-11,16.73v.68a18.24,18.24,0,0,0,11,16.74,31.26,31.26,0,0,1,1.5,10.15v10.15c0,14.76-9,23.5-11.8,24.26a18.22,18.22,0,0,0-13.18,21.14l.13.66c.08.42.24.81.35,1.22A18.08,18.08,0,0,0,25.19,215l.82.4c1.29.7,15.3,8.64,15.35,24.28l.08,8.41a31,31,0,0,1-1.5,10.15A18.23,18.23,0,0,0,29,275v.68a18.23,18.23,0,0,0,11,16.73,31.08,31.08,0,0,1,1.5,10.15c0,10.6-3.91,18.2-12,23.23a39.38,39.38,0,0,1-13.3,5.07H16.1A18.23,18.23,0,0,0,0,348.93v8.35a18.21,18.21,0,0,0,18.23,18.23,19.89,19.89,0,0,0,2.31-.14L88,366.76a18.19,18.19,0,0,0,10.81-5.43A18.19,18.19,0,0,0,108.3,364a20.22,20.22,0,0,0,2.32-.15l29.73-3.79,479.18-60.91c26.71-3.2,51.59-10.53,70.05-20.64C721.34,261.14,724,241.21,722.77,230.89Z" fill="#b2b2b2"/><path d="M560,264.8l0-.12,3.9-9.46c2.88-6.95,4.37-11.29,3.61-17.27-.85-6.76-4.09-9.88-8.77-9.29-4.28.54-7.34,4.11-7,11.8l3.83.54c-.09-3.91.45-6.65,3.46-7,2.33-.29,3.87,1.1,4.33,4.74.6,4.75-.79,8.33-3.5,15.2l-4.55,11.6.67,5.37,15.83-2-.69-5.48Z" fill="#1d160f"/><path d="M578.8,226.13c-7.19.91-8.23,9.62-6.65,22.14s4.38,20.69,11.57,19.78,8.06-9.54,6.4-22.62C588.62,233.52,586,225.22,578.8,226.13Zm4.38,36.76c-3.92.5-5.39-5.28-6.62-15.07-1.28-10.11-1.08-15.82,2.81-16.31s5.16,5,6.4,14.81C587.07,256.61,587.06,262.4,583.18,262.89Z" fill="#1d160f"/><path d="M597.7,224.48a9.32,9.32,0,0,1-6.82,5.63l.91,5.17c1.2-.15,4.3-1.28,5.4-2.5l4.09,32.37,4.14-.52-5.11-40.48Z" fill="#1d160f"/><path d="M619.37,263.55c5.67-.72,8.53-6.13,7.73-12.45-.76-6-3.27-8.39-6.68-10.23a12.81,12.81,0,0,0,3.42-10.94c-.72-5.7-4-9-9.06-8.34s-8,5-7.1,11.85c.53,4.2,2.45,7.42,5.57,9.07-3,2.71-4.54,6.37-3.87,11.68C610.1,259.89,613.27,264.32,619.37,263.55Zm-7.55-31.48c-.4-3.19.94-5.4,3.41-5.71,2.65-.34,4.13,1.41,4.52,4.54a9.74,9.74,0,0,1-2.7,8.06C614.41,237.65,612.28,235.7,611.82,232.07Zm1.63,21a9.22,9.22,0,0,1,3-8.4c2.69,1.14,5.74,2.52,6.32,7.1.39,3.13-.65,6.28-3.95,6.69S613.88,256.52,613.45,253.11Z" fill="#1d160f"/><polygon points="453.74 235.51 412.73 240.66 330.7 250.97 248.71 261.58 207.72 266.89 166.74 272.34 207.77 267.33 248.79 262.18 330.81 251.87 412.8 241.26 453.79 235.95 494.77 230.5 453.74 235.51" fill="#1d160f"/><polygon points="402.7 250.87 322.4 260.96 242.14 271.35 202.01 276.55 161.9 281.89 202.07 276.99 242.22 271.94 322.52 261.86 402.78 251.47 442.91 246.27 483.02 240.93 442.86 245.83 402.7 250.87" fill="#1d160f"/><polygon points="238.89 281.3 319.17 271.21 399.41 260.83 439.53 255.63 479.63 250.29 439.47 255.19 399.33 260.23 319.05 270.32 238.81 280.71 198.69 285.9 158.59 291.24 198.75 286.34 238.89 281.3" fill="#1d160f"/><polygon points="238.89 290.23 319.17 280.15 399.41 269.76 439.53 264.56 479.63 259.23 439.47 264.13 399.33 269.17 319.05 279.25 238.81 289.64 198.69 294.84 158.59 300.17 198.75 295.27 238.89 290.23" fill="#1d160f"/><polygon points="242.22 298.74 322.52 288.65 402.78 278.26 442.91 273.06 483.02 267.73 442.86 272.63 402.7 277.67 322.4 287.76 242.14 298.15 202.01 303.34 161.9 308.68 202.07 303.78 242.22 298.74" fill="#1d160f"/><polygon points="248.79 306.83 330.81 296.52 412.8 285.92 453.79 280.61 494.77 275.16 453.74 280.17 412.73 285.32 330.7 295.63 248.71 306.24 207.72 311.55 166.74 317 207.77 311.98 248.79 306.83" fill="#1d160f"/><path d="M165.34,212.15h0c0,.14-.08.28-.1.42a6.69,6.69,0,0,1-.7,1.95,9.91,9.91,0,0,1-1.37,2c-.07.07-.12.16-.19.23a17,17,0,0,1-2.81,2.31c-.6.4-1.13.71-1.43.87l-.3.16-1.19.58,1.33.06.34,0c1.48.15,7.26,1,8.08,5.36h0a47,47,0,0,0,4.75,11.63,39.37,39.37,0,0,0,7.11,9c5.37,5,11.87,7.87,18.6,7.87h0a22.93,22.93,0,0,0,3-.19l.34,0a26.55,26.55,0,0,0,11.64-4.94,24.71,24.71,0,0,0,4.76-4.77,38.3,38.3,0,0,0,5-8.29c2-4.69,2.65-9.62,2.14-16.51l-.16-2.26c-1.5-20.33-1.77-24-6.65-30.58a27.78,27.78,0,0,0-23.92-10.39,34.69,34.69,0,0,0-6.9,1.21C174.46,181.2,165.69,195.31,165.34,212.15Zm18-25.22a8.58,8.58,0,0,1,3.19-3.17,15.41,15.41,0,0,1,6.59-1.76h.12c.88-.06,1.74-.1,2.56-.1,6.42,0,11,2.08,13.87,6.45a16.85,16.85,0,0,1,1.55,2.89,29.07,29.07,0,0,1,1.93,7.46c.54,4.24,2.39,26.76,1.88,35.62a24.08,24.08,0,0,1-.6,4.07c-.13.57-.3,1.08-.46,1.61a14.67,14.67,0,0,1-7.48,9.31,18.31,18.31,0,0,1-6.37,1.92H200a17.44,17.44,0,0,1-1.75.1c-9.23,0-15.36-9.3-17-25.26q-.34-3.42-.42-7.25l-.06-3.33c-.12-6.29-.18-11.47,0-15.72,0-1.06.1-2.06.17-3C181.24,192.37,182,189.21,183.3,186.93Z" fill="#1d160f"/><path d="M231.29,61.11c6.25,0,14.53,8.28,14.53,14.53a.34.34,0,0,0,.34.34h0a.34.34,0,0,0,.34-.34c0-3.9,3.23-8.6,7.18-11.58a13,13,0,0,1,7.34-3,.34.34,0,0,0,.34-.34h0a.34.34,0,0,0-.34-.33c-6.24,0-14.52-8.29-14.52-14.53a.34.34,0,0,0-.34-.34h0a.34.34,0,0,0-.34.34,10.77,10.77,0,0,1-1.39,4.9c-2.63,5-8.46,9.63-13.14,9.63a.34.34,0,0,0-.34.33h0A.34.34,0,0,0,231.29,61.11Z" fill="#1d160f"/><path d="M188.24,105a15.44,15.44,0,0,1-6.68,4.15c-.84.26-1.89.51-3.11.79-3.71.86-8.78,2-13.57,5.06a14.59,14.59,0,0,0-1.31.94,17.56,17.56,0,0,0-1.67,1.5,22.32,22.32,0,0,0-6,13,38.17,38.17,0,0,0,.42,11.64,33.35,33.35,0,0,0,1.29,5c3.82,11,13.16,18.11,24.1,18.11h0c.53,0,1.08-.07,1.63-.1l-.28.14h0l40.65-5.21,3.91-.5-2-.4a17.53,17.53,0,0,1-14.09-12.4A32.26,32.26,0,0,1,210,139a20.08,20.08,0,0,1,1.5-10.16,13,13,0,0,1,4.43-5.23,16,16,0,0,1,4.3-2.15l1.39-.45.66-.21h-2.15a11.26,11.26,0,0,1-5.29-1.22c-4.44-2.3-6.48-7.4-7.69-11.48-2.1-9.82-5.63-13.28-7.33-15l-.29-.27c-1.22-1.23-9.5-7.18-19.33-6a15.84,15.84,0,0,0-3.29.64c-.39.11-.81.24-1.26.4a25.88,25.88,0,0,0-4,1.79c-.73.41-1.47.85-2.23,1.38A27.24,27.24,0,0,0,166,94a33.17,33.17,0,0,0-6.48,8.87l.59.34a18.54,18.54,0,0,1,1.37-1.81c.45-.53,1-1.15,1.66-1.82a34.12,34.12,0,0,1,3-2.66,25.71,25.71,0,0,1,14.27-5.76,10.46,10.46,0,0,1,4.82.7l.18.07c.16.06.49.21,1,.46l.43.22a.86.86,0,0,1,.07.1c3.07,3.92,3.19,6,3.2,6.11a7.75,7.75,0,0,1-.75,4.54A8.62,8.62,0,0,1,188.24,105Zm2.21-8.92-.23-.41a16.65,16.65,0,0,0-.93-1.42h0a16.75,16.75,0,0,1,1.87,1.89c.15.18.3.35.45.54A18.31,18.31,0,0,1,193,98.83c.2.34.41.67.59,1a19.87,19.87,0,0,1,1,2.64c.14.46.31.86.43,1.35a24.61,24.61,0,0,1,.63,4.92v0c.35,15.24,0,33.44,0,33.63,0,.46,0,.93,0,1.41h0c.06,6.64.12,14.89-10.66,20.46l-.06,0-.13,0-.23-.05-.13,0a3.25,3.25,0,0,1-.42-.13l-.13-.05a5.34,5.34,0,0,1-.58-.25l-.14-.06c-.22-.11-.45-.24-.7-.39l-.15-.1c-.25-.16-.51-.35-.78-.56l-.17-.13a11,11,0,0,1-.83-.75l-.2-.2c-.27-.28-.55-.6-.84-.94-.07-.1-.15-.18-.22-.28-.27-.35-.55-.74-.82-1.16-.09-.13-.17-.24-.25-.38-.26-.42-.52-.89-.78-1.38l-.27-.51c-.24-.49-.48-1-.71-1.61-.09-.22-.19-.43-.28-.66-.22-.57-.43-1.21-.63-1.85-.1-.28-.19-.54-.28-.84-.19-.65-.36-1.37-.54-2.09-.08-.36-.18-.68-.26-1-.16-.74-.29-1.56-.43-2.38-.07-.42-.16-.8-.22-1.25-.13-.88-.23-1.85-.33-2.81-.05-.45-.12-.85-.16-1.32-.12-1.35-.2-2.8-.26-4.31,0-.13,0-.23,0-.36-.41-11.28,1.23-16.64,5.87-20.8a34.55,34.55,0,0,1,5.67-3.93,23.21,23.21,0,0,0,3-2,12.42,12.42,0,0,0,3.69-4.62,8.63,8.63,0,0,0,.62-4.83c0-.25-.1-.47-.15-.7a11.12,11.12,0,0,0-.38-1.43c-.08-.22-.16-.43-.26-.64A12.52,12.52,0,0,0,190.45,96.12Z" fill="#1d160f"/><path d="M305.39,149.68h0l-.05-.68c-5.61,0-7-3.52-7.39-7.09-.05-.51-.08-1-.09-1.52s0-.87,0-1.42c0-3.31,0-9,0-10.66,0-.28,0-.44,0-.45a26.36,26.36,0,0,1,1.06-7.81,15.13,15.13,0,0,1,4.26-6.93c.13-.12.26-.19.39-.31a13.8,13.8,0,0,1,4.52-2.52l2.05-.66H308a11.93,11.93,0,0,1-2.37-.22,8.4,8.4,0,0,1-6.33-5.19,21,21,0,0,1-1.43-8.4,33.59,33.59,0,0,1,1.24-9.77c2.36-7.74,7.67-9.9,12.45-10.8a14,14,0,0,1,3.23-.24c7.13.33,11.39,6.26,11.44,6.33L327.38,83h0l-.56-1.94c-2.65-9.12-11.16-10.55-16.44-10.51a27.9,27.9,0,0,0-3.86.3,25.87,25.87,0,0,0-8.77,3.62,18.38,18.38,0,0,0-2.94,2.3,12.4,12.4,0,0,0-3,4.64c-2.06-7-8.85-7.34-10.58-7.3h-.41l-7.38,1v3.1l.21.08c.11,0,10.75,4.22,10.75,19.24v33.66l0,.32c0,.79.07,1.62.09,2.49s0,2-.07,3c-.35,5.51-2.33,11.78-10.82,16.11l-.88.45-.85.43h0Z" fill="#1d160f"/><path d="M417.27,91.82c-.44.07-1.12.14-2,.21s-2,.19-3.21.35a35.92,35.92,0,0,0-3.69.67,18.42,18.42,0,0,0-2.77,1,10.53,10.53,0,0,0-1.6.85c-.18.12-.38.22-.54.34a5.76,5.76,0,0,0-1.13,1.13h0a5.06,5.06,0,0,0-.86,4.18l.26,1.36h0l.4-1.32a6.13,6.13,0,0,1,2.26-3.34,5.54,5.54,0,0,1,2.38-1c1.19-.21,5.14-.54,8.89-.78,2.32-.14,4.56-.26,6-.28,6.92-.13,8.88-.16,10.31-1.86a6.48,6.48,0,0,0,.59-.84,7.17,7.17,0,0,0,.82-4c-.16-4.81-3-11.64-6.59-16.47-.1-.16-9.13-13.63-23.75-13.34a22.63,22.63,0,0,0-13.83,4.86c-.44.32-.92.58-1.35.94-7.62,6.33-12.48,17.17-12.73,29.58a6.09,6.09,0,0,1-.43,1.69,12.24,12.24,0,0,1-4.38,4.93c-.61.42-1.1.72-1.48.93s-.6.33-.61.34l-.61.3-.59.28,1.33.06a14.08,14.08,0,0,1,2.45.4,11.55,11.55,0,0,1,2.92,1.1,6.34,6.34,0,0,1,2.43,2.23,5.07,5.07,0,0,1,.63,1.66h0c3.36,12.76,11.24,22.42,20.65,26.45a25.45,25.45,0,0,0,4.82,1.53,23.92,23.92,0,0,0,5,.53,22.89,22.89,0,0,0,3-.19h0a18.19,18.19,0,0,0,2.14-.39,27.26,27.26,0,0,0,9.84-4.59c5.24-3.85,8.35-9.84,9.73-13.06a32,32,0,0,0,2.16-7.32c.06-.34.14-.69.18-1a33.2,33.2,0,0,0,.07-8.17,5,5,0,0,0-2.77-4.34,7.08,7.08,0,0,0-4.69-.19A18.84,18.84,0,0,0,421,100l-1.11.76-.52.35h0l1.91-.5c3.18-.85,5.53-.52,7,1,1.14,1.18,1.74,3.06,1.8,5.53a22.37,22.37,0,0,1-.33,4.14,39.79,39.79,0,0,1-1.14,4.93A34.88,34.88,0,0,1,423,127.8a23.42,23.42,0,0,1-2.19,2.47,19.56,19.56,0,0,1-5.51,3.78,17.82,17.82,0,0,1-2.82,1,18.07,18.07,0,0,1-2,.4l-.22,0h-.08A15.14,15.14,0,0,1,398,131.91a23.33,23.33,0,0,1-5.76-8.36,38.08,38.08,0,0,1-1.4-3.75,68.16,68.16,0,0,1-2.75-19.17L388,97.4c-.18-9.19-.32-16.36.39-21.82.59-4.54,1.77-7.89,4-10.23s5.51-3.66,10.31-4.14c5.25-.53,17.75.26,20.5,18.87,0,.08.34,5.8-2.25,9.29A6.24,6.24,0,0,1,417.27,91.82Zm-30.06-2.88Z" fill="#1d160f"/><path d="M344.85,196.86a14.26,14.26,0,0,1,2.46.4c2.27.55,5.39,1.88,6,5h0a45.19,45.19,0,0,0,8,16.5,36.81,36.81,0,0,0,3.81,4.14,28.85,28.85,0,0,0,13.61,7.34,23.89,23.89,0,0,0,5,.53h0a22.78,22.78,0,0,0,3-.19h0a22.74,22.74,0,0,0,5-1.27,27.5,27.5,0,0,0,4.74-2.24c.73-.44,1.46-.92,2.2-1.47a23.69,23.69,0,0,0,3.54-3.21,34.44,34.44,0,0,0,4.83-7c.56-1.08,1-2.06,1.36-2.86a34,34,0,0,0,1.61-4.74,30.27,30.27,0,0,0,1-7.43,36.17,36.17,0,0,0-.23-4.35,5,5,0,0,0-2.76-4.34c-2.57-1.18-6.43-.21-10.6,2.65l-1.63,1.11,1.91-.51a14.21,14.21,0,0,1,2.22-.41,5.6,5.6,0,0,1,4.76,1.4c2.29,2.35,2.41,7.53.33,14.6-2,6.8-4.88,11.24-7.85,14.12a19.24,19.24,0,0,1-6.46,4.23,16.15,16.15,0,0,1-1.87.61c-.56.14-1,.23-1.37.29l-.65.11-.22,0a18,18,0,0,1-3.43.07,14.61,14.61,0,0,1-8-3.14c-.25-.2-.53-.34-.77-.55a20.54,20.54,0,0,1-4.1-5.07,34.07,34.07,0,0,1-3.06-7A68.14,68.14,0,0,1,364.54,195l-.06-3.24c-.18-9.18-.31-16.35.39-21.81.78-6,2.62-9.89,6.51-12.14a13.47,13.47,0,0,1,1.91-.91c.46-.18.93-.34,1.42-.48a24.59,24.59,0,0,1,4.46-.84c5.26-.53,17.76.25,20.5,18.87a19.36,19.36,0,0,1-.13,3.22c0,.15-.05.3-.07.45-.35,2.44-1.25,5.48-3.57,7.1a5.85,5.85,0,0,1-1.24.56,6.07,6.07,0,0,1-.93.41l-.83.1-1.15.11c-.86.08-1.91.18-3,.33q-1,.12-2,.3a21.88,21.88,0,0,0-4.63,1.33,7.91,7.91,0,0,0-3.26,2.32,5.13,5.13,0,0,0-.87,4.19l.26,1.36h0l.4-1.33a6.54,6.54,0,0,1,1.73-3,5.25,5.25,0,0,1,1.31-.9,6.11,6.11,0,0,1,1.6-.5c.26-.05.68-.1,1.19-.16.84-.09,2-.19,3.22-.3l.32,0c3.47-.28,7.84-.54,10.18-.58A47.39,47.39,0,0,0,406,189a4.44,4.44,0,0,0,1.81-.77,5.13,5.13,0,0,0,1.25-1.47,5.06,5.06,0,0,0,.67-1.77c.93-4.71-2.3-13.07-6.44-18.7,0,0-.21-.32-.58-.8-2.21-2.92-10.64-12.79-23.17-12.55a23.78,23.78,0,0,0-15.11,5.75,29.07,29.07,0,0,0-3.59,3.52,39.42,39.42,0,0,0-8.7,20,50,50,0,0,0-.51,6.08c-.22,2.31-1.88,4.24-3.51,5.61l-.37.31c-.59.46-1.13.84-1.61,1.15-.8.5-1.39.81-1.41.82l-1.19.58h0Zm18.82-13.56Z" fill="#1d160f"/><path d="M442,93.2h.1c2.53-.2,4.76-.4,6.8-.59l5.12-.5,4.7-.46c3.43-.31,6.45-.51,9.91-.53h.11c1.62,0,3.34,0,5.27.1a24.12,24.12,0,0,1,7.71,1.63,16.56,16.56,0,0,1,7.87,5.87c3.07,4.45,3.62,10.35,1.53,16.6a17.5,17.5,0,0,1-3.31,5.59,17.32,17.32,0,0,1-11.94,6.33,13.41,13.41,0,0,1-5.94-1.52,32.5,32.5,0,0,1-5-2.93,26.31,26.31,0,0,1-10.06-16.11,13.75,13.75,0,0,1,.63-7.16c.09-.21.16-.45.26-.63A7.37,7.37,0,0,1,457,97.22a8.13,8.13,0,0,1,2.41-1.63l.45-.18,1.29-.39h0l-1.32-.26a12,12,0,0,0-7.09.37,7.64,7.64,0,0,0-1.74,1,7.52,7.52,0,0,0-1,1,8.14,8.14,0,0,0-1.3,2.12,10.31,10.31,0,0,0-.83,3.5,23.17,23.17,0,0,0,6,16.28c.71.8,1.21,1.23,1.22,1.25,3.85,3.45,9.41,7.46,18.24,7.75h.86c8.52,0,14.42-4.21,18.38-9a33.7,33.7,0,0,0,3.34-4.85c5.45-9.49,6.41-18.51,2.56-24.14-2.33-3.39-5.62-5.56-10.38-6.8a104.21,104.21,0,0,0-16.76-2.44c-1.42-.12-2.55-.22-3.28-.31a12.76,12.76,0,0,1-3.62-.81c-2.65-1.26-2.67-4.7-2.73-17.68V60a8.19,8.19,0,0,1,.28-2.54,4.3,4.3,0,0,1,.39-.92,5,5,0,0,1,1.61-1.74,7.72,7.72,0,0,1,1.35-.75,12.29,12.29,0,0,1,1.81-.62,18.06,18.06,0,0,1,2.82-.48c.16,0,.31-.07.47-.08a20.2,20.2,0,0,1,10.18,2.08c8,3.76,7.67,9.14,7.38,10.72-.05.26-.09.44-.1.48A3.46,3.46,0,0,1,484.66,68l-.78-.06h0l.49.61A4.56,4.56,0,0,0,488,70.31a4.85,4.85,0,0,0,3.79-2h0c2.16-2.88.9-6.22-4-10.49-9.95-8.78-21-10.11-31.25-3.74a24,24,0,0,0-5.28,4.38c-4.24,4.83-5.4,11-3.44,18.34l.15.56a17.63,17.63,0,0,1,.83,5.1,9.46,9.46,0,0,1-.23,1.87,10.17,10.17,0,0,1-1.51,3.23,14.3,14.3,0,0,1-2.46,2.84,25,25,0,0,1-2.81,2.16l-1.07.73h0Z" fill="#1d160f"/><path d="M325.39,180.07a4.5,4.5,0,0,0,2.06,1.4,4.27,4.27,0,0,0,1.57.35,4.84,4.84,0,0,0,3.79-2,4.61,4.61,0,0,0,1-3.46,5.54,5.54,0,0,0-.33-1.27c-.65-1.73-2.17-3.63-4.6-5.77-6.22-5.48-12.89-8.06-19.5-7.66a24.78,24.78,0,0,0-11.75,3.93,25.89,25.89,0,0,0-2.9,2.08A17.52,17.52,0,0,0,288,181.37a21.67,21.67,0,0,0,.2,3.37,27.48,27.48,0,0,0,.72,3.59l.15.55c.84,3.13,1.84,6.83-1.38,11a20.4,20.4,0,0,1-4.8,4.26l-1.07.72h0l1.29-.1,3.44-.29c3.25-.29,6-.56,8.48-.81a122.39,122.39,0,0,1,20-.88c6.91.28,12.44,2.94,15.58,7.49a16.93,16.93,0,0,1,2.6,12,24.47,24.47,0,0,1-1.07,4.61,17.56,17.56,0,0,1-3.24,5.51,19.34,19.34,0,0,1-3.87,3.52,16.2,16.2,0,0,1-8.14,2.88c-2.6.17-6.2-1.49-8.79-3-.87-.51-1.62-1-2.18-1.42a23.65,23.65,0,0,1-4.07-3.76,26.51,26.51,0,0,1-6-12.34c-.48-2.84-.11-6.05.89-7.8a7.3,7.3,0,0,1,1.28-1.65,7.5,7.5,0,0,1,2-1.44c.25-.12.41-.22.55-.27l.27-.1,1.29-.4-1.32-.26a14.38,14.38,0,0,0-4.91-.22,8.1,8.1,0,0,0-3.92,1.63,9,9,0,0,0-3.05,5.8c-.06.44-.06.73-.07.79a23.3,23.3,0,0,0,7.19,17.52,28.76,28.76,0,0,0,12.21,6.9,26.89,26.89,0,0,0,6,.85l.87,0a24.29,24.29,0,0,0,3.7-.31c.44-.07.85-.18,1.27-.27a22.91,22.91,0,0,0,11.25-6.09,32.54,32.54,0,0,0,5.49-7.18c5.45-9.49,6.4-18.52,2.56-24.14-2.33-3.4-5.62-5.56-10.38-6.81-1.42-.37-2.9-.69-4.4-1-4.48-.8-9.05-1.19-12.36-1.47-1.43-.13-2.55-.22-3.28-.32-6.26-.84-6.26-1.17-6.35-18.49v-2c0-.26,0-.54,0-.84a5.27,5.27,0,0,1,1.3-3.52,8.21,8.21,0,0,1,4.13-2.21,19.31,19.31,0,0,1,13.47,1.52,16,16,0,0,1,5.07,3.57,8.2,8.2,0,0,1,2.21,7.63,3.39,3.39,0,0,1-2.11,1.74,3.49,3.49,0,0,1-1.06.15l-.78-.06h0Z" fill="#1d160f"/><path d="M616.86,200.39l-1.73.89h0L648.65,197l0-.67c-6.42,0-7.37-4.61-7.49-8.62,0-1.16,0-3.19,0-5.29v-2.09c0-1.37,0-2.64,0-3.58s0-1.54,0-1.57a23,23,0,0,1,2.23-10.68,14,14,0,0,1,3.09-4.05,13.13,13.13,0,0,1,3.38-2.23,13.31,13.31,0,0,1,1.53-.6l2-.66h-2.15c-3.36,0-5.89-1.17-7.59-3.47s-2.54-5.76-2.54-10.34c0-8.31,2-13.23,4.63-16.19a12.75,12.75,0,0,1,2.14-1.87,15.87,15.87,0,0,1,6.9-2.51c.72-.11,1.43-.21,2.13-.26a7.45,7.45,0,0,1,5.75,1.54c2.08,1.79,3.36,5.17,3.87,10.27.17,1.7.25,3.59.25,5.68v33.66l0,.33c0,.78.07,1.61.09,2.48v0a30.42,30.42,0,0,1-.31,5.21c-.05.34-.14.68-.21,1-.94,4.6-3.52,9.36-10.37,12.85l-1.73.88h0l3.79-.48L687.8,192h0l0-.68a10.88,10.88,0,0,1-2.16-.2,6.22,6.22,0,0,1-3-1.46,6.06,6.06,0,0,1-1-1.14,11.58,11.58,0,0,1-1.38-5.81c-.07-2.32,0-8.14,0-10.95,0-1,0-1.56,0-1.58a31.13,31.13,0,0,1,.28-4.27c1.28-9.08,6.61-12.22,10-13.3l2-.66H690.4c-6.72,0-10.13-4.64-10.13-13.81V126.68c0-3.44-1-6.14-3-8-3.3-3.13-8.07-2.92-8.29-2.91l-19.19,2.44a19,19,0,0,0-3,.79c-3.89,1.33-9.86,4.36-11.75,9.76a9.46,9.46,0,0,0-4.48-5.83,11.12,11.12,0,0,0-1.86-.82,13.22,13.22,0,0,0-4.24-.65l-.41,0-.94.12-6.44.83h0v3.09l.22.08c.09,0,8.25,3.24,10.28,14.11a27.9,27.9,0,0,1,.46,5.14v33.65l0,.33c0,.78.07,1.62.09,2.49C627.87,187.36,627,195.25,616.86,200.39Z" fill="#1d160f"/><path d="M56.35,62.9V77.41A47.25,47.25,0,0,1,53.1,95.33,19.83,19.83,0,0,1,49,101.84a3.65,3.65,0,0,1-.31.36,7.17,7.17,0,0,1-4.86,2.12h0V105c6.9,0,12.51,12.07,12.51,26.91v10.16a51,51,0,0,1-8.11,27.87C43.43,177.3,37.09,182.35,31,184l.13.67,25.62-3.27,25.62-3.27h0l0-.34,0-.34c-3.27,0-6.4-3.51-8.71-8.95-.29-.68-.56-1.39-.82-2.12a51.28,51.28,0,0,1-2.38-9.95,59.5,59.5,0,0,1-.6-8.45V137.86c0-20.73,11.34-37.59,25.27-37.59a18.24,18.24,0,0,1,9.82,3,24.27,24.27,0,0,1,4.29,3.47,30,30,0,0,1,3,3.56c5,6.87,8.17,16.68,8.17,27.6v6.84a49.48,49.48,0,0,1-3.57,19.08c-2.25,5.24-5.4,9-9.06,10.41l-2.69,1,54.1-6.9,0-.67c-14.45,0-25.26-22.11-25.26-41.87v-6.93c0-7.42,1.41-14.15,3.67-19a23.64,23.64,0,0,1,1.85-3.29,11.19,11.19,0,0,1,4.47-4,6.19,6.19,0,0,1,2.52-.55v-.68h0c-2.59,0-5-1.7-7-4.6a23.64,23.64,0,0,1-1.85-3.29c-2.26-4.87-3.67-11.6-3.67-19l0-1.44A37.16,37.16,0,0,1,142.5,39q1.17-1.4,2.46-2.67a38.18,38.18,0,0,1,26.9-11h3l9.23-.13,1.75,0,20.29-.29,5.91-.09,114.83-1.62c.43.43.88.92,1.33,1.45.22.27.44.56.66.85a20.89,20.89,0,0,1,1.54,2.24c.09.14.17.3.25.45A24.65,24.65,0,0,1,332,31c.09.24.19.47.28.72a24.72,24.72,0,0,1,1.05,3.78c.05.27.09.55.13.83a27.8,27.8,0,0,1,.42,4.72l0,50.08v34c.26,5.48.63,13.41-7,19.24a23.88,23.88,0,0,1-3.79,2.36l-1.73.89L355,143.34h0l-.05-.67c-6.41,0-7.36-4.61-7.48-8.62,0-1.16-.05-3.19,0-5.29h0c0-1.39,0-2.81,0-4v0c0-1.81,0-3.14,0-3.18,0-9.3,3.61-13.84,7-16a13.66,13.66,0,0,1,3.21-1.52l2.05-.66h-2.15c-6.72,0-10.13-4.64-10.13-13.8l0-60.71a14.07,14.07,0,0,0-1.15-5.84c87.18-1.22,177.76-2.5,187.62-2.5,1.09,0,2.17,0,3.24.1,16,1,28.48,9.18,28.48,19.1a12.61,12.61,0,0,1-1.94,6.54,18.4,18.4,0,0,1-3.71,4.38,24.32,24.32,0,0,1-2,1.56c-.68.48-1.39.93-2.15,1.37h0l.51.47h0l.32.3s.12.1.1.11l.52.49a24.69,24.69,0,0,0,6.41-4.35A16.23,16.23,0,0,0,568.78,38a22.43,22.43,0,0,0-1.63-8.27,17.48,17.48,0,0,0-4.46-6.35A21.76,21.76,0,0,0,556,19.31a31.45,31.45,0,0,0-3.52-1.16,39.11,39.11,0,0,0-10.41-1.22l-.61,0H336.94c-.55,0-.9,0-1,0H144.64l-.27,0h0a11.64,11.64,0,0,0-7.88,2.8,10.28,10.28,0,0,0-3,5.55,10.21,10.21,0,0,0-3-5.55A11.64,11.64,0,0,0,122.36,17h-13v3.1l.18.1a22.23,22.23,0,0,1,9.12,11.3,26.15,26.15,0,0,1,1.21,4.39,29.22,29.22,0,0,1,.46,5.22V55.23c0,10.91-3.17,20.72-8.17,27.6a31.71,31.71,0,0,1-3,3.56,24.72,24.72,0,0,1-4.29,3.47,18.33,18.33,0,0,1-9.82,3C81.16,92.82,69.82,76,69.82,55.23V17H15v8.35h3.33C39.27,25.31,56.35,42.18,56.35,62.9Z" fill="#1d160f"/><path d="M268.2,114.68c-6.72,0-10.13-4.64-10.13-13.8V90.24c0-4-1.18-7.12-3.44-9.16a9,9,0,0,0-1.3-1,11.71,11.71,0,0,0-5.89-1.66,6.15,6.15,0,0,0-.88,0l-1.65.21-11.28,1.44h0v3.09l.22.08c.1,0,10.74,4.25,10.74,19.24v33.66l0,.33c.29,6.26.73,15.72-10.8,21.6l-1.73.88,33.52-4.27h0l0-.67a8.46,8.46,0,0,1-3.86-.79,5.3,5.3,0,0,1-1.3-.88,8.24,8.24,0,0,1-2.24-5.43c-.05-.51-.08-1-.09-1.52s0-.87,0-1.42c0-3.86,0-11,0-11.11,0-7.75,2.51-12.19,5.32-14.74.13-.11.26-.19.4-.3a12.71,12.71,0,0,1,2.23-1.51,13.85,13.85,0,0,1,2.29-1l2-.66H268.2Z" fill="#1d160f"/><path d="M226.73,172.34v3.1h0l.22.08c.1,0,10.74,4.22,10.74,19.24v33.66l0,.32a37,37,0,0,1-.25,8,18.18,18.18,0,0,1-.72,2.91c-1.29,3.88-4.06,7.72-9.83,10.66l-1.15.58-.58.3h0l3.79-.48L258.7,247h0l0-.68c-4.81,0-6.55-2.59-7.17-5.57a17.43,17.43,0,0,1-.32-3c0-1.16,0-3.2,0-5.3h0c0-1.39,0-2.81,0-4v0c0-1.81,0-3.15,0-3.18,0-8.95,3.33-13.44,6.63-15.74a10.35,10.35,0,0,1,1.15-.72,13.9,13.9,0,0,1,2.46-1.11l.66-.21,1.38-.45H261.3c-6.72,0-10.13-4.65-10.13-13.81,0-9.79,2.77-14.84,6.38-17.57a17,17,0,0,1,7.31-3c7.92-1.5,13.17,4.22,14.39,5.73.18.22.27.35.28.36l1.16,1.65h0l-.56-1.94c-3.53-12.17-17.48-10.64-20.3-10.21a25.91,25.91,0,0,0-8.17,3.24,16.67,16.67,0,0,0-5.3,4.81,11.57,11.57,0,0,0-1.26,2.51,10.51,10.51,0,0,0-1.14-2.62c-3.21-5.23-9.76-4.67-9.85-4.67l-7.38,1Z" fill="#1d160f"/><path d="M519.65,192.46c0-.94,0-1.54,0-1.57a23,23,0,0,1,2.23-10.68,14.16,14.16,0,0,1,3.09-4.05,13.3,13.3,0,0,1,3.38-2.23,12.74,12.74,0,0,1,1.54-.6l2-.66h-2.15c-3.36,0-5.89-1.17-7.58-3.47s-2.55-5.76-2.55-10.34V148.22a13.3,13.3,0,0,0-1.95-7.43,9.46,9.46,0,0,0-1.48-1.73,9.58,9.58,0,0,0-2.65-1.68,12.25,12.25,0,0,0-4.55-1h0a8.43,8.43,0,0,0-.87,0l-19.08,2.44a11,11,0,0,0-1.22.26c-.51.13-1.1.3-1.75.52a23.6,23.6,0,0,0-8.73,5.13,12.28,12.28,0,0,0-3,4.64,9.45,9.45,0,0,0-4.49-5.83,12.24,12.24,0,0,0-6.5-1.45l-13.44,1.72a25.2,25.2,0,0,0-7.33,2.71c-3.06,1.69-6.13,4.24-7.39,7.84-2.36-8-10.89-7.29-11-7.28l-7.39.95h0v3.09h0l.22.08.49.23c1.81.89,8.05,4.58,9.8,13.88a27.9,27.9,0,0,1,.46,5.14v34c0,.78.08,1.62.09,2.49a28.86,28.86,0,0,1-.34,5.55,17.51,17.51,0,0,1-2.8,7A19.87,19.87,0,0,1,417,226.1l-1.74.89h0l4.27-.55,29.25-3.73h0l0-.67a7.34,7.34,0,0,1-5.16-1.67,5.59,5.59,0,0,1-.94-1.13,11.52,11.52,0,0,1-1.39-5.82c0-1.16,0-3.19,0-5.29,0-.71,0-1.42,0-2.1,0-2.73,0-5.09,0-5.14,0-5.6,1.34-9.4,3.12-12.08a15.38,15.38,0,0,1,1.35-1.74,13.48,13.48,0,0,1,2.16-1.92,13,13,0,0,1,2.07-1.22,12.74,12.74,0,0,1,1.54-.6l.5-.17,1.54-.49H451.4c-6.73,0-10.14-4.65-10.14-13.81,0-7.44,1.61-12.07,3.87-15.1a12.78,12.78,0,0,1,1.9-2.08,12.37,12.37,0,0,1,2.27-1.58,15.34,15.34,0,0,1,2.57-1.09,20.83,20.83,0,0,1,3.07-.72c.72-.11,1.43-.21,2.13-.26a7.46,7.46,0,0,1,5.75,1.54c2.08,1.79,3.35,5.17,3.86,10.27.17,1.7.26,3.59.26,5.68v34c0,.78.08,1.61.1,2.48,0,0,0,0,0,0,.11,6.08-.82,13.95-10.89,19.08l-1.74.88h0L488,217.72l-.05-.68c-4,0-5.88-1.79-6.76-4.12a11.5,11.5,0,0,1-.41-1.45,18.45,18.45,0,0,1-.32-3c0-1.16,0-3.2,0-5.3,0-.7,0-1.41,0-2.1,0-1.36,0-2.62,0-3.55s0-1.56,0-1.58a26.41,26.41,0,0,1,1.06-7.81,14.2,14.2,0,0,1,7.63-9.16,14.66,14.66,0,0,1,1.54-.6l2.05-.66h-2.15c-6.73,0-10.14-4.64-10.14-13.81,0-7.15,1.52-11.7,3.72-14.74a13.24,13.24,0,0,1,5.13-4.35,20.08,20.08,0,0,1,4.82-1.48h.11c2.87-.43,5.63-.65,7.88,1.28a11,11,0,0,1,3.09,5.74,41.62,41.62,0,0,1,1,10.22v33.65l0,.33a37,37,0,0,1-.25,8c-.81,4.82-3.34,9.89-10.55,13.56l-1.73.89h0l33.52-4.28,0-.67c-6.41,0-7.37-4.6-7.49-8.62,0-1.15,0-3.19,0-5.29h0C519.62,196,519.64,193.86,519.65,192.46Z" fill="#1d160f"/><path d="M692.47,219.5c-1.17-.81-2.46-1.61-3.82-2.39l-1.26-.69c-1-.56-2.08-1.1-3.18-1.64l-1.48-.71q-2-.93-4.19-1.81l-.76-.31c-1.67-.66-3.42-1.29-5.21-1.9-.66-.23-1.35-.44-2-.66-1.21-.39-2.44-.77-3.69-1.13-.8-.24-1.6-.47-2.41-.69q-2-.52-4-1c-.8-.2-1.59-.4-2.41-.59-1.84-.42-3.73-.82-5.64-1.19-1-.21-2.1-.39-3.16-.58l-3.32-.56c-1.17-.18-2.33-.36-3.51-.52s-2.1-.28-3.16-.4c-2.13-.27-4.29-.49-6.46-.68-1.05-.09-2.1-.2-3.15-.27-1.33-.1-2.67-.16-4-.23l-2.89-.13c-1.35,0-2.7-.08-4.06-.09-1,0-1.93,0-2.9,0-1.36,0-2.72,0-4.07,0h0l-.5-.1a17.68,17.68,0,0,1-11-6.45q-3.9-5.06-4.56-13.67a23.28,23.28,0,0,1,.44-6.9,14.71,14.71,0,0,1,2.42-5.56A13.35,13.35,0,0,1,602,165.4a16.75,16.75,0,0,1,3.9-1.83l2-.66h-2.15c-8.27,0-11.37-7.26-13-12.7A38.46,38.46,0,0,0,590,141.6a22.79,22.79,0,0,0-2-3.47,21.19,21.19,0,0,0-2.51-2.87l-.28-.27a27.66,27.66,0,0,0-15.73-6.13,21.9,21.9,0,0,0-3.6.14,13.81,13.81,0,0,0-2.2.36c-.33.07-.7.17-1.09.28a22.93,22.93,0,0,0-2.67.94c-.49.2-1,.43-1.52.69-4.18,2.08-9.32,6.06-13.2,13.63l.59.33a29,29,0,0,1,5.32-5.73,30,30,0,0,1,2.88-2.15,25.24,25.24,0,0,1,12.13-4.17,10.46,10.46,0,0,1,4.82.7,4.24,4.24,0,0,1,.45.18l.48.24c.21.1.39.18.66.33l.11.15c3,3.88,3.16,6,3.16,6.06.88,7.07-7,9.92-8.6,10.42l-.39.11c-.66.19-1.44.38-2.32.59l-.4.09c-.93.22-1.94.46-3,.73s-2.21.61-3.37,1a35.77,35.77,0,0,0-5.25,2.29c-.65.35-1.3.64-1.94,1.05a19,19,0,0,0-5.88,6.35A26.13,26.13,0,0,0,541.3,178a42.94,42.94,0,0,0,.68,6.3c.07.41.22.78.31,1.19a33.34,33.34,0,0,0,1,3.76,32.11,32.11,0,0,0,1.36,3.11c.21.44.37.93.6,1.36a28.25,28.25,0,0,0,2.13,3.27c.16.21.27.46.44.67a25.27,25.27,0,0,0,2.9,3.12l.2.22a24.31,24.31,0,0,0,16.42,6.36C546,211.26,527.75,217.88,514.83,226c-.33.21-.67.4-1,.61-1.15.74-2.23,1.5-3.29,2.27-.53.38-1.07.75-1.57,1.14-.9.69-1.74,1.38-2.56,2.09-.58.49-1.14,1-1.68,1.47-.7.65-1.37,1.3-2,2s-1.08,1.16-1.59,1.74-1,1.23-1.52,1.86-.94,1.3-1.36,2-.78,1.17-1.11,1.76-.73,1.46-1.05,2.19c-.24.54-.51,1.08-.71,1.62a21.25,21.25,0,0,0-.69,2.54c-.1.45-.25.89-.32,1.34a19.86,19.86,0,0,0-.23,3.93h0c.28,5.43,1.54,9.15,3.73,11.06a6.28,6.28,0,0,0,4.89,1.44,4.31,4.31,0,0,0,2.85-2.05,7.77,7.77,0,0,0,.9-3.77,16.28,16.28,0,0,0-.52-4.18,16.69,16.69,0,0,1-.16-7.14c.93-4.78,3.9-9.59,8.84-14.3a64,64,0,0,1,8.87-7q2.54-1.68,5.37-3.31a152.12,152.12,0,0,1,21.63-10,264.19,264.19,0,0,1,31.26-9.5c21.34-2.56,41.91-2.06,58.82,1.35q3.61.74,7,1.64A73.37,73.37,0,0,1,663,214.59c8.54,4.51,13.56,10.17,14.34,16.62a17.5,17.5,0,0,1-2.63,11c-3.6,6.14-10.68,12.24-20.88,17.82-2,1.12-4.2,2.21-6.43,3.25A146.28,146.28,0,0,1,633,269.06a208.41,208.41,0,0,1-42.48,9.44c-2.44.31-8.71,1.05-17.84,2.11l-11.41,1.31-13,1.49-11,1.25-9.61,1.1-1.19.13-40.33,4.57-1.35.16-18.38,2.08-6.45.72-19.44,2.2-7.2.81-11.41,1.29-1.36.15-23.79,2.68-7.29.83-42.59,4.79-1,.12-12.48,1.4-4.88.55L322,309l-4,.45-7.43.83-2.53.29-2.79.31-2.21.25c-14.23,1.58-27.25,3.07-39.16,4.42-20,2.28-36.91,4.21-51.17,5.66-7.13.73-13.6,1.33-19.48,1.81q-4.41.36-8.37.61c-23.83,1.52-36.23.21-42.9-5.27a16.88,16.88,0,0,1-4.72-6.32,27.55,27.55,0,0,1-1-2.7,65,65,0,0,1-2.3-14c-.06-.63-.07-1.75-.07-2.91,0-.39,0-.79,0-1.17,0-1.5.06-2.8.06-2.83,0-14.83,5.61-26.9,12.5-26.9v-.68c-6.89,0-12.5-12.07-12.5-26.92l0-1.43A72.31,72.31,0,0,1,139,208a48.67,48.67,0,0,1,11.77-17.44c5.76-5.32,13.6-9.55,24.26-10.91l-.08-.67-26.65,3.4-3.89.5c-4.24.54-9.72,2.38-10.92,11.55a10.71,10.71,0,0,0-5.36-7.15,13.29,13.29,0,0,0-5.84-1.58l-12.79,1.62h0v3.08l.19.09c.11,0,10.77,5.14,10.77,20.16v14.15a54.51,54.51,0,0,1-1.14,11.17,42,42,0,0,1-8.06,17.83c-4.37,5.36-10,8.59-16.06,8.59a22.84,22.84,0,0,1-18.45-8.62,29.68,29.68,0,0,1-5.1-10,45.23,45.23,0,0,1-1.8-13.07c0-.12,0-3.83.31-8.92.75-11.21,3.34-29.14,12.22-30.3h0l-.08-.67h0l-52.35,6.67h0l1,.5s1,.48,2.43,1.39c1,.61,2.19,1.43,3.56,2.45,7.49,5.61,19.36,17.5,19.42,36.58l.08,8.6c0,7.42-1.4,14.15-3.67,19a21.76,21.76,0,0,1-1.85,3.29c-2,2.9-4.4,4.6-7,4.6v.68c2.58,0,5,1.69,7,4.6a21.76,21.76,0,0,1,1.85,3.29c2.27,4.87,3.67,11.6,3.67,19,0,16.05-6.29,26.51-13.39,33.21a45,45,0,0,1-7.17,5.51,56.34,56.34,0,0,1-20.62,7.69l-.29,0v8.36l67.5-8.61,0-.68c-6.54,0-12.5-14.05-12.5-29.47V307.4c0-10.36,2.83-19.76,7.4-26.56a31.34,31.34,0,0,1,3.74-4.6,24.72,24.72,0,0,1,4.29-3.47,18.39,18.39,0,0,1,9.83-3c13.93,0,25.26,16.87,25.26,37.59v6.84c0,1.79-.08,3.55-.24,5.27-.64,6.86-2.5,13-5.18,17.46-2,3.34-4.46,5.73-7.21,6.77l-2.68,1h0l3.36-.42,26.4-3.37,425.61-54.1,54.1-6.88c6.12-.73,12.12-1.69,17.93-2.86q4.37-.89,8.58-1.91c5.61-1.38,11-3,16.12-4.71,3.67-1.26,7.13-2.64,10.48-4.08q3.72-1.59,7.14-3.33c1.09-.55,2.23-1.08,3.27-1.65a71.68,71.68,0,0,0,15.15-10.7,34.67,34.67,0,0,0,6.06-7.49,19.93,19.93,0,0,0,2.65-7.57,15.68,15.68,0,0,0,0-3.75C701.46,227.71,698.27,223.53,692.47,219.5ZM505.78,259.65c0,.44.07.9.07,1.38h0c0-.5,0-1-.07-1.43Zm70.3-121.46-.23-.41c-.31-.52-.61-1-.92-1.41h0a18.57,18.57,0,0,1,1.86,1.89c.15.18.3.35.45.54a16.68,16.68,0,0,1,1.37,2.11c.2.35.41.67.59,1.06a19.22,19.22,0,0,1,1,2.63c.14.46.32.86.43,1.35a24.61,24.61,0,0,1,.63,4.92v0c.35,15.24,0,33.44,0,33.63,0,.46,0,.93,0,1.41.06,6.64.12,14.9-10.67,20.47l-.05,0-.13,0-.23-.05-.13,0-.42-.13-.13-.05-.58-.25-.14-.07a7.58,7.58,0,0,1-.7-.4l-.14-.09a8.63,8.63,0,0,1-.8-.57l-.16-.13c-.27-.22-.55-.48-.83-.76a1.7,1.7,0,0,1-.19-.19c-.28-.28-.56-.61-.85-.95l-.22-.27c-.27-.36-.55-.76-.83-1.18l-.24-.36c-.26-.43-.52-.9-.78-1.39l-.27-.51c-.24-.5-.48-1-.71-1.62-.1-.22-.19-.42-.28-.65-.22-.58-.43-1.22-.64-1.86-.09-.28-.18-.54-.27-.83-.19-.65-.37-1.38-.54-2.1-.08-.35-.18-.67-.26-1-.16-.74-.29-1.55-.43-2.36-.07-.42-.16-.81-.22-1.25-.13-.87-.23-1.83-.33-2.77-.05-.46-.11-.88-.16-1.36-.11-1.34-.2-2.78-.26-4.28,0-.13,0-.24,0-.38-.34-9.4.74-14.68,3.8-18.59a17.1,17.1,0,0,1,2.07-2.2,34,34,0,0,1,5.67-3.94,19.45,19.45,0,0,0,4.13-3.15,10.22,10.22,0,0,0,3.25-6.07v0a9.37,9.37,0,0,0,0-2.25c0-.24-.11-.47-.16-.7a9.25,9.25,0,0,0-.38-1.42,6.29,6.29,0,0,0-.26-.65A12.52,12.52,0,0,0,576.08,138.19Z" fill="#1d160f"/><path d="M560.15,82.27a14.06,14.06,0,0,0-1-1.25,15.82,15.82,0,0,0-6-4.45,23.63,23.63,0,0,0-3.3-1.11,86,86,0,0,0-13.08-2.11c-1.33-.13-2.57-.23-3.68-.33-1.42-.12-2.55-.21-3.28-.31h0c-5.66-.76-6.17-1.18-6.28-14.27.28.06.55.14.84.19,1.31.25,2.66.43,4,.58l.54,0c1.65.16,3.33.27,5,.27a51.54,51.54,0,0,0,6.89-.46h0c.05,0,1.05-.05,2.61-.26a53.08,53.08,0,0,0,6.32-1.22h0a5.89,5.89,0,0,1-.14.75c-.06.12-.15.17-.23.28a4,4,0,0,1-.71.87s-.08,0-.11.06a3.58,3.58,0,0,1-2.12.68l-.78-.06h0l.33.41.16.2s.06,0,.08.07a4.76,4.76,0,0,0,1.54,1.23h0a4.49,4.49,0,0,0,2,.44h0a4.67,4.67,0,0,0,1.59-.41,4.77,4.77,0,0,0,.51-.13,5.13,5.13,0,0,0,1.68-1.44,5.53,5.53,0,0,0,.65-1.11,4.32,4.32,0,0,0,.33-2.36,6.78,6.78,0,0,0-1-2.59,15.63,15.63,0,0,0-2.3-2.88q-.74-.76-1.65-1.56c-7.09-6.25-14.76-8.65-22.27-7.25-.4.07-.8.08-1.19.18a26.1,26.1,0,0,0-7.79,3.34c-.66.41-1.3.84-1.89,1.29h0l0,0a22.32,22.32,0,0,0-2.3,2c-3.23-3-5.12-6.57-5.12-10.42a4.94,4.94,0,0,0-1.2-3.19,3.68,3.68,0,0,0-2.71-1,3.26,3.26,0,0,0-2.46,1h0a4.23,4.23,0,0,0-1,2c0,.13-.08.25-.1.37a7.86,7.86,0,0,0-.1,1.27c0,5.47,3.63,10.44,9.48,14a17,17,0,0,0-1.24,2.71c-.12.35-.2.71-.3,1.07a17.17,17.17,0,0,0-.51,2.41c0,.21-.11.4-.13.61s0,.18,0,.26,0,.21,0,.31v.09a23.11,23.11,0,0,0,0,2.63c0,.32,0,.61,0,.94,0,.1,0,.2.05.3a27.68,27.68,0,0,0,.75,4l.15.56c0,.13.07.28.11.42a24.79,24.79,0,0,1,.56,2.57,12.26,12.26,0,0,1,.17,2.11c-.08,2.91-1.52,6.14-6.37,9.61-.23.16-.39.33-.65.5l-1.07.72,1.29-.1c2.42-.2,4.57-.39,6.53-.57l5.39-.53a122.73,122.73,0,0,1,19.81-.89h.18c6.91.29,12.44,3,15.58,7.5a17,17,0,0,1,2.61,12,25,25,0,0,1-1.07,4.6,18.38,18.38,0,0,1-4.15,6.46,19,19,0,0,1-2.54,2.24c-.46.34-1,.63-1.45.93a15.85,15.85,0,0,1-7.12,2.29,7.9,7.9,0,0,1-.93-.12c-3.42-.25-8-2.82-10-4.33a26.25,26.25,0,0,1-9.9-15.51c0-.19-.13-.42-.16-.6a15.14,15.14,0,0,1,.26-6.23,7.25,7.25,0,0,1,.63-1.56,7.36,7.36,0,0,1,1.28-1.65,8,8,0,0,1,2.86-1.82l1.29-.39h0L521.53,87a14.08,14.08,0,0,0-5-.21,8.71,8.71,0,0,0-2,.58,7.23,7.23,0,0,0-1.74,1,7,7,0,0,0-1,1,9.5,9.5,0,0,0-2.06,4.83,7.13,7.13,0,0,0-.07.79h0c0,.17,0,.31,0,.48a22.47,22.47,0,0,0,3.35,12.3,23.7,23.7,0,0,0,3.46,4.42l.36.33a40.2,40.2,0,0,0,3.23,2.63,28.18,28.18,0,0,0,4,2.43c.22.11.48.2.71.31A26.2,26.2,0,0,0,535,120.24l.87,0c11.35,0,18.06-7.49,21.71-13.85a35.22,35.22,0,0,0,4.77-13.52,20.68,20.68,0,0,0,.11-3A14.24,14.24,0,0,0,560.15,82.27ZM540.73,58.39a47.38,47.38,0,0,1-17.34-3.16c0-.34,0-.65,0-1v-2c0-1.92,0-5.12,5.44-6.57a17.83,17.83,0,0,1,3.29-.56,18.77,18.77,0,0,1,3.35.07,22,22,0,0,1,6.83,2A18,18,0,0,1,545,48.69l.53.38a11.37,11.37,0,0,1,3,3.27c.09.15.17.29.24.43a8.32,8.32,0,0,1,.59,1.37c.06.2.1.39.15.58s.12.53.15.77a6.93,6.93,0,0,1,.07.76c-1.38.48-2.83.91-4.33,1.27S542.34,58.17,540.73,58.39Z" fill="#1d160f"/></g></g></svg>