<svg xmlns="http://www.w3.org/2000/svg" viewBox="0 0 875.94 656.88"><g id="aba3c5a5-078c-4cae-a89a-6918ec0dc87d" data-name="Warstwa 2"><g id="b199b89f-0d85-4181-885f-722c6ac7210b" data-name="Warstwa 1"><rect width="875.94" height="656.88" fill="#fff"/><polygon points="228.79 351.66 228.79 388.13 131.43 345.74 131.43 309.27 139.33 312.72 228.79 351.66" fill="#2a282a" stroke="#fff" stroke-linejoin="round" stroke-width="2.87"/><polygon points="228.79 315.19 228.79 351.66 139.33 312.72 139.33 276.24 147.23 279.69 228.79 315.19" fill="#2a282a" stroke="#fff" stroke-linejoin="round" stroke-width="2.87"/><polygon points="367.63 351.66 367.63 388.13 464.99 345.74 464.99 309.27 457.09 312.72 367.63 351.66" fill="#2a282a" stroke="#fff" stroke-linejoin="round" stroke-width="2.87"/><polygon points="367.63 315.19 367.63 351.66 457.09 312.72 457.09 276.24 449.19 279.69 367.63 315.19" fill="#2a282a" stroke="#fff" stroke-linejoin="round" stroke-width="2.87"/><polygon points="279.14 373.58 279.14 413.67 228.79 413.67 228.79 315.19 147.23 279.69 147.23 243.21 277.65 299.99 298.21 323.69 318.77 300.08 318.77 299.99 449.19 243.21 449.19 279.69 367.63 315.19 367.63 413.67 317.28 413.67 317.28 373.58 298.21 381.88 279.14 373.58" fill="#2a282a" stroke="#fff" stroke-linejoin="round" stroke-width="2.87"/><polyline points="464.99 309.27 298.21 381.88 131.43 309.27" fill="none" stroke="#fff" stroke-linejoin="round" stroke-width="2.87"/><path d="M501.89,258.84h19.26l15.69,25.45,15.68-25.45h19.26v65.75H553.65V286.83l-16.81,25.74h-.38L519.74,287v37.57H501.89Z" fill="#2a282a"/><path d="M585,258.84h18.32v65.75H585Z" fill="#2a282a"/><path d="M616.37,258.84h18.22v49.78h31.84v16H616.37Z" fill="#2a282a"/><path d="M699,258.37h17.56l28,66.22H725l-4.79-11.74H694.82l-4.69,11.74H671Zm16,40.29L707.6,280l-7.42,18.69Z" fill="#2a282a"/><path d="M501.89,337.17h29c9.38,0,15.86,2.45,20,6.66,3.6,3.5,5.44,8.24,5.44,14.28v.18c0,9.37-5,15.6-12.62,18.84l14.63,21.38H538.7l-12.36-18.58H518.9v18.58h-17Zm28.22,29.44c5.79,0,9.12-2.8,9.12-7.27v-.18c0-4.82-3.51-7.27-9.21-7.27H518.9v14.72Z" fill="#2a282a"/><path d="M565.81,337.17h49.33v14.46H582.63v9.29h29.45v13.4H582.63v9.73h33v14.46H565.81Z" fill="#2a282a"/><path d="M626,337.17h15.87l25.23,32.42V337.17h16.83v61.34H669l-26.2-33.65v33.65H626Z" fill="#2a282a"/><path d="M709.11,352.07h-18.4v-14.9h53.8v14.9h-18.4v46.44h-17Z" fill="#2a282a"/></g></g></svg>