<svg xmlns="http://www.w3.org/2000/svg" viewBox="0 0 875.94 656.88"><g id="babae214-8d1b-45f1-a9a7-a79ca45554f5" data-name="Warstwa 2"><g id="b1643077-6bd0-48a1-b270-17d8d1ef6778" data-name="Warstwa 1"><rect width="875.94" height="656.88" fill="#16487a"/><path d="M337.69,373.67c0-26.4-16.95-47.42-42.11-47.42,12.28-1.72,33.06-20.19,33.06-47.2,0-32.76-23.71-48.41-59.41-48.41H221.3a96.7,96.7,0,0,1,10,1.38,69.33,69.33,0,0,1,13.66,4.15,55.22,55.22,0,0,1,9.29,5.08,79.57,79.57,0,0,1,10.36-.58c19.32,0,37.17,11.49,37.17,39.36,0,27.56-16.63,40.34-36,41-.68,1-1.39,2-2.14,3a51.13,51.13,0,0,1-6.8,7.15c2.47-.06,5-.06,7.49-.06,18.83,0,46,9.05,46,42.79s-23.71,42.29-46.69,42.29c-11.5,0-17.85-1.71-17.85-7.57V338.57q-2.76,1.38-5.63,2.48a71.56,71.56,0,0,1-21.51,4.36v55.65c-.06,5.31-.1,9.42-.72,12.55-1.32,5.36-5.09,6.76-15.82,6.76h-5.33c-10.24-.11-12-1.7-12-19.31V339.44h0c2.24.63,4.48,1.22,6.74,1.66a60.27,60.27,0,0,0,6.8,1c2.28.21,4.55.33,6.83.33s4.54-.14,6.84-.3a77.52,77.52,0,0,0,26.15-6.07,55.3,55.3,0,0,0,5.88-3,48.28,48.28,0,0,0,14.51-12.93,52.32,52.32,0,0,0,9.41-24,75,75,0,0,0,.68-13.24,63.65,63.65,0,0,0-1.73-13c-.11-.54-.28-1.06-.43-1.58l-.45-1.56c-.33-1-.73-2-1.09-3.07s-.84-2-1.31-3l-.73-1.44-.37-.72-.41-.69a42.8,42.8,0,0,0-8.14-10.07c-.4-.37-.83-.71-1.24-1.07s-.83-.72-1.26-1.05l-1.32-1c-.44-.33-.88-.67-1.35-1l-1.38-.92c-.46-.3-1-.57-1.42-.86-.94-.58-1.94-1.09-2.92-1.62a72.35,72.35,0,0,0-12.55-5c-8.72-2.64-17.91-3.86-27.16-4.63h-67.5v5.93c18.66,0,21.54,4.34,21.54,19.25V401.06c0,14.91-3.18,19.31-25.92,19.31v5.87H266.78C305.9,426.24,337.69,412.3,337.69,373.67ZM184.73,250a6.63,6.63,0,0,1,4.4-6.61,41.37,41.37,0,0,1,15.4-2.68,47.93,47.93,0,0,1,11,1.21c17.51,4.11,29.12,18.68,29.12,44,0,22.46-8.71,39.65-26,45.11A41.67,41.67,0,0,1,206,332.84a56.57,56.57,0,0,1-21.27-4.16Z" fill="#fff"/><path d="M355.58,357.05a6.08,6.08,0,0,0,1.54-.14.83.83,0,0,0,.61-.45,2.62,2.62,0,0,0,.15-1v-14a2.75,2.75,0,0,0-.15-1.08.88.88,0,0,0-.61-.45,6.19,6.19,0,0,0-1.54-.13v-1h14.14v4.83H369a9.61,9.61,0,0,0-.8-2.24,2.47,2.47,0,0,0-1.23-1.11,5.92,5.92,0,0,0-2.28-.35h-2.15a1.32,1.32,0,0,0-.89.21,1,1,0,0,0-.22.78v6.87h3.2a4.09,4.09,0,0,0,1.56-.22,1.36,1.36,0,0,0,.74-.71,6.91,6.91,0,0,0,.44-1.54h.7v6.2h-.7a6.63,6.63,0,0,0-.44-1.53,1.37,1.37,0,0,0-.74-.7,4.09,4.09,0,0,0-1.56-.22h-3.2v6.32a2.48,2.48,0,0,0,.17,1.07,1,1,0,0,0,.73.45,8.63,8.63,0,0,0,1.84.14v1h-8.59Z" fill="#fff"/><path d="M371.44,357.05a4.05,4.05,0,0,0,1.25-.14.72.72,0,0,0,.5-.42,2.48,2.48,0,0,0,.12-.9v-8.41a2.51,2.51,0,0,0-.16-1.08.73.73,0,0,0-.66-.26h-.87v-1l4.28-.67h.81v11.41a2.6,2.6,0,0,0,.12.93.69.69,0,0,0,.49.41,4.58,4.58,0,0,0,1.25.12v1h-7.13Zm2.1-15.36a1.86,1.86,0,0,1-.53-1.35,1.93,1.93,0,0,1,.53-1.37,1.79,1.79,0,0,1,1.37-.55,1.82,1.82,0,0,1,1.39.55,1.93,1.93,0,0,1,.53,1.37,1.81,1.81,0,0,1-.56,1.35,1.87,1.87,0,0,1-1.36.54A1.82,1.82,0,0,1,373.54,341.69Z" fill="#fff"/><path d="M391.13,344.72a2.6,2.6,0,0,1,.6,1.73,2.14,2.14,0,0,1-.5,1.5,2.07,2.07,0,0,1-2.63.13,1.45,1.45,0,0,1-.45-1.13,1.51,1.51,0,0,1,.13-.7,2.06,2.06,0,0,1,.35-.5c.14-.15.22-.26.22-.32a.28.28,0,0,0-.09-.2.4.4,0,0,0-.29-.09,1.79,1.79,0,0,0-1.17.67,5.89,5.89,0,0,0-1.1,1.79,6.22,6.22,0,0,0-.47,2.4v5.59a2.09,2.09,0,0,0,.16.93,1,1,0,0,0,.66.41,7.52,7.52,0,0,0,1.6.12v1h-7.69v-1a4.13,4.13,0,0,0,1.26-.14.72.72,0,0,0,.49-.42,2.48,2.48,0,0,0,.12-.9v-8.41a2.1,2.1,0,0,0-.18-1.06.68.68,0,0,0-.64-.28h-.87v-1l4.19-.67h.82v2.53h.05q1.29-2.7,3.58-2.7A2.26,2.26,0,0,1,391.13,344.72Z" fill="#fff"/><path d="M415.55,356.52a.77.77,0,0,0,.51.41,4.58,4.58,0,0,0,1.25.12v1h-6.9v-1a5.42,5.42,0,0,0,1.11-.08.59.59,0,0,0,.44-.33,2.7,2.7,0,0,0,.11-.9v-7a3,3,0,0,0-.65-2.1,2.37,2.37,0,0,0-1.85-.72,3,3,0,0,0-1.53.38,4.49,4.49,0,0,0-1.32,1.19v8.09a3,3,0,0,0,.11.92.73.73,0,0,0,.47.42,3.55,3.55,0,0,0,1.08.12v1h-6.7v-1a5.49,5.49,0,0,0,1.11-.08.62.62,0,0,0,.45-.33,2.18,2.18,0,0,0,.13-.9v-7a3.09,3.09,0,0,0-.65-2.1,2.47,2.47,0,0,0-1.91-.72,3.51,3.51,0,0,0-2.79,1.31v8.5a2.18,2.18,0,0,0,.13.9.59.59,0,0,0,.45.33,5,5,0,0,0,1,.08v1h-6.9v-1a4.58,4.58,0,0,0,1.25-.12.69.69,0,0,0,.49-.41,2.6,2.6,0,0,0,.12-.93v-8.41a2.25,2.25,0,0,0-.17-1.06.69.69,0,0,0-.64-.28h-.88v-1l4.19-.67h.82V346a9.1,9.1,0,0,1,2.41-1.45,6.83,6.83,0,0,1,2.45-.5,4.14,4.14,0,0,1,2.34.64,3.37,3.37,0,0,1,1.35,1.57,7.06,7.06,0,0,1,2.32-1.6,6.71,6.71,0,0,1,2.75-.61,3.65,3.65,0,0,1,2.85,1.12,4.51,4.51,0,0,1,1,3.15v7.28A2.35,2.35,0,0,0,415.55,356.52Z" fill="#fff"/><path d="M432.3,357.39a7.94,7.94,0,0,1-1.38.65,5.76,5.76,0,0,1-1.85.26,2.94,2.94,0,0,1-1.7-.38,1.89,1.89,0,0,1-.51-1.57,10.09,10.09,0,0,1-2,1.41,5,5,0,0,1-2.33.54,4.28,4.28,0,0,1-2.59-.76,2.51,2.51,0,0,1-1-2.15,4.28,4.28,0,0,1,2.11-3.48,14.63,14.63,0,0,1,5.87-2.17V348a2.63,2.63,0,0,0-.63-1.84,2.84,2.84,0,0,0-2.08-.61,3.59,3.59,0,0,0-1.41.25q-.6.24-.6.51a1,1,0,0,0,.35.61,2.8,2.8,0,0,1,.35.46,1.11,1.11,0,0,1,.12.56,1.54,1.54,0,0,1-.44,1.15,1.6,1.6,0,0,1-1.16.42,1.61,1.61,0,0,1-1.69-1.69,2.76,2.76,0,0,1,.71-1.8,4.89,4.89,0,0,1,2.07-1.36,9,9,0,0,1,3.19-.51,5.1,5.1,0,0,1,3.42,1,4.28,4.28,0,0,1,1.09,3.32v6.46a3.31,3.31,0,0,0,.25,1.56.85.85,0,0,0,.8.42,1.27,1.27,0,0,0,.52-.1l.29-.13Zm-8-1.19a4.13,4.13,0,0,0,2.53-1.08v-4.24a9.55,9.55,0,0,0-3.55,1.35,2.54,2.54,0,0,0-1.14,2.14Q422.17,356.2,424.33,356.2Z" fill="#fff"/><path d="M455.47,357.05v1h-4.92l-.17-1.26a9.56,9.56,0,0,1-2.13,1.13,6.85,6.85,0,0,1-2.44.45,4.58,4.58,0,0,1-3.88-1.81,8.23,8.23,0,0,1-1.36-5.06c0-2.49.59-4.34,1.79-5.58a6.73,6.73,0,0,1,5.08-1.84,7.24,7.24,0,0,1,1.42.11c.39.08.85.2,1.37.35h0v-3.58a2.47,2.47,0,0,0-.16-1.08.73.73,0,0,0-.68-.29h-.88v-.93l4.22-.7h.85v17.67a1.45,1.45,0,0,0,.35,1.16,1.83,1.83,0,0,0,1.19.3Zm-7.83-.62a2.73,2.73,0,0,0,1.18-.23,8.81,8.81,0,0,0,1.44-.9V346a4.07,4.07,0,0,0-2.47-.76,3.09,3.09,0,0,0-2.73,1.35,7.74,7.74,0,0,0-.91,4.24Q444.15,356.43,447.64,356.43Z" fill="#fff"/><path d="M458.6,356.58c-1.1-1.14-1.65-2.94-1.65-5.38s.56-4.26,1.66-5.43,2.84-1.76,5.18-1.76,4,.57,5.1,1.73,1.63,2.95,1.63,5.4-.55,4.27-1.65,5.43-2.81,1.73-5.14,1.73S459.69,357.73,458.6,356.58Zm7.58-.87a9.84,9.84,0,0,0,.76-4.4,10.5,10.5,0,0,0-.79-4.66,2.6,2.6,0,0,0-2.44-1.48,2.56,2.56,0,0,0-2.43,1.44,13.66,13.66,0,0,0,0,9.1,2.82,2.82,0,0,0,4.9,0Z" fill="#fff"/><path d="M483.48,344.72a2.6,2.6,0,0,1,.6,1.73,2.18,2.18,0,0,1-.49,1.5,1.81,1.81,0,0,1-1.4.54,1.78,1.78,0,0,1-1.24-.41,1.45,1.45,0,0,1-.45-1.13,1.51,1.51,0,0,1,.13-.7,2.06,2.06,0,0,1,.35-.5c.15-.15.22-.26.22-.32a.28.28,0,0,0-.09-.2.39.39,0,0,0-.29-.09,1.75,1.75,0,0,0-1.16.67,5.71,5.71,0,0,0-1.11,1.79,6.22,6.22,0,0,0-.47,2.4v5.59a2.09,2.09,0,0,0,.16.93,1,1,0,0,0,.66.41,7.52,7.52,0,0,0,1.6.12v1h-7.68v-1a4.05,4.05,0,0,0,1.25-.14.72.72,0,0,0,.49-.42,2.48,2.48,0,0,0,.12-.9v-8.41a2.1,2.1,0,0,0-.18-1.06.68.68,0,0,0-.64-.28H473v-1l4.19-.67H478v2.53h.06q1.28-2.7,3.57-2.7A2.25,2.25,0,0,1,483.48,344.72Z" fill="#fff"/><path d="M499.13,357.39a7.7,7.7,0,0,1-1.39.65,5.7,5.7,0,0,1-1.84.26,3,3,0,0,1-1.71-.38,1.89,1.89,0,0,1-.51-1.57,10,10,0,0,1-2,1.41,5,5,0,0,1-2.33.54,4.25,4.25,0,0,1-2.59-.76,2.51,2.51,0,0,1-1-2.15,4.26,4.26,0,0,1,2.11-3.48,14.58,14.58,0,0,1,5.86-2.17V348a2.58,2.58,0,0,0-.62-1.84,2.84,2.84,0,0,0-2.08-.61,3.52,3.52,0,0,0-1.41.25q-.6.24-.6.51a1,1,0,0,0,.35.61,3.51,3.51,0,0,1,.35.46,1.12,1.12,0,0,1,.11.56,1.53,1.53,0,0,1-.43,1.15,1.61,1.61,0,0,1-1.17.42,1.6,1.6,0,0,1-1.68-1.69,2.71,2.71,0,0,1,.71-1.8,4.77,4.77,0,0,1,2.07-1.36,9,9,0,0,1,3.18-.51,5.1,5.1,0,0,1,3.42,1A4.25,4.25,0,0,1,497,348.4v6.46a3.44,3.44,0,0,0,.25,1.56.86.86,0,0,0,.8.42,1.29,1.29,0,0,0,.53-.1l.29-.13Zm-8-1.19a4.1,4.1,0,0,0,2.53-1.08v-4.24a9.55,9.55,0,0,0-3.55,1.35,2.55,2.55,0,0,0-1.13,2.14C489,355.59,489.72,356.2,491.15,356.2Z" fill="#fff"/><path d="M515.51,357.05v1h-4.92l-.17-1.26a9.48,9.48,0,0,1-2.12,1.13,6.94,6.94,0,0,1-2.45.45,4.55,4.55,0,0,1-3.87-1.81,8.23,8.23,0,0,1-1.37-5.06c0-2.49.6-4.34,1.79-5.58a6.75,6.75,0,0,1,5.08-1.84,7.35,7.35,0,0,1,1.43.11c.38.08.84.2,1.36.35h0v-3.58a2.47,2.47,0,0,0-.16-1.08c-.1-.19-.33-.29-.68-.29h-.87v-.93l4.22-.7h.84v17.67a1.48,1.48,0,0,0,.35,1.16,1.83,1.83,0,0,0,1.19.3Zm-7.83-.62a2.73,2.73,0,0,0,1.18-.23,8.81,8.81,0,0,0,1.44-.9V346a4.05,4.05,0,0,0-2.47-.76,3.07,3.07,0,0,0-2.72,1.35,7.73,7.73,0,0,0-.92,4.24C504.19,354.55,505.36,356.43,507.68,356.43Z" fill="#fff"/><path d="M518.7,356.57c-1.1-1.16-1.64-2.91-1.64-5.26a7.69,7.69,0,0,1,1.71-5.45,6.47,6.47,0,0,1,5-1.82,7.51,7.51,0,0,1,3,.52,4,4,0,0,1,1.75,1.35,3.25,3.25,0,0,1,.55,1.79,2,2,0,0,1-.45,1.37,1.6,1.6,0,0,1-1.24.5,1.56,1.56,0,0,1-1.21-.47,1.71,1.71,0,0,1-.42-1.19,1.73,1.73,0,0,1,.13-.73l.16-.35a1.21,1.21,0,0,0,.21-.58.88.88,0,0,0-.53-.76,3.21,3.21,0,0,0-1.51-.29,3.12,3.12,0,0,0-2.62,1.16c-.6.78-.9,2.19-.9,4.22a8.23,8.23,0,0,0,1,4.46,3.3,3.3,0,0,0,3,1.45,3.59,3.59,0,0,0,2.48-.75,6.57,6.57,0,0,0,1.42-1.92l.72.43a6.14,6.14,0,0,1-2,3,6,6,0,0,1-3.77,1A6.23,6.23,0,0,1,518.7,356.57Z" fill="#fff"/><path d="M530.91,357l8-11.56h-2.32a5.87,5.87,0,0,0-2.17.32,2.37,2.37,0,0,0-1.17,1,7.19,7.19,0,0,0-.68,1.93h-.76l.32-4.39h10.66v1l-8,11.52H538a7,7,0,0,0,2.36-.32,2.51,2.51,0,0,0,1.29-1.06,7.64,7.64,0,0,0,.8-2.14h.76L542.9,358h-12Z" fill="#fff"/><path d="M546.9,356.58c-1.09-1.14-1.64-2.94-1.64-5.38s.55-4.26,1.66-5.43,2.83-1.76,5.18-1.76,4,.57,5.09,1.73,1.63,2.95,1.63,5.4-.55,4.27-1.64,5.43-2.81,1.73-5.14,1.73S548,357.73,546.9,356.58Zm7.58-.87a9.7,9.7,0,0,0,.76-4.4,10.52,10.52,0,0,0-.78-4.66,2.61,2.61,0,0,0-2.45-1.48,2.57,2.57,0,0,0-2.43,1.44,13.83,13.83,0,0,0,0,9.1,2.59,2.59,0,0,0,2.46,1.42A2.55,2.55,0,0,0,554.48,355.71Z" fill="#fff"/><path d="M568.69,348.26h7.6v2.35h-7.6Z" fill="#fff"/><path d="M590.27,358.2c-.34-.09-.74-.21-1.21-.37a2.94,2.94,0,0,0-1.1-.29.9.9,0,0,0-.54.13,1.42,1.42,0,0,0-.37.42h-.55l-.26-4.8H587a6,6,0,0,0,1.76,2.82,3.89,3.89,0,0,0,2.66,1.08,2.23,2.23,0,0,0,1.63-.57,2,2,0,0,0,.58-1.52,1.82,1.82,0,0,0-.26-1,2.41,2.41,0,0,0-.79-.71c-.35-.21-.92-.52-1.71-.9l-.59-.3a9.34,9.34,0,0,1-2.77-1.84,3.19,3.19,0,0,1-.78-2.23,3.7,3.7,0,0,1,1.28-3,5.32,5.32,0,0,1,3.5-1.06,6.88,6.88,0,0,1,2.27.37,4,4,0,0,0,.87.18.63.63,0,0,0,.44-.12.67.67,0,0,0,.16-.25.57.57,0,0,0,0-.16h.61l.24,4.28h-.73a4.35,4.35,0,0,0-1.36-2.27,3.39,3.39,0,0,0-2.28-.87,2.49,2.49,0,0,0-1.5.44,1.37,1.37,0,0,0-.6,1.16c0,.87.66,1.61,2,2.21l.91.41a19.83,19.83,0,0,1,2.24,1.19,4.45,4.45,0,0,1,1.34,1.36,3.75,3.75,0,0,1,.49,2,4,4,0,0,1-1.38,3.19,5.38,5.38,0,0,1-3.66,1.21A5.7,5.7,0,0,1,590.27,358.2Z" fill="#fff"/><path d="M598.61,357l8-11.56h-2.33a5.85,5.85,0,0,0-2.16.32,2.33,2.33,0,0,0-1.17,1,7.19,7.19,0,0,0-.68,1.93h-.76l.32-4.39h10.65v1l-8,11.52h3.23a7,7,0,0,0,2.36-.32,2.51,2.51,0,0,0,1.29-1.06,8,8,0,0,0,.8-2.14h.76L610.6,358h-12Z" fill="#fff"/><path d="M627.51,357.05v1h-6.2v-1h.26A.82.82,0,0,0,622,357a.26.26,0,0,0,.16-.23.77.77,0,0,0-.17-.41c-.12-.18-.25-.37-.41-.58l-3-4.11-1,1.14v2.82a2.64,2.64,0,0,0,.13.92.8.8,0,0,0,.53.42,4.44,4.44,0,0,0,1.21.12v1h-7.14v-1a4.21,4.21,0,0,0,1.27-.14.74.74,0,0,0,.51-.42,2.48,2.48,0,0,0,.12-.9V341a2.22,2.22,0,0,0-.18-1.09.71.71,0,0,0-.67-.28h-.87v-1l4.28-.67h.81v13.42l3-3.93a3.56,3.56,0,0,0,.87-1.69c0-.29-.17-.43-.52-.43h-.67v-1h6.49v1h-.41a4.65,4.65,0,0,0-2.3.58A8.34,8.34,0,0,0,622,347.7l-1.34,1.57,3.93,5.39a12.94,12.94,0,0,0,1.56,1.88,1.7,1.7,0,0,0,1.12.51Z" fill="#fff"/><path d="M629.59,356.58c-1.1-1.14-1.64-2.94-1.64-5.38s.55-4.26,1.66-5.43,2.83-1.76,5.18-1.76,4,.57,5.09,1.73,1.63,2.95,1.63,5.4-.55,4.27-1.65,5.43-2.8,1.73-5.13,1.73S630.69,357.73,629.59,356.58Zm7.58-.87a9.7,9.7,0,0,0,.76-4.4,10.36,10.36,0,0,0-.79-4.66,2.6,2.6,0,0,0-2.44-1.48,2.56,2.56,0,0,0-2.43,1.44,13.83,13.83,0,0,0,0,9.1,2.59,2.59,0,0,0,2.46,1.42A2.56,2.56,0,0,0,637.17,355.71Z" fill="#fff"/><path d="M643,357.05a4.21,4.21,0,0,0,1.27-.14.74.74,0,0,0,.51-.42,2.48,2.48,0,0,0,.12-.9V341a2.22,2.22,0,0,0-.18-1.09.71.71,0,0,0-.67-.28h-.87v-1l4.28-.67h.81v17.67a2.64,2.64,0,0,0,.13.92.8.8,0,0,0,.53.42,4.44,4.44,0,0,0,1.21.12v1H643Z" fill="#fff"/><path d="M664.21,351.34h-8.73a7.38,7.38,0,0,0,1,3.81,3.25,3.25,0,0,0,2.94,1.31,4,4,0,0,0,2.36-.65,4.43,4.43,0,0,0,1.48-2l.9.53a7.08,7.08,0,0,1-2,2.85,6.1,6.1,0,0,1-3.93,1.08q-6.25,0-6.26-7.08a7.93,7.93,0,0,1,1.59-5.38,5.84,5.84,0,0,1,4.64-1.8,5.51,5.51,0,0,1,4.64,1.86,8.07,8.07,0,0,1,1.44,5.06Zm-3.55-1.16a11.31,11.31,0,0,0-.46-3.79,1.9,1.9,0,0,0-2-1.19,2.22,2.22,0,0,0-2.09,1.19,8.81,8.81,0,0,0-.71,3.79Z" fill="#fff"/><path d="M680.84,356.51a.79.79,0,0,0,.54.42,4.87,4.87,0,0,0,1.26.12v1h-7v-1a5.38,5.38,0,0,0,1.1-.08.62.62,0,0,0,.46-.33,2.37,2.37,0,0,0,.13-.9v-7a3,3,0,0,0-.66-2.1,2.36,2.36,0,0,0-1.85-.72,4.3,4.3,0,0,0-3,1.37v8.44a2.18,2.18,0,0,0,.13.9.62.62,0,0,0,.45.33,5,5,0,0,0,1.05.08v1h-6.9v-1a4.58,4.58,0,0,0,1.25-.12.73.73,0,0,0,.5-.41,2.91,2.91,0,0,0,.11-.93v-8.41a2.25,2.25,0,0,0-.17-1.06.69.69,0,0,0-.64-.28h-.88v-1l4.19-.67h.82v1.92h0a8.77,8.77,0,0,1,2.53-1.56,7.08,7.08,0,0,1,2.5-.5,3.69,3.69,0,0,1,2.87,1.12,4.46,4.46,0,0,1,1,3.15v7.28A2.64,2.64,0,0,0,680.84,356.51Z" fill="#fff"/><path d="M684.35,357.05a4.05,4.05,0,0,0,1.25-.14.72.72,0,0,0,.5-.42,2.48,2.48,0,0,0,.12-.9v-8.41a2.32,2.32,0,0,0-.17-1.08.7.7,0,0,0-.65-.26h-.87v-1l4.28-.67h.81v11.41a2.6,2.6,0,0,0,.12.93.69.69,0,0,0,.49.41,4.58,4.58,0,0,0,1.25.12v1h-7.13Zm2.1-15.36a1.86,1.86,0,0,1-.53-1.35,1.93,1.93,0,0,1,.53-1.37,1.79,1.79,0,0,1,1.37-.55,1.82,1.82,0,0,1,1.39.55,1.93,1.93,0,0,1,.53,1.37,1.81,1.81,0,0,1-.56,1.35,1.87,1.87,0,0,1-1.36.54A1.82,1.82,0,0,1,686.45,341.69Z" fill="#fff"/><path d="M695.34,356.58c-1.1-1.14-1.64-2.94-1.64-5.38s.55-4.26,1.65-5.43,2.84-1.76,5.18-1.76,4,.57,5.1,1.73,1.63,2.95,1.63,5.4-.55,4.27-1.65,5.43-2.8,1.73-5.13,1.73S696.44,357.73,695.34,356.58Zm7.58-.87a9.7,9.7,0,0,0,.76-4.4,10.36,10.36,0,0,0-.79-4.66,2.6,2.6,0,0,0-2.44-1.48,2.56,2.56,0,0,0-2.43,1.44,13.83,13.83,0,0,0,0,9.1,2.59,2.59,0,0,0,2.46,1.42A2.56,2.56,0,0,0,702.92,355.71Z" fill="#fff"/><path d="M710.29,346.36a1.48,1.48,0,0,0-.57-.85,2.29,2.29,0,0,0-1.15-.22v-1H715v1h-.81a.82.82,0,0,0-.47.1.45.45,0,0,0-.15.39,2.08,2.08,0,0,0,.09.53l2.13,8h.05l2.77-9.93h2.09l3,9.93h.06l2.18-8.09a2,2,0,0,0,0-.38.55.55,0,0,0-.17-.45.86.86,0,0,0-.53-.13h-1.1v-1h5.29v1a2.58,2.58,0,0,0-1.35.27,1.56,1.56,0,0,0-.6.92L724,358h-2.15l-2.94-8.3h-.14l-2.68,8.3h-2.16Z" fill="#fff"/><path d="M744.51,357.39a7.3,7.3,0,0,1-1.38.65,5.72,5.72,0,0,1-1.85.26,2.94,2.94,0,0,1-1.7-.38,1.89,1.89,0,0,1-.51-1.57,10.09,10.09,0,0,1-2,1.41,5,5,0,0,1-2.33.54,4.28,4.28,0,0,1-2.59-.76,2.5,2.5,0,0,1-1-2.15,4.26,4.26,0,0,1,2.11-3.48,14.52,14.52,0,0,1,5.86-2.17V348a2.63,2.63,0,0,0-.63-1.84,2.83,2.83,0,0,0-2.08-.61,3.59,3.59,0,0,0-1.41.25q-.6.24-.6.51a1,1,0,0,0,.35.61,2.33,2.33,0,0,1,.35.46,1.11,1.11,0,0,1,.12.56,1.54,1.54,0,0,1-.44,1.15,1.6,1.6,0,0,1-1.16.42,1.61,1.61,0,0,1-1.69-1.69,2.76,2.76,0,0,1,.71-1.8,4.89,4.89,0,0,1,2.07-1.36,9,9,0,0,1,3.19-.51,5.1,5.1,0,0,1,3.42,1,4.25,4.25,0,0,1,1.09,3.32v6.46a3.31,3.31,0,0,0,.25,1.56.85.85,0,0,0,.8.42,1.24,1.24,0,0,0,.52-.1l.29-.13Zm-8-1.19a4.13,4.13,0,0,0,2.53-1.08v-4.24a9.55,9.55,0,0,0-3.55,1.35,2.54,2.54,0,0,0-1.14,2.14Q734.38,356.2,736.54,356.2Z" fill="#fff"/><path d="M355.58,388.58a6.73,6.73,0,0,0,1.54-.13.86.86,0,0,0,.61-.46,2.62,2.62,0,0,0,.15-1V373a2.75,2.75,0,0,0-.15-1.08.88.88,0,0,0-.61-.45,6.19,6.19,0,0,0-1.54-.13v-1h8.35c2.82,0,4.7.56,5.66,1.69a5.73,5.73,0,0,1,1.44,3.84,6.12,6.12,0,0,1-1.65,4.22q-1.67,1.83-6.26,1.83h-1.69v5a2.48,2.48,0,0,0,.17,1.07,1,1,0,0,0,.73.44,9.77,9.77,0,0,0,1.84.12v1h-8.59Zm7.6-7.83a3.75,3.75,0,0,0,3-1.27,5.23,5.23,0,0,0,1.09-3.54,4.76,4.76,0,0,0-1.05-3.31,4,4,0,0,0-3.14-1.17,2.29,2.29,0,0,0-1.31.25.91.91,0,0,0-.32.77v8.27Z" fill="#fff"/><path d="M384.19,382.87h-8.73a7.45,7.45,0,0,0,1,3.82,3.27,3.27,0,0,0,2.94,1.3,4,4,0,0,0,2.36-.65,4.43,4.43,0,0,0,1.48-2l.9.53a7.08,7.08,0,0,1-2,2.85,6.1,6.1,0,0,1-3.93,1.08q-6.27,0-6.26-7.07a8,8,0,0,1,1.58-5.39,5.88,5.88,0,0,1,4.65-1.8,5.51,5.51,0,0,1,4.64,1.86,8.07,8.07,0,0,1,1.44,5.06Zm-3.55-1.16a11.25,11.25,0,0,0-.47-3.79,1.88,1.88,0,0,0-1.95-1.19,2.21,2.21,0,0,0-2.08,1.19,8.81,8.81,0,0,0-.71,3.79Z" fill="#fff"/><path d="M401.77,388.58v1h-4.92l-.17-1.25a9.33,9.33,0,0,1-2.13,1.12,6.85,6.85,0,0,1-2.44.45,4.55,4.55,0,0,1-3.87-1.81,8.16,8.16,0,0,1-1.37-5.06c0-2.49.59-4.34,1.79-5.58a6.73,6.73,0,0,1,5.08-1.84,8.11,8.11,0,0,1,1.42.11c.39.08.85.2,1.37.35h0v-3.58a2.39,2.39,0,0,0-.16-1.07.7.7,0,0,0-.68-.3h-.88v-.93l4.22-.7h.85v17.67a1.49,1.49,0,0,0,.35,1.17,1.9,1.9,0,0,0,1.19.29Zm-7.83-.61a2.73,2.73,0,0,0,1.18-.24,8.81,8.81,0,0,0,1.44-.9v-9.34a4.07,4.07,0,0,0-2.47-.76,3.09,3.09,0,0,0-2.73,1.35,7.74,7.74,0,0,0-.91,4.24C390.45,386.08,391.61,388,393.94,388Z" fill="#fff"/><path d="M417,388.93a8.31,8.31,0,0,1-1.38.64,5.72,5.72,0,0,1-1.85.26,2.94,2.94,0,0,1-1.7-.38,1.89,1.89,0,0,1-.51-1.57,10.09,10.09,0,0,1-2,1.41,5,5,0,0,1-2.33.54,4.21,4.21,0,0,1-2.59-.76,2.5,2.5,0,0,1-1-2.15,4.26,4.26,0,0,1,2.11-3.48,14.52,14.52,0,0,1,5.86-2.17V379.5a2.63,2.63,0,0,0-.63-1.84,2.83,2.83,0,0,0-2.08-.61,3.59,3.59,0,0,0-1.41.25q-.6.24-.6.51a1,1,0,0,0,.35.61,2.33,2.33,0,0,1,.35.46,1.13,1.13,0,0,1,.12.56,1.54,1.54,0,0,1-.44,1.15A1.6,1.6,0,0,1,406,381a1.61,1.61,0,0,1-1.69-1.69,2.76,2.76,0,0,1,.71-1.8,4.89,4.89,0,0,1,2.07-1.36,9,9,0,0,1,3.19-.51,5.1,5.1,0,0,1,3.42,1,4.25,4.25,0,0,1,1.09,3.32v6.46a3.31,3.31,0,0,0,.25,1.56.85.85,0,0,0,.8.42,1.24,1.24,0,0,0,.52-.1l.29-.13Zm-8-1.2a4.17,4.17,0,0,0,2.53-1.07v-4.25a9.73,9.73,0,0,0-3.55,1.35,2.54,2.54,0,0,0-1.14,2.14Q406.83,387.73,409,387.73Z" fill="#fff"/><path d="M432.5,376.06a1.73,1.73,0,0,1,.65,1.46,1.7,1.7,0,0,1-.32,1.07,1.15,1.15,0,0,1-1,.41,1.24,1.24,0,0,1-.88-.29.91.91,0,0,1-.31-.7,1.65,1.65,0,0,1,.06-.48,1.11,1.11,0,0,0,.06-.3.35.35,0,0,0-.12-.24.71.71,0,0,0-.46-.11,1.36,1.36,0,0,0-1.14.64,4.36,4.36,0,0,1,.84,2.67,3.79,3.79,0,0,1-1.65,3.42,7.38,7.38,0,0,1-4.14,1.1,10.25,10.25,0,0,1-1.95-.18c-.44.35-.67.66-.67.93s.16.44.47.63a2.92,2.92,0,0,0,1.43.27H426a6.1,6.1,0,0,1,3.9,1.1,3.73,3.73,0,0,1,1.37,3.12,4.26,4.26,0,0,1-2,3.83,9.16,9.16,0,0,1-5.09,1.3,9,9,0,0,1-4.47-1,3.15,3.15,0,0,1-1.73-2.88,2.4,2.4,0,0,1,.6-1.68,4.5,4.5,0,0,1,2-1.09,3.24,3.24,0,0,1-1.41-.9,2,2,0,0,1-.51-1.31c0-1,.76-1.88,2.27-2.68a4,4,0,0,1-2.71-3.93,3.82,3.82,0,0,1,1.78-3.5,7.65,7.65,0,0,1,4.19-1.13,8.65,8.65,0,0,1,2.31.31,5,5,0,0,1,1.88.95,2.88,2.88,0,0,1,2.47-1.31A2.52,2.52,0,0,1,432.5,376.06Zm-4.91,13.84a6.34,6.34,0,0,0-3.06-.57h-1.89a2.22,2.22,0,0,0-1.57,2.22,2.66,2.66,0,0,0,1.07,2.18,4.27,4.27,0,0,0,2.71.84,4.5,4.5,0,0,0,2.63-.75,2.46,2.46,0,0,0,1.1-2.13A1.92,1.92,0,0,0,427.59,389.9Zm-1.52-7.28a4.42,4.42,0,0,0,.64-2.57,4.76,4.76,0,0,0-.49-2.42,2.07,2.07,0,0,0-1.92-.81,2.15,2.15,0,0,0-2,.84,4.89,4.89,0,0,0-.53,2.53,5.08,5.08,0,0,0,.5,2.51,2,2,0,0,0,1.89.84A2.13,2.13,0,0,0,426.07,382.62Z" fill="#fff"/><path d="M435.37,388.11c-1.09-1.14-1.64-2.94-1.64-5.38s.55-4.26,1.66-5.43,2.83-1.76,5.18-1.76,4,.58,5.09,1.73,1.63,3,1.63,5.4-.55,4.27-1.64,5.43-2.81,1.73-5.14,1.73S436.47,389.26,435.37,388.11Zm7.58-.87a9.7,9.7,0,0,0,.76-4.4,10.31,10.31,0,0,0-.79-4.65,2.76,2.76,0,0,0-4.87-.05,13.83,13.83,0,0,0,0,9.1,2.59,2.59,0,0,0,2.46,1.42A2.56,2.56,0,0,0,443,387.24Z" fill="#fff"/><path d="M463.39,376.06a1.75,1.75,0,0,1,.64,1.46,1.7,1.7,0,0,1-.32,1.07,1.14,1.14,0,0,1-1,.41,1.25,1.25,0,0,1-.89-.29.91.91,0,0,1-.31-.7,1.65,1.65,0,0,1,.06-.48,1.11,1.11,0,0,0,.06-.3.35.35,0,0,0-.12-.24.71.71,0,0,0-.46-.11,1.36,1.36,0,0,0-1.14.64,4.37,4.37,0,0,1,.85,2.67,3.8,3.8,0,0,1-1.66,3.42,7.38,7.38,0,0,1-4.14,1.1,10.25,10.25,0,0,1-1.95-.18c-.44.35-.67.66-.67.93s.16.44.47.63a2.94,2.94,0,0,0,1.43.27h2.64a6.1,6.1,0,0,1,3.9,1.1,3.73,3.73,0,0,1,1.37,3.12,4.26,4.26,0,0,1-2,3.83,9.14,9.14,0,0,1-5.09,1.3,9,9,0,0,1-4.47-1,3.15,3.15,0,0,1-1.73-2.88,2.4,2.4,0,0,1,.6-1.68,4.56,4.56,0,0,1,2-1.09,3.24,3.24,0,0,1-1.41-.9,2,2,0,0,1-.51-1.31c0-1,.76-1.88,2.27-2.68a4,4,0,0,1-2.71-3.93,3.84,3.84,0,0,1,1.78-3.5,7.65,7.65,0,0,1,4.19-1.13,8.6,8.6,0,0,1,2.31.31,5,5,0,0,1,1.88.95,2.89,2.89,0,0,1,2.48-1.31A2.54,2.54,0,0,1,463.39,376.06Zm-4.92,13.84a6.34,6.34,0,0,0-3.06-.57h-1.89a2.22,2.22,0,0,0-1.57,2.22,2.66,2.66,0,0,0,1.07,2.18,4.27,4.27,0,0,0,2.71.84,4.56,4.56,0,0,0,2.64-.75,2.47,2.47,0,0,0,1.09-2.13A1.92,1.92,0,0,0,458.47,389.9ZM457,382.62a4.42,4.42,0,0,0,.64-2.57,4.76,4.76,0,0,0-.49-2.42,2.07,2.07,0,0,0-1.92-.81,2.15,2.15,0,0,0-2,.84,4.89,4.89,0,0,0-.53,2.53,5.08,5.08,0,0,0,.5,2.51,2,2,0,0,0,1.89.84A2.12,2.12,0,0,0,457,382.62Z" fill="#fff"/><path d="M472.52,388.58a6.83,6.83,0,0,0,1.55-.13.88.88,0,0,0,.61-.46,2.86,2.86,0,0,0,.14-1V373a3.1,3.1,0,0,0-.14-1.09.83.83,0,0,0-.61-.46,9,9,0,0,0-1.55-.14v-.93h8.53a10.11,10.11,0,0,1,4.95,1,3.62,3.62,0,0,1,1.78,3.42,4,4,0,0,1-1,2.9,5.47,5.47,0,0,1-2.92,1.5v0a6.22,6.22,0,0,1,3.55,1.7,4.92,4.92,0,0,1,1.22,3.51,4.34,4.34,0,0,1-1.86,4,10.12,10.12,0,0,1-5.36,1.18h-8.85Zm7.48-9.84a4.5,4.5,0,0,0,3.09-1,3.51,3.51,0,0,0,1.08-2.77,3.33,3.33,0,0,0-1-2.63,4.56,4.56,0,0,0-3.1-.92,2.4,2.4,0,0,0-1.31.25,1.06,1.06,0,0,0-.35.92v6.11Zm3.64,8.64a4,4,0,0,0,1-3,4.46,4.46,0,0,0-1.22-3.34,4.62,4.62,0,0,0-3.38-1.2h-1.69v6.64a1.85,1.85,0,0,0,.5,1.47,2.69,2.69,0,0,0,1.72.42A4.15,4.15,0,0,0,483.64,387.38Z" fill="#fff"/><path d="M490.69,388.58a4.48,4.48,0,0,0,1.25-.13.76.76,0,0,0,.49-.43,2.48,2.48,0,0,0,.12-.9v-8.41a2.36,2.36,0,0,0-.16-1.08.73.73,0,0,0-.66-.26h-.87v-1l4.28-.67H496v11.41a2.6,2.6,0,0,0,.12.93.71.71,0,0,0,.5.41,4.53,4.53,0,0,0,1.25.12v1h-7.13Zm2.09-15.36a1.86,1.86,0,0,1-.52-1.35,1.92,1.92,0,0,1,.52-1.37,1.8,1.8,0,0,1,1.37-.55,1.84,1.84,0,0,1,1.4.55,1.92,1.92,0,0,1,.52,1.37,1.8,1.8,0,0,1-.55,1.35,1.89,1.89,0,0,1-1.37.54A1.83,1.83,0,0,1,492.78,373.22Z" fill="#fff"/><path d="M499.56,388.55l8-11.56h-2.33a5.91,5.91,0,0,0-2.17.32,2.35,2.35,0,0,0-1.16,1,7.15,7.15,0,0,0-.69,1.93h-.76l.33-4.39h10.65v1l-8,11.52h3.23a6.73,6.73,0,0,0,2.36-.32,2.53,2.53,0,0,0,1.3-1.06,8.32,8.32,0,0,0,.8-2.14h.75l-.32,4.66h-12Z" fill="#fff"/><path d="M527.87,388a.75.75,0,0,0,.54.42,4.73,4.73,0,0,0,1.25.12v1h-7v-1a5.49,5.49,0,0,0,1.11-.08.62.62,0,0,0,.45-.33,2.18,2.18,0,0,0,.13-.9v-7a3,3,0,0,0-.66-2.09,2.32,2.32,0,0,0-1.84-.73,4.3,4.3,0,0,0-3,1.37v8.44a2.18,2.18,0,0,0,.13.9.62.62,0,0,0,.45.33,5,5,0,0,0,1,.08v1h-6.9v-1a4.58,4.58,0,0,0,1.25-.12.73.73,0,0,0,.5-.41,2.91,2.91,0,0,0,.11-.93v-8.41a2.16,2.16,0,0,0-.17-1.06.69.69,0,0,0-.64-.28h-.87v-1l4.19-.67h.81v1.92h0a8.86,8.86,0,0,1,2.53-1.55,6.94,6.94,0,0,1,2.51-.51,3.68,3.68,0,0,1,2.86,1.12,4.47,4.47,0,0,1,1,3.15v7.28A2.43,2.43,0,0,0,527.87,388Z" fill="#fff"/><path d="M543.63,382.87H534.9a7.35,7.35,0,0,0,1,3.82,3.27,3.27,0,0,0,2.94,1.3,4,4,0,0,0,2.35-.65,4.38,4.38,0,0,0,1.49-2l.9.53a7,7,0,0,1-2,2.85,6.06,6.06,0,0,1-3.93,1.08q-6.26,0-6.25-7.07a7.94,7.94,0,0,1,1.58-5.39,5.88,5.88,0,0,1,4.65-1.8,5.51,5.51,0,0,1,4.64,1.86,8.07,8.07,0,0,1,1.44,5.06Zm-3.55-1.16a11.25,11.25,0,0,0-.47-3.79,1.88,1.88,0,0,0-2-1.19,2.21,2.21,0,0,0-2.08,1.19,8.66,8.66,0,0,0-.71,3.79Z" fill="#fff"/><path d="M550.39,389.73c-.33-.09-.74-.21-1.2-.37a3,3,0,0,0-1.11-.29,1,1,0,0,0-.54.13,1.56,1.56,0,0,0-.36.42h-.55l-.27-4.8h.73a6.16,6.16,0,0,0,1.76,2.82,3.93,3.93,0,0,0,2.67,1.08,2.25,2.25,0,0,0,1.63-.57,2,2,0,0,0,.58-1.52,1.82,1.82,0,0,0-.26-1,2.51,2.51,0,0,0-.79-.71c-.35-.21-.92-.51-1.72-.9l-.58-.29a9.47,9.47,0,0,1-2.78-1.85,3.23,3.23,0,0,1-.77-2.23,3.7,3.7,0,0,1,1.28-3,5.29,5.29,0,0,1,3.49-1.06,6.84,6.84,0,0,1,2.27.37,4,4,0,0,0,.88.18.58.58,0,0,0,.43-.12.6.6,0,0,0,.16-.24,1.07,1.07,0,0,0,0-.16H556l.23,4.27h-.73a4.31,4.31,0,0,0-1.35-2.27,3.4,3.4,0,0,0-2.29-.87,2.44,2.44,0,0,0-1.49.44,1.37,1.37,0,0,0-.6,1.16c0,.88.66,1.61,2,2.21l.9.41a19,19,0,0,1,2.24,1.19,4.34,4.34,0,0,1,1.34,1.36,3.66,3.66,0,0,1,.5,2,4,4,0,0,1-1.39,3.19,5.38,5.38,0,0,1-3.65,1.21A5.8,5.8,0,0,1,550.39,389.73Z" fill="#fff"/><path d="M572.72,388a.78.78,0,0,0,.52.42,4.49,4.49,0,0,0,1.21.12v1H569.3v-2h0a8.06,8.06,0,0,1-5.09,2.33,3.68,3.68,0,0,1-2.84-1.05,4.34,4.34,0,0,1-1-3.06v-7.21a2.15,2.15,0,0,0-.17-1.08.78.78,0,0,0-.7-.26h-.87v-1l4.25-.53h.84v9.2a3.48,3.48,0,0,0,.66,2.26,2.28,2.28,0,0,0,1.87.8,3,3,0,0,0,1.56-.49,6.44,6.44,0,0,0,1.41-1.12v-7.82a2.3,2.3,0,0,0-.16-1.08c-.11-.18-.33-.26-.68-.26h-.88v-1l4.25-.53h.85v11.41A2.43,2.43,0,0,0,572.72,388Z" fill="#fff"/><path d="M355.58,420.11a6.73,6.73,0,0,0,1.54-.13.88.88,0,0,0,.61-.45,2.71,2.71,0,0,0,.15-1v-14a2.75,2.75,0,0,0-.15-1.08.88.88,0,0,0-.61-.45,6.19,6.19,0,0,0-1.54-.13v-1h8.35c2.82,0,4.7.56,5.66,1.69a5.73,5.73,0,0,1,1.44,3.84,6.12,6.12,0,0,1-1.65,4.22q-1.67,1.83-6.26,1.83h-1.69v5a2.48,2.48,0,0,0,.17,1.07,1,1,0,0,0,.73.44,9.77,9.77,0,0,0,1.84.12v1h-8.59Zm7.6-7.83a3.72,3.72,0,0,0,3-1.27,5.21,5.21,0,0,0,1.09-3.53,4.77,4.77,0,0,0-1.05-3.32,4,4,0,0,0-3.14-1.17,2.37,2.37,0,0,0-1.31.25.93.93,0,0,0-.32.77v8.27Z" fill="#fff"/><path d="M386.4,420.46a8.71,8.71,0,0,1-1.38.64,5.76,5.76,0,0,1-1.85.26,2.94,2.94,0,0,1-1.7-.38,1.89,1.89,0,0,1-.51-1.57,10.09,10.09,0,0,1-2,1.41,5,5,0,0,1-2.33.54,4.21,4.21,0,0,1-2.59-.76,2.51,2.51,0,0,1-1-2.15,4.28,4.28,0,0,1,2.11-3.48A14.63,14.63,0,0,1,381,412.8V411a2.63,2.63,0,0,0-.63-1.84,2.87,2.87,0,0,0-2.08-.61,3.59,3.59,0,0,0-1.41.25q-.6.24-.6.51a1,1,0,0,0,.35.61,2.46,2.46,0,0,1,.35.47,1.07,1.07,0,0,1,.12.55,1.54,1.54,0,0,1-.44,1.15,1.82,1.82,0,0,1-2.38-.05,1.64,1.64,0,0,1-.47-1.22,2.76,2.76,0,0,1,.71-1.8,4.89,4.89,0,0,1,2.07-1.36,9,9,0,0,1,3.19-.51,5.1,5.1,0,0,1,3.42,1,4.26,4.26,0,0,1,1.09,3.31v6.46a3.31,3.31,0,0,0,.25,1.56.85.85,0,0,0,.8.42,1.27,1.27,0,0,0,.52-.1l.29-.13Zm-8-1.2a4.17,4.17,0,0,0,2.53-1.07v-4.25a9.73,9.73,0,0,0-3.55,1.35,2.54,2.54,0,0,0-1.14,2.14Q376.27,419.26,378.43,419.26Z" fill="#fff"/><path d="M401.41,419.57a.76.76,0,0,0,.52.42,4.44,4.44,0,0,0,1.21.12v1H398v-2h0a8.1,8.1,0,0,1-5.1,2.33,3.67,3.67,0,0,1-2.83-1.05,4.34,4.34,0,0,1-1-3.06v-7.21a2.27,2.27,0,0,0-.17-1.08.78.78,0,0,0-.7-.26h-.88v-1l4.25-.53h.85v9.2a3.54,3.54,0,0,0,.65,2.26,2.3,2.3,0,0,0,1.88.8,3.06,3.06,0,0,0,1.56-.48,7.09,7.09,0,0,0,1.41-1.12v-7.83a2.44,2.44,0,0,0-.16-1.08c-.11-.18-.34-.26-.69-.26h-.87v-1l4.25-.53h.84v11.41A2.36,2.36,0,0,0,401.41,419.57Z" fill="#fff"/><path d="M404.85,420.11a4.65,4.65,0,0,0,1.27-.13.77.77,0,0,0,.51-.43,2.48,2.48,0,0,0,.12-.9V404a2.24,2.24,0,0,0-.18-1.09.74.74,0,0,0-.67-.28H405v-1l4.28-.67h.81v17.67a2.6,2.6,0,0,0,.13.92.8.8,0,0,0,.53.42,4.44,4.44,0,0,0,1.21.12v1h-7.14Z" fill="#fff"/><path d="M413.56,420.11a4.48,4.48,0,0,0,1.25-.13.74.74,0,0,0,.49-.43,2.48,2.48,0,0,0,.12-.9v-8.41a2.36,2.36,0,0,0-.16-1.08.73.73,0,0,0-.66-.26h-.87v-1l4.28-.67h.81v11.41a2.6,2.6,0,0,0,.12.93.71.71,0,0,0,.5.41,4.58,4.58,0,0,0,1.25.12v1h-7.13Zm2.09-15.36a1.84,1.84,0,0,1-.52-1.35,1.92,1.92,0,0,1,.52-1.37,1.84,1.84,0,0,1,1.37-.55,1.87,1.87,0,0,1,1.4.55,1.92,1.92,0,0,1,.52,1.37,1.79,1.79,0,0,1-.55,1.35,1.89,1.89,0,0,1-1.37.54A1.83,1.83,0,0,1,415.65,404.75Z" fill="#fff"/><path d="M436.86,419.57a.75.75,0,0,0,.53.42,4.87,4.87,0,0,0,1.26.12v1h-7v-1a5.38,5.38,0,0,0,1.1-.08.62.62,0,0,0,.46-.33,2.33,2.33,0,0,0,.13-.9v-7a3,3,0,0,0-.66-2.09,2.33,2.33,0,0,0-1.85-.73,4.34,4.34,0,0,0-3,1.37v8.44a2.15,2.15,0,0,0,.13.9.62.62,0,0,0,.45.33,5,5,0,0,0,1.05.08v1h-6.9v-1a4.58,4.58,0,0,0,1.25-.12.73.73,0,0,0,.5-.41,2.91,2.91,0,0,0,.11-.93v-8.41a2.28,2.28,0,0,0-.17-1.06.69.69,0,0,0-.64-.28h-.88v-1l4.19-.67h.82v1.92h0a8.73,8.73,0,0,1,2.53-1.55,6.89,6.89,0,0,1,2.5-.51,3.69,3.69,0,0,1,2.87,1.12,4.49,4.49,0,0,1,1,3.16v7.27A2.36,2.36,0,0,0,436.86,419.57Z" fill="#fff"/><path d="M453.66,420.46a8,8,0,0,1-1.38.64,5.72,5.72,0,0,1-1.85.26,2.94,2.94,0,0,1-1.7-.38,1.89,1.89,0,0,1-.51-1.57,10.09,10.09,0,0,1-2,1.41,5,5,0,0,1-2.32.54,4.22,4.22,0,0,1-2.6-.76,2.53,2.53,0,0,1-1-2.15,4.26,4.26,0,0,1,2.11-3.48,14.52,14.52,0,0,1,5.86-2.17V411a2.67,2.67,0,0,0-.62-1.84,2.91,2.91,0,0,0-2.09-.61,3.59,3.59,0,0,0-1.41.25c-.39.16-.59.33-.59.51a.93.93,0,0,0,.35.61,2.36,2.36,0,0,1,.34.47,1.07,1.07,0,0,1,.12.55,1.5,1.5,0,0,1-.44,1.15,1.59,1.59,0,0,1-1.16.42,1.62,1.62,0,0,1-1.22-.47,1.64,1.64,0,0,1-.47-1.22,2.72,2.72,0,0,1,.72-1.8,4.79,4.79,0,0,1,2.06-1.36,9,9,0,0,1,3.19-.51,5.1,5.1,0,0,1,3.42,1,4.22,4.22,0,0,1,1.09,3.31v6.46a3.31,3.31,0,0,0,.25,1.56.85.85,0,0,0,.8.42,1.24,1.24,0,0,0,.52-.1l.29-.13Zm-8-1.2a4.17,4.17,0,0,0,2.53-1.07v-4.25a9.73,9.73,0,0,0-3.55,1.35,2.53,2.53,0,0,0-1.13,2.14C443.54,418.65,444.25,419.26,445.69,419.26Z" fill="#fff"/><path d="M461.9,420.11a6.73,6.73,0,0,0,1.54-.13.88.88,0,0,0,.61-.45,2.71,2.71,0,0,0,.15-1v-14a2.84,2.84,0,0,0-.15-1.09.78.78,0,0,0-.61-.45,7.74,7.74,0,0,0-1.54-.15v-.93h8.53a10.16,10.16,0,0,1,4.95,1,3.61,3.61,0,0,1,1.77,3.42,4,4,0,0,1-1,2.9,5.5,5.5,0,0,1-2.93,1.5v0a6.16,6.16,0,0,1,3.55,1.7,4.88,4.88,0,0,1,1.23,3.51,4.32,4.32,0,0,1-1.87,4,10,10,0,0,1-5.35,1.18H461.9Zm7.48-9.84a4.5,4.5,0,0,0,3.09-1,3.54,3.54,0,0,0,1.07-2.77,3.33,3.33,0,0,0-1-2.63,4.56,4.56,0,0,0-3.1-.92,2.47,2.47,0,0,0-1.31.25,1.07,1.07,0,0,0-.35.92v6.11Zm3.64,8.64a4,4,0,0,0,1-3,4.44,4.44,0,0,0-1.23-3.35,4.6,4.6,0,0,0-3.37-1.2h-1.69V418a1.85,1.85,0,0,0,.5,1.47,2.65,2.65,0,0,0,1.71.42A4.16,4.16,0,0,0,473,418.91Z" fill="#fff"/><path d="M494.05,419.57a.76.76,0,0,0,.52.42,4.49,4.49,0,0,0,1.21.12v1h-5.15v-2h0a8.08,8.08,0,0,1-5.1,2.33,3.67,3.67,0,0,1-2.83-1.05,4.34,4.34,0,0,1-1-3.06v-7.21a2.27,2.27,0,0,0-.17-1.08.78.78,0,0,0-.7-.26H480v-1l4.24-.53H485v9.2a3.54,3.54,0,0,0,.65,2.26,2.31,2.31,0,0,0,1.88.8,3,3,0,0,0,1.56-.48,7.09,7.09,0,0,0,1.41-1.12v-7.83a2.3,2.3,0,0,0-.16-1.08c-.11-.18-.33-.26-.68-.26h-.88v-1l4.25-.53h.85v11.41A2.39,2.39,0,0,0,494.05,419.57Z" fill="#fff"/><path d="M502.17,421.26c-.34-.09-.74-.21-1.21-.37a3,3,0,0,0-1.11-.29,1,1,0,0,0-.53.13,1.42,1.42,0,0,0-.37.42h-.55l-.26-4.8h.72a6.25,6.25,0,0,0,1.76,2.83,4,4,0,0,0,2.67,1.07,2.27,2.27,0,0,0,1.63-.56,2,2,0,0,0,.58-1.53,1.85,1.85,0,0,0-.26-1,2.51,2.51,0,0,0-.79-.71c-.35-.21-.92-.51-1.72-.9l-.58-.29a9.61,9.61,0,0,1-2.78-1.85,3.23,3.23,0,0,1-.77-2.23,3.7,3.7,0,0,1,1.28-3,5.32,5.32,0,0,1,3.5-1.06,6.64,6.64,0,0,1,2.27.38,4.27,4.27,0,0,0,.87.17.63.63,0,0,0,.44-.12.72.72,0,0,0,.16-.24c0-.09,0-.14,0-.16h.61l.23,4.27h-.72a4.39,4.39,0,0,0-1.36-2.27,3.39,3.39,0,0,0-2.28-.87,2.49,2.49,0,0,0-1.5.44,1.37,1.37,0,0,0-.6,1.16c0,.88.66,1.61,2,2.21l.9.41a19,19,0,0,1,2.24,1.19A4.34,4.34,0,0,1,508,415a3.66,3.66,0,0,1,.5,2,4,4,0,0,1-1.38,3.19,5.35,5.35,0,0,1-3.66,1.21A5.7,5.7,0,0,1,502.17,421.26Z" fill="#fff"/><path d="M510.51,420.08l8-11.56h-2.33a6,6,0,0,0-2.17.32,2.35,2.35,0,0,0-1.16,1,7.51,7.51,0,0,0-.69,1.93h-.75l.32-4.39h10.65v1l-8,11.52h3.23a6.76,6.76,0,0,0,2.36-.32,2.51,2.51,0,0,0,1.29-1.06,7.84,7.84,0,0,0,.8-2.14h.76l-.32,4.66h-12Z" fill="#fff"/><path d="M539.41,420.11v1h-6.2v-1h.26a.87.87,0,0,0,.42-.09.26.26,0,0,0,.16-.23.86.86,0,0,0-.17-.41c-.12-.18-.26-.37-.41-.58l-3-4.11-1,1.14v2.82a2.39,2.39,0,0,0,.13.92.78.78,0,0,0,.52.42,4.54,4.54,0,0,0,1.21.12v1h-7.13v-1a4.7,4.7,0,0,0,1.27-.13.77.77,0,0,0,.51-.43,2.78,2.78,0,0,0,.11-.9V404a2.27,2.27,0,0,0-.17-1.09.75.75,0,0,0-.67-.28h-.87v-1l4.28-.67h.81V414.4l3-3.93a3.58,3.58,0,0,0,.87-1.68c0-.3-.17-.44-.52-.44h-.67v-1h6.49v1h-.41a4.65,4.65,0,0,0-2.3.58,8.18,8.18,0,0,0-2.12,1.83l-1.34,1.58,3.93,5.38A12.94,12.94,0,0,0,538,419.6a1.68,1.68,0,0,0,1.12.51Z" fill="#fff"/><path d="M540.25,420.11a4.48,4.48,0,0,0,1.25-.13.78.78,0,0,0,.5-.43,2.78,2.78,0,0,0,.11-.9v-8.41a2.36,2.36,0,0,0-.16-1.08.7.7,0,0,0-.65-.26h-.87v-1l4.27-.67h.82v11.41a2.6,2.6,0,0,0,.12.93.69.69,0,0,0,.49.41,4.58,4.58,0,0,0,1.25.12v1h-7.13Zm2.1-15.36a1.85,1.85,0,0,1-.53-1.35,1.93,1.93,0,0,1,.53-1.37,1.82,1.82,0,0,1,1.36-.55,1.86,1.86,0,0,1,1.4.55,1.93,1.93,0,0,1,.53,1.37,1.79,1.79,0,0,1-.56,1.35,1.88,1.88,0,0,1-1.37.54A1.81,1.81,0,0,1,542.35,404.75Z" fill="#fff"/><path d="M562,414.4h-8.73a7.45,7.45,0,0,0,1,3.82,3.27,3.27,0,0,0,2.94,1.31,4,4,0,0,0,2.36-.66,4.46,4.46,0,0,0,1.48-2l.91.52a7.2,7.2,0,0,1-2,2.85,6.06,6.06,0,0,1-3.93,1.08q-6.25,0-6.26-7.07a7.94,7.94,0,0,1,1.59-5.39,5.85,5.85,0,0,1,4.64-1.8,5.51,5.51,0,0,1,4.64,1.86A8.07,8.07,0,0,1,562,414Zm-3.55-1.16a11.31,11.31,0,0,0-.46-3.79,1.88,1.88,0,0,0-2-1.19,2.2,2.2,0,0,0-2.08,1.19,8.64,8.64,0,0,0-.72,3.79Z" fill="#fff"/><path d="M565.05,409.43a1.48,1.48,0,0,0-.57-.86,2.24,2.24,0,0,0-1.15-.22v-1h6.43v1H569a.82.82,0,0,0-.47.1.47.47,0,0,0-.14.39,2.52,2.52,0,0,0,.08.53l2.13,8h.06l2.76-9.92h2.1l3,9.92h.06l2.19-8.09a1.94,1.94,0,0,0,0-.38.53.53,0,0,0-.18-.45.85.85,0,0,0-.52-.13H579v-1h5.3v1a2.64,2.64,0,0,0-1.36.27,1.53,1.53,0,0,0-.59.92l-3.58,11.53h-2.16l-2.94-8.3h-.14l-2.68,8.3h-2.15Z" fill="#fff"/><path d="M585.39,420.11a4.43,4.43,0,0,0,1.25-.13.76.76,0,0,0,.5-.43,2.48,2.48,0,0,0,.12-.9v-8.41a2.51,2.51,0,0,0-.16-1.08.73.73,0,0,0-.66-.26h-.87v-1l4.28-.67h.81v11.41a2.6,2.6,0,0,0,.12.93.69.69,0,0,0,.49.41,4.58,4.58,0,0,0,1.25.12v1h-7.13Zm2.1-15.36a1.85,1.85,0,0,1-.53-1.35,1.93,1.93,0,0,1,.53-1.37,1.82,1.82,0,0,1,1.37-.55,1.85,1.85,0,0,1,1.39.55,1.93,1.93,0,0,1,.53,1.37,1.79,1.79,0,0,1-.56,1.35,1.85,1.85,0,0,1-1.36.54A1.82,1.82,0,0,1,587.49,404.75Z" fill="#fff"/><path d="M596.44,419.63a7.39,7.39,0,0,1-1.65-5.26,7.69,7.69,0,0,1,1.72-5.45,6.47,6.47,0,0,1,5-1.82,7.51,7.51,0,0,1,3,.52A4,4,0,0,1,606.2,409a3.18,3.18,0,0,1,.56,1.79,1.91,1.91,0,0,1-.46,1.37,1.58,1.58,0,0,1-1.23.5,1.54,1.54,0,0,1-1.21-.47,1.71,1.71,0,0,1-.42-1.19,1.73,1.73,0,0,1,.13-.73l.16-.35a1.25,1.25,0,0,0,.2-.58.87.87,0,0,0-.52-.76,3.24,3.24,0,0,0-1.51-.29,3.1,3.1,0,0,0-2.62,1.17c-.61.77-.91,2.18-.91,4.22a8.22,8.22,0,0,0,1,4.45,3.3,3.3,0,0,0,3,1.45,3.6,3.6,0,0,0,2.49-.75,6.73,6.73,0,0,0,1.41-1.92l.73.43a6.29,6.29,0,0,1-2,3,6.08,6.08,0,0,1-3.77,1A6.22,6.22,0,0,1,596.44,419.63Z" fill="#fff"/><path d="M608.65,420.08l8-11.56h-2.33a6,6,0,0,0-2.17.32,2.35,2.35,0,0,0-1.16,1,7.19,7.19,0,0,0-.68,1.93h-.76l.32-4.39h10.65v1l-8,11.52h3.23a6.76,6.76,0,0,0,2.36-.32,2.51,2.51,0,0,0,1.29-1.06,7.84,7.84,0,0,0,.8-2.14H621l-.32,4.66h-12Z" fill="#fff"/></g></g></svg>