<svg xmlns="http://www.w3.org/2000/svg" xmlns:xlink="http://www.w3.org/1999/xlink" viewBox="0 0 746.5 767.5"><defs><radialGradient id="bc4eb20e-e8f4-4d6f-afa6-f86cfdf5e8c7" cx="665.89" cy="90.69" r="42.1" gradientUnits="userSpaceOnUse"><stop offset="0.2" stop-color="#be1622"/><stop offset="0.93" stop-color="#e5361a"/></radialGradient><radialGradient id="a1ae389e-11af-4754-a0b1-06e597010168" cx="673.41" cy="113.57" fx="624.7857164871089" fy="104.56901664200853" r="62.08" gradientUnits="userSpaceOnUse"><stop offset="0.1" stop-color="#f39200"/><stop offset="0.61" stop-color="#ea5411"/><stop offset="0.9" stop-color="#e5361a"/></radialGradient><radialGradient id="a091fcfe-7ed3-4f6f-a692-94289bcdad9f" cx="717.89" cy="102.1" fx="765.0334341510895" fy="20.526616817180837" r="94.21" gradientUnits="userSpaceOnUse"><stop offset="0.21" stop-color="#f39200"/><stop offset="0.28" stop-color="#f18504"/><stop offset="0.4" stop-color="#ec640d"/><stop offset="0.55" stop-color="#e5361a"/><stop offset="0.61" stop-color="#dc3218"/><stop offset="0.72" stop-color="#c22811"/><stop offset="0.86" stop-color="#991606"/><stop offset="0.91" stop-color="#8a1002"/></radialGradient><radialGradient id="fafdef01-e097-4198-9688-954aafaa7f0b" cx="581.79" cy="76.11" fx="595.9431859196488" fy="-5.919223509912882" r="96.73" gradientUnits="userSpaceOnUse"><stop offset="0.36" stop-color="#e5361a"/><stop offset="0.43" stop-color="#e23519"/><stop offset="0.49" stop-color="#d93117"/><stop offset="0.54" stop-color="#c92a13"/><stop offset="0.58" stop-color="#b2210d"/><stop offset="0.63" stop-color="#951505"/><stop offset="0.64" stop-color="#8a1002"/></radialGradient><linearGradient id="a1fd8c60-cd53-4d53-8a6f-49ab34caddcc" x1="580.33" y1="147.01" x2="652.41" y2="107.03" gradientUnits="userSpaceOnUse"><stop offset="0.25" stop-color="#8a1002"/><stop offset="0.47" stop-color="#e5361a"/></linearGradient><linearGradient id="b9a2037c-953c-4a73-bf74-ac83f74e33f6" x1="669.96" y1="112.32" x2="611.24" y2="201.23" gradientUnits="userSpaceOnUse"><stop offset="0.02" stop-color="#f39200"/><stop offset="0.06" stop-color="#f07d06"/><stop offset="0.15" stop-color="#eb5e0f"/><stop offset="0.22" stop-color="#e84815"/><stop offset="0.3" stop-color="#e63b19"/><stop offset="0.37" stop-color="#e5361a"/><stop offset="0.39" stop-color="#df3318"/><stop offset="0.54" stop-color="#ba240f"/><stop offset="0.69" stop-color="#a01908"/><stop offset="0.82" stop-color="#901203"/><stop offset="0.92" stop-color="#8a1002"/></linearGradient></defs><g id="eac37030-9b6f-44c8-a224-81bd691d874b" data-name="Warstwa 2"><g id="e506f00c-9f85-43f4-b56e-2d8872f2dc3e" data-name="Warstwa 1"><circle cx="248.4" cy="348.74" r="42.1" fill="none" stroke="#1d160f" stroke-miterlimit="10" stroke-width="0.25"/><circle cx="108.3" cy="338.92" r="42.1" fill="none" stroke="#1d160f" stroke-miterlimit="10" stroke-width="0.25"/><circle cx="215.86" cy="420.63" r="42.1" fill="none" stroke="#1d160f" stroke-miterlimit="10" stroke-width="0.25"/><circle cx="140.37" cy="416.45" r="42.1" fill="none" stroke="#1d160f" stroke-miterlimit="10" stroke-width="0.25"/><circle cx="212.63" cy="432.59" r="70.16" fill="none" stroke="#1d160f" stroke-miterlimit="10" stroke-width="0.25"/><circle cx="243.92" cy="460.74" r="70.16" fill="none" stroke="#1d160f" stroke-miterlimit="10" stroke-width="0.25"/><path d="M177.23,437.4a42.13,42.13,0,0,1,38.63-58.87c1,0,2,0,2.92.1a42,42,0,0,0,26.75,12.13" fill="none" stroke="#1d160f" stroke-miterlimit="10" stroke-width="0.25"/><path d="M188.68,498l.95.33,2.85.92.14.05.61.18a70.29,70.29,0,0,0,74.6-24.1,72.47,72.47,0,0,0,6.59-10.05,69.4,69.4,0,0,0,5.94-14.89,68.28,68.28,0,0,0,1.69-8.14h0a63.92,63.92,0,0,0,.67-7.1l0-.58a2.38,2.38,0,0,0,0-.38c0-.53,0-1.06,0-1.59v-.09q0-.7,0-1.41c0-.61,0-1.22-.1-1.84,0-.45-.08-.9-.13-1.35,0-.15,0-.31-.05-.47-.06-.45-.12-.9-.19-1.35-.09-.62-.2-1.23-.33-1.85-.07-.37-.15-.74-.24-1.1a2,2,0,0,0-.08-.33q-.16-.72-.36-1.41t-.45-1.53a40.68,40.68,0,0,0-1.69-4.47,41.57,41.57,0,0,0-2.19-4.25c-.27-.46-.55-.91-.83-1.36s-.59-.89-.89-1.33a41.64,41.64,0,0,0-2.78-3.57c-.2-.24-.41-.48-.63-.71s-.54-.59-.82-.88l-.24-.24c-.36-.37-.73-.74-1.11-1.09s-.77-.72-1.17-1.07l-.24-.21c-.41-.35-.82-.7-1.24-1s-.79-.62-1.19-.92l-.4-.29c-.41-.3-.82-.59-1.24-.87s-1-.65-1.48-.95-.8-.48-1.2-.7a37,37,0,0,0-3.66-1.86c-1-.45-2-.86-3.12-1.24-.43-.16-.87-.3-1.31-.44s-.87-.26-1.31-.39l.47.13.38.1c-.42-.13-.83-.25-1.25-.35-2-.52-4-.75-6.12-1.18h-.05a.42.42,0,0,0-.16,0c-2.74-.06-5.58-.3-8.38-.1l-.64.06-.34,0A70.13,70.13,0,0,0,179.67,432c-.17.4-.34.81-.52,1.21-.27.6-.55,1.19-.85,1.78-.17.34-.34.67-.52,1a1.09,1.09,0,0,1-.08.15c-.12.23-.24.45-.38.67l-.19.33c-.33.58-.68,1.16-1,1.73-.19.3-.39.6-.59.89l-.05.07c-.2.3-.41.6-.63.89s-.58.79-.88,1.18-.45.58-.7.87l-.54.64-.76.87c-.51.57-1,1.12-1.58,1.65l-.84.8c-.28.28-.57.54-.86.79a42.68,42.68,0,0,1-3.46,2.76c-.37.27-.75.52-1.13.78s-.85.55-1.28.82l-1.31.77c-.62.36-1.24.69-1.87,1s-1.27.61-1.91.9l-.43.18-1.49.61-.12,0c-.46.18-.93.35-1.4.51L154,456l-1.28.41c-.53.15-1,.3-1.58.43q-1.27.33-2.55.57l-1.29.22" fill="none" stroke="#1d160f" stroke-miterlimit="10" stroke-width="0.25"/><circle cx="240.69" cy="432.59" r="42.1" fill="none" stroke="#1d160f" stroke-miterlimit="10" stroke-width="0.25"/><path d="M142.47,432.07a69.9,69.9,0,0,0,1.5,14.49,68.66,68.66,0,0,0,2.18,8c.06.18.12.37.19.55.28.83.59,1.65.91,2.47a.09.09,0,0,0,0,.06l-.09,0c-.61.1-1.23.18-1.85.25l-.45,0a41.57,41.57,0,0,1-17.77-2.05h0l-.43-.14A41.78,41.78,0,0,1,112.13,447a38.72,38.72,0,0,1-2.91-3L108,442.58l0,0A181.5,181.5,0,0,1,66.2,341.94a42.14,42.14,0,0,0,50.72,37.64c.52-.11,1-.23,1.53-.36a2.25,2.25,0,0,0,.35-.09c.22-.05.45-.11.66-.18,0,0,0,0,0,0a38.21,38.21,0,0,0,4.08-1.35l.3-.12,1.33-.56a41.85,41.85,0,0,1,24.62-2,42.55,42.55,0,0,1,4.91,1.41,41.79,41.79,0,0,1,9.58,4.83A70,70,0,0,0,142.47,432.07Z" fill="none" stroke="#1d160f" stroke-miterlimit="10" stroke-width="0.25"/><path d="M188.68,498A180.69,180.69,0,0,1,122.5,458q-5.52-5.2-10.59-10.89c-.92-1-1.81-2-2.69-3.06" fill="none" stroke="#1d160f" stroke-miterlimit="10" stroke-width="0.25"/><circle cx="614.62" cy="348.74" r="42.1" fill="none" stroke="#1d160f" stroke-miterlimit="10" stroke-width="0.1"/><circle cx="474.51" cy="338.92" r="42.1" fill="none" stroke="#1d160f" stroke-miterlimit="10" stroke-width="0.1"/><circle cx="582.07" cy="420.63" r="42.1" fill="none" stroke="#1d160f" stroke-miterlimit="10" stroke-width="0.1"/><circle cx="506.58" cy="416.45" r="42.1" fill="none" stroke="#1d160f" stroke-miterlimit="10" stroke-width="0.1"/><circle cx="578.85" cy="432.59" r="70.16" fill="none" stroke="#1d160f" stroke-miterlimit="10" stroke-width="0.1"/><circle cx="610.14" cy="460.74" r="70.16" fill="none" stroke="#1d160f" stroke-miterlimit="10" stroke-width="0.1"/><path d="M543.45,437.4a42.11,42.11,0,0,1,38.62-58.87c1,0,2,0,2.92.1a42,42,0,0,0,26.75,12.13" fill="none" stroke="#1d160f" stroke-miterlimit="10" stroke-width="2"/><path d="M554.89,498l1,.33,2.85.92.14.05.61.18a70.29,70.29,0,0,0,74.6-24.1,72.47,72.47,0,0,0,6.59-10.05,69.4,69.4,0,0,0,5.94-14.89,68.28,68.28,0,0,0,1.69-8.14h0a63.92,63.92,0,0,0,.67-7.1l0-.58a2.38,2.38,0,0,0,0-.38c0-.53,0-1.06,0-1.59v-.09q0-.7,0-1.41c0-.61-.05-1.22-.1-1.84,0-.45-.08-.9-.13-1.35,0-.15,0-.31,0-.47-.06-.45-.12-.9-.19-1.35-.09-.62-.2-1.23-.33-1.85-.07-.37-.15-.74-.24-1.1a2,2,0,0,0-.08-.33q-.17-.72-.36-1.41t-.45-1.53a40.68,40.68,0,0,0-1.69-4.47,41.57,41.57,0,0,0-2.19-4.25c-.27-.46-.55-.91-.83-1.36s-.59-.89-.89-1.33a41.64,41.64,0,0,0-2.78-3.57c-.2-.24-.41-.48-.63-.71s-.54-.59-.82-.88l-.24-.24c-.36-.37-.73-.74-1.11-1.09s-.77-.72-1.17-1.07l-.24-.21c-.41-.35-.82-.7-1.24-1s-.79-.62-1.19-.92l-.4-.29c-.41-.3-.82-.59-1.24-.87s-1-.65-1.48-.95-.8-.48-1.2-.7a37,37,0,0,0-3.66-1.86c-1-.45-2-.86-3.12-1.24-.43-.16-.87-.3-1.31-.44s-.87-.26-1.31-.39l.47.13.38.1c-.42-.13-.83-.25-1.25-.35-2-.52-4-.75-6.12-1.18h0a.42.42,0,0,0-.16,0c-2.74-.06-5.58-.3-8.38-.1l-.64.06-.34,0A70.13,70.13,0,0,0,545.88,432c-.17.4-.34.81-.52,1.21-.27.6-.55,1.19-.85,1.78-.17.34-.34.67-.52,1a1.09,1.09,0,0,1-.08.15c-.12.23-.24.45-.38.67l-.19.33c-.33.58-.68,1.16-1.05,1.73-.19.3-.39.6-.59.89l-.05.07c-.2.3-.41.6-.63.89s-.58.79-.88,1.18-.45.58-.7.87l-.54.64-.76.87c-.51.57-1,1.12-1.58,1.65l-.84.8c-.28.28-.57.54-.86.79a42.68,42.68,0,0,1-3.46,2.76c-.37.27-.75.52-1.13.78s-.85.55-1.28.82l-1.31.77c-.62.36-1.24.69-1.87,1s-1.27.61-1.91.9l-.43.18-1.49.61-.12,0c-.46.18-.93.35-1.4.51l-.27.09-1.28.41c-.53.15-1,.3-1.58.43q-1.27.33-2.55.57l-1.29.22" fill="none" stroke="#1d160f" stroke-miterlimit="10" stroke-width="2"/><circle cx="606.91" cy="432.59" r="42.1" fill="none" stroke="#1d160f" stroke-miterlimit="10" stroke-width="2"/><path d="M508.68,432.07a69.9,69.9,0,0,0,1.5,14.49,68.66,68.66,0,0,0,2.18,8c.06.18.12.37.19.55.28.83.59,1.65.91,2.47a.09.09,0,0,0,0,.06l-.09,0c-.61.1-1.23.18-1.85.25l-.45,0a41.57,41.57,0,0,1-17.77-2.05h0l-.43-.14A41.78,41.78,0,0,1,478.34,447a38.72,38.72,0,0,1-2.91-3l-1.21-1.43,0,0a181.5,181.5,0,0,1-41.79-100.62,42.14,42.14,0,0,0,50.72,37.64c.52-.11,1-.23,1.53-.36a2.25,2.25,0,0,0,.35-.09c.22-.05.45-.11.66-.18,0,0,0,0,0,0a38.21,38.21,0,0,0,4.08-1.35l.3-.12,1.33-.56A41.85,41.85,0,0,1,516,375a42.55,42.55,0,0,1,4.91,1.41,41.79,41.79,0,0,1,9.58,4.83A70,70,0,0,0,508.68,432.07Z" fill="none" stroke="#1d160f" stroke-miterlimit="10" stroke-width="2"/><path d="M554.89,498A180.69,180.69,0,0,1,488.71,458q-5.52-5.2-10.59-10.89c-.92-1-1.81-2-2.69-3.06" fill="none" stroke="#1d160f" stroke-miterlimit="10" stroke-width="2"/><circle cx="612.91" cy="414.51" r="5.03" fill="none" stroke="#1d160f" stroke-miterlimit="10" stroke-width="2"/><path d="M376,701.67a42.11,42.11,0,0,1,38.62-58.87c1,0,2,0,2.92.1A42,42,0,0,0,444.28,655" fill="none" stroke="#1d160f" stroke-miterlimit="10" stroke-width="2"/><path d="M387.43,762.3l.95.33,2.85.92.14.05.61.18a70.29,70.29,0,0,0,74.6-24.1,72.47,72.47,0,0,0,6.59-10,69.4,69.4,0,0,0,5.94-14.89,68.28,68.28,0,0,0,1.69-8.14h0a63.92,63.92,0,0,0,.67-7.1l0-.58a2.38,2.38,0,0,0,0-.38c0-.53,0-1.06,0-1.59v-.09q0-.71,0-1.41c0-.61,0-1.22-.1-1.84,0-.45-.08-.9-.13-1.35,0-.15,0-.31-.05-.47-.06-.45-.12-.9-.19-1.35-.09-.62-.2-1.23-.33-1.85-.07-.37-.15-.74-.24-1.1a2,2,0,0,0-.08-.33q-.16-.72-.36-1.41t-.45-1.53a40.68,40.68,0,0,0-1.69-4.47,41.57,41.57,0,0,0-2.19-4.25c-.27-.46-.55-.91-.83-1.36s-.59-.89-.89-1.33a41.64,41.64,0,0,0-2.78-3.57c-.2-.24-.41-.48-.63-.71s-.54-.59-.82-.88l-.24-.24c-.36-.37-.73-.74-1.11-1.09s-.77-.72-1.17-1.07L467,665c-.41-.35-.82-.7-1.24-1s-.79-.62-1.19-.92l-.4-.29c-.41-.3-.82-.59-1.24-.87s-1-.65-1.48-.95-.8-.48-1.2-.7a37,37,0,0,0-3.66-1.86c-1-.45-2-.86-3.12-1.24-.43-.16-.87-.3-1.31-.44s-.87-.26-1.31-.39l.47.13.38.1c-.42-.13-.83-.25-1.25-.35-2-.52-4-.75-6.12-1.18h-.05a.42.42,0,0,0-.16,0c-2.74-.06-5.58-.3-8.38-.1l-.64.06-.34,0a70.13,70.13,0,0,0-56.34,41.27c-.17.4-.34.81-.52,1.21-.27.6-.55,1.19-.85,1.78-.17.34-.34.67-.52,1a1.09,1.09,0,0,1-.08.15c-.12.23-.24.45-.38.67l-.19.33c-.33.58-.68,1.16-1.05,1.73-.19.3-.39.6-.59.89l-.05.07c-.2.3-.41.6-.63.89s-.58.79-.88,1.18-.45.58-.7.87l-.54.64-.76.87c-.51.57-1,1.12-1.58,1.65l-.84.8c-.28.28-.57.54-.86.79a42.68,42.68,0,0,1-3.46,2.76c-.37.27-.75.52-1.13.78s-.85.55-1.28.82l-1.31.77c-.62.36-1.24.69-1.87,1s-1.27.61-1.91.9L356,719l-1.49.61-.12,0c-.46.18-.93.35-1.4.51l-.27.09-1.28.41c-.53.15-1.05.3-1.58.43q-1.28.33-2.55.57l-1.29.22" fill="none" stroke="#1d160f" stroke-miterlimit="10" stroke-width="2"/><circle cx="439.44" cy="696.86" r="42.1" fill="none" stroke="#1d160f" stroke-miterlimit="10" stroke-width="2"/><path d="M341.22,696.34a69.9,69.9,0,0,0,1.5,14.49,68.66,68.66,0,0,0,2.18,8c.06.18.12.37.19.55.28.83.59,1.65.91,2.47a.09.09,0,0,0,0,.06l-.09,0c-.61.1-1.23.18-1.85.25l-.45,0a41.57,41.57,0,0,1-17.77-2.05h0l-.43-.14a41.78,41.78,0,0,1-14.55-8.78,38.72,38.72,0,0,1-2.91-3l-1.21-1.43,0,0A181.5,181.5,0,0,1,265,606.21a42.14,42.14,0,0,0,50.72,37.64c.52-.11,1-.23,1.53-.36a2.25,2.25,0,0,0,.35-.09c.22,0,.45-.11.66-.18,0,0,0,0,0,0a38.21,38.21,0,0,0,4.08-1.35l.3-.12,1.33-.56a41.85,41.85,0,0,1,24.62-2,42.55,42.55,0,0,1,4.91,1.41,41.79,41.79,0,0,1,9.58,4.83A70,70,0,0,0,341.22,696.34Z" fill="none" stroke="#1d160f" stroke-miterlimit="10" stroke-width="2"/><path d="M387.43,762.3a180.69,180.69,0,0,1-66.18-40.07q-5.52-5.21-10.59-10.89c-.92-1-1.81-2-2.69-3.06" fill="none" stroke="#1d160f" stroke-miterlimit="10" stroke-width="2"/><circle cx="445.44" cy="678.78" r="5.03" fill="none" stroke="#1d160f" stroke-miterlimit="10" stroke-width="2"/><circle cx="42.1" cy="87.52" r="42.1" fill="#e5361a"/><text transform="translate(20.4 168.99)" font-size="30" fill="#e30613" font-family="MyriadPro-Regular, Myriad Pro"><tspan letter-spacing="-0.01em">r</tspan><tspan x="9.51" y="0">ec</tspan></text><circle cx="229.76" cy="87.52" r="42.1" fill="#e5361a" opacity="0.2"/><circle cx="264.14" cy="87.52" r="42.1" fill="#e5361a" opacity="0.4"/><circle cx="298.53" cy="87.52" r="42.1" fill="#e5361a" opacity="0.6"/><circle cx="332.91" cy="87.52" r="42.1" fill="#e5361a" opacity="0.8"/><circle cx="367.29" cy="87.52" r="42.1" fill="#e5361a"/><path d="M721.66,78.69a42.1,42.1,0,1,1-42.1-42.1c1,0,2,0,2.92.1a42,42,0,0,0,26.75,12.13A42,42,0,0,1,721.66,78.69Z" fill="#e5361a"/><path d="M721.66,78.69a42.1,42.1,0,1,1-42.1-42.1c1,0,2,0,2.92.1a42,42,0,0,0,26.75,12.13A42,42,0,0,1,721.66,78.69Z" fill="url(#bc4eb20e-e8f4-4d6f-afa6-f86cfdf5e8c7)"/><path d="M669.49,136.11a42.15,42.15,0,0,1-56,36.51c-1-.35-2-.73-2.9-1.15a42.1,42.1,0,0,0,29.56-46.7,42.12,42.12,0,0,1,29.36,11.34Z" fill="#e5361a"/><path d="M718.42,51c-.87-.31-1.74-.58-2.62-.83l.85.23a66.82,66.82,0,0,0-7.42-1.54,72,72,0,0,0-9.52,0,70.13,70.13,0,0,0-56.34,41.27c-.17.4-.34.81-.52,1.21-.27.6-.55,1.19-.85,1.78-.17.34-.34.67-.52,1a1.09,1.09,0,0,1-.08.15c-.12.23-.24.45-.38.67-.39.69-.8,1.38-1.24,2.06-.19.3-.39.6-.59.89l-.05.07c-.2.3-.41.6-.63.89s-.58.79-.88,1.18-.45.58-.7.87l-.54.64-.76.87c-.51.57-1,1.12-1.58,1.65l-.84.8c-.28.28-.57.54-.86.79a42.68,42.68,0,0,1-3.46,2.76c-.37.27-.75.52-1.13.78s-.85.55-1.28.82l-1.31.77c-.62.36-1.24.69-1.87,1s-1.27.61-1.91.9l-.43.18-1.49.61-.12,0c-.46.18-.93.35-1.4.51l-.27.09-1.28.41c-.53.15-1,.3-1.58.43q-1.27.33-2.55.57l-1.29.22h0a68.4,68.4,0,0,0,6.31,12.35c.7,1.08,1.42,2.15,2.18,3.19a70.64,70.64,0,0,0,27.35,22.55c1.81.84,3.67,1.61,5.56,2.3l1,.33,2.85.92.14,0,.61.18a70.29,70.29,0,0,0,74.6-24.1,72.47,72.47,0,0,0,6.59-10,69.4,69.4,0,0,0,5.94-14.89,68.28,68.28,0,0,0,1.69-8.14h0a63.92,63.92,0,0,0,.67-7.1A42.12,42.12,0,0,0,718.42,51Z" fill="#e5361a"/><path d="M718.42,51c-.87-.31-1.74-.58-2.62-.83l.85.23a66.82,66.82,0,0,0-7.42-1.54,72,72,0,0,0-9.52,0,70.13,70.13,0,0,0-56.34,41.27c-.17.4-.34.81-.52,1.21-.27.6-.55,1.19-.85,1.78-.17.34-.34.67-.52,1a1.09,1.09,0,0,1-.08.15c-.12.23-.24.45-.38.67-.39.69-.8,1.38-1.24,2.06-.19.3-.39.6-.59.89l-.05.07c-.2.3-.41.6-.63.89s-.58.79-.88,1.18-.45.58-.7.87l-.54.64-.76.87c-.51.57-1,1.12-1.58,1.65l-.84.8c-.28.28-.57.54-.86.79a42.68,42.68,0,0,1-3.46,2.76c-.37.27-.75.52-1.13.78s-.85.55-1.28.82l-1.31.77c-.62.36-1.24.69-1.87,1s-1.27.61-1.91.9l-.43.18-1.49.61-.12,0c-.46.18-.93.35-1.4.51l-.27.09-1.28.41c-.53.15-1,.3-1.58.43q-1.27.33-2.55.57l-1.29.22h0a68.4,68.4,0,0,0,6.31,12.35c.7,1.08,1.42,2.15,2.18,3.19a70.64,70.64,0,0,0,27.35,22.55c1.81.84,3.67,1.61,5.56,2.3l1,.33,2.85.92.14,0,.61.18a70.29,70.29,0,0,0,74.6-24.1,72.47,72.47,0,0,0,6.59-10,69.4,69.4,0,0,0,5.94-14.89,68.28,68.28,0,0,0,1.69-8.14h0a63.92,63.92,0,0,0,.67-7.1A42.12,42.12,0,0,0,718.42,51Z" fill="url(#a1ae389e-11af-4754-a0b1-06e597010168)"/><circle cx="704.39" cy="90.65" r="42.1" fill="#e5361a"/><circle cx="704.39" cy="90.65" r="42.1" fill="url(#a091fcfe-7ed3-4f6f-a692-94289bcdad9f)"/><path d="M653.33,156.42l2.85.92C655.22,157.06,654.27,156.76,653.33,156.42Z" fill="#e5361a" stroke="#e30613" stroke-miterlimit="10" stroke-width="0.5"/><path d="M606.17,90.13a69.9,69.9,0,0,0,1.5,14.49,68.66,68.66,0,0,0,2.18,8c.06.18.12.37.19.55.28.83.59,1.65.91,2.47a.09.09,0,0,0,0,.06l-.09,0c-.61.1-1.23.18-1.85.25l-.45,0a41.57,41.57,0,0,1-17.77-2h0l-.43-.14A41.78,41.78,0,0,1,575.83,105a38.72,38.72,0,0,1-2.91-3l-1.21-1.43,0,0A181.5,181.5,0,0,1,529.9,0a42.11,42.11,0,0,0,31.66,37.27,42,42,0,0,0,19.06.37c.52-.11,1-.23,1.53-.36a2.25,2.25,0,0,0,.35-.09c.22,0,.45-.11.66-.18,0,0,0,0,0,0a38.21,38.21,0,0,0,4.08-1.35l.3-.12L588.9,35a41.85,41.85,0,0,1,24.62-2,42.55,42.55,0,0,1,4.91,1.41A41.79,41.79,0,0,1,628,39.25,70,70,0,0,0,606.17,90.13Z" fill="#e5361a"/><path d="M606.17,90.13a69.9,69.9,0,0,0,1.5,14.49,68.66,68.66,0,0,0,2.18,8c.06.18.12.37.19.55.28.83.59,1.65.91,2.47a.17.17,0,0,0,0,.06l-.09,0c-.61.1-1.23.18-1.85.25l-.45,0a41.57,41.57,0,0,1-17.77-2h0l-.43-.14A41.78,41.78,0,0,1,575.83,105a38.72,38.72,0,0,1-2.91-3l-1.21-1.43,0,0A181.5,181.5,0,0,1,529.9,0a42.11,42.11,0,0,0,31.66,37.27,42,42,0,0,0,19.06.37c.52-.11,1-.23,1.53-.36a2.25,2.25,0,0,0,.35-.09c.22,0,.45-.11.66-.18,0,0,0,0,0,0a38.21,38.21,0,0,0,4.08-1.35l.3-.12L588.9,35a41.85,41.85,0,0,1,24.62-2,42.55,42.55,0,0,1,4.91,1.41A41.79,41.79,0,0,1,628,39.25,70,70,0,0,0,606.17,90.13Z" fill="url(#fafdef01-e097-4198-9688-954aafaa7f0b)"/><path d="M619.47,131.24c-.76-1-1.48-2.11-2.18-3.19A68.49,68.49,0,0,1,611,115.69l-.09,0c-.61.1-1.23.18-1.85.25l-.45,0a41.57,41.57,0,0,1-17.77-2h0l-.43-.14A41.78,41.78,0,0,1,575.83,105a38.72,38.72,0,0,1-2.91-3h0c.88,1,1.77,2.05,2.69,3.06q5.07,5.67,10.59,10.89a180.69,180.69,0,0,0,66.18,40.07,70.58,70.58,0,0,1-32.91-24.85Z" fill="#e5361a"/><path d="M619.47,131.24c-.76-1-1.48-2.11-2.18-3.19A68.49,68.49,0,0,1,611,115.69l-.09,0c-.61.1-1.23.18-1.85.25l-.45,0a41.57,41.57,0,0,1-17.77-2h0l-.43-.14A41.78,41.78,0,0,1,575.83,105a38.72,38.72,0,0,1-2.91-3h0c.88,1,1.77,2.05,2.69,3.06q5.07,5.67,10.59,10.89a180.69,180.69,0,0,0,66.18,40.07,70.58,70.58,0,0,1-32.91-24.85Z" fill="url(#a1fd8c60-cd53-4d53-8a6f-49ab34caddcc)"/><path d="M699.71,48.8a78,78,0,0,0-56.34,41.27c8.49-23.18,31.68-40.19,56.34-41.27Z" fill="#8a1002"/><circle cx="710.39" cy="72.57" r="5.03" fill="#8a1002"/><path d="M663.33,81.36c-2.64,16.2,3.95,33.31,17.22,43a47.36,47.36,0,0,0,14.56,7.32,38.19,38.19,0,0,1-15.46-6c-14.18-9.23-21.38-28.09-16.32-44.31Z" fill="#8a1002"/><path d="M669.49,136.11a42.15,42.15,0,0,1-56,36.51c-1-.35-2-.73-2.9-1.15a42.1,42.1,0,0,0,29.56-46.7,42.12,42.12,0,0,1,29.36,11.34Z" fill="url(#b9a2037c-953c-4a73-bf74-ac83f74e33f6)"/><line x1="131.62" y1="69.73" x2="131.62" y2="110.62" fill="none" stroke="#1d1d1b" stroke-miterlimit="10" stroke-width="3"/><line x1="111.18" y1="90.17" x2="152.07" y2="90.17" fill="none" stroke="#1d1d1b" stroke-miterlimit="10" stroke-width="3"/><line x1="449.2" y1="90.17" x2="490.09" y2="90.17" fill="none" stroke="#1d1d1b" stroke-miterlimit="10" stroke-width="3"/><line x1="449.2" y1="81.36" x2="490.09" y2="81.36" fill="none" stroke="#1d1d1b" stroke-miterlimit="10" stroke-width="3"/></g></g></svg>