<svg xmlns="http://www.w3.org/2000/svg" xmlns:xlink="http://www.w3.org/1999/xlink" viewBox="0 0 723.21 539"><defs><linearGradient id="e66e7984-9273-450d-856a-2d1002bb3a77" x1="190.45" y1="484.79" x2="212.57" y2="484.79" gradientUnits="userSpaceOnUse"><stop offset="0.13" stop-color="#881811"/><stop offset="0.94" stop-color="#e5361a"/></linearGradient><radialGradient id="bf8c03da-6777-44aa-b43d-54104221749d" cx="397.72" cy="228.11" r="105.89" gradientUnits="userSpaceOnUse"><stop offset="0.2" stop-color="#be1823"/><stop offset="0.93" stop-color="#e5361a"/></radialGradient><radialGradient id="bb253d5c-1f8d-4dd6-a21a-62521e880e19" cx="416.62" cy="285.67" fx="294.3161876426966" fy="263.02031789536045" r="156.15" gradientUnits="userSpaceOnUse"><stop offset="0.1" stop-color="#f29104"/><stop offset="0.61" stop-color="#e95413"/><stop offset="0.9" stop-color="#e5361a"/></radialGradient><radialGradient id="f9e0c232-e549-4f2a-b2fc-bcee5633e0da" cx="528.51" cy="256.8" fx="647.0784155822325" fy="51.630181232890465" r="236.97" gradientUnits="userSpaceOnUse"><stop offset="0.21" stop-color="#f29104"/><stop offset="0.28" stop-color="#f08407"/><stop offset="0.41" stop-color="#eb630f"/><stop offset="0.55" stop-color="#e5361a"/><stop offset="0.61" stop-color="#dc3319"/><stop offset="0.72" stop-color="#c22b17"/><stop offset="0.86" stop-color="#991e13"/><stop offset="0.91" stop-color="#881811"/></radialGradient><radialGradient id="aa5914a8-a71c-405a-b744-870c418c4aec" cx="186.17" cy="191.43" fx="221.7691579165622" fy="-14.888502342915643" r="243.29" gradientUnits="userSpaceOnUse"><stop offset="0.36" stop-color="#e5361a"/><stop offset="0.43" stop-color="#e2351a"/><stop offset="0.49" stop-color="#d93219"/><stop offset="0.54" stop-color="#c92d17"/><stop offset="0.58" stop-color="#b22615"/><stop offset="0.63" stop-color="#951c12"/><stop offset="0.64" stop-color="#881811"/></radialGradient><linearGradient id="a0d442f4-60fe-4fd5-a18d-dad9a119da7c" x1="182.49" y1="369.77" x2="363.8" y2="269.21" gradientUnits="userSpaceOnUse"><stop offset="0.25" stop-color="#881811"/><stop offset="0.47" stop-color="#e5361a"/></linearGradient><linearGradient id="b6790991-fd87-4c5c-b399-7e24407e04c5" x1="407.94" y1="282.51" x2="260.25" y2="506.14" gradientUnits="userSpaceOnUse"><stop offset="0.02" stop-color="#f29104"/><stop offset="0.06" stop-color="#ef7d09"/><stop offset="0.14" stop-color="#eb5e10"/><stop offset="0.22" stop-color="#e84816"/><stop offset="0.3" stop-color="#e63b19"/><stop offset="0.37" stop-color="#e5361a"/><stop offset="0.4" stop-color="#dd3319"/><stop offset="0.55" stop-color="#b82816"/><stop offset="0.69" stop-color="#9e1f13"/><stop offset="0.82" stop-color="#8e1a12"/><stop offset="0.92" stop-color="#881811"/></linearGradient></defs><g id="f080d8fd-461a-4d76-8075-1ed6a8400dfb" data-name="Warstwa 2"><g id="a00b2e73-d528-466a-854c-8cb93e6b55be" data-name="Warstwa 1"><path d="M366.6,537H344.48V493.62q0-11.13-10.59-12.11c-7.42,0-11.24,4.61-11.53,13.91V537H300.25V493.62q0-11.13-10.59-12.11c-7.42,0-11.24,4.61-11.53,13.91V537H256V461.2h22.12v8.86c3.31-5.91,9.87-8.86,19.74-8.86,8.72,0,15.2,3.24,19.31,9.72q5.73-9.72,21.39-9.72,25.4,0,28,30.47Z" fill="#1e1e1c"/><path d="M388.79,527.84a37.49,37.49,0,0,1-11.38-27.74q0-16.53,11.38-27.67a39.69,39.69,0,0,1,55.33,0c7.56,7.43,11.38,16.65,11.38,27.67a37.53,37.53,0,0,1-11.38,27.74,39.87,39.87,0,0,1-55.33,0Zm39.69-15.13c3.25-3.17,4.9-7.35,4.9-12.61s-1.65-9.44-4.9-12.61a16.44,16.44,0,0,0-12-4.75,16.62,16.62,0,0,0-12.1,4.75c-3.24,3.17-4.83,7.35-4.83,12.61s1.59,9.44,4.83,12.61a16.62,16.62,0,0,0,12.1,4.75A16.44,16.44,0,0,0,428.48,512.71Z" fill="#1e1e1c"/><path d="M473.51,510.62V484.54H461.7V463.29h11.81v-14l22.12-6.63v20.61h15.13v21.25H495.63v26.08q0,4.75,3.89,5.83a23.67,23.67,0,0,0,6.55.72c1.45,0,3-.07,4.69-.21v20a81.75,81.75,0,0,1-9,.57Q473.55,537.56,473.51,510.62Z" fill="#1e1e1c"/><path d="M530.06,451.11a13,13,0,0,1-3.89-9.44,13.4,13.4,0,0,1,13.33-13.25,13.53,13.53,0,0,1,13.26,13.25A13.4,13.4,0,0,1,539.5,455,13,13,0,0,1,530.06,451.11Z" fill="#1e1e1c"/><rect x="528.41" y="461.48" width="22.12" height="75.57" fill="#1e1e1c"/><path d="M575,527.84a37.49,37.49,0,0,1-11.38-27.74q0-16.53,11.38-27.67a39.69,39.69,0,0,1,55.33,0c7.56,7.43,11.38,16.65,11.38,27.67a37.53,37.53,0,0,1-11.38,27.74,39.87,39.87,0,0,1-55.33,0Zm39.69-15.13c3.25-3.17,4.9-7.35,4.9-12.61s-1.65-9.44-4.9-12.61a16.44,16.44,0,0,0-12-4.75,16.62,16.62,0,0,0-12.1,4.75c-3.24,3.17-4.83,7.35-4.83,12.61s1.59,9.44,4.83,12.61a16.62,16.62,0,0,0,12.1,4.75A16.44,16.44,0,0,0,614.64,512.71Z" fill="#1e1e1c"/><path d="M723.21,537H701.1V494.91q0-13.4-12.32-13.4h-.51c-8.14,0-12.68,5.05-13.69,15.2V537H652.47V461.2h22.11v9c4.33-6,11.31-9,21-9A27.28,27.28,0,0,1,715,469q8.21,7.77,8.21,22.69Z" fill="#1e1e1c"/><path d="M147.91,526.18c-7.23-7.49-10.88-16.71-10.88-27.74s3.65-20.24,10.88-27.66a36.76,36.76,0,0,1,52.92,0c7.23,7.42,10.88,16.64,10.88,27.66s-3.65,20.25-10.88,27.74a36.92,36.92,0,0,1-52.92,0Zm39.21-15.13c3.1-3.17,4.69-7.35,4.69-12.61s-1.59-9.44-4.69-12.61-8.13-4.75-12.75-4.75a15.55,15.55,0,0,0-11.57,4.75c-3.1,3.17-4.62,7.35-4.62,12.61s1.52,9.44,4.62,12.61a15.51,15.51,0,0,0,11.57,4.75C179,515.8,184,514.22,187.12,511.05Z" fill="#e5361a"/><path d="M22.12,537.2H0V462.06H22.12v14.55a18.9,18.9,0,0,1,8.79-10.95,26.89,26.89,0,0,1,13.32-3.6v25.07a25.91,25.91,0,0,0-4-.36c-12.1,0-18.15,5.69-18.15,17.15Z" fill="#e5361a"/><path d="M52.3,498.51q0-16.53,10.88-27.66T91.5,459.61q16.2,0,26.8,11.1c7.13,7.42,10.66,16.64,10.66,27.8a43.82,43.82,0,0,1-.87,8.87H75.72c3.67,6.84,9.58,10.3,17.72,10.3,6,0,10.74-1.88,14.12-5.62l17.72,10.23c-7.42,10.08-18.08,15.13-32.13,15.13Q55.33,537.42,52.3,498.51ZM107,490.88c-1.23-4.25-3.32-7.21-6.27-9a17.62,17.62,0,0,0-9.37-2.66c-8.43,0-13.76,3.89-16.06,11.67Z" fill="#e5361a"/><path d="M190.45,468.69V443.11l22.12-10.88V537.35H190.45V468.69Z" fill="url(#e66e7984-9273-450d-856a-2d1002bb3a77)"/><path d="M538,197.93A105.89,105.89,0,1,1,432.09,92c2.47,0,4.93.08,7.35.26a105.58,105.58,0,0,0,67.28,30.51A105.52,105.52,0,0,1,538,197.93Z" fill="#e5361a"/><path d="M538,197.93A105.89,105.89,0,1,1,432.09,92c2.47,0,4.93.08,7.35.26a105.58,105.58,0,0,0,67.28,30.51A105.52,105.52,0,0,1,538,197.93Z" fill="url(#bf8c03da-6777-44aa-b43d-54104221749d)"/><path d="M406.76,342.35a106,106,0,0,1-140.9,91.83c-2.49-.88-4.93-1.84-7.3-2.89a105.9,105.9,0,0,0,74.35-117.47,106,106,0,0,1,73.85,28.53Z" fill="#e5361a"/><path d="M529.84,128.18c-2.19-.78-4.38-1.46-6.59-2.09.73.18,1.43.38,2.13.58-6.16-2-12.22-2.57-18.66-3.87-7.82-.18-16-.93-23.94,0a176.4,176.4,0,0,0-141.72,103.8c-.42,1-.85,2-1.3,3q-1,2.25-2.14,4.47c-.43.86-.86,1.69-1.31,2.52a2.24,2.24,0,0,1-.2.37,18.81,18.81,0,0,1-1,1.69c-1,1.74-2,3.47-3.11,5.18-.48.76-1,1.51-1.49,2.24-.05.05-.07.13-.12.18-.51.75-1,1.51-1.59,2.23-.73,1-1.46,2-2.21,3-.56.76-1.13,1.46-1.76,2.19l-1.36,1.61-1.91,2.19c-1.29,1.43-2.62,2.82-4,4.15-.7.68-1.41,1.36-2.11,2s-1.43,1.36-2.16,2a107.2,107.2,0,0,1-8.71,6.94c-.93.68-1.88,1.31-2.84,2s-2.14,1.39-3.22,2.07-2.19,1.3-3.29,1.93c-1.56.91-3.12,1.74-4.71,2.54s-3.19,1.54-4.8,2.27c-.35.15-.73.32-1.08.45-1.24.53-2.49,1-3.75,1.53-.1,0-.2.08-.3.1-1.16.46-2.34.88-3.52,1.29l-.68.22c-1.06.36-2.14.71-3.22,1-1.34.38-2.64.76-4,1.09q-3.19.83-6.41,1.43c-1.08.2-2.16.38-3.25.55v0a172.44,172.44,0,0,0,15.88,31.06c1.76,2.72,3.57,5.41,5.48,8a177.85,177.85,0,0,0,68.79,56.72q6.84,3.17,14,5.78l2.39.83c2.36.78,4.78,1.56,7.17,2.31a2.09,2.09,0,0,0,.35.13c.5.15,1,.33,1.53.45a176.8,176.8,0,0,0,187.64-60.62,182.13,182.13,0,0,0,16.58-25.27A174.69,174.69,0,0,0,594.33,273a172.31,172.31,0,0,0,4.25-20.47v0a159.33,159.33,0,0,0,1.68-17.85A105.93,105.93,0,0,0,529.84,128.18Z" fill="#e5361a"/><path d="M529.84,128.18c-2.19-.78-4.38-1.46-6.59-2.09.73.18,1.43.38,2.13.58-6.16-2-12.22-2.57-18.66-3.87-7.82-.18-16-.93-23.94,0a176.4,176.4,0,0,0-141.72,103.8c-.42,1-.85,2-1.3,3q-1,2.25-2.14,4.47c-.43.86-.86,1.69-1.31,2.52a2.24,2.24,0,0,1-.2.37,18.81,18.81,0,0,1-1,1.69c-1,1.74-2,3.47-3.11,5.18-.48.76-1,1.51-1.49,2.24-.05.05-.07.13-.12.18-.51.75-1,1.51-1.59,2.23-.73,1-1.46,2-2.21,3-.56.76-1.13,1.46-1.76,2.19l-1.36,1.61-1.91,2.19c-1.29,1.43-2.62,2.82-4,4.15-.7.68-1.41,1.36-2.11,2s-1.43,1.36-2.16,2a107.2,107.2,0,0,1-8.71,6.94c-.93.68-1.88,1.31-2.84,2s-2.14,1.39-3.22,2.07-2.19,1.3-3.29,1.93c-1.56.91-3.12,1.74-4.71,2.54s-3.19,1.54-4.8,2.27c-.35.15-.73.32-1.08.45-1.24.53-2.49,1-3.75,1.53-.1,0-.2.08-.3.1-1.16.46-2.34.88-3.52,1.29l-.68.22c-1.06.36-2.14.71-3.22,1-1.34.38-2.64.76-4,1.09q-3.19.83-6.41,1.43c-1.08.2-2.16.38-3.25.55v0a172.44,172.44,0,0,0,15.88,31.06c1.76,2.72,3.57,5.41,5.48,8a177.85,177.85,0,0,0,68.79,56.72q6.84,3.17,14,5.78l2.39.83c2.36.78,4.78,1.56,7.17,2.31a2.09,2.09,0,0,0,.35.13c.5.15,1,.33,1.53.45a176.8,176.8,0,0,0,187.64-60.62,182.13,182.13,0,0,0,16.58-25.27A174.69,174.69,0,0,0,594.33,273a172.31,172.31,0,0,0,4.25-20.47v0a159.33,159.33,0,0,0,1.68-17.85A105.93,105.93,0,0,0,529.84,128.18Z" fill="url(#bb253d5c-1f8d-4dd6-a21a-62521e880e19)"/><circle cx="494.55" cy="228.01" r="105.89" fill="#e5361a"/><circle cx="494.55" cy="228.01" r="105.89" fill="url(#f9e0c232-e549-4f2a-b2fc-bcee5633e0da)"/><path d="M366.12,393.44c2.36.78,4.78,1.56,7.17,2.31C370.87,395.05,368.48,394.3,366.12,393.44Z" fill="#e5361a" stroke="#e20e17" stroke-miterlimit="10" stroke-width="1.26"/><path d="M247.5,226.7a175.86,175.86,0,0,0,3.77,36.45,172.56,172.56,0,0,0,5.49,20.1c.15.45.3.93.47,1.38.71,2.09,1.49,4.15,2.29,6.21a.22.22,0,0,0,.08.15.64.64,0,0,1-.23.05c-1.53.25-3.09.46-4.65.63-.38.05-.76.08-1.13.1a104.56,104.56,0,0,1-44.7-5.15h0c-.35-.1-.72-.23-1.08-.36a105,105,0,0,1-36.59-22.08,95.33,95.33,0,0,1-7.32-7.45c-1-1.2-2-2.38-3.05-3.59l0,0A456.5,456.5,0,0,1,55.66,0a105.89,105.89,0,0,0,79.63,93.74,105.74,105.74,0,0,0,47.94.94c1.31-.28,2.57-.58,3.85-.91a5.71,5.71,0,0,0,.88-.23,15,15,0,0,0,1.66-.45s0,0,.08,0A97.82,97.82,0,0,0,200,89.67l.75-.3c1.14-.45,2.24-.93,3.35-1.41A105.31,105.31,0,0,1,266,83a107,107,0,0,1,12.35,3.55,105.08,105.08,0,0,1,24.09,12.14A176.13,176.13,0,0,0,247.5,226.7Z" fill="#e5361a"/><path d="M247.5,226.7a175.86,175.86,0,0,0,3.77,36.45,172.56,172.56,0,0,0,5.49,20.1c.15.45.3.93.47,1.38.71,2.09,1.49,4.15,2.29,6.21a.74.74,0,0,0,.08.15,1.89,1.89,0,0,1-.23.05c-1.53.25-3.09.46-4.65.63-.38.05-.76.08-1.13.1a104.56,104.56,0,0,1-44.7-5.15h0c-.35-.1-.72-.23-1.08-.36a105,105,0,0,1-36.59-22.08,95.33,95.33,0,0,1-7.32-7.45c-1-1.2-2-2.38-3.05-3.59l0,0A456.5,456.5,0,0,1,55.66,0a105.89,105.89,0,0,0,79.63,93.74,105.74,105.74,0,0,0,47.94.94c1.31-.28,2.57-.58,3.85-.91a5.71,5.71,0,0,0,.88-.23,15,15,0,0,0,1.66-.45s0,0,.08,0A97.82,97.82,0,0,0,200,89.67l.75-.3c1.14-.45,2.24-.93,3.35-1.41A105.31,105.31,0,0,1,266,83a107,107,0,0,1,12.35,3.55,105.08,105.08,0,0,1,24.09,12.14A176.13,176.13,0,0,0,247.5,226.7Z" fill="url(#aa5914a8-a71c-405a-b744-870c418c4aec)"/><path d="M281,330.11c-1.91-2.62-3.72-5.31-5.48-8A172,172,0,0,1,259.6,291a.64.64,0,0,1-.23.05c-1.53.25-3.09.46-4.65.63-.38.05-.76.08-1.13.1a104.56,104.56,0,0,1-44.7-5.15h0c-.35-.1-.72-.23-1.08-.36a105,105,0,0,1-36.59-22.08,95.33,95.33,0,0,1-7.32-7.45h0c2.21,2.6,4.45,5.16,6.76,7.7q12.75,14.26,26.64,27.39A454.37,454.37,0,0,0,363.73,392.61,177.6,177.6,0,0,1,281,330.11Z" fill="#e5361a"/><path d="M281,330.11c-1.91-2.62-3.72-5.31-5.48-8A172,172,0,0,1,259.6,291a.64.64,0,0,1-.23.05c-1.53.25-3.09.46-4.65.63-.38.05-.76.08-1.13.1a104.56,104.56,0,0,1-44.7-5.15h0c-.35-.1-.72-.23-1.08-.36a105,105,0,0,1-36.59-22.08,95.33,95.33,0,0,1-7.32-7.45h0c2.21,2.6,4.45,5.16,6.76,7.7q12.75,14.26,26.64,27.39A454.37,454.37,0,0,0,363.73,392.61,177.6,177.6,0,0,1,281,330.11Z" fill="url(#a0d442f4-60fe-4fd5-a18d-dad9a119da7c)"/><path d="M482.78,122.75a207.41,207.41,0,0,0-54.14,17.47c-2.89,1.32-7.16,3.8-10,5.29s-6.92,4.19-9.7,5.85-6.68,4.64-9.31,6.45c-1.34.87-3.23,2.45-4.5,3.44-.78.62-4.84,3.8-5.55,4.39a205.09,205.09,0,0,0-48.49,60.91c9.95-27.14,28.25-51.34,51-69.22l3.4-2.74c2.17-1.52,6.22-4.3,8.39-5.8,1.58-1.14,5.74-3.51,7.45-4.56a113,113,0,0,1,10.26-5.48,154.9,154.9,0,0,1,61.25-16Z" fill="#881811"/><circle cx="509.64" cy="182.54" r="12.65" fill="#881811"/><path d="M391.27,204.66c-4.15,27.21,1.08,55.36,15.86,78.53,14.56,23.31,37.72,40.13,64.06,48.11-20.74-3-40.51-13.62-55.17-28.75-24.74-25.13-35.28-64.09-24.75-97.89Z" fill="#881811"/><path d="M406.76,342.35a106,106,0,0,1-140.9,91.83c-2.49-.88-4.93-1.84-7.3-2.89a105.9,105.9,0,0,0,74.35-117.47,106,106,0,0,1,73.85,28.53Z" fill="url(#b6790991-fd87-4c5c-b399-7e24407e04c5)"/></g></g></svg>