<svg xmlns="http://www.w3.org/2000/svg" xmlns:xlink="http://www.w3.org/1999/xlink" viewBox="0 0 952.17 717.35"><defs><clipPath id="b07bd1d1-fadd-4fa0-a25e-5df747e468b2" transform="translate(41.6 23.28)"><rect width="875.94" height="656.88" fill="none"/></clipPath></defs><g id="ad0910f4-8203-4f1a-a05e-ff3d9d681e8d" data-name="Warstwa 2"><g id="aed7b37c-c93e-4e48-b929-4c216b5bd248" data-name="Warstwa 1"><g clip-path="url(#b07bd1d1-fadd-4fa0-a25e-5df747e468b2)"><path d="M555.26,621.24l19.77-3s30.12-2.13,36.5-11.25,10.65-18,5.78-26.16-4.56-12.48-16.42-9.43-16.74,1.51-16.43,10-2.13,13.39,1.83,15.82,18.55-3,18.55-3c-8.52,7.3-25.25,10.34-25.25,10.34s-3.34,1.83-2.12-6.08,1.22-12.47.91-13.69S582,569.23,582,569.23a9.78,9.78,0,0,1,8.82-4.87c6.08.3,17.64-1.21,20.68-1.82s6.4-.92,7,3.34-1.52,3.35.91,8.82,6.09,6.69,5.48,14.6-3.35,12.17-5.78,17.34-4,6.39-.91,8.83-2.44,3.65,4.56,5.77,14.6-.6,17.64-.3c0,0-1.22-3.35,7.3-6.08s9.43-4.26,20.69-4.57,11.55-.91,17.64,1.22,5.17,2.74,10.65,2.43,5.47-11,5.47-11l-.3-15.21L689.1,589,687,578.66l15.21,1.22-1.52-10.65,8.21,1.21.61,10,8.52-.6-.3,9.12-7.91-1.52.6,28,2.74.91a21.17,21.17,0,0,0,8.52,2.74c4.56.3,8.22-.31,9.73-1.83s1.52-18.86,7.61-19.47,11,0,11.86,3,2.44,12.47,2.44,12.47.91,2.75,2.12,3,7.91,1.82,9.74,1.82,6.69-.91,11.56-.3,11.56-.31,15.82-1.22,12.77.61,15.51.91,60.54-8.21,63-8.51,9.73,3,11.55,15.2,36.2,29.51-.91,41.68-261.6-6.69-277.42-6.69" transform="translate(41.6 23.28)" fill="#232021" stroke="#232021" stroke-miterlimit="10" stroke-width="2.68"/><path d="M788.54,614.91c0-.09-.15-8.21-.43-8.36a6.73,6.73,0,0,0-.78-.33l-.34-1.13-.24-1.39-.73-3.06-1-1.33-.48-.94-1.79-1.85-.4-2.44.44-.65.18-1,.28-.2.68.2,0,.81,0,.77-.34.64.17.32.9.55a4.19,4.19,0,0,1,.63.46c0,.05.3.2.3.2l.34-.21-1.4-2-.77-2.06,0-3.52.88-.44.7.06,0,1.47-.15,1.21.41.94.42.87,1.55,1.69.42.14.29-.58-.62-1.56-.52-1.39.08-1.35-.24-.85-.35-1.45-.21-1.48,1-.5.68.12.43,1.06.27,1.5.3,1.05.45,1.45.23,1.14.2,1.57.41.8,1-.26s.45-.81.44-.86.35-2.11.35-2.11l.36-1s-.22-1.48-.22-1.53.14-1.38.14-1.43.26-1.21.26-1.21l.62-.38,1,.32.15.94,0,1.51,0,2.29-.06,3a4.1,4.1,0,0,1,.14.81,12.9,12.9,0,0,0-.17,1.69c0,.05.5,1.69.5,1.69l.59.74h1.12l1.31-1.92,0-2.14,1.05-1.51,1,.07.21.59-.22,2,.33.68s-.35.86-.36.94-.52,1.18-.52,1.18l-.5,2.51-1.45,2s-1.37,2.21-1.46,2.39-.73,1.3-.73,1.3l.19,1.94-.5,4.67.09,5.05-6.78.36Z" transform="translate(41.6 23.28)" fill="#232021"/><path d="M672.31,595.73l.83-.17a3.86,3.86,0,0,0,.23-.83c0-.06-.6-1.49-.6-1.49l0-1.39.35-.63.86-.1.74,1.45.1,1.75.5.15,0-1.36.25-2.56.26-.76,1.63-.54,1.37-.11-.07.75,0,.8-1,.23s-.43,1.44-.44,1.51-.17,1.89-.17,1.89l.49.22.58-.41,1.78-2.24.92-.58,1.1.14,1.29.24,0,.73-1.23.28-1,.64a6.53,6.53,0,0,1-.67,1,13.55,13.55,0,0,0-1.08,1.2s-.19,1.71-.21,2a8.21,8.21,0,0,0-.23,1.61,10.3,10.3,0,0,1,1.18,1.36c.14.3.93.69,1.14.79a7.64,7.64,0,0,1,.71.49,4,4,0,0,0-.35,1.22c.08.21-1.59.07-1.59.07l-1.62-1-.86.33a2.07,2.07,0,0,1,.36.54c0,.15.55,6.19.55,6.19s.81,2.84,1,3.95-4.48-.37-4.48-.37l-1.27-7-.58-3.26-.66-2.61-1.15-2-1.44-2.21-.23-1.28.76-.74,1.3,1.45Z" transform="translate(41.6 23.28)" fill="#232021"/><path d="M651.58,611.44s0-2.13-.2-2.17a13.4,13.4,0,0,1-1.67-1.47l-.47-1.68s-.71-.92-.84-1.16-1-1.79-1-1.79l-.64-1.08.91-.61.86.7a5.57,5.57,0,0,1,.93.27c0,.07.67-.88.67-.88l-1-1.51-1-.58-.86-.2-1.13.6-.27-.56-.14-.61.94-1,1.19-.26a7.57,7.57,0,0,1,1.32.21c.12.11,1.48,1.19,1.66,1.42a14.33,14.33,0,0,1,1.12,1.37c.24.43.63-.66.56-.77s-.4-1.75-.4-1.75l-.67-1.75-.7-1.38-1.57,0-.5-.77.46-.65,2.57,0,1.13,1a16.27,16.27,0,0,1,1,2c0,.22.32,2.14.31,2.73s.45-1.47.45-1.47a13.54,13.54,0,0,0-.23-2.58c-.19-.28-1.56-3.06-1.56-3.06l1.11-.8,1.08.57.19,1.15a10.13,10.13,0,0,1,.94,2.89,21.16,21.16,0,0,1,0,2.6,10.38,10.38,0,0,0,0,1.83c0,.21,0,2.07,0,2.32a3,3,0,0,0,.39.75,8,8,0,0,0,.75-1.14c0-.19,1.28-2.77,1.28-2.77l.17-1.67.47.38,1.19.21s-.8,2.39-.86,2.48a21.76,21.76,0,0,0-.82,3,8.86,8.86,0,0,1-.48,2.2c-.2.46-1.91,2.42-1.92,2.61a11.61,11.61,0,0,0,0,1.34c0,.13.8,5.58.86,6.06s-4.22,1.34-4.22,1.34Z" transform="translate(41.6 23.28)" fill="#232021"/><path d="M190.76,626.41s-12.32-1.82-21.22-7.75-5.7-9.13-14.83-12.1-8.21-7.75-19.62-8-22.13-1.37-30.57.46a137.93,137.93,0,0,1-19.39,2.28l3,3.42,11.18,1.37,14.83-2.06.45,7.31S107.49,615,102,613.64s-10-1.14-15.74-2.51-9.12-3.65-10.26-7.76-10.5-3.65-14.83.23-1.6,6.39-5.25,7.3-11,.23-14.15.23-38.32-6-50.49-5.1-1.9-17.31-30.11.61c-4.69,3,11.08,5.24,8.69,8.64-4.9,7-12.3,15.69-9.53,22.59,15.74,39.23-7.38,51.51,74.45,50S117.23,655.31,202.4,666s77.26-14.3,70.57-14.3-82.21-25.25-82.21-25.25" transform="translate(41.6 23.28)" fill="#232021" stroke="#232021" stroke-miterlimit="10" stroke-width="2.68"/><path d="M189.85,628.69s16,1.6,19.39,1.6,10.95-1.14,20.08,0,15.05,4.11,24.86,3.42a118.47,118.47,0,0,0,22.13-3.42,106.89,106.89,0,0,0,13-3.88c3.88-1.37,2.74-2,7.07-1.59a61,61,0,0,0,11.18-.46s-.46,5.7,7.07,7.3,24.87.23,31.71-.23a122,122,0,0,0,23-4.33c4.79-1.6,28.51,2,28.51,2a177.59,177.59,0,0,1,21,1.37c9.81,1.37,24.19-3,24.19-3l5.93-2.73s4.79.45,5.93,1.59,3.88,5.93,8.9,6.85,89-2.06,89-2.06l12.55-6.84s13.46,3.19,15.06,4.11,32.62,23.95,34,26.69,2.06,23,1.37,23.5-203.5,14.07-203.5,14.07-146.93-1.83-148.75-2.13-100.69-18.26-104-18.86S189.85,628.69,189.85,628.69Z" transform="translate(41.6 23.28)" fill="#232021" stroke="#232021" stroke-miterlimit="10" stroke-width="2.68"/><path d="M726.29,574l5.31-7.31,15.17-5.87L760,565.3l11,17.85s-10.57-8.61-14.24-8.37-4.16,4.65-4.16,4.65c-1.47-2.2-5.62-5.63-5.62-5.63l-3.68,6.86c-.48-4.41-3.18-6.86-4.4-6.61s-7.34,7.58-7.34,7.58-5.14,2.45-5.38,4.41A38.89,38.89,0,0,1,726.29,574Z" transform="translate(41.6 23.28)" fill="#232021" stroke="#232021" stroke-miterlimit="10" stroke-width="1.08"/><path d="M739.79,564.87s3.92-5.62,4.41-11c.49,3.92,3.3,8.69,3.3,8.69" transform="translate(41.6 23.28)" fill="#232021" stroke="#232021" stroke-miterlimit="10" stroke-width="1.08"/><path d="M745,571.91l3.12,33.21s-2.2,5.5-6.24-1.1" transform="translate(41.6 23.28)" fill="none" stroke="#232021" stroke-miterlimit="10" stroke-width="1.47"/><path d="M843.59,415.17c-.57.54-4,1.54-5,1s-5.41,0-5.92-.31a34.82,34.82,0,0,1-3-3s4.82.43,4.15,0-6.36-2.81-5-3.27,4.58-.34,3.83-1.37-2.42-3.24-2.42-3.24,4.4-.48,3.14-1.78-6.16-2.5-5.15-3.41,5.17-3.74,5.17-3.74-4.63-1.57-2.15-2.15,4.74-1.8,5.52-1.88a23.17,23.17,0,0,0,3.65-1.52l3.16-4.64.65-5.63s-2.07,1.49-2,2a6.35,6.35,0,0,1-1.71,3.22c-.87.73-5.87,3-6.45,3.57s-4.45,1.44-4.45,1.44l-.16-2.85s-2.3-.7-1.9-1.38a21.67,21.67,0,0,0,1.07-3.3l1.82.6,1.74-1.47,1.93-4.25s7.19-8.95,2.7-18.9a26,26,0,0,1-2,6s-10.25-2.7-13.37-.09c-.57-.83-.53-7.58-.53-7.58s-13.37,13.14-.36,24.34c.38.33-12.33,6.44-12.33,6.44s18.1-3.1,11.38-.61-1.73,3.05-1.73,3.05l-7.36,4,6.37-1.33-2.78,3.64,2.46,2.12-.6,3.24L818.6,399l-.81,5.65,3.88-.9-5.71,4.6,5.56-.13-3.43,3.56,5-.4-7.8,5.79,6.25.43-2.46,2.17-5.51,4.91-8.09,4.54s-9.09,2.74-10.23-.47-1.07-6.88.06-8.12,4.43-1.6,4.93-1.5,1.14,1.79,1.06,2.43.73-2,.73-2a20.87,20.87,0,0,0-3-2.38c-.49-.11-4.8-.27-5.56,1.56s-1.9,2.91-2,4.52-1.78,4-.63,5.79,1,3.39,3.29,3.94,1.31.33,5.31.53,3.49,1.37,8.66-.79,6.88-1.07,10.41-5.11,1.72-4.65,4.75-6.09a8.85,8.85,0,0,1,6-.5l3.05,1.73s4.52-.81,5.46-.91,4.22-2.21,5.13-2.63,3.56-2.3,4.19-2.37.2-2.57.2-2.57S844.17,414.63,843.59,415.17Zm-10.94-48.8c4.13,13.15-4.09,6.7-6.17,5.23C829.82,370.58,832.65,366.37,832.65,366.37Zm-13.94.45s3.68,3.49,7.16,3.76C824.16,372.47,817.53,380.55,818.71,366.82Z" transform="translate(41.6 23.28)" fill="#232021"/><line x1="864.49" y1="391.52" x2="861.46" y2="398.57" fill="#232021" stroke="#232021" stroke-miterlimit="10" stroke-width="0.98"/><line x1="869.28" y1="391.72" x2="875.11" y2="398.12" fill="#232021" stroke="#232021" stroke-miterlimit="10" stroke-width="1.2"/><line x1="852.96" y1="400.96" x2="866.33" y2="398.84" fill="#232021" stroke="#232021" stroke-miterlimit="10" stroke-width="0.47"/><line x1="855.35" y1="403.26" x2="865.62" y2="399.51" fill="#232021" stroke="#232021" stroke-miterlimit="10" stroke-width="0.47"/><line x1="869.92" y1="398.98" x2="878.64" y2="401.25" fill="#232021" stroke="#232021" stroke-miterlimit="10" stroke-width="0.47"/><line x1="869.14" y1="400.62" x2="878.14" y2="403.27" fill="#232021" stroke="#232021" stroke-miterlimit="10" stroke-width="0.47"/><path d="M852.15,517.82l-20-245,76-84.4-7.23-55.67L907,458.42,906.29,519s-4.26-4.87-50.49,94.9c0,0-.92-11-8.9-17.19s-13.46-3.87-19.17-2.28c-7.75-1.14-12.85-18.85-12.85-18.85l3.5-10.2L829,558.58s8.67,1.07,9.58,1.52,5.18,7.45,5.33,8.06,1.37,5.33.45,8.07-5.93,7.3-6.54,7.75-5.93,2-7.45,1.52-3.5-4.41-4.11-5.32-.76-6.69-.76-6.69l3.2-5s4.71-.3,5.17,0,4.1,2.74,4.25,3.65-1.21,5.17-1.21,5.17l-4.87,1.37-1.6-2,1.83-.12,2.05-.34.8-3.08L833.67,571a12.67,12.67,0,0,0-2.06,0,10,10,0,0,0-2.73,2.06,6.21,6.21,0,0,0-.8,2.51,8.65,8.65,0,0,0,.57,4.33,4.41,4.41,0,0,0,1.71,2.17c.34.11,3.08.11,3.42.11s3.65-1.14,3.65-1.14a16.08,16.08,0,0,0,2.4-3.08c.22-.8,1.82-3,1.59-4.22s-.57-4.79-1-5.59a13.31,13.31,0,0,0-4-3.53,72.08,72.08,0,0,0-7.52-1.26,41.24,41.24,0,0,1-3.2,3.2,33,33,0,0,0-4.33,5,38.8,38.8,0,0,1,.68,5.37c-.11,1.36-.57,8.1-.11,8.44a42,42,0,0,0,4.22,1.82,19.1,19.1,0,0,0,4.68,1c1.59,0,8.21-.12,9.35-.46s4.11,0,4.79-1.25,1.94-1.94,3.19-4.22,3.77-10.27,4.11-10.84.23-10.61.23-10.61L843.7,549.3s7.69-9.2,5.86-9-2.28-5.48-2.28-5.48l-7.23-5.4,3.88-7.53s1.6,2.51,2.28,3.43S852.15,517.82,852.15,517.82Z" transform="translate(41.6 23.28)" fill="#232021"/><polyline points="886.9 447.7 884.16 429.67 887.13 418.04 885.99 409.82 886.9 397.05 883.25 387.24 886.9 379.03 882.34 365.34" fill="none" stroke="#fff" stroke-miterlimit="10" stroke-width="0.91"/><path d="M840.74,351.41l-.69,6.85L842.56,369l-.45,6.39s-.69,5.93-.23,6.84.91,6.62.68,7.76-1.36,6.84-1.36,6.84" transform="translate(41.6 23.28)" fill="none" stroke="#fff" stroke-miterlimit="10" stroke-width="0.91"/><path d="M847.58,381.3l3.2,9.81L848.5,398s-1.14,6.62-.92,7.3.23,6.16-.45,6.62,1.82,7.07,1.82,7.07v5.71l2.51,4.33-1.14,4.79s3,5.48,1.83,7.53-3.65,5.93-3.88,7.07,1.37,8.22,1.37,8.9-1.37,7.07-1.37,7.07" transform="translate(41.6 23.28)" fill="none" stroke="#fff" stroke-miterlimit="10" stroke-width="0.91"/><path d="M848.34,616.37l-1.06-13.23s-2.44-6.54-6.69-7.14-10.65-.46-11.1-.16-5.79,1.52-6.55,3.81-1.52,6.68.76,7.9,0,1.53,4.42,1.68,10-1.37,10.49-2.28.15-4.42-1.06-5.33-5.18-2.74-7.46-1.67-5.17,3-3.8,3.8,1.83,1.68,3,1.83-.17-1.53-.17-1.53l.69-1.82a8.92,8.92,0,0,1,1.76-.4,15.72,15.72,0,0,1,2.46.68c.34.23,1.42,1,1.42,1.37a5.69,5.69,0,0,1-.34,2.06c-.29.51-2.91,1.42-4.45,1.42s-4.28-.05-4.56-.45-1.54-2.63-1.54-2.63-.46-2.91.23-3.3,2-2.69,3.53-2.74,3.25-.74,4.57-.46,3.82.34,4.9.86a6.23,6.23,0,0,1,2.62,2.39c.63,1,2.06,3,1.89,4.91s.17,3-1.09,4.9-.28,2.8-6.27,3.94S813.7,617,813.7,617" transform="translate(41.6 23.28)" fill="#232021" stroke="#232021" stroke-miterlimit="10" stroke-width="0.91"/><path d="M840.28,129.17l3.65-5,3.2-13.23L845.3,95.41l-5.93-2.74-6.84.91-6.39,1.83s-4.56-.46-6.39-.92-5.93-3.65-5.93-3.65l-5.48-14.6s-2.28-9.12-2.28-11.86S807.43,53,807.43,53s11-6.39,13.23-6.84,21-5,21-5l10.5,8.21s.91,6.16,1.37,9.81-1.83,10.72-2.74,13.23-3.42,6.16-5.93,7.53S833,83.09,833,83.09s-4.1-2.74-5.7-3.88-4.34-4.79-4.79-6.85-.91-10-.46-12.09A25.73,25.73,0,0,1,824.31,55s6.62-1.36,7.53-.91,4.11,1.14,4.79,2.06a10.11,10.11,0,0,1,2.51,5.47c.23,2.74.91,5,.46,6.16a2.92,2.92,0,0,1-2.28,1.83c-.69,0-3.65-.61-3.65-.61a12.13,12.13,0,0,1-1.3-2.28,24.37,24.37,0,0,1,.31-2.66c.07-.23-1-.92-1-.92a24.51,24.51,0,0,0-1,3.43c.08.37.53,4,.76,4.4a3.12,3.12,0,0,0,2.82,2.06c2.12.15,1,.76,2.88.07s3.88-1.67,4.11-2.28,2.28-5,2.21-5.78.22-4.79-.61-6.23-3-6.92-4-7.3a36.67,36.67,0,0,0-6.24-1.3,57,57,0,0,0-8.36,1.14,13.1,13.1,0,0,0-5.25,4.8c-1.67,2.89-3.5,5.85-3.27,8.44s.3,7.76,1.06,9,2.29,3.11,3.12,4.48a13.08,13.08,0,0,0,2.59,3.43c1.59,1.59,2.2,2.51,5.17,3.65A28.33,28.33,0,0,0,834.88,87c2.59.39,9.81-.53,11.33-1.29a90,90,0,0,0,7.61-4.87c.38-.37,5.93-10,5.93-10L863,56.62s-1.07-7.6-1.07-8.06-3.19-9.13-4.56-9.73S845.6,34,841.81,33.66s-19.48,3-19.48,3-13.07-2.43-14.9-4.56-3-12.17-3-12.17-7.61-5.78-9.74-6.09-10.34-2.13-11.25-2.13-8.22-2.43-13.08-.91A67.5,67.5,0,0,1,758.76,13l-13.69-.3s3.65-3.35-4.56-4-17.64.3-23.73.91S701.27,9,697.92,7.8,689.71,2,689.71,2s4.56-14,5.47-14.6S732-19.27,736.25-19s57.49-4.87,61.14-4.26,30.73,5.78,44.42,8.22,29.2.91,39.54,1.52,16.12-4.26,19.77-.61S910.55,22.4,909,27s1.22,36.81,1.52,42.89-2.74,53.54-2.74,53.54-2.13,17-3.34,21.6-13.39,7.91-13.39,7.91L878.23,281l-12.78.31L839.3,281l-5.79-6.38Z" transform="translate(41.6 23.28)" fill="#232021"/><path d="M742.09,38.59s1.85,15.91,1.85,17.67-1.48,12.38-1.48,12.38l8.32-.89,4.26.59-1.66-6.48,4.25-2.06s2.23,1.47,2.41,2.36,3,5.3,4.07,5.89,7.22,0,7.77,0,6.67.59,6.67.59l6.29-1.18.74-2.95.56-6.48-4.82-1.47-6.13-2.69L771,54.2a43.64,43.64,0,0,0-3.26-3.42c-.35-.11-3.06-2.1-3.2-2.77s-1.52-.44-1.11-3.64a20.72,20.72,0,0,0-.55-6.85l-7.36-.77Z" transform="translate(41.6 23.28)" fill="#232021"/><path d="M747.91,44.34l1.39-13-.55-6.19a7.93,7.93,0,0,1-1.11,1.18c-.56.44-4.26,1.18-4.54,1.33s-5,.29-5,.29a31.64,31.64,0,0,1,.83-4.71c.37-.74,2.77-12.23,2.77-12.23l.56-6.33,8-.15,7-1.32,5,1.77s2.5,3.23,2.78,4.27,1.57,16.34,1.94,17.08-6.57-.73-6.57-.73L755.22,24l1.67,16.05" transform="translate(41.6 23.28)" fill="#232021"/><path d="M721.35,24l5.19,1.62s6.94,1.47,6.57.73-1.67-16-1.94-17.08S728.39,5,728.39,5l-5-1.77-7,1.32-8,.15L707.85,11s-2.41,11.49-2.78,12.23a31.64,31.64,0,0,0-.83,4.71s4.71-.14,5-.29,4-.89,4.54-1.33a7.93,7.93,0,0,0,1.11-1.18Z" transform="translate(41.6 23.28)" fill="#232021"/><path d="M716.08,19.44l.28,24.3-2,6s-1.48,2.65-1.11,3.1a13.22,13.22,0,0,0,2.41,1.47c.28.15,2.77-2.21,2.68-2.65s.46-2.06.83-2.06a12.23,12.23,0,0,1,2.32,1.62s1,1.47,1.57,1,1.57-3.83,1.57-3.83.28-4.42-.27-4.57-2.23-.59-2.5-.74a1.93,1.93,0,0,1-1.21-1.76c0-1.18-.46-5.45-.46-6.92S720,18.71,720,18.71" transform="translate(41.6 23.28)" fill="#232021"/><path d="M369.43,473.8a8.89,8.89,0,0,0-1.74-1.12,8.2,8.2,0,0,0-3.58-.73,2,2,0,0,0-1.9,2.06c0,.66.06,1.11.49,1.45a2,2,0,0,0,1.66.38c.57-.13.81-.75.67-1.47s-1.12-.69-1.59-.11a1.43,1.43,0,0,1,.94-.65,1,1,0,0,1,1.05.63,1.81,1.81,0,0,1-.73,2.36,2.94,2.94,0,0,1-2.66-.08,2.56,2.56,0,0,1-1.08-1.06,3.91,3.91,0,0,1-.4-1.33,4.1,4.1,0,0,1,3-4.53,6.07,6.07,0,0,1,2.72-.11,10,10,0,0,1,2.5.67,10.64,10.64,0,0,1,1.47.74" transform="translate(41.6 23.28)" fill="#232021"/><path d="M380.65,470.38a8.17,8.17,0,0,1,2,.49,8.28,8.28,0,0,1,3,2.06,2,2,0,0,1-.17,2.81c-.48.44-.84.72-1.38.64a1.94,1.94,0,0,1-1.43-.93c-.3-.5,0-1.1.6-1.5s1.27.33,1.17,1.07a1.36,1.36,0,0,0-.18-1.13.93.93,0,0,0-1.17-.31,1.79,1.79,0,0,0-1.2,2.16,3,3,0,0,0,1.9,1.86,2.67,2.67,0,0,0,1.51,0,4,4,0,0,0,1.24-.64,4.09,4.09,0,0,0,1.17-5.31,6.07,6.07,0,0,0-1.8-2,10.37,10.37,0,0,0-2.22-1.33,11.41,11.41,0,0,0-1.55-.54" transform="translate(41.6 23.28)" fill="#232021"/><path d="M361.7,496.45s5.59,4.67,2,16.54" transform="translate(41.6 23.28)" fill="none" stroke="#232021" stroke-miterlimit="10" stroke-width="0.91"/><path d="M362,509.34a3.57,3.57,0,0,0,4,.34c-2.38,2.95-3,5.08-3,5.34C362.76,512.85,362,509.34,362,509.34Z" transform="translate(41.6 23.28)" fill="#232021" stroke="#232021" stroke-miterlimit="10" stroke-width="0.69"/><path d="M366.49,513.22a3.57,3.57,0,0,0,4,.34c-2.39,3-3,5.08-3,5.34C367.27,516.73,366.49,513.22,366.49,513.22Z" transform="translate(41.6 23.28)" fill="#232021" stroke="#232021" stroke-miterlimit="10" stroke-width="0.69"/><path d="M368,496.1c.34.86,1.37,14.15-.4,18.6" transform="translate(41.6 23.28)" fill="none" stroke="#232021" stroke-miterlimit="10" stroke-width="0.91"/><path d="M372.88,507.08a1.75,1.75,0,0,1-2.2-.65,9.75,9.75,0,0,1,.12,4.15C371.51,509.2,372.88,507.08,372.88,507.08Z" transform="translate(41.6 23.28)" fill="#232021" stroke="#232021" stroke-miterlimit="10" stroke-width="0.44"/><path d="M372,497.25s-.51,8.38-.34,11.34" transform="translate(41.6 23.28)" fill="none" stroke="#232021" stroke-miterlimit="10" stroke-width="0.91"/><path d="M385.94,496.45s-5.59,4.67-2,16.54" transform="translate(41.6 23.28)" fill="none" stroke="#232021" stroke-miterlimit="10" stroke-width="0.91"/><path d="M385.65,509.34a3.57,3.57,0,0,1-4,.34c2.39,2.95,3,5.08,3,5.34C384.87,512.85,385.65,509.34,385.65,509.34Z" transform="translate(41.6 23.28)" fill="#232021" stroke="#232021" stroke-miterlimit="10" stroke-width="0.69"/><path d="M381,512.76a3.55,3.55,0,0,1-4,.34c2.39,3,3,5.08,3,5.34C380.25,516.27,381,512.76,381,512.76Z" transform="translate(41.6 23.28)" fill="#232021" stroke="#232021" stroke-miterlimit="10" stroke-width="0.69"/><path d="M379.49,495.65c-.34.85-1.37,14.14.4,18.59" transform="translate(41.6 23.28)" fill="none" stroke="#232021" stroke-miterlimit="10" stroke-width="0.91"/><path d="M374.82,506.51a1.74,1.74,0,0,0,2.19-.65,9.75,9.75,0,0,0-.12,4.15C376.18,508.63,374.82,506.51,374.82,506.51Z" transform="translate(41.6 23.28)" fill="#232021" stroke="#232021" stroke-miterlimit="10" stroke-width="0.44"/><path d="M375.67,496.67s.51,8.39.34,11.35" transform="translate(41.6 23.28)" fill="none" stroke="#232021" stroke-miterlimit="10" stroke-width="0.91"/><path d="M395.16,477.28c0-.34,7.19-24.29-20.42-25.09h-.44c-27.6.8-20.42,24.75-20.42,25.09,0,0-4.1,10.16,4,11.41,2.05-.23,6.38-.8,5.36,4.22s-6.28,7.41.57,10.72H365a22.3,22.3,0,0,1,1-9.58,17.44,17.44,0,0,0,1.41,9.58h1.85c-.14-1.89-.58-8.17-.24-8.27s1.79,5.95,1.95,8.27h2c-.06-2.88-.15-10.67.88-7.3a31,31,0,0,1,1.95,7.3h3.78c0-1.55-.06-4.81,1.69-6,2.28-1.54,3-2.56,2.68-5.3,1,1.77,1.94,3.82.62,4.79s-2.73.74-2.68,2.8c0,1.43.29,2.75.35,3.7h3.11c6.84-3.31,1.6-5.7.57-10.72s3.31-4.45,5.36-4.22C399.27,487.44,395.16,477.28,395.16,477.28Zm-12.11-16a2.21,2.21,0,1,1-1.79,2.17A2,2,0,0,1,383.05,461.31Zm-1.89-4.16c0,5.25.45,14.26-2,11.92s0-4.68.17-5.88-6.39,1.72-6.56,1.72C372.07,464.91,381.33,460.57,381.16,457.15Zm-5.6-2.53c1.8,0,3.27.49,3.27,1.1s-1.47,1.1-3.27,1.1-3.27-.49-3.27-1.1S373.75,454.62,375.56,454.62Zm-6.08,1.75a2.05,2.05,0,1,1-2.06,2.05A2.05,2.05,0,0,1,369.48,456.37Zm.57,7.61c1.44,0,2.62.23,2.62.53s-1.18.53-2.62.53-2.63-.24-2.63-.53S368.6,464,370.05,464Zm-9.13-3.58c1.2,0,2.17.32,2.17.72s-1,.72-2.17.72-2.17-.32-2.17-.72S359.72,460.4,360.92,460.4Zm.07,25.32c-1.45,0-2.62-.47-2.62-1.06s1.17-1.06,2.62-1.06,2.63.47,2.63,1.06S362.45,485.72,361,485.72Zm1.72-4.17a7.25,7.25,0,1,1,7.25-7.24A7.25,7.25,0,0,1,362.71,481.55ZM370.1,488a1.74,1.74,0,0,1-1.42-.39,2.09,2.09,0,0,1-.66-1.29,5.43,5.43,0,0,1,.15-2.14,9.2,9.2,0,0,1,1.67-3.58,7.48,7.48,0,0,1,3-2.42,20.84,20.84,0,0,0-2.93,6.42,6,6,0,0,0-.24,1.51c.08.42-.05.41.36.54a3.66,3.66,0,0,0,2.87-1.4A3.34,3.34,0,0,1,370.1,488Zm4.09-16.15a1.34,1.34,0,1,1,1.67-1.3A1.51,1.51,0,0,1,374.19,471.81Zm1.94,13.4a3.64,3.64,0,0,0,2.87,1.4c.41-.13.27-.12.36-.54a5.68,5.68,0,0,0-.25-1.51,20.81,20.81,0,0,0-2.92-6.42,7.38,7.38,0,0,1,3,2.42,9.06,9.06,0,0,1,1.67,3.58,5.61,5.61,0,0,1,.16,2.14,2.2,2.2,0,0,1-.66,1.29A1.74,1.74,0,0,1,379,488,3.34,3.34,0,0,1,376.13,485.21Zm4.37,10.63a2.7,2.7,0,1,1,2.28-2.66A2.49,2.49,0,0,1,380.5,495.84Zm9.95-15.37A7.24,7.24,0,0,1,380.4,470a7.42,7.42,0,0,1,10.25.19A7.25,7.25,0,0,1,390.45,480.47Z" transform="translate(41.6 23.28)" fill="#232021" stroke="#232021" stroke-miterlimit="10" stroke-width="0.91"/><path d="M393.47,468.84s38.89,11.64,44.37,11.07,8.5-7.36,6.79-9.64-4.05-4-7-3c-1.78.62-4.18,4.43-3.59,6.22.91,2.8,6.33,3.48,6,.4" transform="translate(41.6 23.28)" fill="none" stroke="#232021" stroke-linecap="round" stroke-miterlimit="10" stroke-width="0.91"/><path d="M392.33,481.39s57.94,3,52.7,42.89h9.12s1.15-10.42,6.62-10.27,6.09,4.26,5.93,4.87-.31,2.51-2.21,3.2-5.09-1-4.25-3.35" transform="translate(41.6 23.28)" fill="none" stroke="#232021" stroke-linecap="round" stroke-miterlimit="10" stroke-width="0.91"/><path d="M447.69,478.2c-2.51,3.34.76,4.33,2.24,4.56s5.25-5.36-.8-7.64-7.07,6.73-7.07,6.73,1.22,19.77,12.32,26.54,9.64,5.68,13.4,7.11c2.86.79,6.16-3.31,5.71-5.42s-4.31-5.22-6.79-3.94c-4.51,2.34-1.54,6.85.8,7.25s2.68-3.6,2.68-3.6" transform="translate(41.6 23.28)" fill="none" stroke="#232021" stroke-linecap="round" stroke-miterlimit="10" stroke-width="0.91"/><path d="M396.51,470.06s5.48,1.29,6.92,5.48,0,7,5.85,8.59c0,0,6.24,2.58,10.58.22s11.1-7.29,15.81-3.49,1,7.13-.84,7.68-7.3-.23-6.61-4.19,5.7-2.28,5.7-.83" transform="translate(41.6 23.28)" fill="none" stroke="#232021" stroke-linecap="round" stroke-miterlimit="10" stroke-width="0.91"/><path d="M440.12,492.34s-3,6.69-6.56,2.05,2.83-6,4.77-6.23c2.7-.34,6.87,2.18,5.17,9.58-2.28,10,1,10.28,1.07,11.86.17,2.76,7.07,10.73,11.25,6.69s-.7-9.29-4.46-6.9" transform="translate(41.6 23.28)" fill="none" stroke="#232021" stroke-linecap="round" stroke-miterlimit="10" stroke-width="0.91"/><ellipse cx="491.11" cy="551.42" rx="3.65" ry="3.88" fill="#232021" stroke="#232021" stroke-linecap="round" stroke-miterlimit="10" stroke-width="0.91"/><rect x="482.06" y="555.39" width="18.1" height="3.8" fill="#232021" stroke="#232021" stroke-linecap="round" stroke-miterlimit="10" stroke-width="0.91"/><rect x="486.09" y="611.97" width="10.04" height="13.08" fill="#232021" stroke="#232021" stroke-linecap="round" stroke-miterlimit="10" stroke-width="0.91"/><rect x="486.09" y="597.37" width="10.04" height="13.08" fill="#232021" stroke="#232021" stroke-linecap="round" stroke-miterlimit="10" stroke-width="0.91"/><rect x="486.09" y="559.19" width="10.04" height="7.45" fill="#232021" stroke="#232021" stroke-linecap="round" stroke-miterlimit="10" stroke-width="0.91"/><rect x="486.09" y="568.17" width="10.04" height="13.08" fill="#232021" stroke="#232021" stroke-linecap="round" stroke-miterlimit="10" stroke-width="0.91"/><rect x="486.09" y="582.77" width="10.04" height="13.08" fill="#232021" stroke="#232021" stroke-linecap="round" stroke-miterlimit="10" stroke-width="0.91"/><rect x="486.09" y="626.57" width="10.04" height="21.82" fill="#232021" stroke="#232021" stroke-linecap="round" stroke-miterlimit="10" stroke-width="0.91"/><path d="M355.58,468.84s-38.9,11.64-44.37,11.07-8.5-7.36-6.79-9.64,4.05-4,7-3c1.79.62,4.18,4.43,3.6,6.22-.91,2.8-6.33,3.48-6,.4" transform="translate(41.6 23.28)" fill="none" stroke="#232021" stroke-linecap="round" stroke-miterlimit="10" stroke-width="0.91"/><path d="M356.72,481.39s-58,3-52.7,42.89h-9.13s-1.14-10.42-6.62-10.27-6.08,4.26-5.93,4.87.31,2.51,2.21,3.2,5.09-1,4.26-3.35" transform="translate(41.6 23.28)" fill="none" stroke="#232021" stroke-linecap="round" stroke-miterlimit="10" stroke-width="0.91"/><path d="M301.36,478.2c2.51,3.34-.76,4.33-2.25,4.56s-5.24-5.36.8-7.64,7.08,6.73,7.08,6.73-1.22,19.77-12.32,26.54-9.64,5.68-13.41,7.11c-2.85.79-6.16-3.31-5.7-5.42s4.31-5.22,6.79-3.94c4.5,2.34,1.54,6.85-.8,7.25s-2.68-3.6-2.68-3.6" transform="translate(41.6 23.28)" fill="none" stroke="#232021" stroke-linecap="round" stroke-miterlimit="10" stroke-width="0.91"/><path d="M352.54,470.06s-5.48,1.29-6.92,5.48,0,7-5.86,8.59c0,0-6.23,2.58-10.57.22s-11.1-7.29-15.82-3.49-1,7.13.84,7.68,7.3-.23,6.62-4.19-5.71-2.28-5.71-.83" transform="translate(41.6 23.28)" fill="none" stroke="#232021" stroke-linecap="round" stroke-miterlimit="10" stroke-width="0.91"/><path d="M308.92,492.34s3,6.69,6.56,2.05-2.82-6-4.77-6.23c-2.7-.34-6.86,2.18-5.17,9.58,2.29,10-1,10.28-1.06,11.86-.17,2.76-7.07,10.73-11.26,6.69s.7-9.29,4.47-6.9" transform="translate(41.6 23.28)" fill="none" stroke="#232021" stroke-linecap="round" stroke-miterlimit="10" stroke-width="0.91"/><ellipse cx="341.14" cy="551.42" rx="3.65" ry="3.88" fill="#232021" stroke="#232021" stroke-linecap="round" stroke-miterlimit="10" stroke-width="0.91"/><rect x="332.09" y="555.39" width="18.1" height="3.8" fill="#232021" stroke="#232021" stroke-linecap="round" stroke-miterlimit="10" stroke-width="0.91"/><rect x="336.12" y="611.97" width="10.04" height="13.08" fill="#232021" stroke="#232021" stroke-linecap="round" stroke-miterlimit="10" stroke-width="0.91"/><rect x="336.12" y="597.37" width="10.04" height="13.08" fill="#232021" stroke="#232021" stroke-linecap="round" stroke-miterlimit="10" stroke-width="0.91"/><rect x="336.12" y="559.19" width="10.04" height="7.45" fill="#232021" stroke="#232021" stroke-linecap="round" stroke-miterlimit="10" stroke-width="0.91"/><rect x="336.12" y="568.17" width="10.04" height="13.08" fill="#232021" stroke="#232021" stroke-linecap="round" stroke-miterlimit="10" stroke-width="0.91"/><rect x="336.12" y="582.77" width="10.04" height="13.08" fill="#232021" stroke="#232021" stroke-linecap="round" stroke-miterlimit="10" stroke-width="0.91"/><rect x="336.12" y="626.57" width="10.04" height="21.82" fill="#232021" stroke="#232021" stroke-linecap="round" stroke-miterlimit="10" stroke-width="0.91"/><path d="M326.35,542s3.65-9.07,8.39-3.76,2.91,7.13,2.91,7.13c1.65-3,.39-15.69-11.18-11,.23-5.54-5.59-21.11-5.59-21.11s5.47,20.08,1.37,23.73c-3.2-.91-9.13-2-10.5,2.13s.15,8.06,3.65,7.91c-1.82-2.89-2.28-12.55,6.85-6.39,0,2.06,1.91,12.69,3.56,19.51,0,0,2.22,25.51,2.37,26.27s-1.37,15.51-1.37,16.73-5.47,21.45-5.47,21.45l2,.45,6.85-19.92s1.37-12.62,1.37-13.08-1.07-9-1.07-9-.3-9.59-.45-10.5-.92-10.49-1.37-14.9-1.67-8.06-1.83-9.58S326.35,542,326.35,542Z" transform="translate(41.6 23.28)" fill="#232021" stroke="#232021" stroke-linecap="round" stroke-miterlimit="10" stroke-width="0.91"/><path d="M357.38,542s3.65-9.07,8.38-3.76,2.91,7.13,2.91,7.13c1.66-3,.4-15.69-11.18-11,.23-5.54-5.59-21.11-5.59-21.11s5.48,20.08,1.37,23.73c-3.19-.91-9.12-2-10.49,2.13s.15,8.06,3.65,7.91c-1.83-2.89-2.28-12.55,6.84-6.39,0,2.06,1.91,12.69,3.56,19.51,0,0,2.23,25.51,2.38,26.27s-1.37,15.51-1.37,16.73-5.48,21.45-5.48,21.45l2,.45,6.84-19.92s1.37-12.62,1.37-13.08-1.06-9-1.06-9-.3-9.59-.46-10.5-.91-10.49-1.36-14.9-1.68-8.06-1.83-9.58S357.38,542,357.38,542Z" transform="translate(41.6 23.28)" fill="#232021" stroke="#232021" stroke-linecap="round" stroke-miterlimit="10" stroke-width="0.91"/><polygon points="345.75 617.14 407.8 617.75 408.87 620.79 407.8 622.77 345.9 621.4 345.75 617.14" fill="#232021" stroke="#232021" stroke-linecap="round" stroke-miterlimit="10" stroke-width="0.91"/><polygon points="345.75 572.58 407.8 573.19 408.87 576.23 407.8 578.21 345.9 576.84 345.75 572.58" fill="#232021" stroke="#232021" stroke-linecap="round" stroke-miterlimit="10" stroke-width="0.91"/><path d="M423.71,542s-3.65-9.07-8.38-3.76-2.91,7.13-2.91,7.13c-1.65-3-.4-15.69,11.18-11-.23-5.54,5.59-21.11,5.59-21.11s-5.48,20.08-1.37,23.73c3.19-.91,9.12-2,10.49,2.13s-.15,8.06-3.65,7.91c1.83-2.89,2.28-12.55-6.84-6.39,0,2.06-1.91,12.69-3.56,19.51,0,0-2.23,25.51-2.38,26.27s1.37,15.51,1.37,16.73,5.48,21.45,5.48,21.45l-2,.45-6.84-19.92s-1.37-12.62-1.37-13.08,1.06-9,1.06-9,.31-9.59.46-10.5.91-10.49,1.37-14.9,1.67-8.06,1.82-9.58S423.71,542,423.71,542Z" transform="translate(41.6 23.28)" fill="#232021" stroke="#232021" stroke-linecap="round" stroke-miterlimit="10" stroke-width="0.91"/><path d="M392.69,542s-3.66-9.07-8.39-3.76-2.91,7.13-2.91,7.13c-1.65-3-.4-15.69,11.18-11-.23-5.54,5.59-21.11,5.59-21.11s-5.47,20.08-1.37,23.73c3.2-.91,9.13-2,10.5,2.13s-.16,8.06-3.65,7.91c1.82-2.89,2.28-12.55-6.85-6.39,0,2.06-1.91,12.69-3.56,19.51,0,0-2.22,25.51-2.37,26.27s1.37,15.51,1.37,16.73,5.47,21.45,5.47,21.45l-2,.45-6.85-19.92s-1.37-12.62-1.37-13.08,1.07-9,1.07-9,.3-9.59.45-10.5.91-10.49,1.37-14.9,1.67-8.06,1.83-9.58S392.69,542,392.69,542Z" transform="translate(41.6 23.28)" fill="#232021" stroke="#232021" stroke-linecap="round" stroke-miterlimit="10" stroke-width="0.91"/><polygon points="487.52 617.14 425.46 617.75 424.4 620.79 425.46 622.77 487.36 621.4 487.52 617.14" fill="#232021" stroke="#232021" stroke-linecap="round" stroke-miterlimit="10" stroke-width="0.91"/><polygon points="487.52 572.58 425.46 573.19 424.4 576.23 425.46 578.21 487.36 576.84 487.52 572.58" fill="#232021" stroke="#232021" stroke-linecap="round" stroke-miterlimit="10" stroke-width="0.91"/><path d="M453.05,547s108.6,1.83,119.24,9.13c-.61,4.56-2.12,5.47-2.12,5.47S457,550.37,452.75,552.19,453.05,547,453.05,547Z" transform="translate(41.6 23.28)" fill="#232021" stroke="#232021" stroke-miterlimit="10" stroke-width="2.68"/><polygon points="494.05 636.61 558.23 630.22 609.03 636.61 611.77 631.14 558.84 623.23 492.52 631.44 494.05 636.61" fill="#232021" stroke="#232021" stroke-miterlimit="10" stroke-width="2.68"/><polygon points="539.06 553.57 534.19 563.61 534.5 648.48 541.5 647.26 542.41 564.52 539.06 553.57" fill="#232021" stroke="#232021" stroke-miterlimit="10" stroke-width="2.68"/><polygon points="511.68 553.57 506.82 563.61 507.12 648.48 514.12 647.26 515.03 564.52 511.68 553.57" fill="#232021" stroke="#232021" stroke-miterlimit="10" stroke-width="2.68"/><polygon points="558.53 553.57 553.66 563.61 553.96 648.48 560.96 647.26 561.87 564.52 558.53 553.57" fill="#232021" stroke="#232021" stroke-miterlimit="10" stroke-width="2.68"/><polygon points="577.39 553.57 572.52 563.61 572.83 648.48 579.82 647.26 580.74 564.52 577.39 553.57" fill="#232021" stroke="#232021" stroke-miterlimit="10" stroke-width="2.68"/><polygon points="596.55 555.39 591.69 565.43 591.99 650.3 598.99 649.09 599.9 566.34 596.55 555.39" fill="#232021" stroke="#232021" stroke-miterlimit="10" stroke-width="2.68"/><path d="M292.74,547s-108.59,1.83-119.24,9.13c.61,4.56,2.13,5.47,2.13,5.47s113.16-11.25,117.42-9.43S292.74,547,292.74,547Z" transform="translate(41.6 23.28)" fill="#232021" stroke="#232021" stroke-miterlimit="10" stroke-width="2.68"/><polygon points="334.95 636.61 270.77 630.22 219.97 636.61 217.23 631.14 270.16 623.23 336.47 631.44 334.95 636.61" fill="#232021" stroke="#232021" stroke-miterlimit="10" stroke-width="2.68"/><polygon points="289.94 553.57 294.8 563.61 294.5 648.48 287.5 647.26 286.59 564.52 289.94 553.57" fill="#232021" stroke="#232021" stroke-miterlimit="10" stroke-width="2.68"/><polygon points="317.31 553.57 322.18 563.61 321.88 648.48 314.88 647.26 313.96 564.52 317.31 553.57" fill="#232021" stroke="#232021" stroke-miterlimit="10" stroke-width="2.68"/><polygon points="270.47 553.57 275.33 563.61 275.03 648.48 268.03 647.26 267.12 564.52 270.47 553.57" fill="#232021" stroke="#232021" stroke-miterlimit="10" stroke-width="2.68"/><polygon points="251.61 553.57 256.47 563.61 256.17 648.48 249.17 647.26 248.26 564.52 251.61 553.57" fill="#232021" stroke="#232021" stroke-miterlimit="10" stroke-width="2.68"/><polygon points="232.44 555.39 237.31 565.43 237.01 650.3 230.01 649.09 229.1 566.34 232.44 555.39" fill="#232021" stroke="#232021" stroke-miterlimit="10" stroke-width="2.68"/><path d="M788.27,580.18s11.86-4.56,6.08-19.47-3.35-18,1.52-22.21" transform="translate(41.6 23.28)" fill="none" stroke="#232021" stroke-miterlimit="10" stroke-width="0.91"/><path d="M794.08,537.55l1.83.12s-9.24-21.34,6.16-22.25c4.22-.34,12.89,13.92-3.54,22.47.12.57.69,2.86.69,2.86l-2.28-.92-2.29.46-2.16-1.37Z" transform="translate(41.6 23.28)" fill="#232021" stroke="#232021" stroke-miterlimit="10" stroke-width="0.91"/><path d="M328,231.63c-20.27,7.32-29.82.82-29.82.82l-14.48,90.21,19.15.2,6.91-25.8,14.63-.61,2.85,27.43,19.91-.41S328.8,239.76,328,231.63Zm-16.54,55.13,4.06-29.66L322.15,287Z" transform="translate(41.6 23.28)" fill="#231f20" stroke="#231f20" stroke-miterlimit="10" stroke-width="2.03"/><path d="M403.25,311.28l-3.25,1s1.22-25,.41-27.23-12.6-5.89-12.6-5.89,14.43-1.22,16.46-5.89-1.22-31.5-1.22-31.5l-10-7.51L350,232.85l.2,10.57,8.13-.61-6.1,81.07h19.1l2.24-31.09s6.09-1.62,7.92,2.64,2.29,27.84,5.69,28.25,19.51.4,21.33-7.11A23.47,23.47,0,0,0,403.25,311.28ZM375,269.43l.81-22.15c17.68-5.9,14.43,11.17,13.41,16.66S375,269.43,375,269.43Z" transform="translate(41.6 23.28)" fill="#231f20" stroke="#231f20" stroke-miterlimit="10" stroke-width="2.03"/><path d="M727.39,279.18s14.42-1.22,16.46-5.89-1.22-31.5-1.22-31.5l-10-7.51-43.08-1.43.2,10.57,8.13-.61-6.09,81.07h19.1l2.23-31.09S714.27,280.35,727.39,279.18Zm-12.8-9.75.81-22.15c17.68-5.9,14.42,11.17,13.41,16.66S714.59,269.43,714.59,269.43Z" transform="translate(41.6 23.28)" fill="#231f20" stroke="#231f20" stroke-miterlimit="10" stroke-width="2.03"/><path d="M260.72,269.93l17.07-3.66-13.64-32.4-37-1L210.44,248l-1.56,52.33,12.23,23.56H255l9.42-8.24,16.43-28.33-21.13-1-4.87,13s-18.8,6.41-22.76,0-5.46-29.06-1.19-35.46,18.59-9.75,19.81-8.83A21.93,21.93,0,0,1,260.72,269.93Z" transform="translate(41.6 23.28)" fill="#231f20" stroke="#231f20" stroke-miterlimit="10" stroke-width="2.03"/><path d="M683.69,266.27l-13.64-32.4-37-1L616.34,248l-1.56,52.33L627,323.87h33.85l9.42-8.24,16.43-28.33Zm-18.11,20-4.87,13s-18.8,6.41-22.76,0-5.46-29.06-1.19-35.46,18.59-9.75,19.81-8.83a21.93,21.93,0,0,1,10,14.93Z" transform="translate(41.6 23.28)" fill="#231f20" stroke="#231f20" stroke-miterlimit="10" stroke-width="2.03"/><path d="M411.41,233.37s13.16,2,20.73.6c.61,5.19,11,39.62,11,39.62l18.29-40.22s11.27,2.43,19.5-.31c-.92,4.62-27.43,56.08-27.43,56.08s1.37,26.94,3,34.13c-3.1.31-11.58-4-23.16.61-.53-1.77,0-34.13,0-34.13S419.58,254.28,411.41,233.37Z" transform="translate(41.6 23.28)" fill="#231f20" stroke="#231f20" stroke-miterlimit="10" stroke-width="2.03"/><path d="M166.25,261.3l22.75,15,11.79,7.12-.21,23-9.77,17.26-35.38.21L135.91,299.8l12.79-10.67,16.46,16.46,11-.31,3.66-8.23-5.18-12.19-14.93-7.92-12.13-9.34,1-23,19-11.89h28L206,254.25,192.19,259l-10.57-7.66S163.33,246.05,166.25,261.3Z" transform="translate(41.6 23.28)" fill="#231f20" stroke="#231f20" stroke-miterlimit="10" stroke-width="2.03"/><path d="M506.38,261.3l22.76,15,11.78,7.12-.2,23L531,323.67l-35.39.21L476,299.8l12.8-10.67,16.46,16.46,11-.31,3.65-8.23-5.18-12.19-14.93-7.92-12.12-9.34,1-23,19-11.89h28l10.37,21.5L532.33,259l-10.58-7.66S503.47,246.05,506.38,261.3Z" transform="translate(41.6 23.28)" fill="#231f20" stroke="#231f20" stroke-miterlimit="10" stroke-width="2.03"/><path d="M553.66,228.09a31.21,31.21,0,0,0,19.71,1c0,4.87-1.82,37.38-1.82,37.38l15.64.41,4.06-39.42a41.72,41.72,0,0,0,13.42,1c-.41,5.28,2,95.38,2,95.38s-5.18-5.79-16.46-1.22c.31-9.75-1.52-30.17-1.52-30.17L570.35,291l-4.26,31.39-17.07.3Z" transform="translate(41.6 23.28)" fill="#231f20" stroke="#231f20" stroke-miterlimit="10" stroke-width="2.03"/><path d="M323.51,227.16c-20.27,7.31-29.82.81-29.82.81l-14.47,90.22,19.15.2,6.91-25.81L319.9,292l2.85,27.44,19.91-.41S324.32,235.28,323.51,227.16ZM307,282.29,311,252.62l6.64,29.94Z" transform="translate(41.6 23.28)" fill="#fff" stroke="#231f20" stroke-miterlimit="10" stroke-width="2.03"/><path d="M398.78,306.81l-3.25,1s1.22-25,.4-27.22-12.6-5.9-12.6-5.9,14.43-1.22,16.46-5.89-1.22-31.49-1.22-31.49l-9.95-7.52-43.08-1.42.2,10.56,8.13-.61-6.1,81.08h19.11l2.23-31.09s6.1-1.63,7.93,2.64,2.28,27.84,5.69,28.24,19.5.41,21.33-7.11A23.79,23.79,0,0,0,398.78,306.81ZM370.53,265l.82-22.15c17.67-5.89,14.42,11.18,13.41,16.66S370.53,265,370.53,265Z" transform="translate(41.6 23.28)" fill="#fff" stroke="#231f20" stroke-miterlimit="10" stroke-width="2.03"/><path d="M722.91,274.7s14.43-1.22,16.46-5.89-1.22-31.49-1.22-31.49l-10-7.52-43.07-1.42.2,10.56,8.13-.61-6.1,81.08h19.1l2.24-31.09S709.79,275.87,722.91,274.7ZM710.11,265l.81-22.15c17.68-5.89,14.43,11.18,13.41,16.66S710.11,265,710.11,265Z" transform="translate(41.6 23.28)" fill="#fff" stroke="#231f20" stroke-miterlimit="10" stroke-width="2.03"/><path d="M256.25,265.45l17.07-3.65-13.65-32.41-37-1L206,243.51l-1.55,52.33,12.22,23.56h33.85l9.43-8.24,16.43-28.34-21.14-1-4.87,13s-18.8,6.4-22.76,0-5.46-29.06-1.19-35.46,18.59-9.76,19.81-8.84A22,22,0,0,1,256.25,265.45Z" transform="translate(41.6 23.28)" fill="#fff" stroke="#231f20" stroke-miterlimit="10" stroke-width="2.03"/><path d="M679.22,261.8l-13.65-32.41-37-1-16.69,15.13-1.55,52.33,12.22,23.56h33.85l9.42-8.24,16.44-28.34Zm-18.11,20-4.88,13s-18.8,6.4-22.76,0-5.46-29.06-1.19-35.46,18.59-9.76,19.81-8.84a22,22,0,0,1,10.06,14.93Z" transform="translate(41.6 23.28)" fill="#fff" stroke="#231f20" stroke-miterlimit="10" stroke-width="2.03"/><path d="M406.94,228.89s13.16,2,20.72.61c.61,5.18,11,39.62,11,39.62l18.29-40.23s11.28,2.44,19.51-.31c-.93,4.63-27.43,56.08-27.43,56.08s1.37,26.94,3,34.14c-3.09.31-11.58-4-23.16.61-.53-1.78,0-34.14,0-34.14S415.1,249.81,406.94,228.89Z" transform="translate(41.6 23.28)" fill="#fff" stroke="#231f20" stroke-miterlimit="10" stroke-width="2.03"/><path d="M161.77,256.82l22.76,15L196.31,279l-.2,23-9.77,17.26-35.39.22-19.52-24.09,12.8-10.67,16.45,16.46,11-.3,3.65-8.23-5.18-12.19-14.93-7.93-12.12-9.34,1-23,19-11.89h28l10.37,21.51-13.82,4.74-10.57-7.66S158.86,241.58,161.77,256.82Z" transform="translate(41.6 23.28)" fill="#fff" stroke="#231f20" stroke-miterlimit="10" stroke-width="2.03"/><path d="M501.91,256.82l22.75,15L536.45,279l-.2,23-9.78,17.26-35.38.22-19.53-24.09,12.8-10.67,16.46,16.46,11-.3,3.66-8.23-5.18-12.19-14.93-7.93-12.13-9.34,1-23,19-11.89h28l10.37,21.51-13.82,4.74-10.57-7.66S499,241.58,501.91,256.82Z" transform="translate(41.6 23.28)" fill="#fff" stroke="#231f20" stroke-miterlimit="10" stroke-width="2.03"/><path d="M549.19,223.62a31.17,31.17,0,0,0,19.71,1c0,4.88-1.83,37.39-1.83,37.39l15.64.4L586.78,223a41.82,41.82,0,0,0,13.41,1c-.41,5.28,2,95.39,2,95.39s-5.19-5.8-16.46-1.22c.3-9.76-1.53-30.18-1.53-30.18l-18.28-1.52-4.27,31.39-17.06.31Z" transform="translate(41.6 23.28)" fill="#fff" stroke="#231f20" stroke-miterlimit="10" stroke-width="2.03"/></g></g></g></svg>