<svg xmlns="http://www.w3.org/2000/svg" viewBox="0 0 875.94 656.88"><g id="bc008e64-4d5b-494d-8205-1b36c4172874" data-name="Warstwa 2"><g id="bddc908c-a7a1-4c8d-b871-eb06af2982ba" data-name="Warstwa 1"><rect width="875.94" height="656.88" fill="#fff"/><path d="M174.93,454.61a44.2,44.2,0,0,0,8-.56v10.74a36,36,0,0,1-5,.92,42.07,42.07,0,0,1-5.18.38q-25,0-25-23.51V388.53H131.43V377.24h16.29v-47A12.64,12.64,0,0,1,160.49,343v34.24h22.4a10.87,10.87,0,0,1-3.34,8,11.07,11.07,0,0,1-8.14,3.33H160.49v53.68Q160.49,454.62,174.93,454.61Z" fill="#0aadc0"/><path d="M264.23,382.15a44,44,0,0,1,16.47,16.47,45,45,0,0,1,6,22.86,46.26,46.26,0,0,1-6,23.32,43.82,43.82,0,0,1-16.47,16.57,45.73,45.73,0,0,1-23.23,6A45.07,45.07,0,0,1,195.47,422a46.11,46.11,0,0,1,6-23.41A43.94,43.94,0,0,1,218,382.15a47.46,47.46,0,0,1,46.27,0Zm-6.48,69.31a32.71,32.71,0,0,0,11.48-12.4,35.53,35.53,0,0,0,4.16-17,36.24,36.24,0,0,0-4.16-17,33.55,33.55,0,0,0-11.57-12.78A30,30,0,0,0,241,387.42a31.14,31.14,0,0,0-16.84,4.63,31.65,31.65,0,0,0-11.48,12.4,36.19,36.19,0,0,0-4.07,17,36.61,36.61,0,0,0,4.16,17.21,32.83,32.83,0,0,0,11.57,12.68,30.65,30.65,0,0,0,16.85,4.72A30.25,30.25,0,0,0,257.75,451.46Z" fill="#0aadc0"/><path d="M372.85,381.5a44.42,44.42,0,0,1,14.71,16.93,48.47,48.47,0,0,1,5.28,22.12,50.07,50.07,0,0,1-5.19,22.4,41.88,41.88,0,0,1-14.71,16.84,38.23,38.23,0,0,1-21.56,6.3q-22,0-34.25-19.81v18.51H304.36V330.23a12.94,12.94,0,0,1,13,12.95v52.39a51.85,51.85,0,0,1,14.25-15q8.15-5.55,19.81-5.55A37.05,37.05,0,0,1,372.85,381.5Zm-7.78,68.57a29.43,29.43,0,0,0,10.74-12.21,38.9,38.9,0,0,0,3.7-17.12,39.65,39.65,0,0,0-3.7-17.12,29.86,29.86,0,0,0-10.74-12.5,29.32,29.32,0,0,0-16.47-4.62,28.76,28.76,0,0,0-16.1,4.72,32.76,32.76,0,0,0-11.29,12.49,35.33,35.33,0,0,0-4.08,16.66,37,37,0,0,0,4,16.93,32.09,32.09,0,0,0,11.2,12.59,29.07,29.07,0,0,0,16.29,4.72A29.67,29.67,0,0,0,365.07,450.07Z" fill="#0aadc0"/><path d="M476.84,382.15a44,44,0,0,1,16.47,16.47,45,45,0,0,1,6,22.86,46.26,46.26,0,0,1-6,23.32,43.82,43.82,0,0,1-16.47,16.57,45.76,45.76,0,0,1-23.23,6A45.07,45.07,0,0,1,408.08,422a46.11,46.11,0,0,1,6-23.41,43.94,43.94,0,0,1,16.48-16.47,47.46,47.46,0,0,1,46.27,0Zm-6.48,69.31a32.71,32.71,0,0,0,11.48-12.4A35.53,35.53,0,0,0,486,422a36.24,36.24,0,0,0-4.16-17,33.55,33.55,0,0,0-11.57-12.78,30,30,0,0,0-16.66-4.81,31.14,31.14,0,0,0-16.84,4.63,31.65,31.65,0,0,0-11.48,12.4,36.07,36.07,0,0,0-4.07,17,36.61,36.61,0,0,0,4.16,17.21A32.76,32.76,0,0,0,437,451.37a30.64,30.64,0,0,0,16.84,4.72A30.3,30.3,0,0,0,470.36,451.46Z" fill="#0aadc0"/><path d="M643,413.52q-1.29-12.4-8.79-19.9t-19.9-7.49a27,27,0,0,0-13.79,3.7,31.89,31.89,0,0,0-10.55,9.9,32.91,32.91,0,0,0-5.27,13.6,11.65,11.65,0,0,0-.37,3.89v.19c0,2.71.06,5.06.18,7A31.18,31.18,0,0,0,616,454.61a30.35,30.35,0,0,0,15.55-3.89,25.43,25.43,0,0,0,10.18-11.1l10.92,5.18a35.76,35.76,0,0,1-14.81,15.73,43.23,43.23,0,0,1-21.66,5.56,43.94,43.94,0,0,1-39-22.68,48,48,0,0,1-.18-45.53,44.8,44.8,0,0,1,15.45-16.75,39.57,39.57,0,0,1,21.84-6.3q13.34,0,22.68,5.84a36.93,36.93,0,0,1,14.16,16.19,54.88,54.88,0,0,1,4.81,23.32,32.46,32.46,0,0,1-.19,4.26H614.1q-5.93,0-8.15-3.24a13,13,0,0,1-2.4-6.75v-.93Z" fill="#0aadc0"/><path d="M728,462.75a43,43,0,0,1-14.16-9.44L682.51,422h-.37v44.06h-13V331.34a13,13,0,0,1,13,13V413.7L724,377.8h18.51L696,417.59l48.49,48.5A42.75,42.75,0,0,1,728,462.75Z" fill="#0aadc0"/><path d="M541.1,442.21l.19-20.18V399.34L566.4,377.8H548l-6.69,5.73V344.29a12.94,12.94,0,0,0-13-13v63.29l-13,11.16a13,13,0,0,0-4.66,8.63,11.21,11.21,0,0,0,2.66,8.93l15-12.89v32.12q0,23.51,25,23.51a41.94,41.94,0,0,0,5.18-.38,35.67,35.67,0,0,0,5-.92V454.05a44.2,44.2,0,0,1-8,.56Q541.11,454.61,541.1,442.21Z" fill="#0aadc0"/><path d="M518.14,229v0c-1.09,10.76-5.2,22.85-12,35.12h0l-.05.09v0l-59.43-13,16.92-42.17,53.45,3A45.92,45.92,0,0,1,518.14,229Z" fill="#0aadc0"/><polygon points="506.09 264.31 503.34 322.75 428.63 336.81 428.63 277.53 506.09 264.31" fill="#0aadc0"/><path d="M478.56,304.36c-22.33,20.8-55.77,41.94-87.53,38.11-18.8-2.64-29.76-17-29.36-35.63C362.61,256,429.52,190,483.32,189.15c15.3-.28,29.8,7.35,33.69,23a28.91,28.91,0,0,0-12.74-17.19c-19.13-11-44.41-2.14-62.43,7.47-36,19.46-75.76,63.71-76.42,104.43.29,28.87,24.8,35.82,49.12,29.2,22.8-6.11,42.88-19.89,59.76-36.13l4.26,4.45Z" fill="#0aadc0"/><polygon points="446.64 251.31 446.64 274.47 428.63 277.53 378.38 261.67 378.31 261.66 378.39 261.64 418.71 255.53 446.64 251.31" fill="#0aadc0"/><polygon points="506.09 264.32 446.64 251.31 446.64 274.47 506.09 264.32" fill="#fff"/><path d="M506.13,264.2l0,.11h0v0Z" fill="#189cd9"/><polygon points="500.71 275.72 459.32 280.44 499.93 271.16 500.71 275.72 500.71 275.72" fill="#fff"/><polygon points="502.64 273.44 500.32 315.04 498.01 273.44 502.64 273.44 502.64 273.44" fill="#fff"/><polygon points="378.31 261.65 357.5 215.96 402.86 220.37 428.63 277.53 378.31 261.65" fill="#fff" stroke="#0aadc0" stroke-miterlimit="10" stroke-width="4.63"/><path d="M378.31,335.86v-74.2h.07l50.25,15.86V334C398.62,347.23,378.31,335.86,378.31,335.86Z" fill="#fff" stroke="#0aadc0" stroke-miterlimit="10" stroke-width="4.63"/><path d="M509.85,199.22c13,12.71,10.79,32.81,5.61,48.55-10.46,30.26-34,57-61.82,75.34-20.27,13-52.68,26.53-75.33,12.75,11.92,6,25.78,4.38,38.12.78C441.34,329,463.05,313,481,294.32c13.71-14.64,24.31-29.72,31.32-47.68,5.62-15.13,8.89-33.92-2.44-47.42Z" fill="#fff"/></g></g></svg>